<svg width="2002" height="2173" viewBox="0 0 2002 2173" fill="none" xmlns="http://www.w3.org/2000/svg">
<path d="M956.944 1635.38V2030.48C956.944 2060.87 932.171 2085.64 901.779 2085.64H622.121" stroke="url(#paint0_linear_113_1522)" stroke-width="6" stroke-miterlimit="10"/>
<path d="M1045.06 1635.38V2030.48C1045.06 2060.87 1069.83 2085.64 1100.22 2085.64H1379.62" stroke="url(#paint1_linear_113_1522)" stroke-width="6" stroke-miterlimit="10"/>
<path d="M1315.01 2083.85C1315.01 2061.38 1346.93 2038.91 1411.04 2021.54C1539.25 1987.06 1747.14 1987.06 1875.35 2021.54C1939.45 2038.65 1971.38 2061.12 1971.38 2083.85C1971.38 2106.33 1939.45 2128.8 1875.35 2146.17C1747.14 2180.65 1539.25 2180.65 1411.04 2146.17C1346.93 2129.06 1315.01 2106.33 1315.01 2083.85Z" fill="url(#paint2_linear_113_1522)"/>
<path d="M1351.02 2021.28C1351.02 2041.2 1379.62 2061.38 1436.58 2076.7C1550.74 2107.35 1735.65 2107.35 1849.55 2076.7C1906.5 2061.38 1935.11 2041.46 1935.11 2021.28V2068.28C1935.11 2088.2 1906.5 2108.37 1849.55 2123.7C1735.39 2154.34 1550.48 2154.34 1436.58 2123.7C1379.62 2108.37 1351.02 2088.45 1351.02 2068.28V2021.28V2021.28Z" fill="url(#paint3_linear_113_1522)"/>
<path d="M1351.02 2021.28C1351.02 2001.36 1379.62 1981.19 1436.58 1965.86C1550.74 1935.21 1735.65 1935.21 1849.55 1965.86C1906.5 1981.19 1935.11 2001.11 1935.11 2021.28C1935.11 2041.2 1906.5 2061.38 1849.55 2076.7C1735.39 2107.35 1550.48 2107.35 1436.58 2076.7C1379.62 2061.38 1351.02 2041.46 1351.02 2021.28Z" fill="url(#paint4_linear_113_1522)"/>
<path d="M1403.12 2021.28C1403.12 2004.94 1426.62 1988.34 1473.35 1975.82C1567.08 1950.79 1719.3 1950.79 1813.03 1975.82C1860.02 1988.34 1883.26 2004.94 1883.26 2021.28C1883.26 2037.63 1859.77 2054.23 1813.03 2066.74C1719.3 2091.77 1567.08 2091.77 1473.35 2066.74C1426.36 2054.23 1403.12 2037.88 1403.12 2021.28Z" fill="url(#paint5_linear_113_1522)"/>
<path d="M30.626 2083.85C30.626 2061.38 62.5504 2038.91 126.655 2021.54C254.863 1987.06 462.755 1987.06 590.963 2021.54C655.067 2038.65 686.992 2061.12 686.992 2083.85C686.992 2106.33 655.067 2128.8 590.963 2146.17C462.755 2180.65 254.863 2180.65 126.655 2146.17C62.5504 2129.06 30.626 2106.33 30.626 2083.85Z" fill="url(#paint6_linear_113_1522)"/>
<path d="M66.6365 2021.28C66.6365 2041.2 95.2407 2061.38 152.194 2076.7C266.356 2107.35 451.262 2107.35 565.168 2076.7C622.121 2061.38 650.725 2041.46 650.725 2021.28V2068.28C650.725 2088.2 622.121 2108.37 565.168 2123.7C451.006 2154.34 266.1 2154.34 152.194 2123.7C95.2407 2108.37 66.6365 2088.45 66.6365 2068.28V2021.28V2021.28Z" fill="url(#paint7_linear_113_1522)"/>
<path d="M66.6365 2021.28C66.6365 2001.36 95.2407 1981.19 152.194 1965.86C266.356 1935.21 451.262 1935.21 565.168 1965.86C622.121 1981.19 650.725 2001.11 650.725 2021.28C650.725 2041.2 622.121 2061.38 565.168 2076.7C451.006 2107.35 266.1 2107.35 152.194 2076.7C95.2407 2061.38 66.6365 2041.46 66.6365 2021.28Z" fill="url(#paint8_linear_113_1522)"/>
<path d="M118.483 2021.28C118.483 2004.94 141.98 1988.34 188.717 1975.82C282.447 1950.79 434.662 1950.79 528.393 1975.82C575.385 1988.34 598.626 2004.94 598.626 2021.28C598.626 2037.63 575.13 2054.23 528.393 2066.74C434.662 2091.77 282.447 2091.77 188.717 2066.74C141.98 2054.23 118.483 2037.88 118.483 2021.28Z" fill="url(#paint9_linear_113_1522)"/>
<path d="M1667.2 1501.81C1667.2 1547.52 1602.07 1593.24 1472.08 1627.97C1211.83 1697.7 790.172 1697.7 529.924 1627.97C399.928 1593.24 334.802 1547.52 334.802 1501.81C334.802 1456.09 399.928 1410.38 529.924 1375.64C790.172 1305.92 1211.83 1305.92 1472.08 1375.64C1602.07 1410.38 1667.2 1456.09 1667.2 1501.81Z" fill="url(#paint10_linear_113_1522)"/>
<path d="M1782.64 1500.02C1782.64 1553.65 1706.27 1607.29 1553.8 1648.15C1248.61 1729.88 753.65 1729.88 448.452 1648.15C295.726 1607.29 219.618 1553.65 219.618 1500.02C219.618 1446.39 295.981 1392.76 448.452 1351.89C753.65 1270.17 1248.61 1270.17 1553.8 1351.89C1706.27 1392.76 1782.64 1446.39 1782.64 1500.02Z" stroke="url(#paint11_linear_113_1522)" stroke-width="2" stroke-miterlimit="10"/>
<path d="M2001 1522.24C2001 1590.94 1903.44 1659.39 1708.06 1711.74C1317.56 1816.46 684.438 1816.46 293.938 1711.74C98.561 1659.39 1 1590.94 1 1522.24C1 1453.54 98.561 1385.09 293.938 1332.74C684.438 1228.03 1317.56 1228.03 1708.06 1332.74C1903.44 1385.09 2001 1453.79 2001 1522.24Z" stroke="url(#paint12_linear_113_1522)" stroke-width="2" stroke-miterlimit="10"/>
<path d="M1591.09 1463.5C1591.09 1463.24 1591.09 1463.24 1591.09 1463.5L1533.88 1331.97H467.863L410.91 1463.24V1463.5C408.101 1469.63 406.824 1476.01 406.824 1482.4C406.824 1523.26 464.798 1563.87 581.003 1595.03C813.158 1657.34 1189.35 1657.34 1421.51 1595.03C1537.46 1563.87 1595.69 1523.26 1595.69 1482.4C1595.43 1476.01 1593.9 1469.88 1591.09 1463.5Z" fill="url(#paint13_linear_113_1522)"/>
<path d="M1324.71 1478.06C1130.36 1516.88 871.643 1516.88 677.032 1478.06C667.837 1476.27 658.898 1482.4 657.111 1491.85L644.086 1570.77C642.553 1579.7 648.427 1588.39 657.366 1589.92C862.449 1629 1138.79 1629 1343.87 1589.92C1352.81 1588.13 1358.68 1579.7 1357.15 1570.77L1344.12 1491.85C1343.1 1482.4 1334.16 1476.27 1324.71 1478.06Z" fill="url(#paint14_linear_113_1522)"/>
<path d="M980.441 1585.32C1060.38 1586.09 1140.83 1582.51 1216.43 1574.6" stroke="white" stroke-width="2" stroke-miterlimit="10" stroke-linecap="round" stroke-linejoin="round"/>
<path d="M980.441 1548.29C1087.2 1549.31 1194.46 1542.67 1290.24 1528.37" stroke="white" stroke-width="2" stroke-miterlimit="10" stroke-linecap="round" stroke-linejoin="round"/>
<path d="M1534.9 1339.38C1534.9 1375.9 1482.8 1412.68 1378.6 1440.51C1170.2 1496.45 832.056 1496.45 623.653 1440.51C519.452 1412.68 467.351 1375.9 467.351 1339.38C467.351 1302.86 519.452 1266.08 623.653 1238.24C832.056 1182.31 1170.2 1182.31 1378.6 1238.24C1482.8 1266.08 1534.9 1302.86 1534.9 1339.38Z" fill="url(#paint15_linear_113_1522)"/>
<path d="M1368.13 1323.29C1368.13 1348.57 1332.37 1373.6 1260.61 1392.76C1117.33 1431.06 884.667 1431.06 741.39 1392.76C669.624 1373.6 633.869 1348.32 633.869 1323.29C633.869 1298 669.624 1272.97 741.39 1253.82C884.667 1215.51 1117.33 1215.51 1260.61 1253.82C1332.37 1272.97 1368.13 1298 1368.13 1323.29Z" fill="url(#paint16_linear_113_1522)"/>
<path d="M741.39 1264.55C884.667 1226.24 1117.33 1226.24 1260.61 1264.55C1327.27 1282.42 1362.77 1305.41 1367.62 1328.65C1367.87 1326.86 1368.13 1325.08 1368.13 1323.29C1368.13 1298 1332.37 1272.97 1260.61 1253.82C1117.33 1215.51 884.667 1215.51 741.39 1253.82C669.624 1272.97 633.869 1298.26 633.869 1323.29C633.869 1325.08 634.124 1326.86 634.38 1328.65C639.232 1305.15 674.732 1282.17 741.39 1264.55Z" fill="url(#paint17_linear_113_1522)"/>
<path opacity="0.2" d="M880.836 1596.82C899.737 1596.82 915.059 1581.49 915.059 1562.59C915.059 1543.69 899.737 1528.37 880.836 1528.37C861.935 1528.37 846.613 1543.69 846.613 1562.59C846.613 1581.49 861.935 1596.82 880.836 1596.82Z" stroke="white" stroke-width="2" stroke-miterlimit="10" stroke-linecap="round" stroke-linejoin="round"/>
<path d="M880.837 1584.3C892.826 1584.3 902.545 1574.58 902.545 1562.59C902.545 1550.6 892.826 1540.88 880.837 1540.88C868.847 1540.88 859.128 1550.6 859.128 1562.59C859.128 1574.58 868.847 1584.3 880.837 1584.3Z" stroke="white" stroke-width="3" stroke-miterlimit="10" stroke-linecap="round" stroke-linejoin="round"/>
<path d="M697.974 1550.59C702.064 1550.59 705.38 1547.27 705.38 1543.18C705.38 1539.09 702.064 1535.78 697.974 1535.78C693.883 1535.78 690.567 1539.09 690.567 1543.18C690.567 1547.27 693.883 1550.59 697.974 1550.59Z" fill="white"/>
<path d="M721.981 1554.42C726.072 1554.42 729.388 1551.1 729.388 1547.01C729.388 1542.92 726.072 1539.61 721.981 1539.61C717.891 1539.61 714.575 1542.92 714.575 1547.01C714.575 1551.1 717.891 1554.42 721.981 1554.42Z" fill="white"/>
<path opacity="0.2" d="M745.989 1558C750.08 1558 753.395 1554.68 753.395 1550.59C753.395 1546.5 750.08 1543.18 745.989 1543.18C741.899 1543.18 738.583 1546.5 738.583 1550.59C738.583 1554.68 741.899 1558 745.989 1558Z" fill="white"/>
<path d="M769.995 1561.06C774.086 1561.06 777.402 1557.74 777.402 1553.65C777.402 1549.56 774.086 1546.25 769.995 1546.25C765.905 1546.25 762.589 1549.56 762.589 1553.65C762.589 1557.74 765.905 1561.06 769.995 1561.06Z" fill="white"/>
<path d="M1621.23 754.778C1621.23 712.127 1560.7 669.732 1439.64 637.296C1197.27 572.426 804.729 572.426 562.358 637.296C441.301 669.732 380.772 712.382 380.772 754.778V269.783C380.772 227.132 441.301 184.736 562.358 152.301C804.729 87.4304 1197.27 87.4304 1439.64 152.301C1560.7 184.736 1621.23 227.387 1621.23 269.783V754.778Z" fill="url(#paint18_linear_113_1522)"/>
<path d="M633.869 189.078V1323.03V1328.4H634.38C639.232 1351.64 674.732 1374.62 741.39 1392.5C884.667 1430.81 1117.33 1430.81 1260.61 1392.5C1327.27 1374.62 1362.77 1351.64 1367.62 1328.4H1368.13V189.078H633.869Z" fill="url(#paint19_linear_113_1522)"/>
<path d="M633.869 141.063V252.671V258.034H634.38C639.232 281.275 674.732 304.261 741.39 322.138C884.667 360.448 1117.33 360.448 1260.61 322.138C1327.27 304.261 1362.77 281.275 1367.62 258.034H1368.13V141.063H633.869Z" fill="url(#paint20_linear_113_1522)"/>
<path d="M576.66 114.247C576.66 143.362 618.034 172.477 701.038 194.696C866.789 239.135 1135.47 239.135 1301.22 194.696C1383.96 172.477 1425.59 143.362 1425.59 114.247V182.437C1425.59 211.552 1384.22 240.667 1301.22 262.887C1135.47 307.326 866.789 307.326 701.038 262.887C618.29 240.667 576.66 211.552 576.66 182.437V114.247V114.247Z" fill="url(#paint21_linear_113_1522)"/>
<path d="M576.66 114.247C576.66 85.1316 618.034 56.0166 701.038 33.7972C866.789 -10.3862 1135.47 -10.3862 1300.96 33.7972C1383.71 56.0166 1425.34 85.1316 1425.34 114.247C1425.34 143.362 1383.96 172.477 1300.96 194.696C1135.21 239.135 866.534 239.135 700.782 194.696C618.034 172.477 576.66 143.362 576.66 114.247Z" fill="url(#paint22_linear_113_1522)"/>
<path d="M686.226 114.247C686.226 92.5382 716.873 71.085 778.423 54.4843C901.268 21.5383 1100.73 21.5383 1223.83 54.4843C1285.38 71.085 1316.03 92.5382 1316.03 114.247C1316.03 135.955 1285.38 157.409 1223.83 174.009C1100.99 206.955 901.524 206.955 778.423 174.009C716.873 157.409 686.226 135.955 686.226 114.247Z" fill="url(#paint23_linear_113_1522)"/>
<path d="M740.88 1122.55C737.049 1122.55 733.729 1119.48 733.729 1115.4V818.627C733.729 814.796 736.794 811.476 740.88 811.476C744.711 811.476 748.031 814.54 748.031 818.627V1115.4C748.031 1119.23 744.711 1122.55 740.88 1122.55Z" fill="url(#paint24_linear_113_1522)"/>
<path d="M1224.09 727.451C1220.26 727.451 1216.94 724.386 1216.94 720.3V423.53C1216.94 419.699 1220 416.379 1224.09 416.379C1227.92 416.379 1231.24 419.444 1231.24 423.53V720.3C1231.24 724.386 1227.92 727.451 1224.09 727.451Z" fill="url(#paint25_linear_113_1522)"/>
<path d="M1267.25 1022.43C1263.42 1022.43 1260.1 1019.37 1260.1 1015.28V718.767C1260.1 714.936 1263.16 711.616 1267.25 711.616C1271.08 711.616 1274.4 714.681 1274.4 718.767V1015.54C1274.15 1019.37 1271.08 1022.43 1267.25 1022.43Z" fill="url(#paint26_linear_113_1522)"/>
<path d="M1057.31 1380.5C1053.48 1380.5 1050.16 1377.43 1050.16 1373.35V1076.83C1050.16 1073 1053.23 1069.68 1057.31 1069.68C1061.15 1069.68 1064.47 1072.75 1064.47 1076.83V1373.6C1064.47 1377.43 1061.4 1380.5 1057.31 1380.5Z" fill="url(#paint27_linear_113_1522)"/>
<path d="M913.783 766.526C909.952 766.526 906.632 763.461 906.632 759.375V462.606C906.632 458.775 909.697 455.455 913.783 455.455C917.614 455.455 920.934 458.519 920.934 462.606V759.375C920.934 763.206 917.869 766.526 913.783 766.526Z" fill="url(#paint28_linear_113_1522)"/>
<path d="M809.837 875.58L1001.13 824.501L1192.16 875.58L1001.13 926.914L809.837 875.58Z" fill="url(#paint29_linear_113_1522)"/>
<path d="M809.837 621.717L1001.13 672.796V926.914L809.837 875.58V621.717Z" fill="url(#paint30_linear_113_1522)"/>
<path d="M1001.13 672.796L1192.16 621.717V875.58L1001.13 926.914V672.796Z" fill="url(#paint31_linear_113_1522)"/>
<path d="M809.837 621.717L1001.13 570.383L1192.16 621.717L1001.13 672.796L809.837 621.717Z" fill="url(#paint32_linear_113_1522)"/>
<path d="M1049.65 765.249L1063.95 761.418" stroke="white" stroke-miterlimit="10" stroke-linecap="round" stroke-linejoin="round"/>
<path d="M1049.65 787.469L1063.95 783.638" stroke="white" stroke-miterlimit="10" stroke-linecap="round" stroke-linejoin="round"/>
<path d="M1070.85 825.267C1066.76 824.245 1063.96 819.648 1063.96 813.263V754.523C1063.96 746.35 1068.81 738.177 1074.94 736.645L1118.1 725.152C1119.63 724.897 1120.91 724.897 1122.19 725.152C1126.27 726.174 1129.08 730.771 1129.08 737.156V795.896C1129.08 804.069 1124.23 812.242 1118.1 813.774L1074.94 825.267C1073.66 825.522 1072.13 825.522 1070.85 825.267Z" stroke="white" stroke-miterlimit="10" stroke-linecap="round" stroke-linejoin="round"/>
<path d="M1049.65 809.943L1063.95 806.112" stroke="white" stroke-miterlimit="10" stroke-linecap="round" stroke-linejoin="round"/>
<path d="M1080.05 735.113V715.703" stroke="white" stroke-miterlimit="10" stroke-linecap="round" stroke-linejoin="round"/>
<path d="M1075.19 813.519C1073.4 813.008 1072.13 810.965 1072.13 808.155V755.033C1072.13 751.458 1074.43 747.882 1076.98 747.116L1115.8 736.645C1116.31 736.389 1117.08 736.389 1117.59 736.645C1119.38 737.156 1120.65 739.199 1120.65 742.008V795.13C1120.65 798.706 1118.35 802.281 1115.8 803.048L1076.98 813.519C1076.47 813.519 1075.96 813.519 1075.19 813.519Z" fill="white"/>
<path d="M1096.65 730.771V711.361" stroke="white" stroke-miterlimit="10" stroke-linecap="round" stroke-linejoin="round"/>
<path d="M1080.05 843.145V823.735" stroke="white" stroke-miterlimit="10" stroke-linecap="round" stroke-linejoin="round"/>
<path d="M1112.99 726.174V707.019" stroke="white" stroke-miterlimit="10" stroke-linecap="round" stroke-linejoin="round"/>
<path d="M1096.65 838.803V819.393" stroke="white" stroke-miterlimit="10" stroke-linecap="round" stroke-linejoin="round"/>
<path d="M1129.08 743.796L1143.38 739.965" stroke="white" stroke-miterlimit="10" stroke-linecap="round" stroke-linejoin="round"/>
<path d="M1112.99 834.461V815.051" stroke="white" stroke-miterlimit="10" stroke-linecap="round" stroke-linejoin="round"/>
<path d="M1129.08 766.271L1143.38 762.44" stroke="white" stroke-miterlimit="10" stroke-linecap="round" stroke-linejoin="round"/>
<path d="M1129.08 788.745L1143.38 784.915" stroke="white" stroke-miterlimit="10" stroke-linecap="round" stroke-linejoin="round"/>
<path d="M858.106 704.976C859.128 704.72 860.15 704.72 861.171 704.976L950.049 728.728C954.646 730.005 958.477 736.134 958.477 742.519V815.051C958.477 819.904 956.178 823.479 953.113 824.245C952.092 824.501 951.07 824.501 950.049 824.245L861.171 800.494C856.574 799.217 852.743 793.087 852.743 786.702V714.17C852.743 709.318 854.786 705.742 858.106 704.976Z" stroke="white" stroke-miterlimit="10" stroke-linecap="round" stroke-linejoin="round"/>
<path d="M894.116 755.544L916.847 761.674V789.767L894.116 783.638V755.544Z" fill="white"/>
<path d="M898.458 747.627L912.505 751.458V760.652L898.458 756.821V747.627Z" stroke="white" stroke-miterlimit="10" stroke-linecap="round" stroke-linejoin="round"/>
<path d="M883.135 832.418L927.83 844.422V849.785L883.135 837.781V832.418Z" stroke="white" stroke-miterlimit="10" stroke-linecap="round" stroke-linejoin="round"/>
<path d="M895.905 809.943L915.059 815.051V840.846L895.905 835.738V809.943Z" stroke="white" stroke-miterlimit="10" stroke-linecap="round" stroke-linejoin="round"/>
<path d="M905.354 812.497V786.702" stroke="white" stroke-miterlimit="10" stroke-linecap="round" stroke-linejoin="round"/>
<path d="M1439.64 394.926C1408.74 403.354 1375.28 410.505 1340.04 416.635C1319.1 420.21 1303.77 438.599 1303.77 460.052V855.659C1303.77 883.242 1328.8 903.929 1355.87 898.821C1385.24 893.202 1413.34 887.073 1439.64 879.922C1560.7 847.487 1621.23 804.836 1621.23 762.44V277.444C1621.23 319.84 1560.7 362.491 1439.64 394.926Z" fill="url(#paint33_linear_113_1522)"/>
<path d="M1399.8 484.57C1399.8 484.57 1470.8 469.757 1527.5 447.027" stroke="white" stroke-width="6" stroke-miterlimit="10" stroke-linecap="round" stroke-linejoin="round"/>
<path d="M1399.8 526.455C1399.8 526.455 1435.3 519.048 1476.16 506.534" stroke="white" stroke-width="6" stroke-miterlimit="10" stroke-linecap="round" stroke-linejoin="round"/>
<g opacity="0.4">
<path opacity="0.4" d="M1551.14 710.703C1566.11 654.844 1547.43 601.305 1509.42 591.12C1471.41 580.936 1428.46 617.962 1413.49 673.821C1398.53 729.68 1417.21 783.218 1455.22 793.403C1493.23 803.588 1536.18 766.561 1551.14 710.703Z" stroke="white" stroke-width="6" stroke-miterlimit="10"/>
</g>
<path d="M1455.22 793.343C1417.17 783.127 1398.52 729.749 1413.34 673.818C1428.4 617.886 1471.31 581.109 1509.36 591.07" stroke="white" stroke-width="6" stroke-miterlimit="10" stroke-linecap="round" stroke-linejoin="round"/>
<path d="M698.229 459.796C698.229 438.599 682.905 420.21 661.963 416.379C626.718 410.25 593.261 402.843 562.358 394.671C441.301 362.235 380.772 319.584 380.772 277.189V762.184C380.772 804.835 441.301 847.231 562.358 879.666C588.664 886.817 616.758 892.947 646.128 898.565C673.2 903.673 698.229 882.986 698.229 855.404V459.796Z" fill="url(#paint34_linear_113_1522)"/>
<path opacity="0.5" d="M442.068 725.152V684.544" stroke="white" stroke-width="6" stroke-miterlimit="10" stroke-linecap="round" stroke-linejoin="round"/>
<path d="M501.575 749.67V581.62" stroke="white" stroke-width="6" stroke-miterlimit="10" stroke-linecap="round" stroke-linejoin="round"/>
<path opacity="0.5" d="M560.826 767.292V644.703" stroke="white" stroke-width="6" stroke-miterlimit="10" stroke-linecap="round" stroke-linejoin="round"/>
<path d="M620.333 780.573V544.588" stroke="white" stroke-width="6" stroke-miterlimit="10" stroke-linecap="round" stroke-linejoin="round"/>
<path d="M1782.13 1270.42C1770.12 1209.13 1748.41 1115.91 1746.11 1083.47C1742.54 1038.27 1811.75 1019.88 1824.01 1081.43C1841.89 1170.31 1849.04 1216.53 1856.19 1259.95C1864.87 1314.86 1792.34 1322.52 1782.13 1270.42Z" fill="url(#paint35_linear_113_1522)"/>
<path d="M1777.53 1442.56C1782.38 1384.07 1781.1 1318.44 1783.15 1277.83C1786.21 1223.68 1861.04 1229.81 1856.45 1277.83C1851.85 1325.84 1825.54 1435.92 1825.54 1442.56C1825.54 1449.2 1827.84 1466.56 1832.18 1480.1C1835.76 1491.59 1841.12 1515.09 1842.14 1520.2C1843.17 1525.31 1834.48 1529.65 1831.42 1521.99C1828.1 1513.3 1820.69 1490.57 1820.69 1490.57C1820.69 1490.57 1826.31 1525.82 1827.08 1536.29C1827.33 1542.42 1816.35 1544.46 1814.56 1534.5C1812.26 1521.47 1807.67 1495.42 1807.67 1495.42C1807.67 1495.42 1809.45 1535.01 1810.22 1543.69C1810.99 1552.89 1798.73 1554.16 1797.45 1545.23C1794.9 1527.35 1791.83 1497.21 1791.83 1497.21C1791.83 1497.21 1791.32 1528.63 1791.32 1539.35C1791.32 1548.04 1780.08 1548.04 1779.32 1539.61C1777.78 1524.28 1776.25 1496.7 1776.25 1491.08C1776.25 1487.25 1763.74 1504.62 1755.31 1508.7C1746.88 1512.79 1739.99 1504.36 1748.92 1493.89C1757.86 1483.42 1762.97 1478.57 1764.76 1466.31C1766.55 1453.54 1777.02 1449.2 1777.53 1442.56Z" fill="url(#paint36_linear_113_1522)"/>
<path d="M1764.76 1878.26C1764.76 1878.26 1753.78 1960.5 1756.59 1998.3C1758.38 2022.56 1749.18 2026.14 1713.43 2024.86C1677.67 2023.58 1644.21 1999.06 1669.5 1996.51C1710.87 1992.17 1696.57 1962.8 1699.63 1865.24L1764.76 1878.26Z" fill="url(#paint37_linear_113_1522)"/>
<path d="M1763.23 1905.84C1763.23 1905.84 1784.43 1820.29 1776.25 1704.08C1772.17 1646.11 1784.17 1602.69 1798.47 1536.03C1818.65 1442.56 1818.9 1367.98 1782.64 1279.87L1677.42 1285.74C1677.42 1285.74 1680.74 1429.79 1683.29 1519.94C1686.1 1619.04 1696.06 1906.1 1696.06 1906.1C1696.06 1906.1 1722.62 1919.64 1763.23 1905.84Z" fill="url(#paint38_linear_113_1522)"/>
<path d="M1702.7 1971.48C1709.6 1986.29 1737.18 1995.49 1756.84 1978.63C1773.44 2019.24 1769.87 2049.12 1718.79 2035.84C1683.8 2026.65 1672.31 2020.01 1656.73 2011.58C1642.17 2003.66 1643.19 1985.53 1663.11 1986.04C1696.57 1986.8 1693.76 1965.61 1697.34 1954.11C1699.12 1948.5 1699.12 1963.56 1702.7 1971.48Z" fill="url(#paint39_linear_113_1522)"/>
<path d="M1721.09 2028.94C1686.1 2019.75 1674.61 2013.11 1659.03 2004.68C1652.64 2001.36 1649.32 1996 1649.07 1991.15C1644.47 1997.02 1647.02 2006.47 1656.73 2011.58C1672.31 2020.01 1684.06 2026.65 1718.79 2035.84C1748.93 2043.76 1762.46 2036.61 1765.27 2021.03C1759.91 2031.5 1746.37 2035.58 1721.09 2028.94Z" fill="url(#paint40_linear_113_1522)"/>
<path d="M1634 1887.2C1634 1887.2 1623.02 1969.44 1625.83 2007.24C1627.61 2031.5 1618.42 2035.07 1582.66 2033.8C1546.91 2032.52 1505.79 2031.24 1495.32 2024.86C1484.85 2018.22 1505.28 2009.28 1530.56 2006.73C1571.94 2002.38 1565.81 1971.74 1568.87 1874.18L1634 1887.2Z" fill="url(#paint41_linear_113_1522)"/>
<path d="M1632.47 1914.78C1632.47 1914.78 1659.28 1830.25 1651.11 1714.04C1647.02 1656.07 1661.58 1631.55 1683.8 1569.49C1708.57 1500.28 1733.86 1379.99 1706.27 1285.74L1577.04 1307.71C1577.04 1307.71 1550.23 1438.47 1552.53 1528.63C1555.34 1627.72 1565.3 1914.78 1565.3 1914.78C1565.3 1914.78 1592.11 1928.32 1632.47 1914.78Z" fill="url(#paint42_linear_113_1522)"/>
<path d="M1632.72 2034.82C1632.72 2034.82 1631.44 2012.34 1625.31 1995.23C1625.31 1995.23 1608.97 2004.43 1590.58 1998.04C1569.38 1990.64 1570.92 1967.39 1564.53 1971.48C1558.91 1975.06 1563.76 1990.64 1533.88 1999.32C1487.15 2013.11 1476.16 2017.71 1478.46 2030.48C1481.27 2045.8 1583.17 2051.93 1606.93 2051.93C1631.19 2052.19 1633.23 2040.44 1632.72 2034.82Z" fill="url(#paint43_linear_113_1522)"/>
<path d="M1479.48 2022.82C1479.48 2023.07 1479.48 2023.33 1479.48 2023.58C1482.29 2038.91 1578.83 2043.5 1602.84 2043.5C1619.19 2043.5 1630.68 2039.42 1632.72 2034.31C1632.72 2034.56 1632.72 2034.82 1632.72 2034.82C1632.98 2040.18 1630.93 2052.19 1607.18 2052.19C1583.17 2052.19 1481.27 2046.06 1478.72 2030.73C1478.21 2027.67 1478.21 2025.11 1479.48 2022.82Z" fill="url(#paint44_linear_113_1522)"/>
<path d="M1624.8 1033.67C1624.8 1033.67 1652.64 1023.2 1660.56 1011.71C1672.31 994.594 1672.56 971.098 1672.56 971.098H1736.16C1736.16 971.098 1740.24 1026.52 1773.44 1034.95C1773.44 1034.95 1785.19 1080.92 1708.06 1076.83C1634.51 1073 1624.8 1033.67 1624.8 1033.67Z" fill="url(#paint45_linear_113_1522)"/>
<path d="M1563.77 1351.38C1569.38 1366.96 1740.24 1402.72 1806.14 1343.72C1806.14 1343.72 1783.4 1278.08 1802.56 1195.59C1825.03 1098.03 1822.99 1054.36 1796.17 1043.12C1788 1039.8 1769.61 1032.65 1769.61 1032.65C1777.02 1061 1685.08 1071.98 1635.02 1027.28C1607.18 1038.27 1571.43 1054.1 1568.11 1089.35C1563.51 1139.66 1547.93 1149.11 1553.04 1171.58C1559.68 1201.72 1579.85 1201.72 1580.11 1267.61C1580.37 1308.47 1563.77 1351.38 1563.77 1351.38Z" fill="url(#paint46_linear_113_1522)"/>
<path d="M1760.42 932.022C1762.46 851.828 1698.1 842.634 1665.67 857.958C1633.23 873.281 1634.25 920.019 1631.44 930.745C1628.63 941.216 1623.02 942.493 1623.02 945.558C1623.02 950.921 1630.42 951.688 1630.42 951.688C1630.42 951.688 1625.31 985.144 1644.47 993.062C1665.92 1001.49 1758.38 1012.22 1760.42 932.022Z" fill="url(#paint47_linear_113_1522)"/>
<path d="M1638.59 891.67C1638.59 891.67 1634.25 842.634 1686.1 831.652C1737.94 820.67 1796.68 847.742 1794.9 915.166C1793.11 982.591 1794.13 1014.77 1813.54 1023.71C1813.54 1023.71 1781.11 1073.26 1713.68 1062.02C1646 1050.78 1640.38 1000.72 1654.17 974.163C1667.71 947.601 1683.54 930.745 1674.61 913.123C1665.67 895.501 1640.13 889.371 1647.53 874.048C1647.53 873.792 1642.43 880.688 1638.59 891.67Z" fill="url(#paint48_linear_113_1522)"/>
<path d="M1509.11 1268.12C1525.45 1207.85 1556.87 1104.67 1569.64 1074.79C1587.52 1033.16 1653.41 1049.5 1636.81 1120.5C1616.63 1207.08 1597.99 1249.22 1583.94 1290.85C1565.04 1347.55 1491.23 1333.25 1509.11 1268.12Z" fill="url(#paint49_linear_113_1522)"/>
<path d="M1361.23 1115.14C1361.23 1115.14 1357.66 1138.38 1354.85 1143.74C1352.04 1149.11 1347.95 1148.09 1347.19 1146.3C1346.42 1144.51 1348.47 1113.1 1348.47 1113.1L1361.23 1115.14Z" fill="url(#paint50_linear_113_1522)"/>
<path d="M1392.65 1166.73C1380.9 1151.92 1361.75 1146.04 1356.64 1138.89C1351.53 1131.74 1346.93 1121.78 1346.93 1121.78C1346.93 1121.78 1344.89 1129.19 1343.87 1136.34C1342.59 1143.23 1337.99 1147.06 1334.93 1144.77C1331.86 1142.47 1333.65 1126.12 1334.42 1115.91C1335.19 1105.69 1343.1 1105.95 1343.1 1105.95C1343.61 1095.22 1354.85 1098.28 1354.85 1098.28C1358.17 1088.83 1367.62 1092.41 1367.62 1092.41C1367.62 1092.41 1353.06 1067.38 1348.21 1059.21C1343.87 1051.8 1353.32 1043.89 1359.45 1053.33C1362.51 1058.19 1383.71 1083.47 1399.54 1105.44C1413.08 1124.33 1414.61 1129.19 1421.25 1135.83C1453.18 1168.01 1501.96 1195.33 1560.95 1250.5C1614.59 1300.81 1550.99 1342.95 1517.28 1316.39C1485.1 1291.36 1422.79 1205.04 1392.65 1166.73Z" fill="url(#paint51_linear_113_1522)"/>
<path d="M233.666 981.569C233.666 981.569 247.201 962.67 245.158 938.152C243.881 923.083 229.324 876.601 248.989 840.335C268.91 803.814 329.439 813.774 342.975 831.396C356.511 849.019 360.597 866.13 359.065 884.774C357.277 903.418 363.151 903.929 366.216 908.526C369.025 913.123 357.277 918.486 357.277 918.486C357.277 918.486 357.021 955.519 341.698 963.436C334.036 967.267 326.374 965.224 326.374 965.224L325.352 996.126L233.666 981.569Z" fill="url(#paint52_linear_113_1522)"/>
<path d="M236.985 935.087C217.575 901.63 220.129 868.94 226.514 846.465C234.687 817.861 254.097 816.073 254.097 816.073C254.097 816.073 263.291 795.386 296.492 793.598C326.118 792.066 360.341 798.451 366.471 821.947C371.834 842.123 362.384 849.785 354.722 852.084C347.827 854.127 342.208 857.191 349.359 875.069C356.51 892.691 339.143 903.163 340.165 915.677C341.187 928.191 353.19 918.997 357.276 918.997C361.618 918.997 360.597 938.152 358.809 945.303C355.233 958.839 346.55 967.011 335.057 964.968C320.755 962.159 329.694 937.13 331.226 914.911C332.758 892.691 330.715 885.796 320.244 883.753C304.41 880.688 290.618 906.483 311.305 921.551C315.392 924.36 319.733 935.342 305.687 949.389C292.406 962.414 252.054 961.137 236.985 935.087Z" fill="url(#paint53_linear_113_1522)"/>
<path d="M359.32 1152.17C339.654 1128.42 276.827 1045.16 246.435 1014.26C205.316 972.63 139.68 1030.09 174.669 1070.96C230.856 1136.59 280.403 1186.91 303.388 1207.34C337.356 1237.47 394.053 1194.06 359.32 1152.17Z" fill="url(#paint54_linear_113_1522)"/>
<path d="M480.122 1212.7C480.122 1212.7 522.773 1222.15 531.712 1221.64C540.65 1221.13 548.568 1221.9 549.589 1226.75C549.589 1226.75 569.255 1231.6 571.809 1233.39C574.363 1235.18 574.363 1241.05 574.363 1241.05C574.363 1241.05 586.366 1248.71 589.686 1251.01C593.006 1253.56 595.56 1257.65 595.56 1260.46C595.56 1263.27 595.305 1275.78 594.028 1276.81C592.751 1277.83 588.154 1276.04 586.622 1271.7C585.089 1267.36 584.323 1261.23 584.323 1261.23L574.618 1255.61C574.618 1255.61 595.816 1286.51 596.327 1288.55C596.837 1290.6 591.73 1293.66 586.111 1288.81C580.492 1283.96 572.575 1273.49 572.575 1273.49L557.251 1265.82C557.251 1265.82 539.629 1264.04 532.989 1266.59C526.348 1269.4 535.798 1276.3 540.395 1280.38C545.248 1284.47 550.355 1288.04 546.78 1292.64C542.183 1298.77 536.309 1293.66 528.392 1288.81C520.474 1283.96 510.514 1277.32 502.086 1266.59C493.658 1255.86 475.014 1250.76 475.014 1250.76L480.122 1212.7Z" fill="url(#paint55_linear_113_1522)"/>
<path d="M487.273 1207.85C487.273 1207.85 381.029 1157.79 353.701 1146.3C326.629 1134.81 297.77 1150.9 292.151 1174.14C286.532 1197.38 305.942 1218.32 350.381 1229.81C394.82 1241.31 481.144 1258.16 481.144 1258.16C481.144 1258.16 502.852 1229.56 487.273 1207.85Z" fill="url(#paint56_linear_113_1522)"/>
<path d="M186.417 1914.78C186.417 1914.78 186.672 1940.83 179.521 1965.35C172.37 1990.12 169.05 2002.64 168.795 2016.17C168.284 2029.71 180.032 2049.89 241.582 2032.78C282.956 2021.28 317.946 2009.02 320.755 1988.08C323.564 1967.14 302.366 1968.42 278.87 1968.67C247.201 1968.93 250.266 1919.12 250.266 1919.12L186.417 1914.78Z" fill="url(#paint57_linear_113_1522)"/>
<path d="M320.499 1988.08C320.755 1986.04 320.755 1984.25 320.755 1982.72C319.733 1985.53 318.201 1988.34 315.391 1991.66C306.197 2002.64 248.223 2024.35 210.169 2029.46C190.503 2032.01 177.478 2027.67 169.561 2022.56C173.136 2034.82 189.482 2047.33 241.582 2032.78C282.701 2021.28 317.69 2009.02 320.499 1988.08Z" fill="url(#paint58_linear_113_1522)"/>
<path d="M149.895 1319.2C149.895 1319.2 142.488 1352.15 150.661 1419.83C160.366 1500.02 182.33 1549.06 179.776 1566.42C177.222 1584.05 173.902 1693.36 177.988 1807.01C181.308 1898.69 184.373 1929.6 184.373 1929.6C204.039 1942.11 229.578 1941.85 248.988 1928.57L250.521 1927.55C250.521 1927.55 290.618 1623.38 291.639 1596.31C292.661 1569.23 296.747 1315.88 296.747 1315.88L149.895 1319.2Z" fill="url(#paint59_linear_113_1522)"/>
<path d="M373.111 1957.18C373.111 1957.18 377.197 1992.17 371.578 2021.79C365.194 2055 378.729 2065.72 394.819 2066.23C444.366 2067.25 510.769 2059.08 548.056 2049.89C571.042 2044.27 565.423 2011.32 528.902 2008C455.093 2001.36 439.514 1953.6 439.514 1953.6L373.111 1957.18Z" fill="url(#paint60_linear_113_1522)"/>
<path d="M219.618 1311.28L391.755 1320.73C391.755 1320.73 405.291 1403.99 417.039 1462.48C426.999 1512.79 428.021 1567.45 428.021 1599.11C428.021 1630.78 439.769 1957.43 439.769 1957.43C396.096 1974.03 373.111 1957.43 373.111 1957.43C373.111 1957.43 313.604 1734.22 309.262 1668.84C304.92 1603.46 304.92 1580.98 298.025 1569.23C285.766 1548.29 235.197 1409.87 219.618 1311.28Z" fill="url(#paint61_linear_113_1522)"/>
<path d="M370.301 2042.74C380.517 2066.23 520.218 2046.57 537.33 2042.23C545.247 2040.18 562.614 2034.82 560.571 2027.67C564.146 2037.12 559.805 2047.08 548.056 2050.14C511.024 2059.34 444.366 2067.25 394.819 2066.49C382.816 2065.98 372.344 2059.85 370.301 2042.74Z" fill="url(#paint62_linear_113_1522)"/>
<path d="M202.251 999.957C202.251 999.957 212.722 976.972 221.661 972.119C240.305 962.159 304.665 969.565 323.309 980.803C341.952 992.04 347.827 1021.41 347.827 1021.41L202.251 999.957Z" fill="url(#paint63_linear_113_1522)"/>
<path d="M406.567 1334.78C406.567 1334.78 353.445 1398.37 220.129 1389.69C144.532 1384.84 125.377 1347.04 132.273 1333.25C139.169 1319.46 174.413 1208.87 158.834 1106.2C143.255 1003.53 182.841 988.209 217.064 982.846C251.287 977.483 395.585 985.911 390.222 1065.59C384.859 1144.77 348.593 1243.86 406.567 1334.78Z" fill="url(#paint64_linear_113_1522)"/>
<path d="M530.69 1050.53C501.575 1040.57 388.179 1012.22 345.784 1003.53C303.388 994.849 256.14 1068.66 337.867 1095.73C419.848 1123.06 489.316 1128.17 519.963 1131.49C565.424 1136.08 593.517 1071.98 530.69 1050.53Z" fill="url(#paint65_linear_113_1522)"/>
<path d="M692.866 935.342C692.866 935.342 696.442 958.583 699.251 963.947C702.06 969.31 706.147 968.288 706.913 966.501C707.679 964.713 705.636 933.299 705.636 933.299L692.866 935.342Z" fill="url(#paint66_linear_113_1522)"/>
<path d="M623.143 969.31C623.143 969.31 640.766 944.792 654.301 925.893C669.881 903.929 691.078 878.645 694.399 873.792C700.528 864.343 709.978 872.26 705.636 879.666C700.783 888.094 686.226 912.868 686.226 912.868C686.226 912.868 695.676 909.292 698.996 918.742C698.996 918.742 710.233 915.422 710.744 926.404C710.744 926.404 718.916 926.148 719.427 936.364C720.193 946.58 721.981 962.925 718.917 965.224C715.852 967.522 711.255 963.691 709.978 956.796C708.701 949.9 706.913 942.238 706.913 942.238C706.913 942.238 702.316 951.943 697.208 959.35C692.1 966.501 673.201 972.63 661.197 987.188L623.143 969.31Z" fill="url(#paint67_linear_113_1522)"/>
<path d="M622.888 961.903C622.888 961.903 526.604 1036.73 504.384 1056.14C482.165 1075.55 485.74 1108.5 504.129 1123.57C522.517 1138.64 553.42 1129.44 583.301 1094.45C613.183 1059.46 665.794 988.975 665.794 988.975C665.794 988.975 649.449 957.051 622.888 961.903Z" fill="url(#paint68_linear_113_1522)"/>
<defs>
<linearGradient id="paint0_linear_113_1522" x1="733.566" y1="1735.65" x2="902.509" y2="2099.42" gradientUnits="userSpaceOnUse">
<stop stop-color="#ECF0F8"/>
<stop offset="1" stop-color="#AEBDDF"/>
</linearGradient>
<linearGradient id="paint1_linear_113_1522" x1="1268.46" y1="1735.65" x2="1099.51" y2="2099.42" gradientUnits="userSpaceOnUse">
<stop stop-color="#ECF0F8"/>
<stop offset="1" stop-color="#AEBDDF"/>
</linearGradient>
<linearGradient id="paint2_linear_113_1522" x1="1643.23" y1="2239.63" x2="1643.23" y2="2042.2" gradientUnits="userSpaceOnUse">
<stop stop-color="white"/>
<stop offset="1" stop-color="#AEBDDF"/>
</linearGradient>
<linearGradient id="paint3_linear_113_1522" x1="1643.23" y1="2143.43" x2="1643.23" y2="1879.58" gradientUnits="userSpaceOnUse">
<stop stop-color="white"/>
<stop offset="1" stop-color="#AEBDDF"/>
</linearGradient>
<linearGradient id="paint4_linear_113_1522" x1="1643.23" y1="1768.66" x2="1643.23" y2="2275.49" gradientUnits="userSpaceOnUse">
<stop stop-color="white"/>
<stop offset="1" stop-color="#AEBDDF"/>
</linearGradient>
<linearGradient id="paint5_linear_113_1522" x1="1643.23" y1="1865.6" x2="1643.23" y2="2325.47" gradientUnits="userSpaceOnUse">
<stop stop-color="#ACBDDE"/>
<stop offset="1" stop-color="#2E405C"/>
</linearGradient>
<linearGradient id="paint6_linear_113_1522" x1="358.79" y1="2232.97" x2="358.79" y2="2043.75" gradientUnits="userSpaceOnUse">
<stop stop-color="white"/>
<stop offset="1" stop-color="#AEBDDF"/>
</linearGradient>
<linearGradient id="paint7_linear_113_1522" x1="358.789" y1="2141.43" x2="358.789" y2="1938.92" gradientUnits="userSpaceOnUse">
<stop stop-color="white"/>
<stop offset="1" stop-color="#AEBDDF"/>
</linearGradient>
<linearGradient id="paint8_linear_113_1522" x1="358.789" y1="1768.66" x2="358.789" y2="2275.49" gradientUnits="userSpaceOnUse">
<stop stop-color="white"/>
<stop offset="1" stop-color="#AEBDDF"/>
</linearGradient>
<linearGradient id="paint9_linear_113_1522" x1="358.791" y1="1865.6" x2="358.791" y2="2325.47" gradientUnits="userSpaceOnUse">
<stop stop-color="#ACBDDE"/>
<stop offset="1" stop-color="#2E405C"/>
</linearGradient>
<linearGradient id="paint10_linear_113_1522" x1="1001.01" y1="1760.37" x2="1001.01" y2="1347.23" gradientUnits="userSpaceOnUse">
<stop stop-color="white"/>
<stop offset="1" stop-color="#AEBDDF"/>
</linearGradient>
<linearGradient id="paint11_linear_113_1522" x1="216.821" y1="1500.04" x2="1785.2" y2="1500.04" gradientUnits="userSpaceOnUse">
<stop stop-color="#ECF0F8"/>
<stop offset="1" stop-color="#AEBDDF"/>
</linearGradient>
<linearGradient id="paint12_linear_113_1522" x1="-1.55395" y1="1522.27" x2="2003.58" y2="1522.27" gradientUnits="userSpaceOnUse">
<stop stop-color="#ECF0F8"/>
<stop offset="1" stop-color="#AEBDDF"/>
</linearGradient>
<linearGradient id="paint13_linear_113_1522" x1="1001.01" y1="1653.73" x2="1001.01" y2="709.107" gradientUnits="userSpaceOnUse">
<stop stop-color="white"/>
<stop offset="1" stop-color="#AEBDDF"/>
</linearGradient>
<linearGradient id="paint14_linear_113_1522" x1="587.271" y1="1548.46" x2="1405.76" y2="1548.46" gradientUnits="userSpaceOnUse">
<stop stop-color="#ACBDDE"/>
<stop offset="1" stop-color="#2E405C"/>
</linearGradient>
<linearGradient id="paint15_linear_113_1522" x1="1001.01" y1="1075.88" x2="1001.01" y2="1658.61" gradientUnits="userSpaceOnUse">
<stop stop-color="white"/>
<stop offset="1" stop-color="#AEBDDF"/>
</linearGradient>
<linearGradient id="paint16_linear_113_1522" x1="1001.01" y1="800.27" x2="1001.01" y2="1408.89" gradientUnits="userSpaceOnUse">
<stop stop-color="#79D985"/>
<stop offset="1" stop-color="#027A71"/>
</linearGradient>
<linearGradient id="paint17_linear_113_1522" x1="1001.01" y1="1079.51" x2="1001.01" y2="1267.06" gradientUnits="userSpaceOnUse">
<stop stop-color="white"/>
<stop offset="1" stop-color="#AEBDDF"/>
</linearGradient>
<linearGradient id="paint18_linear_113_1522" x1="1001.01" y1="599.396" x2="1001.01" y2="-82.2923" gradientUnits="userSpaceOnUse">
<stop stop-color="#FFEFA4" stop-opacity="0.1"/>
<stop offset="1" stop-color="#FE8F01"/>
</linearGradient>
<linearGradient id="paint19_linear_113_1522" x1="630.021" y1="805.405" x2="1537.35" y2="805.405" gradientUnits="userSpaceOnUse">
<stop stop-color="#79D985" stop-opacity="0.2"/>
<stop offset="1" stop-color="#027A71"/>
</linearGradient>
<linearGradient id="paint20_linear_113_1522" x1="278.242" y1="245.963" x2="1631.1" y2="245.963" gradientUnits="userSpaceOnUse">
<stop stop-color="#79D985" stop-opacity="0.2"/>
<stop offset="1" stop-color="#027A71"/>
</linearGradient>
<linearGradient id="paint21_linear_113_1522" x1="1001.01" y1="278.597" x2="1001.01" y2="-49.6906" gradientUnits="userSpaceOnUse">
<stop stop-color="white"/>
<stop offset="1" stop-color="#AEBDDF"/>
</linearGradient>
<linearGradient id="paint22_linear_113_1522" x1="1001.01" y1="-111.158" x2="1001.01" y2="404.707" gradientUnits="userSpaceOnUse">
<stop stop-color="white"/>
<stop offset="1" stop-color="#AEBDDF"/>
</linearGradient>
<linearGradient id="paint23_linear_113_1522" x1="1001.01" y1="-133.145" x2="1001.01" y2="367.325" gradientUnits="userSpaceOnUse">
<stop stop-color="#ACBDDE"/>
<stop offset="1" stop-color="#2E405C"/>
</linearGradient>
<linearGradient id="paint24_linear_113_1522" x1="740.891" y1="821.309" x2="740.891" y2="1105.16" gradientUnits="userSpaceOnUse">
<stop stop-color="white" stop-opacity="0.8"/>
<stop offset="1" stop-color="white" stop-opacity="0"/>
</linearGradient>
<linearGradient id="paint25_linear_113_1522" x1="1224.06" y1="426.256" x2="1224.06" y2="710.103" gradientUnits="userSpaceOnUse">
<stop stop-color="white" stop-opacity="0.8"/>
<stop offset="1" stop-color="white" stop-opacity="0"/>
</linearGradient>
<linearGradient id="paint26_linear_113_1522" x1="1267.14" y1="721.309" x2="1267.14" y2="1005.16" gradientUnits="userSpaceOnUse">
<stop stop-color="white" stop-opacity="0.8"/>
<stop offset="1" stop-color="white" stop-opacity="0"/>
</linearGradient>
<linearGradient id="paint27_linear_113_1522" x1="1057.41" y1="1079.36" x2="1057.41" y2="1363.21" gradientUnits="userSpaceOnUse">
<stop stop-color="white" stop-opacity="0.8"/>
<stop offset="1" stop-color="white" stop-opacity="0"/>
</linearGradient>
<linearGradient id="paint28_linear_113_1522" x1="913.836" y1="465.295" x2="913.836" y2="749.142" gradientUnits="userSpaceOnUse">
<stop stop-color="white" stop-opacity="0.8"/>
<stop offset="1" stop-color="white" stop-opacity="0"/>
</linearGradient>
<linearGradient id="paint29_linear_113_1522" x1="1001.01" y1="704.11" x2="1001.01" y2="894.824" gradientUnits="userSpaceOnUse">
<stop stop-color="white" stop-opacity="0.8"/>
<stop offset="1" stop-color="white" stop-opacity="0"/>
</linearGradient>
<linearGradient id="paint30_linear_113_1522" x1="787.256" y1="774.222" x2="1101.95" y2="774.222" gradientUnits="userSpaceOnUse">
<stop stop-color="white" stop-opacity="0.8"/>
<stop offset="1" stop-color="white" stop-opacity="0"/>
</linearGradient>
<linearGradient id="paint31_linear_113_1522" x1="1096.54" y1="900.873" x2="1096.54" y2="624.118" gradientUnits="userSpaceOnUse">
<stop stop-color="white" stop-opacity="0.8"/>
<stop offset="1" stop-color="white" stop-opacity="0"/>
</linearGradient>
<linearGradient id="paint32_linear_113_1522" x1="1001.01" y1="667.686" x2="1001.01" y2="488.531" gradientUnits="userSpaceOnUse">
<stop stop-color="white" stop-opacity="0.8"/>
<stop offset="1" stop-color="white" stop-opacity="0"/>
</linearGradient>
<linearGradient id="paint33_linear_113_1522" x1="995.792" y1="588.462" x2="1620.62" y2="588.462" gradientUnits="userSpaceOnUse">
<stop stop-color="#FFEFA4" stop-opacity="0.1"/>
<stop offset="1" stop-color="#FE8F01"/>
</linearGradient>
<linearGradient id="paint34_linear_113_1522" x1="1001.79" y1="588.461" x2="381.149" y2="588.461" gradientUnits="userSpaceOnUse">
<stop stop-color="#FFEFA4" stop-opacity="0.1"/>
<stop offset="1" stop-color="#FE8F01"/>
</linearGradient>
<linearGradient id="paint35_linear_113_1522" x1="1845.6" y1="1764.82" x2="1782.9" y2="928.823" gradientUnits="userSpaceOnUse">
<stop stop-color="#FFD2BB"/>
<stop offset="1" stop-color="#FF6B5A"/>
</linearGradient>
<linearGradient id="paint36_linear_113_1522" x1="1828.96" y1="1764.51" x2="1766.04" y2="925.662" gradientUnits="userSpaceOnUse">
<stop stop-color="#FFD2BB"/>
<stop offset="1" stop-color="#FF6B5A"/>
</linearGradient>
<linearGradient id="paint37_linear_113_1522" x1="1612" y1="1928.06" x2="1848.81" y2="1971.44" gradientUnits="userSpaceOnUse">
<stop stop-color="#FFD2BB"/>
<stop offset="1" stop-color="#FF6B5A"/>
</linearGradient>
<linearGradient id="paint38_linear_113_1522" x1="1744.73" y1="2091.19" x2="1744.73" y2="1342.03" gradientUnits="userSpaceOnUse">
<stop stop-color="#ACBDDE"/>
<stop offset="1" stop-color="#2E405C"/>
</linearGradient>
<linearGradient id="paint39_linear_113_1522" x1="1657.24" y1="1989.43" x2="1901.02" y2="2015.72" gradientUnits="userSpaceOnUse">
<stop stop-color="white"/>
<stop offset="1" stop-color="#AEBDDF"/>
</linearGradient>
<linearGradient id="paint40_linear_113_1522" x1="1614.8" y1="1917.51" x2="1746.72" y2="2053.92" gradientUnits="userSpaceOnUse">
<stop stop-color="white"/>
<stop offset="1" stop-color="#AEBDDF"/>
</linearGradient>
<linearGradient id="paint41_linear_113_1522" x1="1424.69" y1="1930.36" x2="1747.67" y2="1989.53" gradientUnits="userSpaceOnUse">
<stop stop-color="#FFD2BB"/>
<stop offset="1" stop-color="#FF6B5A"/>
</linearGradient>
<linearGradient id="paint42_linear_113_1522" x1="1635.29" y1="2100.86" x2="1635.29" y2="1348.15" gradientUnits="userSpaceOnUse">
<stop stop-color="#ACBDDE"/>
<stop offset="1" stop-color="#2E405C"/>
</linearGradient>
<linearGradient id="paint43_linear_113_1522" x1="1525.25" y1="1981.64" x2="1683.15" y2="2169.52" gradientUnits="userSpaceOnUse">
<stop stop-color="white"/>
<stop offset="1" stop-color="#AEBDDF"/>
</linearGradient>
<linearGradient id="paint44_linear_113_1522" x1="1378.22" y1="2037.52" x2="1623.31" y2="2037.52" gradientUnits="userSpaceOnUse">
<stop stop-color="white"/>
<stop offset="1" stop-color="#AEBDDF"/>
</linearGradient>
<linearGradient id="paint45_linear_113_1522" x1="1712.86" y1="793.525" x2="1692.87" y2="1154.63" gradientUnits="userSpaceOnUse">
<stop stop-color="#FFD2BB"/>
<stop offset="1" stop-color="#FF6B5A"/>
</linearGradient>
<linearGradient id="paint46_linear_113_1522" x1="1685.04" y1="934.407" x2="1685.04" y2="1518.1" gradientUnits="userSpaceOnUse">
<stop stop-color="#FFEFA4"/>
<stop offset="1" stop-color="#FE8F01"/>
</linearGradient>
<linearGradient id="paint47_linear_113_1522" x1="1696.5" y1="804.223" x2="1684.14" y2="1146.79" gradientUnits="userSpaceOnUse">
<stop stop-color="#FFD2BB"/>
<stop offset="1" stop-color="#FF6B5A"/>
</linearGradient>
<linearGradient id="paint48_linear_113_1522" x1="1726.08" y1="583.628" x2="1726.08" y2="1025.44" gradientUnits="userSpaceOnUse">
<stop stop-color="#ACBDDE"/>
<stop offset="1" stop-color="#2E405C"/>
</linearGradient>
<linearGradient id="paint49_linear_113_1522" x1="1572.92" y1="830.472" x2="1572.92" y2="1442.21" gradientUnits="userSpaceOnUse">
<stop stop-color="#FFD2BB"/>
<stop offset="1" stop-color="#FF6B5A"/>
</linearGradient>
<linearGradient id="paint50_linear_113_1522" x1="1356.88" y1="1196.64" x2="1353.38" y2="1115.69" gradientUnits="userSpaceOnUse">
<stop stop-color="#FFD2BB"/>
<stop offset="1" stop-color="#FF6B5A"/>
</linearGradient>
<linearGradient id="paint51_linear_113_1522" x1="1457.52" y1="830.472" x2="1457.52" y2="1442.21" gradientUnits="userSpaceOnUse">
<stop stop-color="#FFD2BB"/>
<stop offset="1" stop-color="#FF6B5A"/>
</linearGradient>
<linearGradient id="paint52_linear_113_1522" x1="327.983" y1="775.542" x2="263.833" y2="1069.99" gradientUnits="userSpaceOnUse">
<stop stop-color="#FFD2BB"/>
<stop offset="1" stop-color="#FF6B5A"/>
</linearGradient>
<linearGradient id="paint53_linear_113_1522" x1="88.1514" y1="551.895" x2="330.541" y2="920.988" gradientUnits="userSpaceOnUse">
<stop stop-color="#ACBDDE"/>
<stop offset="1" stop-color="#2E405C"/>
</linearGradient>
<linearGradient id="paint54_linear_113_1522" x1="583.39" y1="988.174" x2="217.619" y2="1129.09" gradientUnits="userSpaceOnUse">
<stop stop-color="white"/>
<stop offset="1" stop-color="#AEBDDF"/>
</linearGradient>
<linearGradient id="paint55_linear_113_1522" x1="663.113" y1="1290.74" x2="425.928" y2="1228.11" gradientUnits="userSpaceOnUse">
<stop stop-color="#FFD2BB"/>
<stop offset="1" stop-color="#FF6B5A"/>
</linearGradient>
<linearGradient id="paint56_linear_113_1522" x1="392.16" y1="945.4" x2="392.16" y2="1290.18" gradientUnits="userSpaceOnUse">
<stop stop-color="white"/>
<stop offset="1" stop-color="#AEBDDF"/>
</linearGradient>
<linearGradient id="paint57_linear_113_1522" x1="302.707" y1="1955.5" x2="-9.09757" y2="2020.79" gradientUnits="userSpaceOnUse">
<stop stop-color="white"/>
<stop offset="1" stop-color="#AEBDDF"/>
</linearGradient>
<linearGradient id="paint58_linear_113_1522" x1="243.473" y1="1959" x2="246.64" y2="2042.13" gradientUnits="userSpaceOnUse">
<stop stop-color="white"/>
<stop offset="1" stop-color="#AEBDDF"/>
</linearGradient>
<linearGradient id="paint59_linear_113_1522" x1="221.822" y1="2197.63" x2="221.822" y2="1453.77" gradientUnits="userSpaceOnUse">
<stop stop-color="#ACBDDE"/>
<stop offset="1" stop-color="#2E405C"/>
</linearGradient>
<linearGradient id="paint60_linear_113_1522" x1="496.468" y1="1984.39" x2="211.314" y2="2140.29" gradientUnits="userSpaceOnUse">
<stop stop-color="white"/>
<stop offset="1" stop-color="#AEBDDF"/>
</linearGradient>
<linearGradient id="paint61_linear_113_1522" x1="329.72" y1="2182.26" x2="329.72" y2="1447.58" gradientUnits="userSpaceOnUse">
<stop stop-color="#ACBDDE"/>
<stop offset="1" stop-color="#2E405C"/>
</linearGradient>
<linearGradient id="paint62_linear_113_1522" x1="457.836" y1="1946.97" x2="466.652" y2="2043.94" gradientUnits="userSpaceOnUse">
<stop stop-color="white"/>
<stop offset="1" stop-color="#AEBDDF"/>
</linearGradient>
<linearGradient id="paint63_linear_113_1522" x1="274.86" y1="1076.25" x2="274.86" y2="889.407" gradientUnits="userSpaceOnUse">
<stop stop-color="#ACBDDE"/>
<stop offset="1" stop-color="#2E405C"/>
</linearGradient>
<linearGradient id="paint64_linear_113_1522" x1="268.84" y1="868.449" x2="268.84" y2="1639.34" gradientUnits="userSpaceOnUse">
<stop stop-color="white"/>
<stop offset="1" stop-color="#AEBDDF"/>
</linearGradient>
<linearGradient id="paint65_linear_113_1522" x1="430.105" y1="868.449" x2="430.105" y2="1639.34" gradientUnits="userSpaceOnUse">
<stop stop-color="white"/>
<stop offset="1" stop-color="#AEBDDF"/>
</linearGradient>
<linearGradient id="paint66_linear_113_1522" x1="698.988" y1="1006.34" x2="700.32" y2="939.045" gradientUnits="userSpaceOnUse">
<stop stop-color="#FFD2BB"/>
<stop offset="1" stop-color="#FF6B5A"/>
</linearGradient>
<linearGradient id="paint67_linear_113_1522" x1="746.217" y1="860.506" x2="608.97" y2="1055.72" gradientUnits="userSpaceOnUse">
<stop stop-color="#FFD2BB"/>
<stop offset="1" stop-color="#FF6B5A"/>
</linearGradient>
<linearGradient id="paint68_linear_113_1522" x1="577.385" y1="868.449" x2="577.385" y2="1639.34" gradientUnits="userSpaceOnUse">
<stop stop-color="white"/>
<stop offset="1" stop-color="#AEBDDF"/>
</linearGradient>
</defs>
</svg>
