<svg width="293" height="25" viewBox="0 0 293 25" fill="none" xmlns="http://www.w3.org/2000/svg">
<path d="M85.6967 14.3344C85.9767 14.3073 86.3045 14.4371 86.425 14.6242C86.425 14.6242 86.425 14.6242 86.5004 14.6212C87.0529 14.6006 86.9097 14.7817 87.0843 14.8649C87.6317 15.1263 88.2156 15.3771 88.7518 15.6421C88.905 15.7176 88.9301 15.8292 89.0381 15.92C89.126 15.9932 89.2088 16.0941 89.3683 16.123C90.7269 16.3703 90.7269 16.3703 90.7269 16.3703C91.4841 16.8854 92.2965 17.4372 92.5313 17.5965C92.7662 17.7559 94.1034 17.9854 94.2491 18.094C94.3947 18.2032 95.005 18.5667 95.2147 18.6788C95.4231 18.7909 96.1753 19.155 96.3448 19.2671C96.5131 19.3792 97.4648 19.6365 97.6494 19.7085C97.834 19.7805 98.2333 20.0643 97.8566 20.0531C97.4799 20.0413 96.5784 19.9109 96.0535 19.8797C95.5286 19.8484 94.3546 19.4105 94.0268 19.3668C93.6991 19.3232 92.1659 19.0807 91.3347 18.9255C91.3347 18.9255 91.3347 18.9254 90.5788 18.7897C89.863 18.6611 89.8631 18.6611 89.8631 18.6611C89.1498 18.4593 87.5966 18.0444 86.4112 17.7387C85.2259 17.4331 80.7997 16.4151 79.3795 16.0558C79.3795 16.0558 79.3795 16.0558 78.1037 15.72C76.9121 15.4066 75.738 15.0827 74.5439 14.7705C73.7968 14.5752 73.7968 14.5752 73.7968 14.5752C73.0107 14.3433 71.5881 13.9662 70.6375 13.7366C69.6857 13.5071 66.5867 12.619 65.65 12.3788C64.712 12.1392 61.3569 11.1166 60.0887 10.746C60.0887 10.746 60.0887 10.746 58.8606 10.4533C57.6715 10.17 57.6715 10.17 57.6715 10.17C56.4723 9.80477 54.6843 9.28312 53.6973 9.01108C52.7104 8.73904 49.9893 7.9365 49.8261 7.8409C49.6629 7.7453 48.4323 7.58891 48.0619 7.42958C48.0619 7.42958 48.0619 7.42959 47.4692 7.3511C46.9343 7.28029 46.9343 7.28029 46.9343 7.28029C46.432 7.1068 45.8042 6.90676 45.5393 6.83595C45.2743 6.76513 44.148 6.49604 43.6407 6.38687C43.6407 6.38687 43.6407 6.38687 43.205 6.27298C42.714 6.14493 42.714 6.14492 42.714 6.14492C42.1954 5.99385 40.9661 5.67638 39.9804 5.44033C38.9947 5.20429 35.8769 4.50385 35.3069 4.36871C34.7368 4.23358 32.7578 3.79218 32.1991 3.67475C32.1991 3.67475 32.1991 3.67475 31.6968 3.56499C31.2372 3.46467 31.2372 3.46466 31.2372 3.46466C30.6922 3.39031 30.1335 3.25518 29.9966 3.16549C29.8598 3.0752 28.6091 3.02681 28.1106 2.98255C28.1106 2.98255 28.1106 2.98254 27.6573 2.93002C27.155 2.87219 27.1551 2.8722 27.1551 2.8722C26.6063 2.81083 25.9584 2.74828 25.7148 2.73294C25.4712 2.71759 24.7567 2.60724 24.6324 2.56888C24.6324 2.56888 24.6324 2.56888 24.6249 2.57183C24.2695 2.71346 23.9318 2.73352 23.4408 2.63497C23.1784 2.58245 22.7853 2.60783 22.4425 2.56771C22.0809 2.52522 21.6577 2.55825 21.261 2.55825C20.8077 2.55825 20.8076 2.55825 20.8076 2.55825C20.3104 2.55589 19.5482 2.58127 19.1137 2.61491C18.6793 2.64854 17.0746 2.96425 16.3726 3.13125C16.3726 3.13125 16.3726 3.13126 16.2722 3.48887C16.2282 3.64524 16.2283 3.64524 16.2283 3.64524C15.726 3.80515 15.3957 3.94678 15.4962 3.96035C15.5954 3.97333 15.7498 4.16572 15.5527 4.35101C15.5527 4.35101 15.5527 4.351 15.2312 4.44896C14.9123 4.54633 14.9123 4.54633 14.9123 4.54633C14.6486 4.67261 14.405 4.78355 14.3723 4.7924C14.3397 4.80125 14.1639 4.95055 13.9743 5.11223C13.7847 5.27392 12.8329 6.09536 12.3218 6.59045C12.3218 6.59045 12.3218 6.59045 12.2239 7.08909C12.0782 7.83617 12.0782 7.83616 12.0782 7.83616C12.8141 8.5738 13.462 9.18988 13.5198 9.20581C13.5198 9.20581 13.5198 9.20581 13.5298 9.22351C13.6177 9.38284 13.6177 9.38283 13.6177 9.38283C13.7043 9.55927 13.9341 9.81184 14.1287 9.94521C14.1287 9.94521 14.1288 9.9452 14.3448 10.0591C14.5896 10.1883 14.7867 10.3341 14.955 10.481C15.2978 10.7814 15.2978 10.7814 15.2978 10.7814C15.8189 11.08 16.4178 11.5084 16.6275 11.7332C16.6275 11.7332 16.6275 11.7332 16.8875 11.928C17.4387 12.3405 17.4387 12.3405 17.4387 12.3405C18.0992 12.7854 18.786 13.2888 18.9643 13.4587C19.1439 13.6287 19.4327 14.1043 19.1765 14.0718C19.1765 14.0718 19.1766 14.0718 18.9769 14.0293C17.9184 13.8027 17.9184 13.8027 17.9184 13.8027C16.7644 13.5472 15.0241 13.1489 14.0522 12.9176C13.0803 12.6863 10.1332 11.948 9.54434 11.8619C9.54434 11.8619 9.54433 11.8619 9.01821 11.7734C8.96798 11.7651 8.96797 11.7651 8.96797 11.7651C9.01569 11.6548 8.63146 11.4742 8.11413 11.3632C7.59679 11.2523 5.89537 10.9065 5.56639 10.8451C5.56639 10.8451 5.56636 10.8451 5.42196 10.8817C4.52165 11.1089 4.52167 11.1089 4.52167 11.1089C4.3622 10.8203 3.96413 10.6126 3.63641 10.6474C3.30868 10.6822 2.22002 10.6168 1.93749 10.5318C1.65497 10.4468 0.985685 10.687 1.36741 10.8729C1.74913 11.0593 3.32753 11.1998 2.89181 11.306C2.89181 11.306 2.89181 11.306 2.64193 11.3579C2.36819 11.4146 2.09321 11.4311 2.05303 11.2706C2.01285 11.1095 2.01283 11.1095 2.01283 11.1095C1.72152 11.1343 0.816183 11.4063 0 11.7144C0 11.7144 -1.84774e-06 11.7143 0.892777 12.0407C1.29208 12.187 1.22428 12.272 1.06732 12.4408C0.971894 12.5434 0.971869 12.5435 0.971869 12.5435C1.23179 12.74 1.51433 12.8432 1.60097 12.773C1.68761 12.7028 2.1635 12.5771 2.49248 12.629C2.49248 12.629 2.4925 12.629 2.74991 12.6951C2.89306 12.7317 2.89304 12.7317 2.89304 12.7317C2.98972 12.8078 2.90183 12.8981 2.69841 12.9323C2.69841 12.9323 2.69843 12.9323 2.51762 12.9665C2.4699 12.976 2.46991 12.976 2.46991 12.976C2.38578 13.0126 2.68211 13.2893 3.12913 13.5915C3.12913 13.5915 3.12911 13.5915 3.59747 13.8564C3.72304 13.9278 3.72305 13.9278 3.72305 13.9278C4.03571 13.9579 4.52921 14.0046 4.81926 14.0317C4.81926 14.0317 4.81927 14.0317 4.76527 14.1704C4.69495 14.3474 4.91718 14.3952 5.34034 14.3834C5.48349 14.3793 5.76726 14.43 5.76224 14.4412C5.55757 14.8868 6.80318 14.7729 7.15226 14.9847C7.27155 15.0567 7.27155 15.0567 7.27155 15.0567C7.41344 15.1393 7.74873 15.2627 8.01744 15.3299C8.01744 15.3299 8.01742 15.3299 8.26353 15.3907C8.5762 15.468 8.90644 15.5359 9.20026 15.622C9.7942 15.7961 9.79419 15.7961 9.79419 15.7961C10.5036 15.9519 11.4128 16.1661 11.8146 16.2717C12.2164 16.3774 13.4394 16.6889 13.914 16.6447C13.914 16.6447 13.914 16.6447 14.1915 16.8636C14.3786 17.0111 14.788 17.1221 15.1346 17.2324C15.3292 17.295 15.6105 17.367 15.8314 17.3581C16.3488 17.3375 16.3488 17.3375 16.3488 17.3375C16.7054 17.4484 18.1293 17.7588 19.5131 18.0267C19.5131 18.0267 19.5131 18.0267 20.9031 17.9949C21.5083 17.9807 21.5083 17.9807 21.5083 17.9807C22.1437 18.0002 22.995 18.0179 23.3994 18.0196C23.8049 18.022 25.4549 18.0432 26.1694 18.0798C26.1694 18.0798 26.1694 18.0798 26.7595 17.917C26.7859 17.9093 26.983 18.0444 27.2317 17.9406C27.69 17.7494 27.69 17.7494 27.69 17.7494C28.2274 17.5505 28.7698 17.3552 28.8967 17.3162C28.8967 17.3162 28.8967 17.3162 28.8803 17.295C28.5287 16.8217 29.7229 16.5627 29.9803 16.1626C30.1674 15.8716 30.1674 15.8716 30.1674 15.8716C30.9158 15.602 31.5737 15.2774 31.629 15.1499C31.629 15.1499 31.629 15.1499 31.7244 15.0685C32.297 14.5781 32.297 14.5781 32.297 14.5781C31.7897 14.096 30.6282 13.2144 29.7179 12.619C29.7179 12.619 29.7179 12.619 29.5634 11.9746C29.5597 11.9581 29.4517 11.9427 29.4529 11.9286C29.4881 11.6972 29.4881 11.6972 29.4881 11.6972C29.1415 11.5007 28.5538 11.1378 28.1797 10.8917C28.1797 10.8917 28.1797 10.8917 27.8783 10.6604C27.5995 10.4456 27.3974 10.2161 27.1161 10.0025C26.8311 9.78648 26.8311 9.78648 26.8311 9.78648C26.472 9.55811 26.0513 9.26423 25.8956 9.1344C25.7399 9.00458 25.0732 8.46758 24.7743 8.22859C24.7743 8.22859 24.7743 8.2286 24.4679 8.01852C24.2896 7.89696 23.825 7.70339 23.864 7.68864C24.3436 7.51042 23.7296 7.40539 23.6869 7.27143C23.6455 7.1422 23.6455 7.1422 23.6455 7.1422C23.3303 6.98169 23.3165 6.86367 23.6141 6.88019C23.6141 6.88019 23.6141 6.8802 23.8087 6.91915C24.6186 7.08143 24.6186 7.08142 24.6186 7.08142C25.4097 7.31806 26.3439 7.59481 26.6942 7.69631C27.0446 7.79781 28.7033 8.0433 28.7623 8.04921C28.8213 8.05511 29.1541 8.14599 29.4805 8.22506C29.8058 8.30413 30.9798 8.64934 31.4921 8.77917C32.0044 8.90899 33.741 9.32914 34.2332 9.41471C34.7255 9.50027 35.745 9.91334 35.7953 9.92986C35.8442 9.94638 36.2272 10.0036 36.5361 10.0579C36.845 10.1122 37.8684 10.376 38.1836 10.4309C38.4987 10.4857 39.3036 10.7596 39.4317 10.8074C39.5585 10.8551 40.1738 10.9207 40.3132 10.9714C40.3132 10.9714 40.3132 10.9714 40.4475 11.0192C40.6748 11.1006 40.9184 11.175 41.1331 11.2611C41.6053 11.4506 42.4541 11.4329 42.8032 11.6536C43.2263 11.9221 43.2263 11.9221 43.2263 11.9221C43.9508 12.0566 44.7997 12.2366 45.1123 12.321C45.425 12.4059 46.5677 12.6585 46.9645 12.6886C46.9645 12.6886 46.9645 12.6886 46.9871 12.8987C46.9933 12.9624 46.9933 12.9624 46.9933 12.9624C47.419 13.0197 47.979 13.0899 48.2389 13.1182C48.4989 13.1471 49.3979 13.4133 49.8324 13.5348C50.2669 13.6564 52.0009 14.1757 52.7945 14.3946C53.5881 14.6135 56.3292 15.386 57.1366 15.6173C57.944 15.8492 60.7705 16.6435 61.6106 16.8748C62.4506 17.1062 65.1867 17.888 65.8409 18.0899C65.8409 18.0899 65.8409 18.0899 66.4499 18.2657C66.4725 18.2722 66.4725 18.2722 66.4725 18.2722C66.6483 18.2038 67.0451 18.2445 67.3552 18.3631C67.6654 18.4817 68.6159 18.7342 68.8721 18.6971C68.8721 18.6971 68.8721 18.6971 68.9461 18.7225C69.4459 18.8924 69.6782 19.1308 70.3324 19.289C70.9188 19.4306 71.568 19.5273 72.1393 19.6743C72.673 19.8112 72.673 19.8112 72.673 19.8112C73.2543 19.964 74.3342 20.2384 75.0725 20.4208C75.8109 20.6031 78.1276 21.1437 78.5093 21.2859C78.891 21.4275 80.5021 21.7615 80.9704 21.8471C81.4388 21.9326 82.8878 22.2448 83.1779 22.3304C83.1779 22.3304 83.1779 22.3304 83.3989 22.4236C83.6425 22.5263 83.8936 22.5924 84.2741 22.5617C84.7412 22.5239 84.7412 22.5239 84.7412 22.5239C84.8981 22.6655 85.0978 22.77 85.1857 22.7558C85.2736 22.7417 85.5837 22.8013 85.6779 22.9187C85.6779 22.9187 85.6779 22.9187 85.7445 22.9169C86.3535 22.9004 86.5883 23.1736 86.9449 23.186C87.4321 23.2031 87.8929 23.3589 88.4052 23.2562C88.4529 23.2468 88.4529 23.2468 88.4529 23.2468C88.4931 23.2273 88.7493 23.2887 89.0217 23.3837C89.2942 23.4787 90.5712 23.6705 90.9316 23.7378C91.2932 23.8044 92.4949 24.0222 92.7963 24.0706C93.0977 24.1184 94.3269 24.1184 94.7652 24.1142C94.7652 24.1142 94.7652 24.1143 94.9297 24.3391C94.9925 24.4241 95.5449 24.4736 95.8965 24.5073C96.9814 24.6111 98.0274 24.7763 99.1801 24.7781C99.6208 24.7787 99.9837 25.0053 100.527 24.8613C101.057 24.7209 101.311 24.9864 101.706 24.9929C102.155 25 102.155 25 102.155 25C102.647 24.9404 103.517 24.8761 104.087 24.8572C104.657 24.8377 106.389 24.8171 106.679 24.8737C106.679 24.8737 106.679 24.8737 106.802 24.6867C106.826 24.6512 107.312 24.6937 107.638 24.6577C108.986 24.5096 108.986 24.5096 108.986 24.5096C109.72 24.0694 110.337 23.6758 110.354 23.6351C110.354 23.6351 110.354 23.6351 110.313 23.6209C109.687 23.4085 110.256 23.2279 110.462 23.0609C110.754 22.8237 110.986 22.58 111.246 22.3404C111.625 21.9893 111.625 21.9893 111.625 21.9893C112.267 21.6399 113.006 21.1802 113.267 20.9678C113.267 20.9678 113.267 20.9678 112.972 20.7253C112.71 20.5093 112.638 20.2591 112.48 20.0242C112.441 19.9658 112.439 19.892 112.342 19.8525C111.234 19.3969 111.234 19.3969 111.234 19.3969C110.524 18.7844 109.485 17.9925 108.928 17.6384C108.928 17.6384 108.928 17.6384 108.237 17.39C107.411 17.0932 107.411 17.0932 107.411 17.0932C106.576 16.7438 105.84 16.4482 105.774 16.437C105.774 16.437 105.774 16.437 105.767 16.4228C105.486 15.8398 105.486 15.8398 105.486 15.8398C104.257 15.4533 103.073 15.0467 102.854 14.9363C102.636 14.826 101.439 14.3899 100.817 14.1716C100.817 14.1716 100.817 14.1715 100.584 13.8771C100.539 13.8204 100.539 13.8204 100.539 13.8204C100.447 13.7656 100.094 13.608 99.7552 13.4705C99.4162 13.333 97.9609 12.7459 97.3217 12.4532C96.6826 12.1605 94.5869 11.234 94.1486 11.0145C93.7104 10.795 92.1496 10.0497 91.7579 9.81598C91.3661 9.58229 90.0677 8.87004 89.7626 8.75143C89.7626 8.75143 89.7626 8.75142 89.4863 8.64284C88.9916 8.44752 88.5157 8.25396 88.1265 8.01733C87.8515 7.84974 87.8515 7.84974 87.8515 7.84974C87.3768 7.68392 86.8758 7.49214 86.739 7.42251C86.739 7.42251 86.7389 7.4225 86.6611 7.34815C86.3673 7.06903 86.3673 7.06903 86.3673 7.06903C85.6641 6.79345 85.0701 6.53911 85.0475 6.50371C85.0475 6.50371 85.0476 6.50372 85.0777 6.47952C85.1229 6.44411 85.1229 6.44411 85.1229 6.44411C85.2334 6.40281 85.025 6.21279 84.6596 6.0216C84.2942 5.8304 83.0423 5.26921 82.7271 5.19426C82.4119 5.11932 82.4847 4.70034 82.3918 4.64723C82.3918 4.64723 82.3918 4.64723 82.3002 4.59649C81.3923 4.09726 81.3923 4.09725 81.3923 4.09725C80.7482 3.48 80.217 2.91881 80.2107 2.85095C80.2045 2.78249 80.374 2.55825 80.5874 2.5913C80.8009 2.62494 81.5543 2.63733 81.8619 2.62494C81.8619 2.62494 81.8619 2.62494 82.1846 2.68159C82.8489 2.79844 82.8489 2.79843 82.8489 2.79843C83.6199 2.89875 84.8718 3.06575 85.6302 3.16902C85.6302 3.16902 85.6302 3.16902 86.2806 3.28881C86.7239 3.37024 87.1608 3.4204 87.5991 3.48708C88.2294 3.58268 88.2294 3.58269 88.2294 3.58269C88.5446 3.46467 88.9314 3.4151 89.0896 3.47293C89.2478 3.53076 89.6207 3.69717 89.5755 3.71664C89.5303 3.73611 89.4512 3.85118 89.7099 3.83879C89.9685 3.8264 90.6905 3.79218 90.7144 3.791C90.7144 3.791 90.7144 3.79099 90.7269 3.82285C90.7784 3.95563 90.7784 3.95563 90.7784 3.95563C91.022 4.06008 91.4678 4.20112 91.7691 4.26898C92.0705 4.33684 93.7468 4.5717 94.6534 4.80539C94.6534 4.80539 94.6534 4.80538 94.8556 4.8402C95.0125 4.86734 95.2938 4.79595 95.4344 4.82604C95.5763 4.85673 95.5851 4.96885 95.7157 5.02255C95.7596 5.04085 96.0648 5.00839 96.1351 4.96885C96.3109 4.8703 96.3109 4.87029 96.3109 4.87029C96.4591 4.73633 96.7793 4.67675 97.0229 4.73753C97.2665 4.7989 97.8604 4.96354 97.8453 4.97888C97.8303 4.99422 97.598 5.02313 97.3631 5.00838C97.1283 4.99363 96.5796 5.02609 96.665 5.11342C96.7504 5.20076 97.775 5.28219 98.3639 5.2816C98.3639 5.2816 98.3639 5.28161 98.5924 5.56663C98.6803 5.6758 99.4438 5.82627 99.5555 5.79264C100.178 5.60262 100.178 5.60263 100.178 5.60263C100.475 5.7773 101.096 5.99031 101.558 6.07647C101.558 6.07647 101.558 6.07647 101.565 6.1585C101.59 6.47775 101.59 6.47776 101.59 6.47776C102.048 6.36977 102.623 6.36445 102.868 6.46654C102.868 6.46654 102.868 6.46654 103.103 6.55388C103.423 6.67249 104.023 6.6831 104.327 6.80467C104.573 6.90262 105.072 6.52555 105.04 6.8861C105.035 6.9516 105.588 7.00708 105.662 7.095C105.858 7.32691 105.858 7.32692 105.858 7.32692C106.295 7.27794 106.799 7.29151 106.979 7.35701C107.159 7.42251 107.763 7.54289 107.916 7.47621C108.069 7.40953 108.756 7.72995 109.21 7.8698C109.665 8.00966 110.885 8.38319 110.977 8.36313C111.069 8.34307 111.45 8.3413 111.434 8.44752C111.434 8.44752 111.434 8.44752 111.473 8.52364C111.499 8.57498 111.499 8.57498 111.499 8.57498C111.609 8.62573 111.866 8.58679 112.07 8.48943C112.273 8.39206 112.851 8.76145 113.237 8.79037C113.237 8.79037 113.237 8.79037 113.222 9.00694C113.212 9.14266 113.777 8.75556 113.899 9.09723C113.987 9.34154 113.987 9.34154 113.987 9.34154C114.415 9.18693 114.863 9.06006 114.984 9.05888C115.104 9.0577 115.535 9.1285 115.455 9.21584C115.374 9.30318 115.432 9.53037 115.755 9.5351C116.078 9.53923 116.8 9.96173 117.308 10.1187C117.817 10.2757 119.552 10.4964 119.519 10.6404C119.519 10.6404 119.519 10.6404 119.661 10.6811C120.12 10.8121 120.12 10.8121 120.12 10.8121C120.693 10.9065 121.432 11.0776 121.761 11.1927C122.09 11.3078 123.306 11.3585 123.384 11.4453C123.384 11.4453 123.384 11.4453 123.337 11.4577C122.883 11.5745 122.883 11.5745 122.883 11.5745C123.173 11.6624 123.742 11.7917 124.148 11.8619C124.553 11.9321 125.558 12.2171 125.724 12.1906C125.724 12.1906 125.724 12.1906 125.888 12.1841C126.153 12.174 126.153 12.174 126.153 12.174C126.471 12.2165 126.639 12.2661 126.527 12.2844C126.415 12.3027 126.271 12.3706 126.503 12.3859C126.736 12.4012 127.434 12.452 127.509 12.632C127.585 12.8119 128.718 13.0209 128.762 12.979C128.762 12.979 128.762 12.9789 128.787 12.9241C128.816 12.8633 128.816 12.8633 128.816 12.8633C128.814 12.835 128.921 12.8533 129.052 12.904C129.185 12.9548 129.59 13.1088 129.59 13.1088C129.59 13.1088 129.669 13.2221 129.896 13.3053C130.124 13.3885 130.902 13.6434 131.167 13.6735C131.432 13.7042 131.732 14.0122 131.855 14.0577C131.978 14.1031 132.89 14.2406 133.343 14.3604C133.343 14.3604 133.343 14.3604 133.769 14.368C134.325 14.3781 134.273 14.6177 134.312 14.6076C135.329 14.3391 135.329 14.3391 135.329 14.3391C135.558 14.6667 136.237 15.0779 136.836 15.2532C136.836 15.2532 136.836 15.2532 137.423 15.4031C137.835 15.5082 138.161 15.7707 138.864 15.5636C138.947 15.5388 139.36 15.6315 139.526 15.7023C140.119 15.9554 140.822 16.1384 141.657 16.2505C141.733 16.2611 141.733 16.2611 141.733 16.2611C141.992 16.136 142.267 16.126 142.344 16.2387C142.42 16.3514 143.341 16.6246 143.696 16.709C143.696 16.709 143.696 16.709 144.099 16.5981C144.117 16.5934 144.117 16.5934 144.117 16.5934C144.242 16.6453 144.238 16.7845 144.108 16.9032C144.108 16.9032 144.108 16.9032 144.473 16.8394C144.959 16.7544 145.301 16.7633 145.42 16.9409C145.601 17.2088 146.049 17.2938 146.639 17.2348C147.334 17.1657 146.946 17.5399 147.524 17.5068C147.907 17.485 148.308 17.5057 148.699 17.518C148.753 17.5198 148.79 17.5859 148.839 17.6207C149.156 17.8444 149.156 17.8444 149.156 17.8444C149.783 17.8727 150.737 17.8461 151.273 17.786C151.273 17.786 151.273 17.786 151.258 18.094C151.256 18.1117 151.534 18.1418 151.687 18.1483C152.088 18.1654 152.629 18.0763 152.645 18.3613C152.646 18.3796 153.034 18.3985 153.245 18.4091C153.544 18.4245 153.97 18.3513 153.945 18.5743C153.941 18.605 153.941 18.605 153.941 18.605C154.04 18.6381 154.551 18.7732 155.077 18.9054C155.603 19.0376 157.474 19.0299 157.737 19.1078C157.999 19.1857 159.344 19.286 160.064 19.2612C160.064 19.2612 160.064 19.2612 160.575 19.3527C161.103 19.4471 161.103 19.4471 161.103 19.4471C161.529 19.3857 162.08 19.3627 162.326 19.3952C162.572 19.4276 163.705 19.4801 164.264 19.522C164.264 19.522 164.264 19.522 164.652 19.3244C164.713 19.2931 164.976 19.3202 165.147 19.3196C165.808 19.3173 165.808 19.3173 165.808 19.3173C166.429 19.1928 167.344 18.9986 167.841 18.8865C167.841 18.8865 167.841 18.8865 168.235 18.7384C168.711 18.559 168.99 18.3855 168.906 18.1217C168.878 18.035 168.878 18.035 168.878 18.035C169.047 17.9311 169.264 17.7972 169.361 17.7381C169.457 17.6791 169.641 17.1014 169.718 17.0188C169.718 17.0188 169.718 17.0188 169.824 16.9504C170.067 16.7934 170.337 16.6423 170.582 16.4854C170.7 16.4092 170.66 16.1697 170.592 16.0735C170.513 15.9608 170.137 15.8575 170.565 15.7176C170.687 15.6781 170.687 15.6781 170.687 15.6781C170.604 15.5199 170.457 15.4173 170.361 15.4497C170.266 15.4822 169.947 15.5123 169.84 15.4521C169.733 15.3919 169.686 15.157 169.683 14.9481C169.683 14.9481 169.683 14.9481 169.582 14.7605C169.489 14.5911 169.489 14.5911 169.489 14.5911C169.201 14.4578 168.724 14.2465 168.429 14.122C168.134 13.9975 168.006 13.5266 167.747 13.4853C167.49 13.444 167.068 12.9253 166.505 12.6402C166.505 12.6402 166.505 12.6402 166.161 12.3363C165.661 11.8955 165.661 11.8955 165.661 11.8955C165.09 11.4128 164.624 10.9395 164.628 10.8433C164.63 10.7472 163.975 10.6781 163.993 10.5943C164.009 10.5105 162.991 10.1258 162.415 9.75992C162.415 9.75992 162.415 9.75992 162.438 9.35393C162.447 9.20227 162.014 9.2188 161.958 9.17867C161.636 8.94204 161.636 8.94204 161.636 8.94204C161.405 8.65819 161.354 8.37199 161.523 8.3059C161.523 8.3059 161.523 8.3059 161.122 8.27757C161.019 8.27049 160.831 8.25691 160.83 8.2457C160.811 7.83852 160.113 7.53463 159.748 7.18115C159.652 7.08733 159.686 6.96753 159.718 6.86249C159.781 6.6595 159.781 6.6595 159.781 6.6595C160.314 6.66009 161.111 6.70317 161.553 6.75628C161.995 6.80939 163.477 6.84302 163.852 6.7309C163.852 6.7309 163.852 6.73091 164.248 6.94807C164.442 7.05547 164.841 7.10798 165.147 7.18647C165.202 7.20063 166.097 7.32985 166.127 7.31746C166.348 7.2254 166.348 7.22542 166.348 7.22542C166.618 7.26142 166.982 7.41837 167.157 7.57416C167.331 7.72994 168.444 7.52991 168.533 7.56591C168.533 7.56591 168.533 7.56589 168.537 7.59953C168.571 7.87157 169.308 7.78011 169.376 7.74353C169.867 7.47798 170.271 7.72346 170.656 7.76831C171.001 7.80843 171 7.80843 171 7.80843C171.28 7.94061 171.517 8.0852 171.524 8.13064C171.532 8.17549 171.498 8.30707 171.564 8.35546C171.631 8.40385 171.948 8.51951 172.141 8.50534C172.333 8.49118 173.038 8.51421 173.221 8.49946C173.404 8.4847 173.926 8.51775 173.855 8.62397C173.782 8.73019 173.77 9.03646 174.013 9.03646C174.255 9.03646 174.874 9.07953 174.939 9.13264C175.005 9.18575 175.314 9.2123 175.483 9.07598C175.483 9.07598 175.483 9.07598 176.026 9.2477C176.266 9.32382 176.265 9.32384 176.265 9.32384C176.581 9.38108 177.255 9.51326 177.765 9.6183C177.765 9.6183 177.765 9.61828 177.736 9.86849C177.732 9.89976 177.953 9.96114 178.067 9.96055C178.179 9.95996 178.315 9.90389 178.394 9.86082C178.545 9.77761 178.545 9.77762 178.545 9.77762C178.699 9.66786 178.979 9.66136 179.169 9.76404C179.169 9.76404 179.169 9.76404 179.351 9.83604C179.446 9.8738 179.705 9.8797 179.72 9.91157C179.746 9.9694 179.746 9.96941 179.746 9.96941C179.746 10.0361 179.827 10.075 179.927 10.0562C180.027 10.0367 180.359 10.0526 180.297 10.1689C180.236 10.2851 180.242 10.5595 180.523 10.3848C180.523 10.3848 180.523 10.3848 180.714 10.373C180.909 10.3606 180.909 10.3606 180.909 10.3606C181.151 10.4503 181.945 10.7572 182.672 11.0416C182.672 11.0416 182.672 11.0416 183.406 11.2647C183.545 11.3066 183.719 11.2452 183.702 11.1549C183.695 11.1225 183.695 11.1225 183.695 11.1225C183.567 11.0741 183.663 11.0345 183.909 11.0345C184.155 11.0345 184.812 11.0823 184.83 11.1408C184.848 11.1992 185.021 11.3727 185.167 11.3727C185.313 11.3727 185.806 11.45 185.832 11.5438C185.859 11.6382 186.104 11.899 186.315 11.899C186.526 11.899 187.324 12.0059 187.556 12.1363C187.789 12.2667 188.63 12.557 188.741 12.5499C188.741 12.5499 188.74 12.5499 188.837 12.5346C189.031 12.5045 189.303 12.4207 189.393 12.4437C189.716 12.5257 189.716 12.5258 189.716 12.5258C190.009 12.6497 190.521 12.9193 190.856 13.1247C190.856 13.1247 190.856 13.1247 192.059 13.2539C192.16 13.2646 192.327 13.3129 192.315 13.3289C192.035 13.7237 192.035 13.7237 192.035 13.7237C192.83 13.8647 193.703 13.9532 193.972 13.9202C193.972 13.9202 193.972 13.9202 194.175 13.867C194.435 13.7992 194.567 13.6753 195.011 13.7762C195.607 13.9113 195.607 13.9113 195.607 13.9113C195.679 14.0819 196.38 14.2176 197.166 14.2129C197.166 14.2129 197.166 14.2129 197.58 14.4979C197.59 14.5044 197.917 14.4147 198.036 14.4318C198.886 14.5498 198.886 14.5498 198.886 14.5498C198.927 14.9062 199.468 15.17 200.088 15.1346C200.088 15.1346 200.088 15.1346 200.099 15.0968C200.152 14.9251 200.152 14.9251 200.152 14.9251C200.46 14.9322 201.021 15.0184 201.399 15.1175C201.399 15.1175 201.399 15.1175 201.096 15.2361C200.682 15.399 201.042 15.4527 201.251 15.517C201.713 15.6592 201.713 15.6592 201.713 15.6592C202.262 15.8026 202.896 15.8616 203.124 15.7902C203.351 15.7188 204.307 15.7601 204.038 15.7831C203.77 15.8061 203.168 15.9171 203.265 15.9814C203.362 16.0457 204.111 16.1207 204.669 16.0534C204.669 16.0534 204.669 16.0534 204.902 16.3366C205.106 16.5827 205.666 16.4051 206.025 16.4653C206.26 16.5048 206.26 16.5048 206.26 16.5048C206.517 16.5715 206.786 16.5798 206.855 16.5231C206.925 16.4665 207.247 16.3968 207.431 16.4795C207.616 16.5621 207.204 16.7662 207.518 16.7444C207.832 16.7226 208.173 17.0719 208.427 17.0973C208.68 17.1227 209.379 17.2082 209.42 17.2295C209.42 17.2295 209.42 17.2295 209.468 17.2342C210.034 17.2926 210.745 17.1268 211.177 17.3758C211.459 17.5387 211.459 17.5387 211.459 17.5387C211.705 17.7352 212.209 17.7346 212.579 17.5381C212.579 17.5381 212.579 17.5381 212.785 17.9583C212.872 18.1347 213.481 18.3395 214.253 18.2911C214.46 18.2781 214.732 18.366 214.943 18.4245C215.21 18.4982 215.422 18.6032 215.7 18.6693C216.572 18.8771 216.572 18.8771 216.572 18.8771C217.102 18.6723 217.813 18.6133 218.15 18.7455C218.15 18.7455 218.149 18.7455 218.475 18.8558C218.545 18.88 218.71 18.87 218.828 18.8658C219.602 18.8387 219.602 18.8387 219.602 18.8387C219.74 19.0092 219.748 19.2825 219.619 19.4465C219.619 19.4465 219.619 19.4465 220.175 19.4412C220.459 19.4383 220.459 19.4382 220.459 19.4382C220.729 19.4636 221.058 19.5097 221.188 19.5409C221.188 19.5409 221.188 19.5409 221.196 19.5728C221.232 19.7333 221.232 19.7333 221.232 19.7333C221.528 19.7097 221.665 19.6212 221.537 19.5368C221.537 19.5368 221.537 19.5368 221.589 19.5126C221.756 19.4353 221.993 19.3751 222.23 19.3297C222.266 19.3232 222.463 19.4282 222.562 19.4872C222.662 19.5474 222.811 19.6171 222.797 19.6778C222.784 19.7351 222.381 19.8171 222.818 19.8318C223.264 19.8466 223.264 19.8466 223.264 19.8466C223.796 19.8 224.241 19.8224 224.251 19.8962C224.261 19.9699 224.375 20.1989 224.477 20.226C224.477 20.226 224.477 20.226 224.572 20.2278C224.911 20.2343 225.254 20.2402 225.591 20.2284C226.398 20.2001 226.398 20.2001 226.398 20.2001C226.585 20.3458 226.896 20.4515 227.09 20.4349C227.283 20.4184 227.818 20.3942 228.18 20.4703C228.18 20.4703 228.18 20.4704 228.427 20.2815C228.454 20.262 228.454 20.262 228.454 20.262C228.875 20.3122 229.385 20.4414 229.585 20.55C229.585 20.55 229.585 20.55 229.805 20.5801C230.155 20.6279 230.155 20.6279 230.155 20.6279C230.593 20.6214 231.148 20.635 231.388 20.6586C231.628 20.6822 231.796 20.4261 231.864 20.4237C231.932 20.4208 232.508 20.4526 233.017 20.4774C233.525 20.5022 234.716 20.2284 234.428 20.2284C234.14 20.2284 233.819 20.0484 234.23 19.8289C234.23 19.8289 234.23 19.8289 234.944 20.0685C235.25 20.1712 236.217 19.9186 236.129 19.7575C235.989 19.499 235.989 19.499 235.989 19.499C236.106 19.2311 236.467 18.8676 236.795 18.6906C236.795 18.6906 236.795 18.6906 237.054 18.5212C237.317 18.3483 237.588 18.1725 237.763 17.9848C237.894 17.845 238.17 17.6384 237.361 17.6231C237.312 17.6219 237.224 17.4832 237.253 17.4148C237.293 17.318 237.455 17.2289 237.503 17.1321C237.523 17.0926 237.523 17.0926 237.523 17.0926C237.409 17.0389 237.264 17.0117 237.203 17.0318C237.141 17.0519 236.841 17.0519 236.845 16.9315C236.845 16.9315 236.845 16.9315 236.835 16.8512C236.814 16.6777 236.814 16.6777 236.814 16.6777C236.505 16.5444 235.981 16.3302 235.65 16.2015C235.318 16.0729 234.742 15.6091 234.645 15.5801C234.548 15.5512 234.366 15.4226 234.214 15.3335C234.063 15.2444 233.353 15.078 233.628 15.0561C233.903 15.0343 233.983 14.7363 233.249 14.4383C233.249 14.4383 233.249 14.4383 233.071 14.0677C233.004 13.929 232.721 14.1202 232.641 14.1025C232.441 14.0588 232.441 14.0588 232.441 14.0588C232.272 13.9774 232.061 13.8588 231.973 13.7951C231.885 13.7313 231.929 13.5342 231.743 13.5083C231.558 13.4823 231.095 13.3908 231.218 13.3749C231.342 13.359 231.721 13.1684 231.568 13.0144C231.416 12.8603 230.281 12.6715 230.36 12.4868C230.36 12.4868 230.36 12.4868 230.247 12.3387C230.188 12.2614 229.731 12.1965 229.435 12.1841C229.031 12.167 229.103 12.0731 229.002 11.9752C228.736 11.7149 228.736 11.7149 228.736 11.7149C228.334 11.4494 227.956 11.1602 227.896 11.0723C227.836 10.9844 227.495 10.828 227.43 10.913C227.365 10.998 226.466 10.9631 226.168 10.8994C226.168 10.8994 226.168 10.8994 226.346 10.8109C226.638 10.6657 226.638 10.6657 226.638 10.6657C226.368 10.6392 226.141 10.5766 226.133 10.5271C226.133 10.5271 226.133 10.5271 226.149 10.4834C226.195 10.3612 226.272 10.2408 226.299 10.1181C226.33 9.96999 226.286 9.88973 225.786 9.80476C225.081 9.68496 225.081 9.68498 225.081 9.68498C225.092 9.34744 225.069 9.0093 225.032 8.93318C224.993 8.85705 224.605 8.60272 224.317 8.4611C224.03 8.31947 223.337 7.92882 223.46 7.90935C223.583 7.88988 223.914 7.80135 223.711 7.78778C223.507 7.7742 222.872 7.62786 222.828 7.49803C222.828 7.49803 222.828 7.49805 222.932 7.39065C223.021 7.298 223.021 7.29799 223.021 7.29799C223.305 7.21892 223.463 7.14457 223.373 7.13336C223.283 7.12215 223.081 7.00177 223.317 6.91738C223.554 6.83241 224.189 6.66245 224.28 6.70081C224.37 6.73917 224.702 6.81824 224.781 6.77753C224.86 6.73681 225.513 6.65124 225.976 6.71911C226.439 6.78697 227.611 7.02714 227.748 6.92682C227.885 6.8265 228.623 6.93037 228.564 6.95574C228.505 6.98111 228.683 7.1192 229.187 7.167C229.69 7.2148 231.059 7.2974 231 7.23367C230.941 7.16994 230.952 6.98465 231.211 7.0236C231.47 7.06313 232.056 7.1841 231.987 7.21301C231.918 7.24193 231.696 7.38238 231.89 7.35877C232.085 7.33517 232.531 7.28325 232.615 7.27381C232.699 7.26496 233.205 7.2791 233.555 7.32513C233.906 7.37116 234.508 7.6078 234.272 7.70517C234.035 7.80254 234.865 7.88457 235.047 7.73173C235.047 7.73173 235.047 7.73172 235.503 7.68511C235.55 7.68039 235.551 7.68039 235.551 7.68039C235.601 7.65501 235.788 7.75415 235.967 7.90108C236.147 8.04802 237.444 8.156 237.742 8.16957C238.039 8.18315 238.796 8.42982 238.981 8.48411C239.166 8.5384 239.925 8.37022 240.068 8.19378C240.068 8.19378 240.068 8.19378 240.657 8.36491C240.886 8.4316 240.886 8.43158 240.886 8.43158C241.383 8.45106 241.373 8.49887 240.866 8.53782C240.866 8.53782 240.866 8.53781 240.608 8.61275C240.479 8.65052 240.479 8.65051 240.479 8.65051C240.538 8.80217 240.797 8.93022 241.055 8.93554C241.055 8.93554 241.055 8.93554 241.134 8.90368C241.809 8.63341 241.809 8.6334 241.809 8.6334C241.972 8.87181 242.394 8.94971 242.747 8.8069C242.747 8.8069 242.747 8.8069 243.37 8.91607C243.791 8.98983 243.791 8.98983 243.791 8.98983C244.392 8.95796 244.935 8.93553 245.001 8.94025C245.066 8.94497 245.652 9.29492 245.912 9.38993C245.912 9.38993 245.912 9.38991 246.199 9.44125C246.3 9.45955 246.662 9.38284 246.668 9.3439C246.702 9.1232 246.702 9.12319 246.702 9.12319C247.08 9.16567 247.68 9.28842 248.036 9.39582C248.391 9.50381 249.344 9.76228 249.385 9.72806C249.427 9.69383 249.569 9.72155 249.575 9.8915C249.575 9.8915 249.575 9.89152 249.982 10.0001C250.204 10.0591 250.015 10.3005 250.544 10.2184C250.69 10.196 250.69 10.0402 250.77 9.94757C250.803 9.9098 250.803 9.9098 250.803 9.9098C250.863 9.87793 251.073 10.0001 251.268 10.1807C251.268 10.1807 251.268 10.1807 251.541 10.3217C251.899 10.5058 251.899 10.5058 251.899 10.5058C252.403 10.3412 252.908 10.1624 253.019 10.1093C253.019 10.1093 253.019 10.1093 253.139 10.1045C253.427 10.0922 253.395 10.1258 253.343 10.2379C253.291 10.353 253.291 10.353 253.291 10.353C253.534 10.4893 253.982 10.6392 254.286 10.6864C254.59 10.7336 255.59 10.8847 255.873 10.9413C256.157 10.998 257.027 11.1343 257.191 11.0782C257.354 11.0222 257.781 10.8906 257.813 10.8976C257.846 10.9047 257.889 10.9673 257.834 11.0222C257.78 11.077 257.837 11.2393 258.129 11.2157C258.42 11.1921 259.23 11.1726 259.139 11.2352C259.049 11.2977 259.113 11.5043 259.433 11.591C259.433 11.591 259.433 11.591 259.72 11.63C259.874 11.6506 260.224 11.6199 260.256 11.5833C260.366 11.4576 260.197 11.3857 259.821 11.3957C259.752 11.3975 259.752 11.3975 259.752 11.3975C259.594 11.3402 259.92 11.2163 260.478 11.1219C260.478 11.1219 260.478 11.1219 260.631 11.4275C260.679 11.5226 260.832 11.6123 260.964 11.6984C261.319 11.9327 261.319 11.9327 261.319 11.9327C261.868 11.8908 262.549 11.833 262.832 11.8046C262.832 11.8046 262.832 11.8046 263.095 11.7922C263.163 11.7893 263.163 11.7893 263.163 11.7893C263.268 11.8335 263.261 11.8819 263.146 11.8973C263.032 11.9126 262.732 12.0082 262.895 12.0537C263.058 12.0991 263.587 12.1711 263.625 12.0897C263.662 12.0082 263.79 11.8194 263.837 11.8253C263.883 11.8312 264.157 11.9887 264.349 12.1634C264.349 12.1634 264.349 12.1634 264.869 11.9404C264.941 11.9097 264.941 11.9097 264.941 11.9097C265.466 12.0065 265.606 12.128 265.255 12.1805C265.255 12.1805 265.255 12.1805 265.09 12.2354C265.022 12.2578 265.11 12.3983 265.12 12.3977C265.66 12.3912 266.199 12.377 266.736 12.3558C266.755 12.3552 266.743 12.2761 266.766 12.2354C266.776 12.2177 266.776 12.2177 266.776 12.2177C266.857 12.1929 267.074 12.2543 267.259 12.3534C267.443 12.4526 268.204 12.6863 268.465 12.6125C268.465 12.6125 268.465 12.6125 268.66 12.5464C268.871 12.4744 268.871 12.4744 268.871 12.4744C269.116 12.377 269.418 12.3564 269.541 12.4296C269.664 12.5027 270.164 12.6367 270.442 12.6048C270.442 12.6048 270.442 12.6048 270.687 12.5918C270.709 12.5907 270.817 12.7016 270.802 12.7577C270.784 12.8214 270.785 12.8214 270.785 12.8214C270.685 12.8887 270.763 12.9483 270.958 12.9548C270.958 12.9548 270.958 12.9548 271.056 12.9241C271.281 12.8527 271.584 12.7529 271.741 12.8727C272.083 13.133 272.815 13.0498 273.3 13.1825C273.884 13.3419 273.884 13.3419 273.884 13.3419C273.946 13.1406 274.098 13.0321 274.223 13.1011C274.347 13.1701 274.873 13.3206 274.916 13.1684C274.916 13.1684 274.916 13.1684 274.825 13.1389C274.519 13.0391 274.601 12.966 274.874 12.9064C275.041 12.8698 275.403 12.8338 275.428 12.8509C275.835 13.1282 275.835 13.1282 275.835 13.1282C276.612 13.1796 277.396 13.3088 277.575 13.4156C277.575 13.4156 277.575 13.4156 277.806 13.4705C278.016 13.5207 278.016 13.5207 278.016 13.5207C278.325 13.5278 278.823 13.5608 279.125 13.595C279.425 13.6292 280.444 13.6186 280.983 13.6576C280.983 13.6576 280.983 13.6576 281.288 13.4463C281.369 13.3908 281.763 13.3324 281.831 13.3548C282.266 13.5006 282.266 13.5006 282.266 13.5006C282.742 13.4351 283.423 13.4015 283.777 13.4263C284.131 13.451 285.266 13.1513 285.721 13.0586C286.177 12.966 287.641 13.0521 287.779 13.0161C287.779 13.0161 287.779 13.0161 287.913 12.9825C288.892 12.737 288.893 12.737 288.893 12.737C289.972 12.4685 291.007 12.167 291.192 12.066C291.376 11.9657 291.835 11.6306 292.007 11.5875C292.179 11.5444 291.929 11.3426 291.922 11.3314C291.916 11.3202 291.873 11.0581 291.865 10.7672C291.865 10.7672 291.865 10.7672 292.018 10.5135C292.096 10.3831 292.4 10.2727 292.597 10.1517C292.794 10.0314 292.794 10.0314 292.794 10.0314C293.027 9.88442 293.069 9.69619 292.886 9.61298C292.886 9.61298 292.886 9.61298 292.663 9.58761C292.298 9.54571 292.298 9.5457 292.298 9.5457C292.256 9.67081 292.105 9.77822 291.96 9.78412C291.96 9.78412 291.96 9.7841 291.896 9.76168C291.838 9.74103 291.899 9.64838 291.863 9.64484C291.679 9.62478 291.679 9.62478 291.679 9.62478C291.464 9.61888 291.317 9.64189 291.354 9.67553C291.39 9.70916 291.239 9.78705 290.936 9.77171C290.632 9.75637 290.235 10.0969 289.976 10.1346C289.717 10.173 289.215 10.5064 289.041 10.5642C288.866 10.6221 288.233 10.7123 288.109 10.6935C287.985 10.6746 287.582 10.6864 287.497 10.7678C287.497 10.7678 287.497 10.7678 287.392 10.8351C287.381 10.8422 287.168 10.7885 287.045 10.7867C286.853 10.7837 286.853 10.7838 286.853 10.7838C286.64 10.7979 286.066 10.8504 285.578 10.9C285.089 10.9496 283.389 10.9755 282.893 10.9496C282.396 10.9236 280.978 10.8257 280.842 10.8062C280.707 10.7867 280.084 10.7719 279.771 10.7956C279.459 10.8192 278.35 10.6616 277.82 10.7129C277.82 10.7129 277.82 10.7129 277.484 10.5076C277.463 10.4952 277.382 10.4875 277.337 10.4911C276.705 10.5412 276.705 10.5412 276.705 10.5412C276.003 10.5796 275.24 10.5306 275.009 10.4332C274.778 10.3353 273.316 10.1559 272.658 10.0774C272.658 10.0774 272.658 10.0774 272.072 9.99124C271.88 9.96291 271.584 10.2479 271.489 9.95466C271.422 9.75048 270.957 9.87145 270.677 9.84135C270.37 9.80889 270.37 9.8089 270.37 9.8089C270.035 9.77644 269.553 9.7912 269.299 9.84254C269.045 9.89388 268.188 9.62655 267.93 9.58642C267.673 9.54629 266.503 9.40645 265.939 9.35157C265.939 9.35157 265.939 9.35156 265.45 9.27838C264.573 9.14679 263.519 9.16333 262.869 8.82755C262.782 8.7833 262.782 8.78329 262.782 8.78329C262.478 8.7945 261.833 8.80689 261.348 8.81043C261.348 8.81043 261.348 8.81045 261.033 8.64227C260.928 8.58621 260.928 8.5862 260.928 8.5862C260.678 8.56496 260.278 8.54194 260.042 8.53486C259.806 8.52778 259.192 8.34189 259.072 8.31062C258.951 8.27934 257.678 8.1442 256.545 8.04034C256.545 8.04034 256.545 8.04035 255.683 7.77717C255.635 7.76241 255.262 8.00082 255.145 7.72111C255.109 7.63259 255.109 7.63258 255.109 7.63258C254.644 7.56707 253.744 7.44848 253.11 7.36999C252.474 7.29092 250.614 7.05782 250.33 7.06372C250.047 7.06962 249.271 6.91207 248.872 6.84362C248.473 6.77517 247.351 6.54443 247.216 6.51669C247.08 6.48896 246.397 6.45946 245.996 6.44707C245.596 6.43468 244.542 6.19508 244.197 6.19862C243.852 6.20216 242.42 5.81742 241.485 5.63449C241.485 5.63449 241.485 5.63449 240.539 5.88765C240.487 5.90181 240.487 5.9018 240.487 5.9018C240.356 5.87466 239.893 5.78555 239.457 5.70353C239.457 5.70353 239.457 5.70353 239.179 5.5566C238.719 5.31347 237.851 5.50113 237.247 5.28692C236.795 5.12641 236.795 5.12641 236.795 5.12641C235.99 5.07625 234.968 4.99599 234.521 4.94701C234.521 4.94701 234.521 4.94701 234.114 4.90512C233.47 4.83903 233.47 4.83903 233.47 4.83903C233.204 4.93521 232.851 4.91574 232.686 4.79595C232.522 4.67616 231.583 4.86263 231.467 4.86676C231.467 4.86676 231.467 4.86676 231.453 4.85437C231.36 4.76821 231.441 4.60416 231.029 4.65314C230.735 4.68796 230.735 4.68795 230.735 4.68795C230.441 4.79712 230.157 4.83725 230.106 4.77765C230.054 4.71805 229.122 4.63721 228.168 4.60003C228.168 4.60003 228.168 4.60002 227.425 4.7027C226.855 4.78178 226.613 4.50857 226.112 4.64371C225.69 4.7576 225.69 4.75759 225.69 4.75759C225.144 4.83667 224.487 4.91928 224.231 4.94112C223.975 4.96295 223.205 5.05972 223.069 5.0851C222.934 5.11047 222.473 5.35123 222.254 5.5318C222.254 5.5318 222.254 5.5318 222.033 5.53711C221.319 5.55481 221.319 5.55481 221.319 5.55481C221.437 5.71532 221.221 6.07234 220.839 6.3491C220.839 6.3491 220.839 6.3491 220.424 6.58278C219.984 6.82945 219.984 6.82944 219.984 6.82944C219.756 7.15459 219.548 7.44493 219.523 7.47325C219.498 7.50217 219.477 7.73762 219.429 7.98369C219.429 7.98369 219.429 7.98369 219.458 8.21265C219.507 8.58914 219.507 8.58914 219.507 8.58914C219.793 8.8482 220.154 9.16155 220.307 9.28488C220.307 9.28488 220.307 9.28489 219.984 9.31321C219.111 9.38934 219.468 9.52152 219.847 9.64072C220.415 9.81834 220.873 10.0379 221.405 10.2232C222.026 10.4397 221.858 10.6852 221.878 10.9325C221.88 10.9578 221.88 10.9578 221.88 10.9578C221.757 10.9873 221.556 11.0499 221.433 11.0965C221.311 11.1437 221.953 11.3095 222.129 11.3538C222.129 11.3538 222.129 11.3538 222.222 11.411C222.499 11.5816 222.499 11.5816 222.499 11.5816C222.821 11.8064 223.137 11.9073 223.204 11.8052C223.204 11.8052 223.204 11.8052 223.249 11.748C223.312 11.6683 222.611 11.6335 223.156 11.5379C223.235 11.5243 223.457 11.6099 223.582 11.6612C223.687 11.7043 223.747 11.7639 223.826 11.8164C224.197 12.0619 224.197 12.0619 224.197 12.0619C223.602 12.1782 223.293 12.2838 223.509 12.2962C223.725 12.3086 224.302 12.3723 224.135 12.4012C223.968 12.4302 223.738 12.5305 223.875 12.58C224.012 12.6296 224.63 12.6709 224.63 12.7895C224.63 12.9081 224.777 13.2882 224.956 13.2091C225.136 13.13 225.43 13.0675 225.342 13.1878C225.254 13.3076 225.819 13.582 225.878 13.5643C225.937 13.5466 226.217 13.5213 226.242 13.5856C226.267 13.6499 226.205 13.8393 226.023 13.7921C226.023 13.7921 226.023 13.7921 225.917 13.7892C225.823 13.7868 225.635 13.8334 225.638 13.8376C225.765 13.9686 225.765 13.9685 225.765 13.9685C225.933 14.1043 226.303 14.3474 226.588 14.5091C226.873 14.6708 228.053 15.2638 228.475 15.5264C228.475 15.5264 228.475 15.5264 228.696 15.7997C228.809 15.9383 228.809 15.9383 228.809 15.9383C229.019 16.0752 229.354 16.2098 229.553 16.2363C229.753 16.2629 229.977 16.411 230.014 16.3396C230.052 16.2682 230.244 16.1714 230.36 16.2847C230.475 16.398 230.171 16.6919 230.43 16.6972C230.689 16.7025 231.498 16.8394 231.755 16.9356C231.755 16.9356 231.755 16.9356 231.712 17.0029C231.556 17.2513 231.367 16.9616 231.234 16.9946C231.128 17.0206 231.028 17.1333 231.075 17.1522C231.291 17.2372 231.291 17.2371 231.291 17.2371C231.579 17.3115 232.038 17.4018 232.315 17.4378C232.315 17.4378 232.315 17.4378 232.532 17.4903C232.647 17.518 232.782 17.6237 232.744 17.6402C232.567 17.7187 232.242 17.7641 232.15 17.8497C232.08 17.9158 232.08 17.9158 232.08 17.9158C232.233 18.0244 232.18 18.1371 231.961 18.1672C231.961 18.1672 231.961 18.1672 231.914 18.1459C231.54 17.9742 230.985 17.9471 230.533 17.852C230.047 17.75 229.542 18.0804 229.175 17.7718C228.879 17.5222 228.161 17.6797 227.646 17.6308C227.453 17.6125 227.281 17.5458 227.121 17.4909C226.663 17.3333 226.144 17.2661 225.522 17.2336C224.972 17.2047 224.404 17.1026 223.942 16.9793C223.107 16.7574 223.107 16.7574 223.107 16.7574C222.096 16.5591 221.125 16.4482 220.948 16.5101C220.773 16.5727 220.21 16.722 220.258 16.6459C220.305 16.5697 220.398 16.3661 220.372 16.3443C220.372 16.3443 220.372 16.3443 220.297 16.339C218.937 16.2452 218.937 16.2452 218.937 16.2452C217.777 15.9029 216.137 15.4598 215.293 15.2597C215.293 15.2597 215.293 15.2597 214.423 15.1771C214.006 15.1375 214.168 15.0142 214.003 14.9552C213.86 14.9039 213.629 14.8873 213.433 14.8596C212.774 14.7664 212.076 14.7003 211.666 14.4471C211.619 14.4176 211.619 14.4176 211.619 14.4176C211.497 14.4011 211.012 14.3427 210.544 14.2878C210.074 14.2329 208.375 13.7508 207.638 13.5106C207.638 13.5106 207.638 13.5106 206.86 13.4015C204.728 13.1023 204.728 13.1023 204.728 13.1023C202.731 12.5665 200.622 12.007 200.042 11.8595C199.46 11.712 197.619 11.2965 197.373 11.1762C197.373 11.1762 197.373 11.1762 197.098 11.1508C196.416 11.0882 196.416 11.0882 196.416 11.0882C195.905 10.9006 195.299 10.6645 195.069 10.5636C194.839 10.4627 193.414 10.3896 192.819 10.2662C192.224 10.1429 190.63 9.5522 190.289 9.43182C189.948 9.31143 188.541 9.12436 188.31 9.0748C188.079 9.02464 186.883 8.63046 186.063 8.35724C186.063 8.35724 186.063 8.35723 185.167 8.23331C184.637 8.16013 184.637 8.16014 184.637 8.16014C184.398 8.02028 184.008 7.86922 183.768 7.82556C183.529 7.78189 182.873 7.59954 182.769 7.56472C182.664 7.5299 182.22 7.46204 181.975 7.40185C181.73 7.34166 180.792 7.20062 180.312 7.11387C180.312 7.11387 180.312 7.11388 179.94 6.99232C179.201 6.75214 179.201 6.75215 179.201 6.75215C178.31 6.53027 177.483 6.32019 177.364 6.28596C177.246 6.25174 176.435 6.16972 175.916 6.13136C175.916 6.13136 175.916 6.13136 175.486 6.05936C175.1 5.99504 175.1 5.99504 175.1 5.99504C174.724 5.88291 174.084 5.72005 173.68 5.63389C173.68 5.63389 173.68 5.63389 173.313 5.55481C172.9 5.46571 172.265 5.40848 172.129 5.27689C171.918 5.07212 171.918 5.07211 171.918 5.07211C171.543 5.08391 170.847 5.02904 170.371 4.95055C169.895 4.87207 167.799 4.5174 166.759 4.34627C166.759 4.34627 166.759 4.34629 165.794 4.33331C164.77 4.31973 164.77 4.31973 164.77 4.31973C163.735 4.21941 161.876 4.1303 160.639 4.12086C160.639 4.12086 160.639 4.12086 159.678 4.35218C159.375 4.42476 159.376 4.42477 159.376 4.42477C159.19 4.39409 158.843 4.41709 158.605 4.4761C158.605 4.4761 158.605 4.47611 158.498 4.5363C158.218 4.69327 157.869 4.50443 157.777 4.55281C157.441 4.73103 157.441 4.73103 157.441 4.73103C157.148 4.94878 156.829 5.24679 156.732 5.39373C156.636 5.54066 155.739 5.83394 155.622 5.87171C155.622 5.87171 155.622 5.87171 155.637 5.89709C155.803 6.18329 155.292 6.35736 154.972 6.57511C154.671 6.78047 154.637 7.04129 154.378 7.25904C154.007 7.57062 154.008 7.57063 154.008 7.57063C153.972 7.93 153.951 8.47762 153.96 8.78684C153.96 8.78684 153.96 8.78683 154.335 9.00399C154.785 9.26363 154.841 9.53155 154.999 9.81481C155.134 10.0556 155.134 10.0556 155.134 10.0556C155.669 10.2887 156.356 10.422 156.662 10.3512C156.662 10.3512 156.662 10.3512 156.81 10.4981C156.943 10.6297 156.943 10.6297 156.943 10.6297C156.95 10.7873 156.978 11.0487 157.009 11.2104C157.009 11.2104 157.009 11.2104 157.432 11.2688C157.579 11.2889 157.579 11.2889 157.579 11.2889C157.874 11.2912 157.959 11.3609 157.77 11.4435C157.77 11.4435 157.769 11.4435 157.619 11.4801C157.444 11.5226 157.444 11.5226 157.444 11.5226C157.198 11.5556 157.285 11.5957 157.636 11.6123C157.988 11.6288 158.553 11.8991 158.373 11.9097C158.194 11.9203 157.883 12.046 158.156 12.1599C158.431 12.2744 158.489 12.7925 158.558 12.943C158.627 13.0934 159.547 13.3336 159.466 13.4357C159.466 13.4357 159.466 13.4357 159.554 13.474C159.769 13.5679 159.769 13.5679 159.769 13.5679C160.026 13.6747 159.977 13.8629 159.661 13.9868C159.661 13.9868 159.661 13.9869 160.302 13.9863C160.914 13.9857 160.914 13.9857 160.914 13.9857C160.966 14.1385 161.179 14.2866 161.385 14.3155C161.385 14.3155 161.385 14.3155 161.383 14.3421C161.377 14.4448 161.377 14.4448 161.377 14.4448C161.3 14.5569 161.326 14.6867 161.432 14.7321C161.539 14.7782 161.751 14.9487 161.652 15.0532C161.652 15.0532 161.652 15.0532 161.852 15.1494C162.117 15.2768 162.117 15.2768 162.117 15.2768C162.38 15.4238 162.501 15.7194 162.383 15.9348C162.383 15.9348 162.383 15.9348 163.112 15.9442C163.617 15.9507 163.617 15.9507 163.617 15.9507C163.817 16.0977 164.004 16.27 164.034 16.3325C164.064 16.3957 162.954 16.4576 161.482 16.2924C160.011 16.1272 155.774 15.3819 155.02 15.2184C154.265 15.0549 151.696 14.7469 151.211 14.708C150.726 14.669 149.624 14.1751 149.206 14.0736C148.788 13.9721 147.256 13.6883 146.794 13.6198C146.332 13.5514 145.163 13.2085 145.009 13.1719C144.856 13.1353 143.923 13.0409 143.298 12.9736C143.298 12.9736 143.298 12.9736 142.955 12.7417C142.826 12.6538 142.826 12.6538 142.826 12.6538C142.449 12.6078 140.277 12.2372 137.999 11.83C137.999 11.83 137.999 11.83 136.285 11.2257C135.903 11.0912 135.903 11.0912 135.903 11.0912C135.392 10.969 134.705 10.841 134.378 10.8068C134.05 10.7725 133.132 10.4421 132.875 10.3683C132.617 10.2946 131.747 10.042 131.517 9.97117C131.289 9.90036 130.568 9.69855 130.444 9.66964C130.319 9.64072 129.689 9.54216 129.342 9.492C129.342 9.492 129.342 9.49201 128.686 9.22587C128.51 9.15447 128.259 9.10076 128.015 9.06476C127.332 8.96268 127.332 8.96269 127.332 8.96269C126.773 8.75675 125.586 8.44989 124.691 8.28112C124.691 8.28112 124.691 8.28111 124.042 8.025C123.898 7.96835 123.898 7.96835 123.898 7.96835C123.688 7.92527 123.26 7.80843 122.946 7.70929C122.632 7.61016 121.198 7.27616 120.656 7.10148C120.656 7.10148 120.656 7.10148 120.094 6.99232C119.469 6.87075 119.469 6.87076 119.469 6.87076C118.851 6.70435 117.941 6.45769 117.446 6.32256C116.952 6.18742 115.332 5.86581 115.161 5.79087C114.99 5.71534 114.543 5.53239 114.878 5.39254C114.878 5.39254 114.878 5.39255 114.007 5.41438C113.745 5.42087 113.471 5.29459 113.183 5.2462C112.849 5.18955 112.463 5.17125 112.155 5.10044C111.872 5.03553 111.68 4.85141 111.423 4.84315C110.515 4.81541 110.06 4.52567 109.367 4.37992C108.016 4.09548 106.704 3.7845 105.392 3.4741C104.755 3.32362 104.755 3.32364 104.755 3.32364C104.081 3.14424 102.3 2.79843 100.799 2.55413C100.799 2.55413 100.799 2.55413 99.6623 2.17588C99.3031 2.05668 99.3031 2.05668 99.3031 2.05668C98.8611 2.07851 98.0299 2.00828 97.4586 1.90088C96.886 1.79349 95.177 1.51908 94.833 1.59933C94.833 1.59933 94.833 1.59934 94.6069 1.39398C94.4161 1.22049 93.9201 1.30133 93.5823 1.2494C93.2433 1.19689 93.2433 1.19689 93.2433 1.19689C92.9068 1.10602 91.1137 0.782046 89.2578 0.476961C89.2578 0.476961 89.2578 0.476965 87.4484 0.314686C87.0315 0.277509 87.0315 0.277498 87.0315 0.277498C86.5707 0.249173 86.0094 0.209046 85.7834 0.188393C85.5573 0.167739 84.2565 0.0656575 83.3788 0.0267105C82.5011 -0.0122365 79.8315 -0.00162658 79.3946 0.0148964C78.9576 0.0314194 77.5337 0.302867 77.0615 0.393744C77.0615 0.393744 77.0615 0.393749 76.9046 0.524162C76.0884 1.20396 76.0884 1.20397 76.0884 1.20397C74.9545 1.90089 73.7893 2.72585 73.5005 3.03743C73.5005 3.03743 73.5004 3.03744 73.2506 3.32364C72.9957 3.61633 72.9957 3.61631 72.9957 3.61631C73.1689 3.9155 73.2342 4.24774 73.1426 4.35573C73.0509 4.46313 73.0936 4.88624 73.12 5.06327C73.1451 5.2403 73.4138 5.73008 73.2468 5.81682C73.0798 5.90357 73.7867 6.26177 73.9525 6.42051C73.9525 6.42051 73.9525 6.4205 74.0667 6.57452C74.1961 6.74978 74.2601 6.93332 74.4209 7.10327C74.5628 7.25315 74.5628 7.25315 74.5628 7.25315C74.7963 7.40717 75.1064 7.68983 75.2521 7.88102C75.2521 7.88102 75.2521 7.88102 75.4417 8.04566C75.5472 8.13771 75.7544 8.22032 75.9616 8.28642C76.3332 8.40562 76.3759 8.5555 76.4902 8.72663C76.7061 9.05178 77.0979 9.36808 77.5412 9.66018C77.8162 9.84135 78.336 9.96586 78.714 10.1264C78.9915 10.245 78.5834 10.5335 79.4197 10.5383C79.5088 10.5389 79.5992 10.7613 79.6683 10.8823C79.6833 10.9089 79.6833 10.9088 79.6833 10.9088C79.6293 10.9425 79.9169 11.1225 80.3225 11.3089C80.7281 11.4954 81.9787 12.1056 82.1319 12.2785C82.2838 12.4514 83.6764 12.894 84.0305 13.1465C84.0305 13.1465 84.0305 13.1465 84.2653 13.392C84.3369 13.4676 84.3469 13.5915 84.475 13.6121C85.3263 13.749 85.3514 14.0695 85.6666 14.3273C85.6967 14.3344 85.6967 14.3344 85.6967 14.3344Z" fill="#7CFFC4"/>
</svg>
