<svg width="503" height="614" viewBox="0 0 503 614" fill="none" xmlns="http://www.w3.org/2000/svg">
<g clip-path="url(#clip0_78_392)">
<path d="M415.008 540.799C415.008 541.649 413.831 542.499 411.413 543.152L354.619 558.38C349.783 559.687 342.005 559.687 337.235 558.38L63.9177 485.116C61.4996 484.463 60.3232 483.613 60.3232 482.764C60.3232 481.914 61.4996 481.064 63.9177 480.411L120.712 465.183C125.548 463.876 133.325 463.876 138.096 465.183L411.348 538.381C413.831 539.1 415.008 539.95 415.008 540.799Z" fill="url(#paint0_linear_78_392)"/>
<path d="M153.52 374.404C163.062 371.855 169.794 361.006 169.794 346.171L233.189 329.178C233.189 344.014 226.457 354.863 216.915 357.412L153.52 374.404Z" fill="url(#paint1_linear_78_392)"/>
<path d="M128.358 367.476C125.417 368.261 122.28 368.261 118.947 367.346C104.765 363.555 93.2624 344.798 93.2624 325.453L156.657 308.46C156.657 327.806 168.16 346.563 182.342 350.353C185.675 351.268 188.812 351.203 191.753 350.484L128.358 367.476Z" fill="url(#paint2_linear_78_392)"/>
<path d="M93.3277 325.518L60.3232 316.695L123.718 299.703L156.657 308.526L93.3277 325.518Z" fill="url(#paint3_linear_78_392)"/>
<path d="M177.636 507.86V462.961L241.031 445.969V490.933L177.636 507.86Z" fill="url(#paint4_linear_78_392)"/>
<path d="M187.048 463.092C196.589 460.543 203.321 449.694 203.321 434.858C203.321 415.513 191.819 396.756 177.636 392.965L241.031 375.973C255.213 379.763 266.716 398.52 266.716 417.866C266.716 432.701 259.984 443.55 250.442 446.099L187.048 463.092Z" fill="url(#paint5_linear_78_392)"/>
<path d="M177.636 392.965V348.066L241.031 331.139V376.038L177.636 392.965Z" fill="url(#paint6_linear_78_392)"/>
<path d="M177.636 348.066L144.632 339.243L208.027 322.251L241.031 331.139L177.636 348.066Z" fill="url(#paint7_linear_78_392)"/>
<path d="M177.636 507.86L82.6094 482.372C70.3226 479.104 60.3232 462.83 60.3232 446.034V316.695L93.2624 325.518C93.2624 344.864 104.765 363.621 118.947 367.411C122.28 368.326 125.417 368.261 128.358 367.542C137.9 364.993 144.632 354.144 144.632 339.308L177.571 348.131V393.031C191.753 396.821 203.256 415.578 203.256 434.923C203.256 449.759 196.524 460.608 186.982 463.157C184.041 463.941 180.904 463.941 177.571 463.026V507.86H177.636Z" fill="url(#paint8_linear_78_392)"/>
<path d="M177.636 348.066V303.167L241.031 286.174V331.073L177.636 348.066Z" fill="url(#paint9_linear_78_392)"/>
<path d="M177.636 303.167C163.454 299.376 151.952 280.619 151.952 261.274C151.952 246.438 158.683 235.589 168.225 233.04L231.62 216.048C222.078 218.597 215.346 229.446 215.346 244.281C215.346 263.627 226.849 282.384 241.031 286.174L177.636 303.167Z" fill="url(#paint10_linear_78_392)"/>
<path d="M177.636 233.171V188.272L241.031 171.279V216.178L177.636 233.171Z" fill="url(#paint11_linear_78_392)"/>
<path d="M177.636 188.272L82.6094 162.783C79.7338 161.999 76.9889 161.999 74.44 162.718L137.835 145.725C140.384 145.072 143.129 145.072 146.004 145.791L241.031 171.279L177.636 188.272Z" fill="url(#paint12_linear_78_392)"/>
<path d="M128.358 367.476C125.417 368.261 122.28 368.261 118.947 367.346C104.765 363.555 93.2624 344.798 93.2624 325.453L60.3232 316.63V187.226C60.3232 174.416 66.2052 165.005 74.44 162.783C76.9888 162.129 79.7338 162.129 82.6094 162.848L177.636 188.337V233.236C174.303 232.321 171.166 232.387 168.225 233.106C158.683 235.654 151.952 246.503 151.952 261.339C151.952 280.684 163.454 299.441 177.636 303.232V348.131L144.697 339.308C144.632 354.079 137.9 364.928 128.358 367.476Z" fill="url(#paint13_linear_78_392)"/>
<path d="M265.997 258.725C265.997 258.725 270.441 272.776 271.16 278.201C271.683 282.188 271.683 286.37 273.448 287.939C275.212 289.507 288.414 294.148 300.635 296.827C312.857 299.507 319.915 294.213 317.04 289.311C314.164 284.41 293.25 275.783 290.571 269.051C287.891 262.319 285.865 252.32 285.865 252.32L265.997 258.725Z" fill="url(#paint14_linear_78_392)"/>
<path d="M158.16 127.295C158.16 127.295 164.696 155.202 195.152 163.044C225.607 170.887 235.084 171.345 235.084 171.345C235.084 171.345 237.437 195.787 248.22 218.662C259.004 241.536 266.977 263.365 266.977 263.365C266.977 263.365 277.696 265.391 287.695 257.941C287.695 257.941 269.526 180.168 266.847 168.6C264.167 157.032 260.376 149.516 252.468 145.856C244.56 142.131 190.185 121.413 190.185 121.413L158.16 127.295Z" fill="url(#paint15_linear_78_392)"/>
<path d="M317.04 289.311C316.582 293.233 310.047 296.435 300.047 294.213C287.826 291.533 274.624 286.893 272.859 285.325C272.402 284.932 272.075 284.344 271.814 283.691C272.075 285.586 272.533 287.155 273.448 288.004C275.212 289.573 288.414 294.213 300.635 296.892C312.857 299.572 319.915 294.278 317.04 289.311Z" fill="url(#paint16_linear_78_392)"/>
<path d="M196.589 280.031C196.589 280.031 199.008 294.605 198.942 300.03C198.877 304.016 198.289 308.199 199.857 309.964C201.426 311.728 213.843 318.198 225.542 322.577C237.241 326.956 245.018 322.708 242.861 317.414C240.704 312.12 221.228 300.683 219.529 293.625C217.83 286.566 217.242 276.371 217.242 276.371L196.589 280.031Z" fill="url(#paint17_linear_78_392)"/>
<path d="M142.998 126.445L177.636 122.72C177.636 122.72 204.301 161.28 209.007 169.188C213.713 177.096 215.02 186.899 214.562 197.029C214.105 207.225 218.287 283.887 218.287 283.887C205.674 290.88 197.374 286.174 197.374 286.174C182.93 226.439 180.839 188.664 180.839 188.664C180.839 188.664 157.964 169.711 149.141 158.077C137.443 142.784 142.998 126.445 142.998 126.445Z" fill="url(#paint18_linear_78_392)"/>
<path d="M242.796 317.48C241.815 321.336 234.888 323.558 225.28 319.898C213.582 315.519 201.099 309.049 199.596 307.284C199.204 306.827 198.942 306.238 198.811 305.52C198.811 307.415 199.008 309.049 199.857 310.029C201.36 311.859 213.843 318.264 225.542 322.643C237.241 327.022 244.953 322.773 242.796 317.48Z" fill="url(#paint19_linear_78_392)"/>
<path d="M209.53 83.0491C209.53 83.0491 213.582 92.395 217.503 100.76C222.862 112.263 242.534 104.29 236.064 90.565C229.398 76.4482 228.483 74.2915 228.483 74.2915L209.53 83.0491Z" fill="url(#paint20_linear_78_392)"/>
<path d="M232.273 79.7814C232.273 79.7814 221.098 53.9006 216.327 47.8226C212.209 42.5288 192.276 46.1233 199.53 63.3772C206.001 78.8011 211.36 90.0422 211.36 90.0422C211.36 90.0422 223.385 86.317 232.273 79.7814Z" fill="url(#paint21_linear_78_392)"/>
<path d="M287.695 146.313C285.473 144.941 275.408 138.34 270.899 134.353C267.696 131.543 250.769 123.504 222.797 106.054C209.007 97.4273 221.947 79.1931 235.803 89.7807C254.429 104.028 274.689 120.432 277.5 121.347C280.31 122.262 284.493 121.805 286.78 121.674C288.937 121.544 290.767 121.282 291.551 122.262C292.335 123.243 289.59 124.419 287.891 124.942C286.192 125.465 284.035 126.184 285.473 127.099C285.473 127.099 294.688 132.719 297.172 134.222C299.655 135.791 297.825 138.34 295.407 137.033C292.989 135.726 285.538 131.739 285.538 131.739C285.538 131.739 295.93 138.405 298.087 139.843C300.309 141.281 298.348 144.157 295.734 142.588C293.119 141.019 283.774 135.007 283.774 135.007C283.774 135.007 290.767 139.974 293.838 142.261C296.126 143.96 294.492 146.509 291.616 144.745C288.152 142.588 281.356 138.078 281.356 138.078C281.356 138.078 286.911 142.261 289.264 144.222C290.897 145.398 289.917 147.686 287.695 146.313Z" fill="url(#paint22_linear_78_392)"/>
<path d="M283.12 127.687C283.12 127.687 280.048 132.915 270.833 129.255" stroke="white" stroke-miterlimit="10" stroke-linecap="round" stroke-linejoin="round"/>
<path d="M139.207 136.706C139.207 136.706 144.632 103.179 155.481 65.5992C162.931 39.5877 205.87 37.0389 215.02 46.3847C223.254 54.8156 201.752 100.172 202.471 123.962C202.667 130.759 189.596 139.124 174.434 140.17C142.018 142.392 139.207 136.706 139.207 136.706Z" fill="url(#paint23_linear_78_392)"/>
<path d="M200.445 39.8491C192.08 39.5877 181.623 41.8098 172.408 46.7768C173.911 50.1753 179.074 57.4297 189.596 60.24C204.171 64.1613 212.144 56.7762 200.445 39.8491Z" fill="url(#paint24_linear_78_392)"/>
<path d="M174.238 45.7965C174.238 45.7965 184.629 41.1563 182.08 30.8955L195.936 29.5884C195.936 29.5884 196.393 36.6468 198.419 39.3917C200.445 42.1366 208.942 54.3581 200.249 57.2338C190.119 60.5669 177.506 52.136 174.238 45.7965Z" fill="url(#paint25_linear_78_392)"/>
<path d="M204.105 53.0509C204.563 49.7832 202.471 45.4697 200.576 42.4633L184.499 36.516C184.499 36.516 186.786 52.3974 197.635 54.0966C200.511 54.5541 202.537 53.9659 204.105 53.0509Z" fill="url(#paint26_linear_78_392)"/>
<path d="M180.512 32.2026C175.676 26.9741 177.702 22.9221 180.773 21.3536C181.231 15.9291 182.603 12.5306 188.159 9.00137C197.112 3.25008 211.164 8.2171 213.647 14.8834C216.131 21.5496 212.732 27.9545 212.928 30.5033C213.124 33.0522 212.471 37.431 211.425 40.5681C209.595 45.8619 206.785 50.0446 202.929 50.5021C198.746 51.025 182.211 43.2477 180.512 32.2026Z" fill="url(#paint27_linear_78_392)"/>
<path d="M193.256 17.6283C194.629 20.4386 193.322 25.4056 189.923 26.7781C186.525 28.1505 186.394 28.8041 186.394 28.8041C186.394 28.8041 186.917 21.811 182.08 22.5953C179.989 22.9221 176.721 26.6473 182.799 32.2026C182.93 34.8168 182.146 36.8428 182.146 36.8428C182.146 36.8428 174.695 29.719 175.022 20.5039C175.349 11.2888 181.296 10.5699 181.296 10.5699C181.296 10.5699 182.603 1.35475 193.91 0.178355C205.216 -0.998045 214.562 3.83826 216.784 9.00135C219.921 16.1251 214.497 22.2032 214.497 22.2032C214.497 22.2032 215.346 14.6219 209.922 16.6479C204.497 18.7393 197.962 20.7 193.256 17.6283Z" fill="url(#paint28_linear_78_392)"/>
<path d="M208.157 32.1372C208.157 32.1372 208.876 38.0192 208.942 39.0649C209.007 40.1106 207.7 41.6791 205.739 40.5681" stroke="#2E405C" stroke-miterlimit="10" stroke-linecap="round"/>
<path d="M201.622 33.4443C202.452 33.4443 203.125 32.7713 203.125 31.9412C203.125 31.111 202.452 30.438 201.622 30.438C200.792 30.438 200.119 31.111 200.119 31.9412C200.119 32.7713 200.792 33.4443 201.622 33.4443Z" fill="#2E405C"/>
<path d="M211.556 33.1176C212.386 33.1176 213.059 32.4446 213.059 31.6144C213.059 30.7842 212.386 30.1112 211.556 30.1112C210.726 30.1112 210.053 30.7842 210.053 31.6144C210.053 32.4446 210.726 33.1176 211.556 33.1176Z" fill="#2E405C"/>
<path d="M203.713 26.9741C203.713 26.9741 201.491 24.8827 198.615 26.9741" stroke="#2E405C" stroke-miterlimit="10" stroke-linecap="round"/>
<path d="M214.562 26.778C214.562 26.778 212.34 24.6866 209.464 26.778" stroke="#2E405C" stroke-miterlimit="10" stroke-linecap="round"/>
<path d="M202.079 43.7704C202.079 43.7704 198.093 42.9208 198.158 38.542" stroke="#2E405C" stroke-miterlimit="10" stroke-linecap="round"/>
<path d="M213.778 172.652C211.883 170.952 203.19 162.718 199.465 158.012C196.851 154.679 181.688 143.961 157.441 121.936C145.481 111.087 161.297 95.5321 172.996 108.342C188.681 125.465 205.608 145.072 208.157 146.444C210.706 147.817 214.889 148.078 217.176 148.405C219.333 148.666 221.163 148.731 221.751 149.843C222.339 150.954 219.464 151.607 217.699 151.803C215.935 151.999 213.713 152.326 214.954 153.502C214.954 153.502 222.993 160.561 225.15 162.522C227.306 164.482 225.084 166.639 222.993 164.94C220.836 163.24 214.301 158.077 214.301 158.077C214.301 158.077 223.254 166.377 225.15 168.207C227.045 170.037 224.627 172.456 222.339 170.43C220.052 168.469 212.013 160.888 212.013 160.888C212.013 160.888 217.961 166.966 220.575 169.776C222.536 171.867 220.444 174.024 218.026 171.802C215.02 169.057 209.138 163.502 209.138 163.502C209.138 163.502 213.843 168.534 215.804 170.887C217.046 172.325 215.739 174.351 213.778 172.652Z" fill="url(#paint29_linear_78_392)"/>
<path d="M154.174 93.1793C154.174 93.1793 153.455 103.375 153.063 112.59C152.474 125.269 173.584 127.36 174.238 112.198C174.891 96.5777 175.087 94.2903 175.087 94.2903L154.174 93.1793Z" fill="url(#paint30_linear_78_392)"/>
<path d="M176.656 100.564C176.656 100.564 177.31 77.0364 177.506 69.3245C177.767 57.2337 156.853 52.2013 155.219 70.8277C153.782 87.4933 153.324 99.9109 153.324 99.9109C153.324 99.9109 165.742 102.198 176.656 100.564Z" fill="url(#paint31_linear_78_392)"/>
<path d="M243.972 478.515C241.031 479.3 237.894 479.3 234.561 478.385L297.956 461.392C301.289 462.307 304.426 462.242 307.367 461.523L243.972 478.515Z" fill="url(#paint32_linear_78_392)"/>
<path d="M267.566 372.378L234.561 363.555L297.956 346.563L330.895 355.386L267.566 372.378Z" fill="url(#paint33_linear_78_392)"/>
<path d="M337.757 548.903C346.057 546.681 351.874 537.27 351.874 524.46V394.926L415.269 377.933V507.403C415.269 520.212 409.387 529.624 401.152 531.846L337.757 548.903Z" fill="url(#paint34_linear_78_392)"/>
<path d="M351.874 394.926L318.935 386.103L382.264 369.11L415.269 377.999L351.874 394.926Z" fill="url(#paint35_linear_78_392)"/>
<path d="M318.935 386.103C318.935 366.758 307.432 348 293.25 344.21C289.917 343.295 286.78 343.36 283.839 344.079L347.234 327.087C350.175 326.302 353.312 326.302 356.645 327.217C370.827 331.008 382.33 349.765 382.33 369.11L318.935 386.103Z" fill="url(#paint36_linear_78_392)"/>
<path d="M337.757 548.903C335.208 549.557 332.464 549.557 329.588 548.838L234.561 523.349V478.45C237.894 479.365 241.031 479.3 243.972 478.581C253.514 476.032 260.246 465.183 260.246 450.347C260.246 431.002 248.743 412.245 234.561 408.454V363.555L267.5 372.378C267.5 357.542 274.232 346.693 283.774 344.144C286.715 343.36 289.852 343.36 293.185 344.275C307.367 348.066 318.87 366.823 318.87 386.168L351.809 394.991V524.46C351.874 537.27 345.992 546.681 337.757 548.903Z" fill="url(#paint37_linear_78_392)"/>
<path d="M280.114 291.141C282.989 287.024 286.715 284.409 290.701 283.364L354.096 266.371C350.11 267.417 346.384 270.031 343.509 274.149L280.114 291.141Z" fill="url(#paint38_linear_78_392)"/>
<path d="M307.236 180.756C299.786 170.626 290.048 166.377 281.748 168.599L345.143 151.607C353.443 149.385 363.181 153.568 370.631 163.763L307.236 180.756Z" fill="url(#paint39_linear_78_392)"/>
<path d="M345.796 380.743L405.335 295.847C413.047 284.867 411.544 265.326 401.936 252.254L327.889 151.28L391.284 134.288L465.331 235.262C474.939 248.333 476.442 267.874 468.73 278.854L409.191 363.751L345.796 380.743Z" fill="url(#paint40_linear_78_392)"/>
<path d="M345.796 380.743L320.111 345.713C329 333.034 327.235 310.552 316.19 295.454C308.739 285.324 299.002 281.076 290.701 283.298C286.715 284.344 282.989 286.958 280.114 291.076L254.429 256.045L275.081 226.57C264.036 211.473 262.272 188.99 271.16 176.311C274.036 172.194 277.761 169.58 281.748 168.534C290.048 166.312 299.786 170.495 307.236 180.69L327.889 151.215L401.936 252.254C411.544 265.326 413.047 284.867 405.335 295.847L345.796 380.743Z" fill="url(#paint41_linear_78_392)"/>
<path d="M135.809 517.794C135.809 518.121 135.351 518.448 134.436 518.644L67.7737 536.486C66.0091 536.943 63.0681 536.943 61.3035 536.486C60.3885 536.224 59.931 535.963 59.931 535.636C59.931 535.309 60.3885 534.983 61.3035 534.787L83.0669 528.97L29.606 514.657L7.84266 520.474C6.07806 520.931 3.13706 520.931 1.37247 520.474C0.457489 520.212 0 519.951 0 519.624C0 519.297 0.457489 518.97 1.37247 518.774L68.0351 500.932C69.7997 500.475 72.7407 500.475 74.5053 500.932C75.4203 501.194 75.8778 501.455 75.8778 501.782C75.8778 502.109 75.4203 502.436 74.5053 502.632L36.0109 512.958L89.4717 527.271L127.966 516.944C129.731 516.487 132.672 516.487 134.436 516.944C135.417 517.206 135.809 517.467 135.809 517.794Z" fill="url(#paint42_linear_78_392)"/>
<path d="M159.271 196.637C157.507 196.637 156.134 198.075 156.134 199.774V221.015L102.804 206.702V183.827C102.804 182.063 101.366 180.69 99.6672 180.69C97.9026 180.69 96.5301 182.128 96.5301 183.827V314.342C96.5301 316.107 97.9679 317.479 99.6672 317.479C101.432 317.479 102.804 316.042 102.804 314.342V284.54L156.134 298.853V330.354C156.134 332.119 157.572 333.492 159.271 333.492C161.036 333.492 162.408 332.054 162.408 330.354V199.774C162.408 198.01 160.971 196.637 159.271 196.637ZM102.804 278.005V213.237L156.134 227.55V292.318L102.804 278.005Z" fill="url(#paint43_linear_78_392)"/>
<path d="M89.2756 219.708L148.945 235.72" stroke="url(#paint44_linear_78_392)" stroke-width="10" stroke-miterlimit="10" stroke-linecap="round" stroke-linejoin="round"/>
<path d="M70.3225 285.586L129.992 301.598" stroke="url(#paint45_linear_78_392)" stroke-width="10" stroke-miterlimit="10" stroke-linecap="round" stroke-linejoin="round"/>
<path d="M51.3694 351.464L111.039 367.411" stroke="url(#paint46_linear_78_392)" stroke-width="10" stroke-miterlimit="10" stroke-linecap="round" stroke-linejoin="round"/>
<path d="M32.4163 417.343L92.0859 433.289" stroke="url(#paint47_linear_78_392)" stroke-width="10" stroke-miterlimit="10" stroke-linecap="round" stroke-linejoin="round"/>
<path d="M13.4632 483.221L73.1328 499.168" stroke="url(#paint48_linear_78_392)" stroke-width="10" stroke-miterlimit="10" stroke-linecap="round" stroke-linejoin="round"/>
<path d="M159.271 199.774L62.7413 535.113" stroke="url(#paint49_linear_78_392)" stroke-width="10" stroke-miterlimit="10" stroke-linecap="round" stroke-linejoin="round"/>
<path d="M3.13702 519.167L99.6018 183.762" stroke="url(#paint50_linear_78_392)" stroke-width="10" stroke-miterlimit="10" stroke-linecap="round" stroke-linejoin="round"/>
<path d="M453.698 334.537C444.744 335.779 428.601 337.609 421.674 338.851C408.929 341.203 408.864 362.183 428.079 359.438C445.529 356.954 452.129 355.32 461.41 352.902C470.69 350.484 468.272 332.446 453.698 334.537Z" fill="url(#paint51_linear_78_392)"/>
<path d="M436.313 266.11C437.359 268.528 441.28 281.142 442.718 287.024C443.764 291.272 451.541 307.545 464.678 338.328C471.148 353.556 452.848 359.699 447.489 342.837C440.235 320.224 433.307 295.128 431.477 292.775C429.647 290.422 424.746 288.396 422.785 287.154C420.89 285.978 419.256 285.128 419.125 283.887C419.06 282.645 422.066 283.233 423.7 283.756C425.399 284.344 427.687 284.932 426.968 283.364C426.968 283.364 422.523 273.364 421.347 270.619C420.171 267.875 423.177 266.829 424.419 269.312C425.66 271.796 429.582 279.442 429.582 279.442C429.582 279.442 424.811 267.875 423.831 265.391C422.85 262.907 426.118 261.666 427.36 264.476C428.601 267.286 432.915 277.743 432.915 277.743C432.915 277.743 429.974 269.574 428.732 265.848C427.817 263.104 430.693 261.927 432 265.064C433.634 268.92 436.706 276.567 436.706 276.567C436.706 276.567 434.484 269.901 433.634 266.894C433.111 264.999 435.268 263.626 436.313 266.11Z" fill="url(#paint52_linear_78_392)"/>
<path d="M455.659 316.564C455.659 316.564 460.43 328.198 465.789 340.289C471.605 353.229 452.326 359.961 447.62 344.994C440.823 323.427 440.627 321.793 440.627 321.793C440.627 321.793 446.705 315.323 455.659 316.564Z" fill="url(#paint53_linear_78_392)"/>
<path d="M478.272 539.1C478.272 539.1 488.402 556.877 496.767 563.543C501.604 567.399 500.035 570.144 492.911 575.83C485.788 581.516 477.749 588.247 474.612 588.705C471.475 589.162 471.736 587.855 475.788 582.757C483.827 572.758 479.252 566.68 463.501 547.465L478.272 539.1Z" fill="url(#paint54_linear_78_392)"/>
<path d="M437.882 397.671C437.882 397.671 449.907 413.487 448.077 440.936C446.051 471.653 439.124 479.43 446.77 488.123C454.417 496.815 469.71 520.866 479.644 540.734C479.644 540.734 471.475 542.041 465.658 551.06C465.658 551.06 426.379 508.906 421.608 501.913C416.837 494.92 414.485 485.966 414.354 467.732C414.223 449.497 412.067 406.428 412.067 406.428L437.882 397.671Z" fill="url(#paint55_linear_78_392)"/>
<path d="M502.584 568.444C502.584 568.444 499.12 563.608 494.022 561.19C494.022 561.19 490.755 561.386 486.899 565.634C482.193 570.797 479.775 568.575 478.01 567.268C476.18 565.896 476.703 574.326 476.703 575.699C476.834 578.313 475.2 581.515 472.455 585.437C469.71 589.293 469.187 591.45 470.625 593.149C472.063 594.848 478.206 592.234 481.539 589.62C484.807 587.005 502.584 568.444 502.584 568.444Z" fill="url(#paint56_linear_78_392)"/>
<path d="M497.878 569.49C501.473 566.092 504.937 568.575 501.734 572.17C498.532 575.764 485.134 586.679 485.134 586.679C476.246 594.652 470.625 594.26 473.501 592.234C480.298 587.463 497.878 569.49 497.878 569.49Z" fill="url(#paint57_linear_78_392)"/>
<path d="M465.331 598.573H382.722L386.643 588.443H465.331V598.573Z" fill="url(#paint58_linear_78_392)"/>
<path d="M402.721 557.334C402.721 557.334 399.976 578.313 400.629 587.92C401.021 594.064 398.799 595.044 389.65 594.652C380.5 594.26 370.043 594.064 367.429 592.365C364.815 590.665 369.978 588.443 376.448 587.724C386.97 586.613 385.401 578.836 386.186 553.936L402.721 557.334Z" fill="url(#paint59_linear_78_392)"/>
<path d="M402.329 564.327C402.329 564.327 410.041 538.708 407.949 509.102C406.903 494.331 410.694 488.972 417.883 473.156C425.66 456.098 436.444 429.107 429.386 405.121L391.349 409.892C391.349 409.892 384.16 451.72 381.415 474.333C379.912 486.293 385.205 564.392 385.205 564.392C385.205 564.392 392.002 567.856 402.329 564.327Z" fill="url(#paint60_linear_78_392)"/>
<path d="M402.394 594.979C402.394 594.979 402.067 589.228 400.499 584.914C400.499 584.914 396.316 587.267 391.676 585.633C386.251 583.738 386.643 577.856 385.075 578.902C383.637 579.816 384.879 583.803 377.297 586.025C365.403 589.554 362.592 590.731 363.181 593.999C363.9 597.92 389.846 599.423 395.924 599.423C402.002 599.358 402.459 596.417 402.394 594.979Z" fill="url(#paint61_linear_78_392)"/>
<path d="M363.311 591.907C363.311 591.972 363.311 592.038 363.311 592.103C364.03 596.024 388.604 597.201 394.747 597.201C398.93 597.201 401.806 596.155 402.329 594.848C402.329 594.913 402.329 594.979 402.329 594.979C402.394 596.351 401.936 599.358 395.793 599.358C389.65 599.358 363.769 597.854 363.05 593.933C362.985 593.149 363.05 592.495 363.311 591.907Z" fill="url(#paint62_linear_78_392)"/>
<path d="M401.871 341.399L399.845 330.354L417.426 327.348L419.648 338.262L401.871 341.399Z" fill="url(#paint63_linear_78_392)"/>
<path d="M388.8 425.12C388.8 425.12 432.131 431.721 446.574 415.774C446.574 415.774 439.647 396.429 439.647 376.038C439.647 351.726 440.235 345.059 433.895 341.988C427.556 338.916 421.412 342.641 419.582 334.276L400.499 337.87C400.499 337.87 401.61 341.334 396.054 343.033C390.499 344.733 379.52 346.693 379.781 356.366C380.108 368.587 378.016 374.6 379.781 379.894C382.134 387.018 388.408 385.972 389.715 401.069C390.63 412.702 388.8 425.12 388.8 425.12Z" fill="url(#paint64_linear_78_392)"/>
<path d="M415.857 331.008C417.426 328.851 428.34 319.375 427.425 309.179C426.51 298.984 415.596 293.951 407.688 296.304C399.78 298.592 396.316 308.134 396.12 311.728C395.924 315.584 391.218 320.094 391.414 321.139C391.545 321.858 392.917 322.185 392.787 322.642C392.133 325.91 391.741 329.178 392.917 330.354C395.597 332.773 414.354 333.099 415.857 331.008Z" fill="url(#paint65_linear_78_392)"/>
<path d="M430.235 316.76C432.654 303.624 425.072 301.925 425.072 301.925C425.072 301.925 421.478 293.167 409.518 293.167C402.132 293.167 396.577 298.984 396.577 303.885C396.643 308.787 401.152 309.898 400.499 315.584C399.845 321.27 395.205 319.832 394.421 323.884C394.421 323.884 394.682 322.054 397.231 322.381C399.78 322.708 402.721 321.009 403.962 316.695C403.962 316.695 409.06 316.172 409.06 320.812C409.06 324.276 405.531 325.126 403.44 325.649C401.479 326.106 400.499 331.662 404.616 334.276C414.158 340.354 427.229 333.295 430.235 316.76Z" fill="url(#paint66_linear_78_392)"/>
<path d="M427.643 326.737C430.048 323.855 429.976 319.831 427.482 317.75C424.987 315.669 421.016 316.318 418.611 319.2C416.205 322.082 416.278 326.106 418.772 328.188C421.266 330.269 425.238 329.62 427.643 326.737Z" fill="white"/>
<path d="M427.425 319.244C432.457 320.682 443.568 326.956 437.228 338.197C430.824 349.438 426.641 350.157 431.216 357.673C435.791 365.189 432.065 373.816 421.608 372.313C408.733 370.483 399.126 361.921 404.028 346.693C407.492 336.04 415.269 333.688 418.929 331.139C422.589 328.59 420.171 327.544 420.628 323.427C421.151 318.852 425.595 318.721 427.425 319.244Z" fill="url(#paint67_linear_78_392)"/>
<path d="M315.929 316.695C316.844 319.179 323.314 332.446 326.32 337.74C328.477 341.53 332.594 355.059 342.398 389.501C346.907 405.383 367.69 397.605 360.044 381.659C349.783 360.222 337.757 336.563 337.496 333.557C337.234 330.551 339.718 324.995 340.306 322.708C340.894 320.551 341.483 318.787 340.698 317.806C339.914 316.826 338.149 319.309 337.3 320.878C336.45 322.446 335.208 324.472 334.686 322.839C334.686 322.839 331.026 312.512 330.045 309.702C329.065 306.892 326.124 308.199 326.908 310.813C327.693 313.493 330.045 321.728 330.045 321.728C330.045 321.728 325.601 310.029 324.621 307.545C323.641 305.062 320.438 306.434 321.418 309.31C322.399 312.251 326.451 322.773 326.451 322.773C326.451 322.773 322.987 314.8 321.353 311.271C320.111 308.591 317.301 309.767 318.412 312.905C319.85 316.826 322.922 324.538 322.922 324.538C322.922 324.538 319.981 318.198 318.477 315.388C317.497 313.623 315.014 314.146 315.929 316.695Z" fill="url(#paint68_linear_78_392)"/>
<path d="M335.731 367.28C335.731 367.28 338.672 379.044 342.594 391.723C346.776 405.252 370.827 400.612 361.155 381.659C350.763 361.268 350.371 360.614 350.371 360.614C350.371 360.614 341.417 360.222 335.731 367.28Z" fill="url(#paint69_linear_78_392)"/>
<path d="M345.927 379.175C362.266 365.45 372.723 355.124 383.114 348.589C395.336 340.877 409.714 358.784 396.839 370.875C386.316 380.743 371.089 390.808 362.004 396.625C347.43 406.036 334.49 388.782 345.927 379.175Z" fill="url(#paint70_linear_78_392)"/>
</g>
<defs>
<linearGradient id="paint0_linear_78_392" x1="237.673" y1="586.351" x2="237.673" y2="372.821" gradientUnits="userSpaceOnUse">
<stop stop-color="white"/>
<stop offset="1" stop-color="#AEBDDF"/>
</linearGradient>
<linearGradient id="paint1_linear_78_392" x1="111.6" y1="373.156" x2="228.009" y2="342.725" gradientUnits="userSpaceOnUse">
<stop stop-color="white"/>
<stop offset="1" stop-color="#AEBDDF"/>
</linearGradient>
<linearGradient id="paint2_linear_78_392" x1="148.277" y1="363.226" x2="136.618" y2="318.626" gradientUnits="userSpaceOnUse">
<stop stop-color="white"/>
<stop offset="1" stop-color="#AEBDDF"/>
</linearGradient>
<linearGradient id="paint3_linear_78_392" x1="110.777" y1="321.257" x2="106.738" y2="305.808" gradientUnits="userSpaceOnUse">
<stop stop-color="white"/>
<stop offset="1" stop-color="#AEBDDF"/>
</linearGradient>
<linearGradient id="paint4_linear_78_392" x1="209.315" y1="378.795" x2="209.315" y2="516.072" gradientUnits="userSpaceOnUse">
<stop stop-color="#ACBDDE"/>
<stop offset="1" stop-color="#2E405C"/>
</linearGradient>
<linearGradient id="paint5_linear_78_392" x1="222.157" y1="306.012" x2="222.157" y2="471.904" gradientUnits="userSpaceOnUse">
<stop stop-color="#ACBDDE"/>
<stop offset="1" stop-color="#2E405C"/>
</linearGradient>
<linearGradient id="paint6_linear_78_392" x1="209.315" y1="246.507" x2="209.315" y2="436.157" gradientUnits="userSpaceOnUse">
<stop stop-color="#ACBDDE"/>
<stop offset="1" stop-color="#2E405C"/>
</linearGradient>
<linearGradient id="paint7_linear_78_392" x1="195.103" y1="343.852" x2="191.064" y2="328.403" gradientUnits="userSpaceOnUse">
<stop stop-color="white"/>
<stop offset="1" stop-color="#AEBDDF"/>
</linearGradient>
<linearGradient id="paint8_linear_78_392" x1="131.821" y1="294.107" x2="131.821" y2="638.929" gradientUnits="userSpaceOnUse">
<stop stop-color="#ACBDDE"/>
<stop offset="1" stop-color="#2E405C"/>
</linearGradient>
<linearGradient id="paint9_linear_78_392" x1="209.315" y1="220.743" x2="209.315" y2="398.94" gradientUnits="userSpaceOnUse">
<stop stop-color="white"/>
<stop offset="1" stop-color="#AEBDDF"/>
</linearGradient>
<linearGradient id="paint10_linear_78_392" x1="196.473" y1="397.681" x2="196.473" y2="224.153" gradientUnits="userSpaceOnUse">
<stop stop-color="white"/>
<stop offset="1" stop-color="#AEBDDF"/>
</linearGradient>
<linearGradient id="paint11_linear_78_392" x1="209.315" y1="277.995" x2="209.315" y2="126.729" gradientUnits="userSpaceOnUse">
<stop stop-color="white"/>
<stop offset="1" stop-color="#AEBDDF"/>
</linearGradient>
<linearGradient id="paint12_linear_78_392" x1="157.735" y1="245.005" x2="157.735" y2="102.771" gradientUnits="userSpaceOnUse">
<stop stop-color="white"/>
<stop offset="1" stop-color="#AEBDDF"/>
</linearGradient>
<linearGradient id="paint13_linear_78_392" x1="118.979" y1="137.142" x2="118.979" y2="609.636" gradientUnits="userSpaceOnUse">
<stop stop-color="white"/>
<stop offset="1" stop-color="#AEBDDF"/>
</linearGradient>
<linearGradient id="paint14_linear_78_392" x1="271.872" y1="276.387" x2="355.885" y2="271.503" gradientUnits="userSpaceOnUse">
<stop stop-color="white"/>
<stop offset="1" stop-color="#AEBDDF"/>
</linearGradient>
<linearGradient id="paint15_linear_78_392" x1="222.965" y1="346.277" x2="222.965" y2="124.202" gradientUnits="userSpaceOnUse">
<stop stop-color="#ACBDDE"/>
<stop offset="1" stop-color="#2E405C"/>
</linearGradient>
<linearGradient id="paint16_linear_78_392" x1="282.728" y1="282.836" x2="348.246" y2="313.926" gradientUnits="userSpaceOnUse">
<stop stop-color="#ACBDDE"/>
<stop offset="1" stop-color="#2E405C"/>
</linearGradient>
<linearGradient id="paint17_linear_78_392" x1="202.987" y1="301.809" x2="280.765" y2="297.288" gradientUnits="userSpaceOnUse">
<stop stop-color="white"/>
<stop offset="1" stop-color="#AEBDDF"/>
</linearGradient>
<linearGradient id="paint18_linear_78_392" x1="179.962" y1="346.277" x2="179.962" y2="124.202" gradientUnits="userSpaceOnUse">
<stop stop-color="#ACBDDE"/>
<stop offset="1" stop-color="#2E405C"/>
</linearGradient>
<linearGradient id="paint19_linear_78_392" x1="199.41" y1="298.317" x2="256.975" y2="338.902" gradientUnits="userSpaceOnUse">
<stop stop-color="#ACBDDE"/>
<stop offset="1" stop-color="#2E405C"/>
</linearGradient>
<linearGradient id="paint20_linear_78_392" x1="223.432" y1="176.416" x2="223.432" y2="29.0035" gradientUnits="userSpaceOnUse">
<stop stop-color="#FFD2BB"/>
<stop offset="1" stop-color="#FF6B5A"/>
</linearGradient>
<linearGradient id="paint21_linear_78_392" x1="215.119" y1="17.1413" x2="215.119" y2="186.759" gradientUnits="userSpaceOnUse">
<stop stop-color="white"/>
<stop offset="1" stop-color="#AEBDDF"/>
</linearGradient>
<linearGradient id="paint22_linear_78_392" x1="257.995" y1="176.416" x2="257.995" y2="29.0035" gradientUnits="userSpaceOnUse">
<stop stop-color="#FFD2BB"/>
<stop offset="1" stop-color="#FF6B5A"/>
</linearGradient>
<linearGradient id="paint23_linear_78_392" x1="178.047" y1="17.1413" x2="178.047" y2="186.759" gradientUnits="userSpaceOnUse">
<stop stop-color="white"/>
<stop offset="1" stop-color="#AEBDDF"/>
</linearGradient>
<linearGradient id="paint24_linear_78_392" x1="189.098" y1="59.6486" x2="189.304" y2="31.6455" gradientUnits="userSpaceOnUse">
<stop stop-color="white"/>
<stop offset="1" stop-color="#AEBDDF"/>
</linearGradient>
<linearGradient id="paint25_linear_78_392" x1="189.209" y1="71.5275" x2="189.209" y2="-28.9506" gradientUnits="userSpaceOnUse">
<stop stop-color="#FFD2BB"/>
<stop offset="1" stop-color="#FF6B5A"/>
</linearGradient>
<linearGradient id="paint26_linear_78_392" x1="194.335" y1="70.2394" x2="194.335" y2="30.8533" gradientUnits="userSpaceOnUse">
<stop stop-color="#FFD2BB"/>
<stop offset="1" stop-color="#FF6B5A"/>
</linearGradient>
<linearGradient id="paint27_linear_78_392" x1="196.098" y1="71.5275" x2="196.098" y2="-28.9506" gradientUnits="userSpaceOnUse">
<stop stop-color="#FFD2BB"/>
<stop offset="1" stop-color="#FF6B5A"/>
</linearGradient>
<linearGradient id="paint28_linear_78_392" x1="196.353" y1="-47.3049" x2="196.353" y2="25.5847" gradientUnits="userSpaceOnUse">
<stop stop-color="#ACBDDE"/>
<stop offset="1" stop-color="#2E405C"/>
</linearGradient>
<linearGradient id="paint29_linear_78_392" x1="189.618" y1="188.377" x2="189.618" y2="55.8127" gradientUnits="userSpaceOnUse">
<stop stop-color="#FFD2BB"/>
<stop offset="1" stop-color="#FF6B5A"/>
</linearGradient>
<linearGradient id="paint30_linear_78_392" x1="165.012" y1="188.377" x2="163.437" y2="55.8264" gradientUnits="userSpaceOnUse">
<stop stop-color="#FFD2BB"/>
<stop offset="1" stop-color="#FF6B5A"/>
</linearGradient>
<linearGradient id="paint31_linear_78_392" x1="164.58" y1="17.1398" x2="166.595" y2="186.74" gradientUnits="userSpaceOnUse">
<stop stop-color="white"/>
<stop offset="1" stop-color="#AEBDDF"/>
</linearGradient>
<linearGradient id="paint32_linear_78_392" x1="356.802" y1="470.27" x2="232.642" y2="470.27" gradientUnits="userSpaceOnUse">
<stop stop-color="#FFEFA4"/>
<stop offset="1" stop-color="#FE8F01"/>
</linearGradient>
<linearGradient id="paint33_linear_78_392" x1="353.065" y1="341.072" x2="227.768" y2="373.826" gradientUnits="userSpaceOnUse">
<stop stop-color="#FFEFA4"/>
<stop offset="1" stop-color="#FE8F01"/>
</linearGradient>
<linearGradient id="paint34_linear_78_392" x1="376.493" y1="259.582" x2="376.493" y2="585.807" gradientUnits="userSpaceOnUse">
<stop stop-color="#FFEFA4"/>
<stop offset="1" stop-color="#FE8F01"/>
</linearGradient>
<linearGradient id="paint35_linear_78_392" x1="360.136" y1="275.277" x2="369.726" y2="422.81" gradientUnits="userSpaceOnUse">
<stop stop-color="#FFEFA4"/>
<stop offset="1" stop-color="#FE8F01"/>
</linearGradient>
<linearGradient id="paint36_linear_78_392" x1="333.058" y1="432.726" x2="333.058" y2="295.015" gradientUnits="userSpaceOnUse">
<stop stop-color="#FFEFA4"/>
<stop offset="1" stop-color="#FE8F01"/>
</linearGradient>
<linearGradient id="paint37_linear_78_392" x1="293.219" y1="294.874" x2="293.219" y2="792.04" gradientUnits="userSpaceOnUse">
<stop stop-color="#FFEFA4"/>
<stop offset="1" stop-color="#FE8F01"/>
</linearGradient>
<linearGradient id="paint38_linear_78_392" x1="317.081" y1="231.098" x2="317.081" y2="313.297" gradientUnits="userSpaceOnUse">
<stop stop-color="#79D985"/>
<stop offset="1" stop-color="#027A71"/>
</linearGradient>
<linearGradient id="paint39_linear_78_392" x1="309.779" y1="116.013" x2="342.728" y2="216.827" gradientUnits="userSpaceOnUse">
<stop stop-color="#79D985"/>
<stop offset="1" stop-color="#027A71"/>
</linearGradient>
<linearGradient id="paint40_linear_78_392" x1="396.614" y1="102.042" x2="409.154" y2="414.812" gradientUnits="userSpaceOnUse">
<stop stop-color="#79D985"/>
<stop offset="1" stop-color="#027A71"/>
</linearGradient>
<linearGradient id="paint41_linear_78_392" x1="363.595" y1="167.041" x2="224.915" y2="543.988" gradientUnits="userSpaceOnUse">
<stop stop-color="#79D985"/>
<stop offset="1" stop-color="#027A71"/>
</linearGradient>
<linearGradient id="paint42_linear_78_392" x1="70.5479" y1="505.05" x2="57.7618" y2="571.604" gradientUnits="userSpaceOnUse">
<stop stop-color="#ACBDDE" stop-opacity="0"/>
<stop offset="1" stop-color="#2E405C"/>
</linearGradient>
<linearGradient id="paint43_linear_78_392" x1="129.443" y1="310.766" x2="129.443" y2="28.5112" gradientUnits="userSpaceOnUse">
<stop stop-color="#ACBDDE" stop-opacity="0"/>
<stop offset="1" stop-color="#2E405C"/>
</linearGradient>
<linearGradient id="paint44_linear_78_392" x1="86.0203" y1="227.716" x2="152.183" y2="227.716" gradientUnits="userSpaceOnUse">
<stop stop-color="#5D6E8C"/>
<stop offset="1" stop-color="#2E405C"/>
</linearGradient>
<linearGradient id="paint45_linear_78_392" x1="67.0679" y1="293.585" x2="133.231" y2="293.585" gradientUnits="userSpaceOnUse">
<stop stop-color="#5D6E8C"/>
<stop offset="1" stop-color="#2E405C"/>
</linearGradient>
<linearGradient id="paint46_linear_78_392" x1="48.1156" y1="359.453" x2="114.279" y2="359.453" gradientUnits="userSpaceOnUse">
<stop stop-color="#5D6E8C"/>
<stop offset="1" stop-color="#2E405C"/>
</linearGradient>
<linearGradient id="paint47_linear_78_392" x1="29.1633" y1="425.322" x2="95.3262" y2="425.322" gradientUnits="userSpaceOnUse">
<stop stop-color="#5D6E8C"/>
<stop offset="1" stop-color="#2E405C"/>
</linearGradient>
<linearGradient id="paint48_linear_78_392" x1="10.211" y1="491.191" x2="76.3739" y2="491.191" gradientUnits="userSpaceOnUse">
<stop stop-color="#5D6E8C"/>
<stop offset="1" stop-color="#2E405C"/>
</linearGradient>
<linearGradient id="paint49_linear_78_392" x1="59.4966" y1="367.442" x2="162.525" y2="367.442" gradientUnits="userSpaceOnUse">
<stop stop-color="#5D6E8C"/>
<stop offset="1" stop-color="#2E405C"/>
</linearGradient>
<linearGradient id="paint50_linear_78_392" x1="-0.130752" y1="351.465" x2="102.898" y2="351.465" gradientUnits="userSpaceOnUse">
<stop stop-color="#5D6E8C"/>
<stop offset="1" stop-color="#2E405C"/>
</linearGradient>
<linearGradient id="paint51_linear_78_392" x1="439.826" y1="318.658" x2="439.826" y2="480.502" gradientUnits="userSpaceOnUse">
<stop stop-color="white"/>
<stop offset="1" stop-color="#AEBDDF"/>
</linearGradient>
<linearGradient id="paint52_linear_78_392" x1="413.637" y1="218.405" x2="466.676" y2="391.772" gradientUnits="userSpaceOnUse">
<stop stop-color="#FFD2BB"/>
<stop offset="1" stop-color="#FF6B5A"/>
</linearGradient>
<linearGradient id="paint53_linear_78_392" x1="453.798" y1="318.658" x2="453.798" y2="480.502" gradientUnits="userSpaceOnUse">
<stop stop-color="white"/>
<stop offset="1" stop-color="#AEBDDF"/>
</linearGradient>
<linearGradient id="paint54_linear_78_392" x1="444.164" y1="583.113" x2="518.23" y2="539.138" gradientUnits="userSpaceOnUse">
<stop stop-color="#FFD2BB"/>
<stop offset="1" stop-color="#FF6B5A"/>
</linearGradient>
<linearGradient id="paint55_linear_78_392" x1="445.862" y1="689.905" x2="445.862" y2="433.207" gradientUnits="userSpaceOnUse">
<stop stop-color="#ACBDDE"/>
<stop offset="1" stop-color="#2E405C"/>
</linearGradient>
<linearGradient id="paint56_linear_78_392" x1="486.241" y1="546.35" x2="486.241" y2="600.913" gradientUnits="userSpaceOnUse">
<stop stop-color="white"/>
<stop offset="1" stop-color="#AEBDDF"/>
</linearGradient>
<linearGradient id="paint57_linear_78_392" x1="476.825" y1="598.876" x2="520.461" y2="530.902" gradientUnits="userSpaceOnUse">
<stop stop-color="#ACBDDE"/>
<stop offset="1" stop-color="#2E405C"/>
</linearGradient>
<linearGradient id="paint58_linear_78_392" x1="462.753" y1="593.517" x2="392.658" y2="593.517" gradientUnits="userSpaceOnUse">
<stop stop-color="white" stop-opacity="0"/>
<stop offset="1" stop-color="#AEBDDF"/>
</linearGradient>
<linearGradient id="paint59_linear_78_392" x1="349.367" y1="568.351" x2="431.652" y2="583.426" gradientUnits="userSpaceOnUse">
<stop stop-color="#FFD2BB"/>
<stop offset="1" stop-color="#FF6B5A"/>
</linearGradient>
<linearGradient id="paint60_linear_78_392" x1="406.372" y1="614.504" x2="406.372" y2="429.071" gradientUnits="userSpaceOnUse">
<stop stop-color="#ACBDDE"/>
<stop offset="1" stop-color="#2E405C"/>
</linearGradient>
<linearGradient id="paint61_linear_78_392" x1="382.722" y1="576.016" x2="382.722" y2="617.617" gradientUnits="userSpaceOnUse">
<stop stop-color="white"/>
<stop offset="1" stop-color="#AEBDDF"/>
</linearGradient>
<linearGradient id="paint62_linear_78_392" x1="362.996" y1="590.017" x2="448.792" y2="612.038" gradientUnits="userSpaceOnUse">
<stop stop-color="#ACBDDE"/>
<stop offset="1" stop-color="#2E405C"/>
</linearGradient>
<linearGradient id="paint63_linear_78_392" x1="409.741" y1="351.307" x2="409.741" y2="326.576" gradientUnits="userSpaceOnUse">
<stop stop-color="#FFD2BB"/>
<stop offset="1" stop-color="#FF6B5A"/>
</linearGradient>
<linearGradient id="paint64_linear_78_392" x1="412.804" y1="318.657" x2="412.804" y2="480.502" gradientUnits="userSpaceOnUse">
<stop stop-color="white"/>
<stop offset="1" stop-color="#AEBDDF"/>
</linearGradient>
<linearGradient id="paint65_linear_78_392" x1="397.529" y1="301.923" x2="425.313" y2="336.996" gradientUnits="userSpaceOnUse">
<stop stop-color="#FFD2BB"/>
<stop offset="1" stop-color="#FF6B5A"/>
</linearGradient>
<linearGradient id="paint66_linear_78_392" x1="412.589" y1="263.674" x2="412.589" y2="327.438" gradientUnits="userSpaceOnUse">
<stop stop-color="#ACBDDE"/>
<stop offset="1" stop-color="#2E405C"/>
</linearGradient>
<linearGradient id="paint67_linear_78_392" x1="420.881" y1="272.88" x2="420.881" y2="364.265" gradientUnits="userSpaceOnUse">
<stop stop-color="#ACBDDE"/>
<stop offset="1" stop-color="#2E405C"/>
</linearGradient>
<linearGradient id="paint68_linear_78_392" x1="298.504" y1="266.773" x2="378.979" y2="429.914" gradientUnits="userSpaceOnUse">
<stop stop-color="#FFD2BB"/>
<stop offset="1" stop-color="#FF6B5A"/>
</linearGradient>
<linearGradient id="paint69_linear_78_392" x1="349.542" y1="318.658" x2="349.542" y2="480.502" gradientUnits="userSpaceOnUse">
<stop stop-color="white"/>
<stop offset="1" stop-color="#AEBDDF"/>
</linearGradient>
<linearGradient id="paint70_linear_78_392" x1="371.703" y1="318.658" x2="371.703" y2="480.502" gradientUnits="userSpaceOnUse">
<stop stop-color="white"/>
<stop offset="1" stop-color="#AEBDDF"/>
</linearGradient>
<clipPath id="clip0_78_392">
<rect width="503" height="613.357" fill="white"/>
</clipPath>
</defs>
</svg>
