<svg width="32" height="24" viewBox="0 0 32 24" fill="none" xmlns="http://www.w3.org/2000/svg">
<path fill-rule="evenodd" clip-rule="evenodd" d="M29.9505 0H2.07404C1.00247 0 0.133789 0.872362 0.133789 1.94847V2.01356C0.133789 3.08967 1.00247 3.96203 2.07404 3.96203H29.9505C31.0221 3.96203 31.8908 3.08967 31.8908 2.01356V1.94847C31.8908 0.872362 31.0221 0 29.9505 0ZM29.9626 9.89694H2.06189C0.997029 9.89694 0.133789 10.7638 0.133789 11.8332V11.9552C0.133789 13.0246 0.997029 13.8915 2.06189 13.8915H29.9626C31.0275 13.8915 31.8908 13.0246 31.8908 11.9552V11.8332C31.8908 10.7638 31.0275 9.89694 29.9626 9.89694ZM2.05311 19.741L29.9781 19.7899C31.0318 19.7917 31.8845 20.651 31.8826 21.7092L31.8823 21.88C31.8805 22.9382 31.0248 23.7945 29.9712 23.7926L2.04615 23.7437C0.992478 23.7418 0.139798 22.8825 0.141637 21.8244L0.141934 21.6535C0.143773 20.5954 0.999435 19.7391 2.05311 19.741Z" fill="#302F4D"/>
</svg>
