<svg width="26" height="26" viewBox="0 0 26 26" fill="none" xmlns="http://www.w3.org/2000/svg">
<path d="M9.25665 12.8463C6.28696 9.67942 3.5207 6.88589 0.957868 4.46567C-1.60916 2.04336 1.51783 -1.64359 4.22327 1.03668C7.06713 3.86796 9.87534 6.68456 12.6479 9.48647C12.6815 9.5209 12.7217 9.54823 12.7662 9.56688C12.8107 9.58552 12.8586 9.59512 12.9071 9.59512C12.9557 9.59512 13.0039 9.58552 13.049 9.56688C13.0942 9.54823 13.1353 9.5209 13.1701 9.48647C16.1188 6.5 19.1095 3.50304 22.1421 0.495595C23.8723 -1.22205 27.509 1.87978 24.9231 4.38388C22.0624 7.15644 19.25 9.97303 16.4858 12.8337C16.3307 12.9931 16.3327 13.1525 16.4921 13.3118C20.846 17.7161 23.6437 20.5201 24.8853 21.7239C27.509 24.2657 24.2058 27.7073 21.3808 24.9012C18.6754 22.2209 15.9972 19.5344 13.3463 16.8415C13.2869 16.782 13.2164 16.7347 13.1388 16.7024C13.0613 16.6702 12.9782 16.6535 12.8945 16.6535C12.8109 16.6535 12.7282 16.6702 12.6513 16.7024C12.5744 16.7347 12.5048 16.782 12.4466 16.8415C9.95503 19.3582 7.4719 21.8623 4.99716 24.3538C4.10373 25.2514 3.3634 25.7758 2.77618 25.9268C0.605531 26.4867 -1.08065 23.7121 0.838325 21.8245C3.6738 19.0352 6.4799 16.2144 9.25665 13.3622C9.42024 13.1902 9.42024 13.0182 9.25665 12.8463Z" fill="#302F4D"/>
</svg>
