<svg width="28" height="27" viewBox="0 0 28 27" fill="none" xmlns="http://www.w3.org/2000/svg">
<path d="M21.2955 7.06577L8.75463 18.8668C8.67181 18.9445 8.56731 18.9952 8.45499 19.0122C8.34267 19.0292 8.22784 19.0117 8.12574 18.9619L0.964809 15.4105C0.718185 15.2872 0.714662 15.1586 0.954241 15.0247L26.8921 0.528449C26.9304 0.506938 26.9742 0.497269 27.018 0.500665C27.0618 0.504061 27.1036 0.52037 27.1381 0.547529C27.1726 0.574687 27.1983 0.611473 27.2119 0.653232C27.2255 0.694992 27.2264 0.739846 27.2145 0.78212L20.7142 24.9919C20.7068 25.0179 20.6939 25.0421 20.6762 25.0626C20.6585 25.0831 20.6366 25.0994 20.6119 25.1105C20.5872 25.1216 20.5603 25.1271 20.5333 25.1267C20.5062 25.1263 20.4796 25.12 20.4552 25.1081L14.1134 21.9108C13.9302 21.8192 13.784 21.8597 13.6748 22.0324L10.9161 26.4082C10.8938 26.4447 10.8602 26.4726 10.8204 26.4877C10.7806 26.5027 10.7368 26.504 10.6956 26.4915C10.6543 26.4789 10.618 26.4532 10.592 26.4181C10.566 26.3831 10.5517 26.3406 10.5515 26.2972L10.5885 20.5579C10.5884 20.3396 10.6651 20.1282 10.8051 19.9607L21.4012 7.16089C21.4133 7.14756 21.4196 7.13047 21.4187 7.11307C21.4179 7.09568 21.4099 7.07928 21.3965 7.0672C21.3831 7.05512 21.3652 7.04825 21.3464 7.04798C21.3277 7.04771 21.3095 7.05407 21.2955 7.06577Z" fill="#302F4D"/>
</svg>
