<svg width="22" height="22" viewBox="0 0 22 22" fill="none" xmlns="http://www.w3.org/2000/svg">
<path d="M20.0122 3.37288C20.0123 3.36594 20.0103 3.35914 20.0064 3.35337C20.0025 3.3476 19.997 3.34313 19.9906 3.34055C19.9841 3.33797 19.977 3.3374 19.9703 3.33891C19.9635 3.34043 19.9573 3.34395 19.9526 3.34903C17.3797 5.92453 14.8051 8.49738 12.2287 11.0676C11.6244 11.6706 10.5641 10.9973 10.7219 10.169C10.7828 9.85361 11.1168 9.56999 11.3593 9.32879C13.7837 6.90702 16.2157 4.47597 18.6551 2.03565C18.6613 2.02944 18.6655 2.0215 18.6673 2.01289C18.669 2.00427 18.6682 1.99537 18.6649 1.98735C18.6616 1.97934 18.656 1.97257 18.6488 1.96795C18.6416 1.96333 18.6332 1.96105 18.6246 1.96143C17.5087 1.97027 16.3858 1.97336 15.2557 1.97071C14.9067 1.96983 14.6576 1.93979 14.5082 1.88059C13.9264 1.64999 13.7952 0.903844 14.2074 0.459868C14.4097 0.241635 14.6991 0.132077 15.0755 0.131194C17.2295 0.129427 19.3889 0.13031 21.5535 0.133844C21.635 0.134193 21.713 0.166699 21.7706 0.224285C21.8282 0.281872 21.8607 0.359875 21.861 0.441314C21.8725 2.59272 21.8721 4.74987 21.8597 6.91276C21.8517 8.45011 19.999 8.31228 20.0135 7.02409C20.0259 5.80039 20.0255 4.58332 20.0122 3.37288Z" fill="#302F4D"/>
<path d="M2.60035 5.71468C2.02914 5.71601 1.92444 6.03408 1.92444 6.55227C1.92268 10.8189 1.92268 15.0846 1.92444 19.3494C1.92444 19.8835 2.18818 20.0505 2.70505 20.0505C7.04673 20.0531 11.3805 20.0536 15.7062 20.0518C15.8567 20.0518 16.001 19.992 16.1073 19.8857C16.2137 19.7793 16.2735 19.635 16.2735 19.4846L16.2761 8.45408C16.2761 8.34717 16.3137 8.25573 16.3888 8.17974L18.0176 6.5483C18.0259 6.53986 18.0366 6.5341 18.0482 6.53176C18.0598 6.52942 18.0719 6.5306 18.0829 6.53516C18.0938 6.53971 18.1032 6.54743 18.1097 6.55732C18.1163 6.56722 18.1197 6.57884 18.1196 6.59071C18.1223 11.0367 18.1227 15.4905 18.1209 19.9524C18.1209 20.5214 18.0556 20.9252 17.9248 21.1637C17.5762 21.8025 17.0024 21.9006 16.2642 21.9006C11.5762 21.9006 6.88858 21.901 2.20143 21.9019C1.57677 21.9019 1.154 21.8533 0.933119 21.7561C0.274444 21.4672 0.0955284 20.904 0.0942031 20.1764C0.0924361 15.2507 0.0915527 10.3254 0.0915527 5.40059C0.0915527 4.75914 0.330107 4.31561 0.807215 4.06998C1.05991 3.93922 1.50477 3.87384 2.14179 3.87384C6.58509 3.87561 11.0218 3.87605 15.4518 3.87517C15.4598 3.87538 15.4676 3.87795 15.4742 3.88256C15.4808 3.88717 15.4859 3.89362 15.4889 3.9011C15.4919 3.90858 15.4926 3.91677 15.4909 3.92464C15.4893 3.93252 15.4853 3.93974 15.4796 3.94541L13.7581 5.65902C13.7292 5.68786 13.6901 5.70406 13.6494 5.70408C9.96416 5.70673 6.28115 5.71027 2.60035 5.71468Z" fill="#302F4D"/>
</svg>
