<svg width="308" height="320" viewBox="0 0 308 320" fill="none" xmlns="http://www.w3.org/2000/svg">
<g clip-path="url(#clip0_117_4065)">
<path d="M0 264.213C0 253.676 15.0297 243.139 45.0494 235.068C105.128 218.964 202.504 218.964 262.583 235.068C292.642 243.099 307.632 253.676 307.632 264.213C307.632 274.749 292.602 285.286 262.583 293.358C202.504 309.461 105.128 309.461 45.0494 293.358C14.99 285.326 0 274.789 0 264.213Z" stroke="url(#paint0_linear_117_4065)" stroke-width="2" stroke-miterlimit="10"/>
<path d="M248.229 233.756C196.062 219.76 111.49 219.76 59.3236 233.756C33.2403 240.754 20.1986 249.899 20.1986 259.084C20.1986 268.229 33.2403 277.413 59.3236 284.372C111.49 298.368 196.062 298.368 248.229 284.372C274.312 277.374 287.354 268.229 287.354 259.044C287.354 249.899 274.312 240.754 248.229 233.756ZM224.253 277.891C185.366 288.308 122.305 288.308 83.4188 277.891C63.9756 272.682 54.2341 265.843 54.2341 259.004C54.2341 252.165 63.9756 245.326 83.4188 240.118C122.305 229.7 185.366 229.7 224.253 240.118C243.696 245.326 253.438 252.165 253.438 259.004C253.398 265.843 243.696 272.682 224.253 277.891Z" fill="url(#paint1_linear_117_4065)"/>
<path d="M99.4426 255.942C99.4426 252.204 104.771 248.507 115.387 245.644C136.619 239.958 171.052 239.958 192.285 245.644C202.901 248.507 208.229 252.204 208.229 255.942C208.229 259.679 202.901 263.377 192.285 266.24C171.052 271.926 136.619 271.926 115.387 266.24C104.731 263.417 99.4426 259.679 99.4426 255.942Z" fill="url(#paint2_linear_117_4065)"/>
<path d="M20.2386 259.044C20.2386 249.899 33.2803 240.714 59.3636 233.716C85.4469 226.718 119.642 223.219 153.796 223.219V232.325C128.309 232.325 102.823 234.949 83.3793 240.157C63.9361 245.366 54.1947 252.205 54.1947 259.044H20.2386Z" fill="url(#paint3_linear_117_4065)"/>
<path d="M54.2346 217.057H20.2388V259.005H54.2346V217.057Z" fill="url(#paint4_linear_117_4065)"/>
<path d="M54.2344 217.056C54.2344 210.217 63.9759 203.379 83.4191 198.17C102.862 192.961 128.349 190.337 153.836 190.337V232.285C128.349 232.285 102.862 234.909 83.4191 240.118C63.9759 245.327 54.2344 252.166 54.2344 259.004V217.056Z" fill="url(#paint5_linear_117_4065)"/>
<path d="M20.2385 217.056C20.2385 207.911 33.2802 198.726 59.3635 191.728C85.4468 184.73 119.641 181.231 153.796 181.231V190.337C128.309 190.337 102.822 192.961 83.3792 198.17C63.936 203.378 54.1945 210.217 54.1945 217.056H20.2385Z" fill="url(#paint6_linear_117_4065)"/>
<path d="M153.796 190.376C179.283 190.376 204.77 193.001 224.213 198.209C243.656 203.418 253.398 210.257 253.398 217.096V259.044C253.398 252.205 243.656 245.366 224.213 240.157C204.77 234.949 179.283 232.324 153.796 232.324V190.376Z" fill="url(#paint7_linear_117_4065)"/>
<path d="M287.394 217.057H253.398V259.005H287.394V217.057Z" fill="url(#paint8_linear_117_4065)"/>
<path d="M153.796 190.376V181.271C187.991 181.271 222.185 184.769 248.229 191.767C274.312 198.765 287.354 207.91 287.354 217.095H253.358C253.358 210.256 243.617 203.417 224.173 198.209C204.73 193 179.283 190.376 153.796 190.376Z" fill="url(#paint9_linear_117_4065)"/>
<path d="M20.2386 259.044H54.2344C54.2344 265.883 63.9759 272.722 83.4191 277.931C102.862 283.14 128.349 285.764 153.836 285.764V294.869C119.642 294.869 85.4469 291.37 59.4034 284.372C33.3598 277.374 20.2386 268.189 20.2386 259.044Z" fill="url(#paint10_linear_117_4065)"/>
<path d="M20.2385 217.057C20.2385 226.202 33.2802 235.387 59.3635 242.384C85.4468 249.382 119.641 252.881 153.796 252.881V294.829C119.602 294.829 85.407 291.33 59.3635 284.332C33.3199 277.335 20.2385 268.189 20.2385 259.005V217.057Z" fill="url(#paint11_linear_117_4065)"/>
<path d="M20.2385 217.057H54.2343C54.2343 223.896 63.9758 230.734 83.419 235.943C102.862 241.152 128.349 243.776 153.836 243.776V252.881C119.641 252.881 85.4468 249.382 59.4033 242.384C33.3597 235.387 20.2385 226.241 20.2385 217.057Z" fill="url(#paint12_linear_117_4065)"/>
<path d="M152.206 182.345C202.559 182.345 243.378 141.525 243.378 91.1723C243.378 40.8192 202.559 0 152.206 0C101.853 0 61.0336 40.8192 61.0336 91.1723C61.0336 141.525 101.853 182.345 152.206 182.345Z" stroke="url(#paint13_linear_117_4065)" stroke-width="2" stroke-miterlimit="10" stroke-linecap="round" stroke-linejoin="round"/>
<path d="M64.4529 68.3089C66.4292 68.3089 68.0314 66.7067 68.0314 64.7304C68.0314 62.754 66.4292 61.1519 64.4529 61.1519C62.4765 61.1519 60.8744 62.754 60.8744 64.7304C60.8744 66.7067 62.4765 68.3089 64.4529 68.3089Z" fill="url(#paint14_linear_117_4065)"/>
<path d="M218.249 157.176C220.226 157.176 221.828 155.573 221.828 153.597C221.828 151.621 220.226 150.019 218.249 150.019C216.273 150.019 214.671 151.621 214.671 153.597C214.671 155.573 216.273 157.176 218.249 157.176Z" fill="url(#paint15_linear_117_4065)"/>
<path d="M216.937 31.054C218.913 31.054 220.515 29.4518 220.515 27.4755C220.515 25.4991 218.913 23.897 216.937 23.897C214.961 23.897 213.358 25.4991 213.358 27.4755C213.358 29.4518 214.961 31.054 216.937 31.054Z" fill="url(#paint16_linear_117_4065)"/>
<path d="M99.4427 215.903C99.4427 219.641 104.731 223.378 115.387 226.201C136.619 231.887 171.053 231.887 192.285 226.201C202.901 223.339 208.229 219.641 208.229 215.903V222.146C208.229 225.883 202.901 229.581 192.285 232.444C171.053 238.13 136.619 238.13 115.387 232.444C104.771 229.581 99.4427 225.883 99.4427 222.146V215.903Z" fill="url(#paint17_linear_117_4065)"/>
<path d="M99.4427 215.903C99.4427 212.166 104.771 208.468 115.387 205.605C136.619 199.919 171.053 199.919 192.285 205.605C202.901 208.468 208.229 212.166 208.229 215.903C208.229 219.641 202.901 223.339 192.285 226.201C171.053 231.887 136.619 231.887 115.387 226.201C104.731 223.378 99.4427 219.641 99.4427 215.903Z" fill="url(#paint18_linear_117_4065)"/>
<path d="M122.942 215.903C122.942 213.915 125.765 211.966 131.371 210.455C142.623 207.434 160.874 207.434 172.126 210.455C177.772 211.966 180.555 213.954 180.555 215.903C180.555 217.891 177.732 219.839 172.126 221.35C160.874 224.372 142.623 224.372 131.371 221.35C125.725 219.879 122.942 217.891 122.942 215.903Z" fill="url(#paint19_linear_117_4065)"/>
<path d="M134.234 172.046C134.234 173.239 135.943 174.432 139.363 175.347C146.202 177.176 157.295 177.176 164.134 175.347C167.554 174.432 169.263 173.239 169.263 172.046V193.16C169.263 194.352 167.554 195.545 164.134 196.46C157.295 198.289 146.202 198.289 139.363 196.46C135.943 195.545 134.234 194.352 134.234 193.16V172.046Z" fill="url(#paint20_linear_117_4065)"/>
<path d="M122.942 147.673C122.942 149.661 125.765 151.609 131.371 153.12C142.623 156.142 160.874 156.142 172.126 153.12C177.772 151.609 180.555 149.621 180.555 147.673V182.424C180.555 184.412 177.732 186.36 172.126 187.871C160.874 190.893 142.623 190.893 131.371 187.871C125.725 186.36 122.942 184.372 122.942 182.424V147.673Z" fill="url(#paint21_linear_117_4065)"/>
<path d="M172.882 170.775C161.232 173.876 142.305 173.876 130.655 170.775C126.759 169.741 124.055 168.429 122.942 167.117V169.145C124.532 170.337 126.957 171.371 130.258 172.246C136.182 173.836 143.975 174.632 151.768 174.632C159.562 174.632 167.355 173.836 173.279 172.246C176.579 171.371 179.045 170.298 180.595 169.145V167.117C179.482 168.389 176.738 169.701 172.882 170.775Z" fill="url(#paint22_linear_117_4065)"/>
<path d="M172.882 163.299C161.232 166.401 142.305 166.401 130.655 163.299C126.759 162.265 124.055 160.953 122.942 159.641V161.669C124.532 162.862 126.957 163.896 130.258 164.77C136.182 166.361 143.975 167.156 151.768 167.156C159.562 167.156 167.355 166.361 173.279 164.77C176.579 163.896 179.045 162.822 180.595 161.669V159.641C179.482 160.953 176.738 162.265 172.882 163.299Z" fill="url(#paint23_linear_117_4065)"/>
<path d="M122.942 147.673C122.942 145.685 125.765 143.736 131.371 142.225C142.623 139.204 160.874 139.204 172.126 142.225C177.772 143.736 180.555 145.724 180.555 147.673C180.555 149.661 177.732 151.609 172.126 153.12C160.874 156.142 142.623 156.142 131.371 153.12C125.725 151.609 122.942 149.661 122.942 147.673Z" fill="url(#paint24_linear_117_4065)"/>
<path d="M199.482 92.4853C199.482 66.0043 177.931 44.5731 151.41 44.7719C125.168 44.9707 103.856 66.6007 104.015 92.8431C104.095 105.646 109.264 117.256 117.534 125.805C120.357 128.708 121.947 132.644 121.947 136.739V148.668C121.947 150.696 124.85 152.763 130.695 154.314C142.345 157.415 161.192 157.415 172.842 154.314C178.647 152.763 181.589 150.696 181.589 148.668V136.739C181.589 132.604 183.219 128.668 186.082 125.686C194.352 117.058 199.482 105.368 199.482 92.4853Z" fill="url(#paint25_linear_117_4065)"/>
<path d="M165.088 180.555C165.088 180.118 164.691 179.76 164.253 179.8C153.239 181.152 139.721 180.635 130.615 178.209C126.719 177.176 124.015 175.863 122.902 174.551V176.579C124.492 177.772 126.918 178.806 130.218 179.68C136.142 181.271 143.935 182.066 151.729 182.066C156.063 182.066 160.396 181.828 164.412 181.311C164.81 181.231 165.088 180.913 165.088 180.555Z" fill="url(#paint26_linear_117_4065)"/>
<path d="M139.601 147.793V94.632C139.601 93.7572 140.595 93.2403 141.311 93.7572L151.092 100.954C151.49 101.232 152.007 101.232 152.365 100.954L162.146 93.7572C162.862 93.2403 163.856 93.7572 163.856 94.632V147.793" stroke="white" stroke-width="4" stroke-miterlimit="10" stroke-linecap="round" stroke-linejoin="round"/>
<path d="M152.206 158.408C189.339 158.408 219.442 128.306 219.442 91.1721C219.442 54.0387 189.339 23.936 152.206 23.936C115.072 23.936 84.9696 54.0387 84.9696 91.1721C84.9696 128.306 115.072 158.408 152.206 158.408Z" fill="url(#paint27_linear_117_4065)"/>
<path d="M75.9039 194.83C72.0074 200.277 79.8801 206.957 85.4864 199.641C90.2577 193.398 100.675 175.863 101.709 175.227C102.743 174.551 108.23 174.512 109.264 174.551C110.138 174.591 110.576 173.199 109.065 173.08C107.554 172.961 104.969 172.722 104.969 172.722C104.969 172.722 108.945 172.444 110.496 172.444C112.047 172.444 111.888 170.973 110.496 170.774C109.065 170.615 105.089 170.694 105.089 170.694C105.089 170.694 110.814 170.098 111.808 169.939C113.001 169.78 113.279 168.11 111.57 168.11C110.019 168.15 105.168 168.826 105.168 168.826C105.168 168.826 108.389 167.951 109.582 167.553C111.013 167.076 110.814 165.565 108.906 166.082C107.275 166.52 101.311 167.792 101.311 167.792C101.311 167.792 101.232 165.645 101.152 164.651C101.073 163.657 99.363 163.339 99.204 165.446C99.1642 165.963 98.4883 169.462 96.2219 172.205C89.383 180.476 78.0908 191.847 75.9039 194.83Z" fill="url(#paint28_linear_117_4065)"/>
<path d="M147.673 307.87H103.419L95.8243 300.236H147.673V307.87Z" fill="url(#paint29_linear_117_4065)"/>
<path d="M169.899 319.958H125.645L118.051 312.363H169.899V319.958Z" fill="url(#paint30_linear_117_4065)"/>
<path d="M101.311 268.348L97.4943 292.523L88.3094 291.847L88.4685 267.553L101.311 268.348Z" fill="url(#paint31_linear_117_4065)"/>
<path d="M96.5001 289.421C97.693 288.984 99.2039 289.262 99.0846 292.046C98.9653 294.63 98.2496 295.545 100.715 298.487C103.299 301.628 105.764 304.054 105.804 305.763C105.844 307.473 103.896 308.706 100.874 307.274C97.852 305.843 90.6552 300.992 87.7527 298.646C84.6911 296.181 86.2418 293.278 86.9972 291.489C87.7527 289.739 88.3889 288.865 88.3889 288.865C88.3889 288.865 88.1901 291.052 90.9336 291.529C93.6373 292.006 93.9952 290.336 96.5001 289.421Z" fill="url(#paint32_linear_117_4065)"/>
<path d="M85.9237 294.591C86.2021 295.426 86.7189 296.221 87.713 297.016C90.8541 299.561 98.6473 304.809 101.947 306.36C103.339 306.996 104.492 307.155 105.407 306.957C104.731 307.911 103.101 308.308 100.834 307.275C97.8123 305.843 90.6155 300.992 87.713 298.646C86.1225 297.334 85.7647 295.903 85.9237 294.591Z" fill="url(#paint33_linear_117_4065)"/>
<path d="M68.9855 205.963C68.9855 205.963 79.6018 211.092 91.9277 216.46C99.8004 219.879 110.218 228.03 106.878 243.855C103.538 259.72 100.238 276.062 100.238 276.062C93.6374 277.891 87.8323 274.67 87.8323 274.67C87.8323 274.67 85.2478 248.388 85.9635 240.674C86.6792 232.961 84.5321 233.438 83.3791 232.046C82.226 230.655 56.6993 217.613 56.6993 217.613L68.9855 205.963Z" fill="url(#paint34_linear_117_4065)"/>
<path d="M111.888 284.133L118.051 307.831L109.423 310.853L99.8004 288.547L111.888 284.133Z" fill="url(#paint35_linear_117_4065)"/>
<path d="M74.1147 220.675C74.1147 220.675 79.5222 222.663 86.6792 226.043C93.3988 229.223 99.7208 233.2 103.18 243.418C106.639 253.637 113.757 288.388 113.757 288.388C108.11 293.994 100.993 292.841 100.993 292.841C100.993 292.841 96.6195 283.895 90.2975 271.171C84.4923 259.521 83.6971 249.541 81.2319 246.281C78.7667 243.021 53.4786 242.822 46.1228 233.557C39.8803 225.685 41.4708 213.955 42.8624 210.894L64.4925 199.919C64.4925 199.919 69.5819 206.241 77.0172 209.701C81.6693 211.888 74.1147 220.675 74.1147 220.675Z" fill="url(#paint36_linear_117_4065)"/>
<path d="M115.904 305.366C116.818 304.491 118.329 304.133 119.323 306.718C120.238 309.143 119.959 310.217 123.418 311.966C127.037 313.795 130.297 315.028 130.973 316.618C131.649 318.209 130.416 320.077 127.076 319.998C123.737 319.918 115.188 318.328 111.609 317.374C107.832 316.34 108.071 313.04 108.031 311.131C107.991 309.223 108.269 308.189 108.269 308.189C108.269 308.189 108.985 310.256 111.689 309.62C114.353 308.905 114.035 307.235 115.904 305.366Z" fill="url(#paint37_linear_117_4065)"/>
<path d="M108.071 313C108.508 314.312 109.462 315.505 111.53 316.062C115.387 317.095 124.532 318.805 128.11 318.885C129.303 318.924 130.218 318.726 130.933 318.368C130.416 319.282 129.144 319.998 127.077 319.958C123.737 319.879 115.188 318.288 111.609 317.334C108.906 316.618 108.23 314.749 108.071 313Z" fill="url(#paint38_linear_117_4065)"/>
<path d="M83.4983 195.505C81.1126 192.126 74.7111 179.521 68.3891 172.007C62.067 164.492 52.8424 171.172 59.5621 179.999C66.3215 188.826 71.5699 197.295 75.5858 201.629C79.9198 206.36 87.1961 200.794 83.4983 195.505Z" fill="url(#paint39_linear_117_4065)"/>
<path d="M41.3117 218.686C41.3117 218.686 43.0612 205.207 40.6358 192.046C39.2442 184.611 31.8486 178.169 36.3814 171.966C38.1706 169.501 52.2063 162.98 62.4647 167.792C66.8782 169.859 67.0372 171.132 69.1445 175.505C71.4905 180.436 72.0869 183.935 71.0928 187.155C66.9179 201.31 74.8702 208.587 74.8702 208.587C74.8702 208.587 68.3891 220.475 41.3117 218.686Z" fill="url(#paint40_linear_117_4065)"/>
<path d="M70.5759 189.144C69.4626 194.035 69.7807 198.011 70.6554 201.072C57.8921 202.424 46.7987 192.365 46.7987 192.365C59.6018 195.227 68.1107 192.484 70.5759 189.144Z" fill="url(#paint41_linear_117_4065)"/>
<path d="M49.0254 157.892C49.0254 157.892 49.4627 165.884 44.6914 167.594C44.6914 167.594 46.918 168.429 50.2182 170.178C58.6476 174.632 64.4527 182.663 64.4527 182.663C64.4527 182.663 65.4865 172.365 60.4368 167.156C56.9776 163.578 57.8126 159.363 57.8126 159.363L49.0254 157.892Z" fill="url(#paint42_linear_117_4065)"/>
<path d="M62.3056 169.82C61.7887 168.866 61.1923 167.952 60.4368 167.156C56.9776 163.578 57.8126 159.363 57.8126 159.363L49.0254 157.892C49.0254 157.892 51.7291 159.164 51.5701 160.596C53.6377 165.367 54.9896 170.457 62.3056 169.82Z" fill="url(#paint43_linear_117_4065)"/>
<path d="M106.242 219.403C106.242 219.642 105.884 219.841 105.248 220L75.6654 226.481C74.3532 226.759 72.2459 226.68 70.9735 226.282L54.91 221.193C54.2739 220.994 53.9558 220.755 53.9558 220.517L53.916 221.312C53.916 221.55 54.2341 221.789 54.8703 221.988L70.9338 227.077C72.2061 227.475 74.3135 227.594 75.6256 227.276L105.208 220.795C105.884 220.636 106.202 220.437 106.202 220.199L106.242 219.403Z" fill="url(#paint44_linear_117_4065)"/>
<path d="M106.242 219.402C106.242 219.163 105.924 218.925 105.287 218.726L89.2238 213.637C87.9515 213.239 85.8441 213.12 84.532 213.438L54.9497 219.879C54.2738 220.038 53.9557 220.237 53.9557 220.476C53.9557 220.714 54.2738 220.953 54.91 221.152L70.9735 226.241C72.2458 226.639 74.3532 226.758 75.6653 226.44L105.248 219.959C105.924 219.839 106.242 219.641 106.242 219.402Z" fill="url(#paint45_linear_117_4065)"/>
<path d="M66.1624 223.021C66.1624 223.1 66.2419 223.18 66.4407 223.22L72.0868 225.009C72.4844 225.128 73.1603 225.168 73.5579 225.088L101.351 219.005C101.55 218.965 101.669 218.886 101.669 218.806C101.669 218.727 101.59 218.647 101.391 218.607L95.7447 216.818C95.347 216.699 94.6711 216.659 94.2735 216.739L66.4804 222.822C66.2816 222.862 66.1624 222.941 66.1624 223.021Z" fill="url(#paint46_linear_117_4065)"/>
<path d="M67.9517 218.249C67.9517 218.289 68.0312 218.369 68.1902 218.408L72.3652 219.721C72.6832 219.84 73.2001 219.84 73.558 219.76L85.0887 217.216C85.2478 217.176 85.3273 217.136 85.3273 217.057C85.3273 217.017 85.2478 216.937 85.0887 216.898L80.9138 215.585C80.5957 215.466 80.0788 215.466 79.721 215.546L68.1902 218.09C68.0312 218.13 67.9517 218.21 67.9517 218.249Z" fill="url(#paint47_linear_117_4065)"/>
<path d="M107.514 192.247C107.236 192.167 106.957 192.167 106.639 192.207L77.0571 198.688C75.745 198.966 74.6317 200.636 74.5521 202.425L73.5183 224.612C73.4388 225.964 74.0352 226.998 74.8702 227.276C75.1485 227.356 75.4269 227.356 75.745 227.316L105.327 220.835C106.639 220.556 107.753 218.887 107.832 217.097L108.866 194.911C108.946 193.559 108.389 192.525 107.514 192.247Z" fill="url(#paint48_linear_117_4065)"/>
<path d="M93.876 206.52C93.5977 206.44 93.2796 206.4 92.9615 206.48C91.5698 206.798 90.377 208.547 90.2975 210.376C90.218 211.808 90.8541 212.881 91.7289 213.16C92.0072 213.239 92.3253 213.279 92.6434 213.2C94.035 212.881 95.2279 211.132 95.3074 209.303C95.3869 207.872 94.7905 206.798 93.876 206.52Z" fill="url(#paint49_linear_117_4065)"/>
<path d="M47.7532 156.818C47.5941 154.79 47.7134 147.116 52.9221 144.293C58.1309 141.47 65.6855 144.771 66.759 148.548C67.8326 152.325 65.7252 155.705 65.7252 157.176C65.7252 158.607 65.2083 160.993 64.4926 162.663C63.26 165.526 61.5503 167.713 59.4032 167.832C57.0573 167.951 48.1906 162.981 47.7532 156.818Z" fill="url(#paint50_linear_117_4065)"/>
<path d="M66.5204 148.469C66.5204 148.469 67.6337 150.536 66.4409 153.876C65.2878 157.256 65.4071 158.21 65.2481 159.522C64.8107 163.975 61.272 167.117 61.272 167.117C61.272 167.117 64.8902 169.9 67.9121 166.838C72.4846 162.266 67.594 149.582 67.594 149.582C67.594 149.582 68.588 144.413 64.0552 141.431C59.2839 138.33 48.9858 138.608 46.123 145.049C43.2602 151.49 43.2602 157.574 38.6876 163.101C41.3119 166.123 45.2482 169.224 49.3436 168.349C54.9102 167.156 52.6438 159.801 52.5245 158.091C52.0474 152.325 57.1766 151.928 62.5443 151.61C65.765 151.451 66.5204 148.469 66.5204 148.469Z" fill="url(#paint51_linear_117_4065)"/>
<path d="M62.624 158.011C62.624 158.011 63.0217 161.193 63.0615 161.75C63.1013 162.306 62.4252 163.181 61.3116 162.545" stroke="#2E405C" stroke-miterlimit="10" stroke-linecap="round"/>
<path d="M58.8466 158.448C59.2859 158.448 59.642 158.092 59.642 157.653C59.642 157.214 59.2859 156.857 58.8466 156.857C58.4074 156.857 58.0513 157.214 58.0513 157.653C58.0513 158.092 58.4074 158.448 58.8466 158.448Z" fill="#2E405C"/>
<path d="M64.453 158.528C64.8922 158.528 65.2484 158.172 65.2484 157.732C65.2484 157.293 64.8922 156.937 64.453 156.937C64.0137 156.937 63.6576 157.293 63.6576 157.732C63.6576 158.172 64.0137 158.528 64.453 158.528Z" fill="#2E405C"/>
<path d="M59.9604 154.989C59.9604 154.989 58.7673 153.876 57.2163 154.989" stroke="#2E405C" stroke-miterlimit="10" stroke-linecap="round"/>
<path d="M66.0835 155.148C66.0835 155.148 64.8905 154.034 63.3395 155.148" stroke="#2E405C" stroke-miterlimit="10" stroke-linecap="round"/>
<path d="M59.4831 163.936C59.4831 163.936 57.1765 163.856 57.256 161.47" stroke="#2E405C" stroke-miterlimit="10" stroke-linecap="round"/>
<path d="M35.5066 205.883C36.8187 201.947 43.0612 189.303 45.3276 179.72C47.594 170.178 36.6994 166.758 33.6378 177.454C30.5762 188.15 26.7989 198.249 25.6856 204.054C24.4928 210.336 33.4788 212.006 35.5066 205.883Z" fill="url(#paint52_linear_117_4065)"/>
<path d="M54.7511 210.336C54.7511 210.336 38.7274 201.589 32.6837 199.641C25.6857 197.374 22.465 207.752 29.5425 209.7C39.0057 212.285 56.7392 215.983 58.091 216.46C59.4429 216.937 60.0393 218.05 61.2322 218.328C62.425 218.607 62.9817 219.243 62.9817 219.243C62.9817 219.243 64.1347 222.305 64.5323 222.543C64.9697 222.821 65.6457 222.782 65.2083 221.549C64.7709 220.317 64.2938 218.686 64.2938 218.686C64.2938 218.686 65.9637 221.708 66.4011 222.583C66.6397 223.06 67.9916 222.861 67.4747 221.668C66.9578 220.515 65.924 218.209 65.924 218.209C65.924 218.209 68.1904 221.549 68.8663 222.543C69.5025 223.458 71.411 223.02 70.2977 221.311C69.423 219.959 67.594 217.175 67.594 217.175C67.594 217.175 70.6556 220.078 71.6496 220.714C72.6834 221.35 73.3593 220.555 72.2062 219.283C71.0532 217.971 67.1566 213.875 65.9637 212.841C64.8902 211.887 54.7511 210.336 54.7511 210.336Z" fill="url(#paint53_linear_117_4065)"/>
<path d="M248.786 165.485C248.786 165.485 246.042 170.654 243.418 175.266C239.839 181.588 228.905 176.181 233.239 168.587C237.692 160.793 238.289 159.601 238.289 159.601L248.786 165.485Z" fill="url(#paint54_linear_117_4065)"/>
<path d="M235.863 162.544C235.863 162.544 243.418 148.19 246.44 144.929C249.064 142.106 260.316 145.009 255.386 154.631C250.973 163.18 247.434 169.383 247.434 169.383C247.434 169.383 240.674 166.719 235.863 162.544Z" fill="url(#paint55_linear_117_4065)"/>
<path d="M195.068 186.122C196.54 185.883 203.339 184.491 206.599 183.338C208.905 182.503 219.641 181.867 238.328 178.567C247.553 176.937 244.531 164.412 234.869 167.076C221.907 170.694 207.553 175.068 205.883 174.949C204.213 174.829 202.066 173.676 200.873 173.12C199.76 172.603 198.806 172.046 198.17 172.404C197.534 172.762 198.766 173.994 199.561 174.631C200.357 175.267 201.351 176.141 200.396 176.301C200.396 176.301 194.273 177.334 192.603 177.613C190.933 177.891 191.371 179.64 192.921 179.481C194.472 179.283 199.323 178.805 199.323 178.805C199.323 178.805 192.365 180.157 190.893 180.436C189.422 180.754 189.86 182.662 191.569 182.384C193.279 182.106 199.561 180.873 199.561 180.873C199.561 180.873 194.79 182.026 192.603 182.583C191.013 183.02 191.371 184.73 193.239 184.372C195.585 183.974 200.158 183.02 200.158 183.02C200.158 183.02 196.301 184.054 194.631 184.571C193.518 184.929 193.557 186.36 195.068 186.122Z" fill="url(#paint56_linear_117_4065)"/>
<path d="M201.47 177.175C201.47 177.175 201.987 180.635 207.673 180.635" stroke="white" stroke-miterlimit="10" stroke-linecap="round" stroke-linejoin="round"/>
<path d="M203.1 281.19H243.656V293.277H195.267L203.1 281.19Z" fill="url(#paint57_linear_117_4065)"/>
<path d="M245.326 295.306H285.883V307.433H237.493L245.326 295.306Z" fill="url(#paint58_linear_117_4065)"/>
<path d="M218.567 269.62C218.567 269.62 216.46 277.851 216.261 280.992C216.102 283.298 216.221 285.684 215.267 286.638C214.313 287.592 206.877 290.694 199.959 292.642C193.04 294.59 188.826 291.807 190.297 288.865C191.768 285.962 203.498 280.316 204.81 276.34C206.122 272.403 206.957 266.559 206.957 266.559L218.567 269.62Z" fill="url(#paint59_linear_117_4065)"/>
<path d="M276.022 190.536C276.022 190.536 273.199 206.798 255.982 212.285C238.766 217.812 233.318 218.368 233.318 218.368C233.318 218.368 232.762 232.484 227.354 245.963C221.947 259.442 218.05 272.245 218.05 272.245C218.05 272.245 211.967 273.756 206.003 269.819C206.003 269.819 213.836 224.571 214.989 217.852C216.142 211.132 218.09 206.679 222.464 204.333C226.877 201.947 257.414 188.229 257.414 188.229L276.022 190.536Z" fill="url(#paint60_linear_117_4065)"/>
<path d="M190.257 288.825C190.655 291.052 194.512 292.682 200.197 291.052C207.116 289.103 214.551 286.002 215.505 285.048C215.744 284.809 215.903 284.451 216.062 284.054C215.943 285.167 215.744 286.082 215.267 286.598C214.313 287.553 206.877 290.654 199.959 292.602C193.001 294.59 188.786 291.767 190.257 288.825C190.257 288.865 190.257 288.825 190.257 288.825Z" fill="url(#paint61_linear_117_4065)"/>
<path d="M259.163 280.633C259.163 280.633 258.249 289.063 258.487 292.204C258.646 294.51 259.123 296.856 258.328 297.929C257.533 299.003 250.575 303.138 244.014 306.041C237.454 308.943 232.841 306.756 233.915 303.655C234.949 300.554 245.803 293.317 246.519 289.222C247.235 285.126 247.235 279.242 247.235 279.242L259.163 280.633Z" fill="url(#paint62_linear_117_4065)"/>
<path d="M284.769 190.655L266.082 188.468C266.082 188.468 250.774 212.682 248.348 217.374C245.923 222.066 245.485 227.752 246.082 233.557C246.678 239.402 246.877 283.537 246.877 283.537C254.352 287.155 258.964 284.173 258.964 284.173C265.286 249.382 265.207 227.633 265.207 227.633C265.207 227.633 277.692 215.982 282.384 209.024C288.507 199.879 284.769 190.655 284.769 190.655Z" fill="url(#paint63_linear_117_4065)"/>
<path d="M233.875 303.655C234.591 305.802 238.646 306.876 244.014 304.49C250.575 301.588 257.533 297.453 258.328 296.379C258.527 296.101 258.646 295.743 258.726 295.345C258.766 296.459 258.726 297.413 258.288 297.969C257.493 299.043 250.535 303.178 243.974 306.081C237.414 308.983 232.802 306.796 233.875 303.655C233.875 303.695 233.875 303.655 233.875 303.655Z" fill="url(#paint64_linear_117_4065)"/>
<path d="M286.678 199.362C286.678 199.362 285.843 190.893 284.73 183.338C283.378 174.352 283.06 168.825 281.946 155.108C281.151 145.167 252.921 139.243 247.235 144.213C242.145 148.666 252.444 175.624 250.972 189.262C250.535 193.159 257.692 198.527 266.32 199.799C284.809 202.503 286.678 199.362 286.678 199.362Z" fill="url(#paint65_linear_117_4065)"/>
<path d="M255.903 141.112C260.714 141.35 266.599 143.1 271.648 146.36C270.614 148.229 267.354 152.165 261.191 153.318C252.682 154.869 248.428 150.297 255.903 141.112Z" fill="url(#paint66_linear_117_4065)"/>
<path d="M270.654 145.684C270.654 145.684 266.28 142.941 266.599 137.414L258.885 135.426C258.885 135.426 258.288 139.442 257.016 140.953C255.744 142.464 250.336 149.064 255.147 151.092C260.873 153.438 268.507 149.183 270.654 145.684Z" fill="url(#paint67_linear_117_4065)"/>
<path d="M253.239 148.508C253.12 146.6 254.511 144.214 255.704 142.584L265.207 139.165C265.207 139.165 263.418 148.707 256.857 149.383C255.227 149.542 254.074 149.105 253.239 148.508Z" fill="url(#paint68_linear_117_4065)"/>
<path d="M220.873 204.134C220.873 204.372 221.231 204.571 221.867 204.73L251.45 211.211C252.762 211.49 254.869 211.41 256.142 211.012L272.205 205.923C272.841 205.724 273.159 205.486 273.159 205.247L273.199 206.042C273.199 206.281 272.881 206.519 272.245 206.718L256.181 211.808C254.909 212.205 252.802 212.325 251.489 212.006L221.907 205.525C221.231 205.366 220.913 205.168 220.913 204.929L220.873 204.134Z" fill="url(#paint69_linear_117_4065)"/>
<path d="M220.873 204.134C220.873 203.895 221.192 203.657 221.828 203.458L237.891 198.369C239.164 197.971 241.271 197.852 242.583 198.17L272.165 204.651C272.841 204.81 273.159 205.009 273.159 205.247C273.159 205.486 272.841 205.724 272.205 205.923L256.142 211.013C254.869 211.41 252.762 211.53 251.45 211.211L221.867 204.73C221.231 204.571 220.913 204.373 220.873 204.134Z" fill="url(#paint70_linear_117_4065)"/>
<path d="M260.953 207.752C260.953 207.831 260.873 207.911 260.674 207.951L255.028 209.74C254.631 209.859 253.955 209.899 253.557 209.819L225.764 203.736C225.565 203.696 225.446 203.617 225.446 203.537C225.446 203.458 225.525 203.378 225.724 203.338L231.37 201.549C231.768 201.43 232.444 201.39 232.841 201.47L260.635 207.553C260.873 207.633 260.953 207.672 260.953 207.752Z" fill="url(#paint71_linear_117_4065)"/>
<path d="M259.163 202.98C259.163 203.02 259.084 203.1 258.925 203.139L254.75 204.452C254.432 204.571 253.915 204.571 253.557 204.491L242.026 201.947C241.867 201.907 241.788 201.867 241.788 201.788C241.788 201.748 241.867 201.668 242.026 201.628L246.201 200.316C246.519 200.197 247.036 200.197 247.394 200.277L258.925 202.821C259.084 202.901 259.163 202.941 259.163 202.98Z" fill="url(#paint72_linear_117_4065)"/>
<path d="M219.601 177.017C219.879 176.937 220.158 176.937 220.476 176.977L250.058 183.458C251.37 183.736 252.483 185.406 252.563 187.195L253.597 209.382C253.676 210.734 253.08 211.768 252.245 212.046C251.967 212.126 251.688 212.126 251.37 212.086L221.788 205.565C220.476 205.287 219.362 203.617 219.283 201.828L218.249 179.641C218.17 178.289 218.766 177.295 219.601 177.017Z" fill="url(#paint73_linear_117_4065)"/>
<path d="M233.239 191.252C233.517 191.172 233.835 191.132 234.154 191.212C235.545 191.53 236.738 193.279 236.818 195.108C236.897 196.54 236.261 197.613 235.386 197.892C235.108 197.971 234.79 198.011 234.472 197.931C233.08 197.613 231.887 195.864 231.808 194.035C231.728 192.603 232.364 191.53 233.239 191.252Z" fill="url(#paint74_linear_117_4065)"/>
<path d="M267.672 136.858C270.694 134.074 269.7 131.649 267.99 130.615C267.99 127.474 267.354 125.486 264.332 123.18C259.441 119.482 251.171 121.709 249.461 125.406C247.752 129.104 249.422 132.921 249.183 134.392C248.984 135.864 249.143 138.368 249.62 140.237C250.416 143.378 251.847 145.883 254.034 146.321C256.38 146.838 266.241 143.1 267.672 136.858Z" fill="url(#paint75_linear_117_4065)"/>
<path d="M261.032 127.911C260.117 129.462 260.634 132.365 262.543 133.279C264.451 134.233 264.491 134.591 264.491 134.591C264.491 134.591 264.531 130.575 267.235 131.251C268.428 131.53 270.098 133.836 266.4 136.738C266.201 138.249 266.559 139.402 266.559 139.402C266.559 139.402 271.171 135.625 271.37 130.377C271.569 125.088 268.229 124.412 268.229 124.412C268.229 124.412 267.871 119.084 261.469 117.892C255.028 116.699 249.461 119.084 247.951 121.947C245.843 125.884 248.706 129.621 248.706 129.621C248.706 129.621 248.547 125.208 251.569 126.639C254.551 128.07 258.169 129.462 261.032 127.911Z" fill="url(#paint76_linear_117_4065)"/>
<path d="M252.563 135.108C252.563 135.108 251.887 138.448 251.807 139.045C251.728 139.641 252.364 140.595 253.597 140.039" stroke="#2E405C" stroke-miterlimit="10" stroke-linecap="round"/>
<path d="M256.579 135.904C257.062 135.904 257.454 135.512 257.454 135.029C257.454 134.546 257.062 134.154 256.579 134.154C256.096 134.154 255.704 134.546 255.704 135.029C255.704 135.512 256.096 135.904 256.579 135.904Z" fill="#2E405C"/>
<path d="M250.615 135.546C251.098 135.546 251.49 135.155 251.49 134.671C251.49 134.188 251.098 133.796 250.615 133.796C250.131 133.796 249.74 134.188 249.74 134.671C249.74 135.155 250.131 135.546 250.615 135.546Z" fill="#2E405C"/>
<path d="M255.585 132.127C255.585 132.127 256.937 131.053 258.488 132.365" stroke="#2E405C" stroke-miterlimit="10" stroke-linecap="round"/>
<path d="M249.104 131.769C249.104 131.769 250.456 130.695 252.007 132.007" stroke="#2E405C" stroke-miterlimit="10" stroke-linecap="round"/>
<path d="M255.585 142.067C255.585 142.067 257.812 141.71 257.931 139.204" stroke="#2E405C" stroke-miterlimit="10" stroke-linecap="round"/>
<path d="M251.847 213.715C253 212.761 258.249 208.228 260.515 205.643C262.145 203.775 271.171 197.97 285.843 185.922C293.079 179.958 284.332 170.534 277.215 177.612C267.672 187.115 257.334 197.97 255.784 198.685C254.233 199.401 251.847 199.441 250.535 199.56C249.302 199.64 248.229 199.64 247.831 200.276C247.473 200.872 249.143 201.349 250.098 201.508C251.092 201.667 252.404 201.946 251.648 202.542L248.428 205.127C248.428 205.127 246.519 204.769 245.446 204.729C244.571 204.689 244.014 205.723 245.485 206.28C246.241 206.558 248.547 207.592 249.66 206.797C250.893 205.922 251.927 205.166 251.927 205.166L248.388 208.148C248.388 208.148 245.883 208.467 245.088 208.506C243.577 208.626 243.378 209.938 245.128 210.097C245.764 210.176 248.905 210.335 249.501 209.818C250.098 209.302 253.159 206.876 253.159 206.876L250.137 209.938C250.137 209.938 248.308 210.733 247.155 210.971C245.963 211.25 246.519 212.84 247.792 212.602C248.666 212.443 250.694 212.005 251.529 211.29C252.285 210.653 254.789 208.427 254.789 208.427C254.789 208.427 251.927 211.21 250.734 212.522C249.939 213.437 250.694 214.669 251.847 213.715Z" fill="url(#paint77_linear_117_4065)"/>
<path d="M285.604 168.388C285.604 168.388 287.155 174.034 288.427 179.203C290.177 186.28 278.527 189.859 276.459 181.35C274.352 172.642 273.954 171.33 273.954 171.33L285.604 168.388Z" fill="url(#paint78_linear_117_4065)"/>
<path d="M273.756 175.028C273.756 175.028 270.734 161.827 269.74 157.493C268.229 150.694 279.481 145.486 282.463 155.823C285.167 165.048 286.837 172.006 286.837 172.006C286.837 172.006 280.078 174.75 273.756 175.028Z" fill="url(#paint79_linear_117_4065)"/>
</g>
<defs>
<linearGradient id="paint0_linear_117_4065" x1="-0.397612" y1="264.239" x2="308.025" y2="264.239" gradientUnits="userSpaceOnUse">
<stop stop-color="#ECF0F8"/>
<stop offset="1" stop-color="#AEBDDF"/>
</linearGradient>
<linearGradient id="paint1_linear_117_4065" x1="153.775" y1="236.673" x2="153.775" y2="389.088" gradientUnits="userSpaceOnUse">
<stop stop-color="white"/>
<stop offset="1" stop-color="#AEBDDF"/>
</linearGradient>
<linearGradient id="paint2_linear_117_4065" x1="222.808" y1="255.949" x2="75.42" y2="255.949" gradientUnits="userSpaceOnUse">
<stop stop-color="white"/>
<stop offset="1" stop-color="#AEBDDF"/>
</linearGradient>
<linearGradient id="paint3_linear_117_4065" x1="87.0264" y1="145.94" x2="87.0264" y2="279.059" gradientUnits="userSpaceOnUse">
<stop stop-color="#ACBDDE"/>
<stop offset="1" stop-color="#2E405C"/>
</linearGradient>
<linearGradient id="paint4_linear_117_4065" x1="141.085" y1="238.055" x2="-12.9431" y2="238.055" gradientUnits="userSpaceOnUse">
<stop stop-color="#ACBDDE"/>
<stop offset="1" stop-color="#2E405C"/>
</linearGradient>
<linearGradient id="paint5_linear_117_4065" x1="235.463" y1="224.712" x2="34.4402" y2="224.712" gradientUnits="userSpaceOnUse">
<stop stop-color="#ACBDDE"/>
<stop offset="1" stop-color="#2E405C"/>
</linearGradient>
<linearGradient id="paint6_linear_117_4065" x1="2.70418" y1="199.18" x2="295.884" y2="199.18" gradientUnits="userSpaceOnUse">
<stop stop-color="#ACBDDE"/>
<stop offset="1" stop-color="#2E405C"/>
</linearGradient>
<linearGradient id="paint7_linear_117_4065" x1="90.8456" y1="224.711" x2="260.227" y2="224.711" gradientUnits="userSpaceOnUse">
<stop stop-color="white"/>
<stop offset="1" stop-color="#AEBDDF"/>
</linearGradient>
<linearGradient id="paint8_linear_117_4065" x1="270.397" y1="191.865" x2="270.397" y2="276.59" gradientUnits="userSpaceOnUse">
<stop stop-color="white"/>
<stop offset="1" stop-color="#AEBDDF"/>
</linearGradient>
<linearGradient id="paint9_linear_117_4065" x1="220.601" y1="166.279" x2="220.601" y2="266.198" gradientUnits="userSpaceOnUse">
<stop stop-color="white"/>
<stop offset="1" stop-color="#AEBDDF"/>
</linearGradient>
<linearGradient id="paint10_linear_117_4065" x1="208.238" y1="276.928" x2="-48.6767" y2="276.928" gradientUnits="userSpaceOnUse">
<stop stop-color="white"/>
<stop offset="1" stop-color="#AEBDDF"/>
</linearGradient>
<linearGradient id="paint11_linear_117_4065" x1="162.44" y1="255.95" x2="-14.9989" y2="255.95" gradientUnits="userSpaceOnUse">
<stop stop-color="white"/>
<stop offset="1" stop-color="#AEBDDF"/>
</linearGradient>
<linearGradient id="paint12_linear_117_4065" x1="144.859" y1="234.972" x2="-108.814" y2="234.972" gradientUnits="userSpaceOnUse">
<stop stop-color="white"/>
<stop offset="1" stop-color="#AEBDDF"/>
</linearGradient>
<linearGradient id="paint13_linear_117_4065" x1="60.6465" y1="91.1641" x2="243.77" y2="91.1641" gradientUnits="userSpaceOnUse">
<stop stop-color="#FFEFA4"/>
<stop offset="1" stop-color="#FE8F01"/>
</linearGradient>
<linearGradient id="paint14_linear_117_4065" x1="64.4697" y1="53.6229" x2="64.4697" y2="75.5436" gradientUnits="userSpaceOnUse">
<stop stop-color="#FFEFA4"/>
<stop offset="1" stop-color="#FE8F01"/>
</linearGradient>
<linearGradient id="paint15_linear_117_4065" x1="218.244" y1="142.498" x2="218.244" y2="164.418" gradientUnits="userSpaceOnUse">
<stop stop-color="#FFEFA4"/>
<stop offset="1" stop-color="#FE8F01"/>
</linearGradient>
<linearGradient id="paint16_linear_117_4065" x1="216.92" y1="16.3914" x2="216.92" y2="38.3121" gradientUnits="userSpaceOnUse">
<stop stop-color="#FFEFA4"/>
<stop offset="1" stop-color="#FE8F01"/>
</linearGradient>
<linearGradient id="paint17_linear_117_4065" x1="153.814" y1="247.558" x2="153.814" y2="199.998" gradientUnits="userSpaceOnUse">
<stop stop-color="#79D985"/>
<stop offset="1" stop-color="#027A71"/>
</linearGradient>
<linearGradient id="paint18_linear_117_4065" x1="153.814" y1="238.742" x2="153.814" y2="129.376" gradientUnits="userSpaceOnUse">
<stop stop-color="#79D985"/>
<stop offset="1" stop-color="#027A71"/>
</linearGradient>
<linearGradient id="paint19_linear_117_4065" x1="151.748" y1="269.547" x2="151.748" y2="164.293" gradientUnits="userSpaceOnUse">
<stop stop-color="#79D985"/>
<stop offset="1" stop-color="#027A71"/>
</linearGradient>
<linearGradient id="paint20_linear_117_4065" x1="115.038" y1="184.961" x2="180.697" y2="184.961" gradientUnits="userSpaceOnUse">
<stop stop-color="#ACBDDE"/>
<stop offset="1" stop-color="#2E405C"/>
</linearGradient>
<linearGradient id="paint21_linear_117_4065" x1="127.174" y1="168.904" x2="212.973" y2="168.904" gradientUnits="userSpaceOnUse">
<stop stop-color="#ACBDDE"/>
<stop offset="1" stop-color="#2E405C"/>
</linearGradient>
<linearGradient id="paint22_linear_117_4065" x1="123.751" y1="170.839" x2="246.401" y2="170.839" gradientUnits="userSpaceOnUse">
<stop stop-color="white"/>
<stop offset="1" stop-color="#AEBDDF"/>
</linearGradient>
<linearGradient id="paint23_linear_117_4065" x1="123.751" y1="163.393" x2="246.401" y2="163.393" gradientUnits="userSpaceOnUse">
<stop stop-color="white"/>
<stop offset="1" stop-color="#AEBDDF"/>
</linearGradient>
<linearGradient id="paint24_linear_117_4065" x1="180.572" y1="147.666" x2="66.7206" y2="147.666" gradientUnits="userSpaceOnUse">
<stop stop-color="#ACBDDE"/>
<stop offset="1" stop-color="#2E405C"/>
</linearGradient>
<linearGradient id="paint25_linear_117_4065" x1="151.748" y1="17.2648" x2="151.748" y2="171.6" gradientUnits="userSpaceOnUse">
<stop stop-color="#FFEFA4" stop-opacity="0.1"/>
<stop offset="1" stop-color="#FE8F01"/>
</linearGradient>
<linearGradient id="paint26_linear_117_4065" x1="123.751" y1="178.283" x2="246.401" y2="178.283" gradientUnits="userSpaceOnUse">
<stop stop-color="white"/>
<stop offset="1" stop-color="#AEBDDF"/>
</linearGradient>
<linearGradient id="paint27_linear_117_4065" x1="152.208" y1="30.9641" x2="152.208" y2="290.246" gradientUnits="userSpaceOnUse">
<stop stop-color="#FFEFA4" stop-opacity="0.1"/>
<stop offset="1" stop-color="#FE8F01"/>
</linearGradient>
<linearGradient id="paint28_linear_117_4065" x1="86.6914" y1="135.776" x2="101.386" y2="234.861" gradientUnits="userSpaceOnUse">
<stop stop-color="#FFD2BB"/>
<stop offset="1" stop-color="#FF6B5A"/>
</linearGradient>
<linearGradient id="paint29_linear_117_4065" x1="143.258" y1="304.064" x2="100.775" y2="304.064" gradientUnits="userSpaceOnUse">
<stop offset="0.00558659" stop-color="white" stop-opacity="0"/>
<stop offset="1" stop-color="#AEBDDF"/>
</linearGradient>
<linearGradient id="paint30_linear_117_4065" x1="162.973" y1="316.16" x2="108.568" y2="316.16" gradientUnits="userSpaceOnUse">
<stop stop-color="white" stop-opacity="0"/>
<stop offset="1" stop-color="#AEBDDF"/>
</linearGradient>
<linearGradient id="paint31_linear_117_4065" x1="93.2263" y1="301.989" x2="95.0445" y2="264.552" gradientUnits="userSpaceOnUse">
<stop stop-color="#FFD2BB"/>
<stop offset="1" stop-color="#FF6B5A"/>
</linearGradient>
<linearGradient id="paint32_linear_117_4065" x1="95.8409" y1="307.489" x2="95.8409" y2="276.919" gradientUnits="userSpaceOnUse">
<stop stop-color="white"/>
<stop offset="1" stop-color="#AEBDDF"/>
</linearGradient>
<linearGradient id="paint33_linear_117_4065" x1="86.9704" y1="297.474" x2="116.199" y2="313.163" gradientUnits="userSpaceOnUse">
<stop stop-color="#ACBDDE"/>
<stop offset="1" stop-color="#2E405C"/>
</linearGradient>
<linearGradient id="paint34_linear_117_4065" x1="82.1052" y1="324.697" x2="82.1052" y2="226.79" gradientUnits="userSpaceOnUse">
<stop stop-color="#ACBDDE"/>
<stop offset="1" stop-color="#2E405C"/>
</linearGradient>
<linearGradient id="paint35_linear_117_4065" x1="115.74" y1="313.459" x2="99.3463" y2="268.546" gradientUnits="userSpaceOnUse">
<stop stop-color="#FFD2BB"/>
<stop offset="1" stop-color="#FF6B5A"/>
</linearGradient>
<linearGradient id="paint36_linear_117_4065" x1="77.663" y1="297.172" x2="77.663" y2="220.767" gradientUnits="userSpaceOnUse">
<stop stop-color="#ACBDDE"/>
<stop offset="1" stop-color="#2E405C"/>
</linearGradient>
<linearGradient id="paint37_linear_117_4065" x1="119.59" y1="319.916" x2="119.59" y2="292.82" gradientUnits="userSpaceOnUse">
<stop stop-color="white"/>
<stop offset="1" stop-color="#AEBDDF"/>
</linearGradient>
<linearGradient id="paint38_linear_117_4065" x1="103.548" y1="314.321" x2="146.927" y2="321.436" gradientUnits="userSpaceOnUse">
<stop stop-color="#ACBDDE"/>
<stop offset="1" stop-color="#2E405C"/>
</linearGradient>
<linearGradient id="paint39_linear_117_4065" x1="70.8616" y1="139.667" x2="70.8616" y2="237.26" gradientUnits="userSpaceOnUse">
<stop stop-color="#FFD2BB"/>
<stop offset="1" stop-color="#FF6B5A"/>
</linearGradient>
<linearGradient id="paint40_linear_117_4065" x1="56.684" y1="152.821" x2="51.1385" y2="273.939" gradientUnits="userSpaceOnUse">
<stop stop-color="#FFEFA4"/>
<stop offset="1" stop-color="#FE8F01"/>
</linearGradient>
<linearGradient id="paint41_linear_117_4065" x1="42.324" y1="210.292" x2="75.8682" y2="182.49" gradientUnits="userSpaceOnUse">
<stop stop-color="#FFEFA4"/>
<stop offset="1" stop-color="#FE8F01"/>
</linearGradient>
<linearGradient id="paint42_linear_117_4065" x1="54.6064" y1="142.001" x2="54.6064" y2="193.092" gradientUnits="userSpaceOnUse">
<stop stop-color="#FFD2BB"/>
<stop offset="1" stop-color="#FF6B5A"/>
</linearGradient>
<linearGradient id="paint43_linear_117_4065" x1="55.665" y1="154.344" x2="55.665" y2="172.098" gradientUnits="userSpaceOnUse">
<stop stop-color="#FFD2BB"/>
<stop offset="1" stop-color="#FF6B5A"/>
</linearGradient>
<linearGradient id="paint44_linear_117_4065" x1="80.6341" y1="196.653" x2="79.7331" y2="235.115" gradientUnits="userSpaceOnUse">
<stop stop-color="white"/>
<stop offset="1" stop-color="#AEBDDF"/>
</linearGradient>
<linearGradient id="paint45_linear_117_4065" x1="58.2918" y1="218.945" x2="86.5299" y2="220.238" gradientUnits="userSpaceOnUse">
<stop stop-color="white"/>
<stop offset="1" stop-color="#AEBDDF"/>
</linearGradient>
<linearGradient id="paint46_linear_117_4065" x1="63.97" y1="219.999" x2="119.303" y2="222.533" gradientUnits="userSpaceOnUse">
<stop stop-color="#ACBDDE"/>
<stop offset="1" stop-color="#2E405C"/>
</linearGradient>
<linearGradient id="paint47_linear_117_4065" x1="63.1908" y1="223.35" x2="116.636" y2="200.889" gradientUnits="userSpaceOnUse">
<stop stop-color="#ACBDDE"/>
<stop offset="1" stop-color="#2E405C"/>
</linearGradient>
<linearGradient id="paint48_linear_117_4065" x1="91.2169" y1="176.542" x2="91.2169" y2="252.481" gradientUnits="userSpaceOnUse">
<stop stop-color="white"/>
<stop offset="1" stop-color="#AEBDDF"/>
</linearGradient>
<linearGradient id="paint49_linear_117_4065" x1="104.968" y1="181.21" x2="90.6503" y2="214.997" gradientUnits="userSpaceOnUse">
<stop stop-color="white"/>
<stop offset="1" stop-color="#AEBDDF"/>
</linearGradient>
<linearGradient id="paint50_linear_117_4065" x1="57.3876" y1="142.001" x2="57.3876" y2="193.091" gradientUnits="userSpaceOnUse">
<stop stop-color="#FFD2BB"/>
<stop offset="1" stop-color="#FF6B5A"/>
</linearGradient>
<linearGradient id="paint51_linear_117_4065" x1="22.0152" y1="97.6187" x2="57.6039" y2="162.661" gradientUnits="userSpaceOnUse">
<stop stop-color="#ACBDDE"/>
<stop offset="1" stop-color="#2E405C"/>
</linearGradient>
<linearGradient id="paint52_linear_117_4065" x1="35.6087" y1="139.667" x2="35.6087" y2="237.26" gradientUnits="userSpaceOnUse">
<stop stop-color="#FFD2BB"/>
<stop offset="1" stop-color="#FF6B5A"/>
</linearGradient>
<linearGradient id="paint53_linear_117_4065" x1="49.2572" y1="139.667" x2="49.2572" y2="237.26" gradientUnits="userSpaceOnUse">
<stop stop-color="#FFD2BB"/>
<stop offset="1" stop-color="#FF6B5A"/>
</linearGradient>
<linearGradient id="paint54_linear_117_4065" x1="240.501" y1="230.494" x2="240.501" y2="125.551" gradientUnits="userSpaceOnUse">
<stop stop-color="#FFD2BB"/>
<stop offset="1" stop-color="#FF6B5A"/>
</linearGradient>
<linearGradient id="paint55_linear_117_4065" x1="246.24" y1="124.419" x2="246.24" y2="227.821" gradientUnits="userSpaceOnUse">
<stop stop-color="white"/>
<stop offset="1" stop-color="#AEBDDF"/>
</linearGradient>
<linearGradient id="paint56_linear_117_4065" x1="216.92" y1="230.495" x2="216.92" y2="125.551" gradientUnits="userSpaceOnUse">
<stop stop-color="#FFD2BB"/>
<stop offset="1" stop-color="#FF6B5A"/>
</linearGradient>
<linearGradient id="paint57_linear_117_4065" x1="238.574" y1="287.226" x2="207.871" y2="287.226" gradientUnits="userSpaceOnUse">
<stop stop-color="white" stop-opacity="0"/>
<stop offset="1" stop-color="#AEBDDF"/>
</linearGradient>
<linearGradient id="paint58_linear_117_4065" x1="282.709" y1="301.368" x2="241.916" y2="301.368" gradientUnits="userSpaceOnUse">
<stop stop-color="white" stop-opacity="0"/>
<stop offset="1" stop-color="#AEBDDF"/>
</linearGradient>
<linearGradient id="paint59_linear_117_4065" x1="215.755" y1="279.925" x2="167.37" y2="279.925" gradientUnits="userSpaceOnUse">
<stop stop-color="white"/>
<stop offset="1" stop-color="#AEBDDF"/>
</linearGradient>
<linearGradient id="paint60_linear_117_4065" x1="236.705" y1="312.967" x2="243.561" y2="181.937" gradientUnits="userSpaceOnUse">
<stop stop-color="#ACBDDE"/>
<stop offset="1" stop-color="#2E405C"/>
</linearGradient>
<linearGradient id="paint61_linear_117_4065" x1="209.71" y1="283.966" x2="173.142" y2="303.996" gradientUnits="userSpaceOnUse">
<stop stop-color="#ACBDDE"/>
<stop offset="1" stop-color="#2E405C"/>
</linearGradient>
<linearGradient id="paint62_linear_117_4065" x1="256.207" y1="293.344" x2="211.413" y2="293.344" gradientUnits="userSpaceOnUse">
<stop stop-color="white"/>
<stop offset="1" stop-color="#AEBDDF"/>
</linearGradient>
<linearGradient id="paint63_linear_117_4065" x1="262.805" y1="313.619" x2="266.815" y2="182.471" gradientUnits="userSpaceOnUse">
<stop stop-color="#ACBDDE"/>
<stop offset="1" stop-color="#2E405C"/>
</linearGradient>
<linearGradient id="paint64_linear_117_4065" x1="258.185" y1="291.202" x2="226.5" y2="316.416" gradientUnits="userSpaceOnUse">
<stop stop-color="#ACBDDE"/>
<stop offset="1" stop-color="#2E405C"/>
</linearGradient>
<linearGradient id="paint65_linear_117_4065" x1="266.261" y1="124.419" x2="266.261" y2="227.821" gradientUnits="userSpaceOnUse">
<stop stop-color="white"/>
<stop offset="1" stop-color="#AEBDDF"/>
</linearGradient>
<linearGradient id="paint66_linear_117_4065" x1="261.468" y1="152.998" x2="262.598" y2="136.936" gradientUnits="userSpaceOnUse">
<stop stop-color="white"/>
<stop offset="1" stop-color="#AEBDDF"/>
</linearGradient>
<linearGradient id="paint67_linear_117_4065" x1="260.462" y1="155.833" x2="266.169" y2="120.573" gradientUnits="userSpaceOnUse">
<stop stop-color="#FFD2BB"/>
<stop offset="1" stop-color="#FF6B5A"/>
</linearGradient>
<linearGradient id="paint68_linear_117_4065" x1="255.423" y1="158.146" x2="259.864" y2="140.936" gradientUnits="userSpaceOnUse">
<stop stop-color="#FFD2BB"/>
<stop offset="1" stop-color="#FF6B5A"/>
</linearGradient>
<linearGradient id="paint69_linear_117_4065" x1="246.493" y1="181.394" x2="247.394" y2="219.856" gradientUnits="userSpaceOnUse">
<stop stop-color="white"/>
<stop offset="1" stop-color="#AEBDDF"/>
</linearGradient>
<linearGradient id="paint70_linear_117_4065" x1="268.835" y1="203.687" x2="240.597" y2="204.98" gradientUnits="userSpaceOnUse">
<stop stop-color="white"/>
<stop offset="1" stop-color="#AEBDDF"/>
</linearGradient>
<linearGradient id="paint71_linear_117_4065" x1="263.157" y1="204.74" x2="207.824" y2="207.273" gradientUnits="userSpaceOnUse">
<stop stop-color="#ACBDDE"/>
<stop offset="1" stop-color="#2E405C"/>
</linearGradient>
<linearGradient id="paint72_linear_117_4065" x1="263.936" y1="208.091" x2="210.491" y2="185.63" gradientUnits="userSpaceOnUse">
<stop stop-color="#ACBDDE"/>
<stop offset="1" stop-color="#2E405C"/>
</linearGradient>
<linearGradient id="paint73_linear_117_4065" x1="235.919" y1="175.141" x2="235.919" y2="252.295" gradientUnits="userSpaceOnUse">
<stop stop-color="#ACBDDE"/>
<stop offset="1" stop-color="#2E405C"/>
</linearGradient>
<linearGradient id="paint74_linear_117_4065" x1="234.31" y1="191.132" x2="234.31" y2="219.107" gradientUnits="userSpaceOnUse">
<stop stop-color="white"/>
<stop offset="1" stop-color="#AEBDDF"/>
</linearGradient>
<linearGradient id="paint75_linear_117_4065" x1="258.046" y1="153.893" x2="259.769" y2="118.215" gradientUnits="userSpaceOnUse">
<stop stop-color="#FFD2BB"/>
<stop offset="1" stop-color="#FF6B5A"/>
</linearGradient>
<linearGradient id="paint76_linear_117_4065" x1="259.544" y1="73.4594" x2="259.263" y2="131.837" gradientUnits="userSpaceOnUse">
<stop stop-color="#ACBDDE"/>
<stop offset="1" stop-color="#2E405C"/>
</linearGradient>
<linearGradient id="paint77_linear_117_4065" x1="266.261" y1="241.731" x2="266.261" y2="148.377" gradientUnits="userSpaceOnUse">
<stop stop-color="#FFD2BB"/>
<stop offset="1" stop-color="#FF6B5A"/>
</linearGradient>
<linearGradient id="paint78_linear_117_4065" x1="281.28" y1="241.731" x2="281.28" y2="148.377" gradientUnits="userSpaceOnUse">
<stop stop-color="#FFD2BB"/>
<stop offset="1" stop-color="#FF6B5A"/>
</linearGradient>
<linearGradient id="paint79_linear_117_4065" x1="278.23" y1="124.419" x2="278.23" y2="227.821" gradientUnits="userSpaceOnUse">
<stop stop-color="white"/>
<stop offset="1" stop-color="#AEBDDF"/>
</linearGradient>
<clipPath id="clip0_117_4065">
<rect width="307.632" height="320" fill="white"/>
</clipPath>
</defs>
</svg>
