<svg width="289" height="350" viewBox="0 0 289 350" fill="none" xmlns="http://www.w3.org/2000/svg">
<g clip-path="url(#clip0_117_3326)">
<path d="M0 228.129C0 249.506 64.6634 266.813 144.428 266.813C224.192 266.813 288.855 249.506 288.855 228.129V242.811C288.855 264.188 224.192 281.495 144.428 281.495C64.6634 281.495 0 264.188 0 242.811V228.129Z" fill="url(#paint0_linear_117_3326)"/>
<path d="M144.428 266.813C224.193 266.813 288.855 249.493 288.855 228.129C288.855 206.764 224.193 189.445 144.428 189.445C64.6625 189.445 0 206.764 0 228.129C0 249.493 64.6625 266.813 144.428 266.813Z" fill="url(#paint1_linear_117_3326)"/>
<path d="M143.058 241.632H279.765C285.622 237.409 288.817 232.883 288.817 228.128C288.817 223.982 286.383 220.026 281.933 216.261H143.058V241.632Z" fill="url(#paint2_linear_117_3326)"/>
<path d="M77.444 216.261C77.444 220.825 83.9103 225.352 96.843 228.813C122.746 235.736 164.702 235.736 190.567 228.813C203.5 225.352 209.966 220.787 209.966 216.261V223.868C209.966 228.395 203.5 232.959 190.567 236.421C164.664 243.343 122.708 243.343 96.843 236.421C83.9103 232.959 77.444 228.395 77.444 223.868V216.261Z" fill="url(#paint3_linear_117_3326)"/>
<path d="M77.444 216.262C77.444 211.735 83.9103 207.171 96.843 203.709C122.746 196.786 164.702 196.786 190.567 203.709C203.5 207.171 209.966 211.735 209.966 216.262C209.966 220.788 203.5 225.352 190.567 228.814C164.664 235.737 122.708 235.737 96.843 228.814C83.9103 225.352 77.444 220.826 77.444 216.262Z" fill="url(#paint4_linear_117_3326)"/>
<path d="M152.53 109.947L165.919 103.594C188.323 92.9819 202.625 70.4258 202.625 45.6255V22.0423C202.625 18.0104 196.881 13.9784 185.394 10.8974C162.381 4.73537 125.105 4.73537 102.13 10.8974C90.6429 13.9784 84.8993 18.0104 84.8993 22.0423V45.6255C84.8993 70.4258 99.2013 92.9819 121.605 103.594L134.994 109.947C136.668 110.745 137.733 112.419 137.733 114.283V121.852C137.733 123.716 136.668 125.39 134.994 126.189L121.605 132.541C99.2013 143.153 84.8993 165.709 84.8993 190.51V214.093C84.8993 218.125 90.6429 222.157 102.13 225.238C125.143 231.4 162.419 231.4 185.394 225.238C196.881 222.157 202.625 218.125 202.625 214.093V190.51C202.625 165.709 188.323 143.153 165.919 132.541L152.53 126.189C150.856 125.39 149.791 123.716 149.791 121.852V114.283C149.753 112.419 150.818 110.745 152.53 109.947Z" fill="url(#paint5_linear_117_3326)"/>
<path d="M185.356 10.8974C162.343 4.73537 125.067 4.73537 102.092 10.8974C90.605 13.9784 84.8613 18.0104 84.8613 22.0423V37.6757C86.9914 40.7567 92.5068 43.6856 101.408 46.0819C124.801 52.3581 162.724 52.3581 186.117 46.0819C195.017 43.6856 200.533 40.7567 202.663 37.6757V22.0423C202.587 18.0104 196.843 13.9784 185.356 10.8974Z" fill="url(#paint6_linear_117_3326)"/>
<path d="M202.625 22.0423C202.625 26.0743 196.881 30.1063 185.394 33.1873C162.381 39.3493 125.105 39.3493 102.13 33.1873C90.6429 30.1063 84.8993 26.0743 84.8993 22.0423C84.8993 18.0104 90.6429 13.9784 102.13 10.8974C125.143 4.73537 162.419 4.73537 185.394 10.8974C196.881 13.9784 202.625 18.0104 202.625 22.0423Z" fill="url(#paint7_linear_117_3326)"/>
<path d="M93.686 68.7529C99.4297 81.9519 109.89 92.8686 123.545 98.9926L138.95 105.915C140.282 106.524 141.119 107.817 141.119 109.301V190.434H146.368V109.415C146.368 107.969 147.205 106.638 148.536 106.03L164.131 99.0306C177.787 92.9066 188.247 81.9899 193.99 68.791H93.686V68.7529Z" fill="url(#paint8_linear_117_3326)"/>
<path d="M143.819 81.0014C171.78 81.0014 194.447 74.9217 194.447 67.4221C194.447 59.9224 171.78 53.8428 143.819 53.8428C115.858 53.8428 93.1915 59.9224 93.1915 67.4221C93.1915 74.9217 115.858 81.0014 143.819 81.0014Z" fill="url(#paint9_linear_117_3326)"/>
<path d="M88.1324 189.369C88.1324 197.585 113.009 204.241 143.705 204.241C174.401 204.241 199.278 197.585 199.278 189.369V211.811C199.278 220.027 174.401 226.683 143.705 226.683C113.009 226.683 88.1324 220.027 88.1324 211.811V189.369Z" fill="url(#paint10_linear_117_3326)"/>
<path d="M143.705 204.242C174.397 204.242 199.278 197.583 199.278 189.369C199.278 181.155 174.397 174.497 143.705 174.497C113.013 174.497 88.1324 181.155 88.1324 189.369C88.1324 197.583 113.013 204.242 143.705 204.242Z" fill="url(#paint11_linear_117_3326)"/>
<path d="M176.113 185.108L148.003 165.443C145.455 163.655 142.031 163.655 139.445 165.443L111.335 185.108C108.977 186.401 107.646 187.847 107.646 189.368C107.646 194.694 123.811 199.03 143.743 199.03C163.675 199.03 179.84 194.694 179.84 189.368C179.802 187.847 178.471 186.401 176.113 185.108Z" fill="url(#paint12_linear_117_3326)"/>
<path d="M108.102 49.0875C108.102 67.7639 117.84 84.9187 133.435 94.5802L126.74 91.5372C109.281 83.6254 98.0602 66.2424 98.0602 47.0716V33.1499H108.064L108.102 49.0875Z" fill="url(#paint13_linear_117_3326)"/>
<path d="M77.444 17.7441C77.444 22.3086 83.9103 26.8351 96.843 30.2965C122.746 37.2192 164.702 37.2192 190.567 30.2965C203.5 26.8351 209.966 22.2706 209.966 17.7441V25.3516C209.966 29.878 203.5 34.4425 190.567 37.9039C164.702 44.8647 122.746 44.8647 96.843 37.9039C83.9103 34.4425 77.444 29.878 77.444 25.3516V17.7441Z" fill="url(#paint14_linear_117_3326)"/>
<path d="M77.444 17.7444C77.444 13.218 83.9103 8.65349 96.843 5.19209C122.746 -1.7307 164.702 -1.7307 190.567 5.19209C203.5 8.65349 209.966 13.218 209.966 17.7444C209.966 22.2709 203.5 26.8353 190.567 30.2967C164.664 37.2195 122.708 37.2195 96.843 30.2967C83.9103 26.8353 77.444 22.2709 77.444 17.7444Z" fill="url(#paint15_linear_117_3326)"/>
<path d="M108.559 191.004C108.559 167.155 120.959 145.283 140.89 132.959L132.37 136.839C110.118 146.919 95.816 169.094 95.816 193.552V215.348H108.559V191.004Z" fill="url(#paint16_linear_117_3326)"/>
<path d="M214.15 160.65C214.15 158.33 217.421 156.048 224.002 154.298C237.125 150.798 258.426 150.798 271.548 154.298C278.129 156.048 281.4 158.368 281.4 160.65C281.4 162.97 278.129 165.253 271.548 167.002C258.426 170.502 237.125 170.502 224.002 167.002C217.459 165.291 214.15 162.97 214.15 160.65Z" fill="url(#paint17_linear_117_3326)"/>
<path d="M214.15 157.455C214.15 159.509 217.041 161.525 222.861 163.085C234.462 166.204 253.291 166.204 264.892 163.085C270.674 161.525 273.602 159.509 273.602 157.455V160.878C273.602 162.932 270.712 164.948 264.892 166.508C253.291 169.627 234.462 169.627 222.861 166.508C217.041 164.948 214.15 162.932 214.15 160.878V157.455Z" fill="url(#paint18_linear_117_3326)"/>
<path d="M214.15 157.455C214.15 155.401 217.041 153.385 222.861 151.826C234.462 148.707 253.291 148.707 264.892 151.826C270.712 153.385 273.602 155.401 273.602 157.455C273.602 159.509 270.712 161.525 264.892 163.085C253.291 166.204 234.462 166.204 222.861 163.085C217.079 161.525 214.15 159.471 214.15 157.455Z" fill="url(#paint19_linear_117_3326)"/>
<path d="M247.813 109.794L253.823 106.942C263.865 102.187 270.255 92.069 270.255 80.9621V70.3877C270.255 68.5619 267.669 66.7742 262.534 65.4048C252.226 62.6281 235.527 62.6281 225.219 65.4048C220.084 66.7742 217.497 68.5999 217.497 70.3877V80.9621C217.497 92.069 223.888 102.187 233.93 106.942L239.939 109.794C240.7 110.137 241.157 110.897 241.157 111.734V115.12C241.157 115.956 240.662 116.717 239.939 117.059L233.93 119.912C223.888 124.667 217.497 134.785 217.497 145.892V156.466C217.497 158.292 220.084 160.08 225.219 161.449C235.527 164.226 252.226 164.226 262.534 161.449C267.669 160.08 270.255 158.254 270.255 156.466V145.892C270.255 134.785 263.865 124.667 253.823 119.912L247.813 117.059C247.052 116.717 246.596 115.956 246.596 115.12V111.734C246.596 110.897 247.052 110.137 247.813 109.794Z" fill="url(#paint20_linear_117_3326)"/>
<path d="M262.534 65.3672C252.226 62.5905 235.527 62.5905 225.219 65.3672C220.084 66.7366 217.497 68.5623 217.497 70.3501V77.349C218.448 78.7183 220.921 80.0496 224.915 81.1147C235.413 83.9294 252.416 83.9294 262.876 81.1147C266.87 80.0496 269.342 78.7183 270.293 77.349V70.3501C270.255 68.5623 267.707 66.7746 262.534 65.3672Z" fill="url(#paint21_linear_117_3326)"/>
<path d="M270.255 70.3881C270.255 72.2139 267.669 74.0017 262.534 75.371C252.226 78.1478 235.527 78.1478 225.219 75.371C220.046 74.0017 217.497 72.1759 217.497 70.3501C217.497 68.5243 220.084 66.7366 225.219 65.3672C235.527 62.5905 252.226 62.5905 262.534 65.3672C267.707 66.7746 270.255 68.5624 270.255 70.3881Z" fill="url(#paint22_linear_117_3326)"/>
<path d="M221.453 91.3086C224.04 97.2424 228.718 102.111 234.842 104.888L241.727 107.969C242.336 108.235 242.716 108.844 242.716 109.49V145.854H245.074V109.528C245.074 108.882 245.455 108.273 246.063 108.007L253.062 104.888C259.186 102.149 263.865 97.2424 266.451 91.3086H221.453Z" fill="url(#paint23_linear_117_3326)"/>
<path d="M243.933 96.8238C256.454 96.8238 266.604 94.099 266.604 90.7378C266.604 87.3766 256.454 84.6519 243.933 84.6519C231.413 84.6519 221.263 87.3766 221.263 90.7378C221.263 94.099 231.413 96.8238 243.933 96.8238Z" fill="url(#paint24_linear_117_3326)"/>
<path d="M218.943 145.398C218.943 149.088 230.088 152.054 243.857 152.054C257.627 152.054 268.772 149.05 268.772 145.398V155.44C268.772 159.129 257.627 162.096 243.857 162.096C230.088 162.096 218.943 159.091 218.943 155.44V145.398Z" fill="url(#paint25_linear_117_3326)"/>
<path d="M243.857 152.054C257.617 152.054 268.772 149.074 268.772 145.398C268.772 141.721 257.617 138.741 243.857 138.741C230.097 138.741 218.943 141.721 218.943 145.398C218.943 149.074 230.097 152.054 243.857 152.054Z" fill="url(#paint26_linear_117_3326)"/>
<path d="M258.388 143.458L245.797 134.633C244.656 133.834 243.097 133.834 241.955 134.633L229.365 143.458C228.3 144.028 227.729 144.675 227.729 145.36C227.729 147.756 234.957 149.696 243.895 149.696C252.834 149.696 260.061 147.756 260.061 145.36C260.061 144.713 259.453 144.067 258.388 143.458Z" fill="url(#paint27_linear_117_3326)"/>
<path d="M227.92 82.4835C227.92 90.8517 232.294 98.5353 239.293 102.872L236.288 101.502C228.452 97.9647 223.431 90.1671 223.431 81.5706V75.3325H227.92V82.4835Z" fill="url(#paint28_linear_117_3326)"/>
<path d="M214.15 68.4478C214.15 70.5018 217.041 72.5177 222.861 74.0773C234.462 77.1963 253.291 77.1963 264.892 74.0773C270.674 72.5177 273.602 70.5018 273.602 68.4478V71.8711C273.602 73.9251 270.712 75.9411 264.892 77.5006C253.291 80.6197 234.462 80.6197 222.861 77.5006C217.041 75.9411 214.15 73.9251 214.15 71.8711V68.4478Z" fill="url(#paint29_linear_117_3326)"/>
<path d="M214.15 68.4483C214.15 66.3943 217.041 64.3783 222.861 62.8188C234.462 59.6997 253.291 59.6997 264.892 62.8188C270.712 64.3783 273.602 66.3943 273.602 68.4483C273.602 70.5023 270.712 72.5183 264.892 74.0778C253.291 77.1969 234.462 77.1969 222.861 74.0778C217.079 72.5183 214.15 70.5023 214.15 68.4483Z" fill="url(#paint30_linear_117_3326)"/>
<path d="M228.11 146.121C228.11 135.432 233.663 125.618 242.602 120.103L238.76 121.853C228.795 126.379 222.366 136.307 222.366 147.262V157.037H228.072V146.121H228.11Z" fill="url(#paint31_linear_117_3326)"/>
<path d="M7.45532 160.65C7.45532 158.33 10.7265 156.048 17.307 154.298C30.4299 150.798 51.7308 150.798 64.8536 154.298C71.4341 156.048 74.7053 158.368 74.7053 160.65C74.7053 162.97 71.4341 165.253 64.8536 167.002C51.7308 170.502 30.4299 170.502 17.307 167.002C10.7265 165.291 7.45532 162.97 7.45532 160.65Z" fill="url(#paint32_linear_117_3326)"/>
<path d="M7.45532 157.455C7.45532 159.509 10.3462 161.525 16.1659 163.085C27.7673 166.204 46.5957 166.204 58.1971 163.085C63.9788 161.525 66.9076 159.509 66.9076 157.455V160.878C66.9076 162.932 64.0168 164.948 58.1971 166.508C46.5957 169.627 27.7673 169.627 16.1659 166.508C10.3462 164.948 7.45532 162.932 7.45532 160.878V157.455Z" fill="url(#paint33_linear_117_3326)"/>
<path d="M7.45532 157.455C7.45532 155.401 10.3462 153.385 16.1659 151.826C27.7673 148.707 46.5957 148.707 58.1971 151.826C64.0168 153.385 66.9076 155.401 66.9076 157.455C66.9076 159.509 64.0168 161.525 58.1971 163.085C46.5957 166.204 27.7673 166.204 16.1659 163.085C10.3462 161.525 7.45532 159.471 7.45532 157.455Z" fill="url(#paint34_linear_117_3326)"/>
<path d="M41.1184 109.794L47.1283 106.942C57.1701 102.187 63.5604 92.069 63.5604 80.9621V70.3877C63.5604 68.5619 60.9738 66.7742 55.8388 65.4048C45.5307 62.6281 28.8323 62.6281 18.5242 65.4048C13.3892 66.7742 10.8026 68.5999 10.8026 70.3877V80.9621C10.8026 92.069 17.1929 102.187 27.2347 106.942L33.2446 109.794C34.0054 110.137 34.4618 110.897 34.4618 111.734V115.12C34.4618 115.956 33.9673 116.717 33.2446 117.059L27.2347 119.912C17.1929 124.667 10.8026 134.785 10.8026 145.892V156.466C10.8026 158.292 13.3892 160.08 18.5242 161.449C28.8323 164.226 45.5307 164.226 55.8388 161.449C60.9738 160.08 63.5604 158.254 63.5604 156.466V145.892C63.5604 134.785 57.1701 124.667 47.1283 119.912L41.1184 117.059C40.3576 116.717 39.9012 115.956 39.9012 115.12V111.734C39.8631 110.897 40.3576 110.137 41.1184 109.794Z" fill="url(#paint35_linear_117_3326)"/>
<path d="M55.8388 65.3672C45.5307 62.5905 28.8323 62.5905 18.5242 65.3672C13.3892 66.7366 10.8026 68.5623 10.8026 70.3501V77.349C11.7535 78.7183 14.226 80.0496 18.2199 81.1147C28.7182 83.9294 45.7209 83.9294 56.1811 81.1147C60.175 80.0496 62.6475 78.7183 63.5984 77.349V70.3501C63.5604 68.5623 60.9738 66.7746 55.8388 65.3672Z" fill="url(#paint36_linear_117_3326)"/>
<path d="M63.5604 70.3881C63.5604 72.2139 60.9738 74.0017 55.8388 75.371C45.5307 78.1478 28.8323 78.1478 18.5242 75.371C13.3511 74.0017 10.8026 72.1759 10.8026 70.3501C10.8026 68.5243 13.3892 66.7366 18.5242 65.3672C28.8323 62.5905 45.5307 62.5905 55.8388 65.3672C60.9738 66.7746 63.5604 68.5624 63.5604 70.3881Z" fill="url(#paint37_linear_117_3326)"/>
<path d="M14.7205 91.3086C17.307 97.2424 21.9856 102.111 28.1096 104.888L34.9943 107.969C35.6029 108.235 35.9833 108.844 35.9833 109.49V145.854H38.3416V109.528C38.3416 108.882 38.722 108.273 39.3306 108.007L46.3295 104.888C52.4535 102.149 57.1321 97.2424 59.7186 91.3086H14.7205Z" fill="url(#paint38_linear_117_3326)"/>
<path d="M37.2005 96.8238C49.7209 96.8238 59.8708 94.099 59.8708 90.7378C59.8708 87.3766 49.7209 84.6519 37.2005 84.6519C24.6801 84.6519 14.5303 87.3766 14.5303 90.7378C14.5303 94.099 24.6801 96.8238 37.2005 96.8238Z" fill="url(#paint39_linear_117_3326)"/>
<path d="M12.2479 145.398C12.2479 149.088 23.3929 152.054 37.1624 152.054C50.9319 152.054 62.0768 149.05 62.0768 145.398V155.44C62.0768 159.129 50.9319 162.096 37.1624 162.096C23.3929 162.096 12.2479 159.091 12.2479 155.44V145.398Z" fill="url(#paint40_linear_117_3326)"/>
<path d="M37.1624 152.054C50.9222 152.054 62.0768 149.074 62.0768 145.398C62.0768 141.721 50.9222 138.741 37.1624 138.741C23.4025 138.741 12.2479 141.721 12.2479 145.398C12.2479 149.074 23.4025 152.054 37.1624 152.054Z" fill="url(#paint41_linear_117_3326)"/>
<path d="M51.6926 143.458L39.1023 134.633C37.9612 133.834 36.4016 133.834 35.2605 134.633L22.6702 143.458C21.6051 144.028 21.0345 144.675 21.0345 145.36C21.0345 147.756 28.2616 149.696 37.2004 149.696C46.1392 149.696 53.3663 147.756 53.3663 145.36C53.3282 144.713 52.7577 144.067 51.6926 143.458Z" fill="url(#paint42_linear_117_3326)"/>
<path d="M21.1868 82.4835C21.1868 90.8517 25.5611 98.5353 32.5599 102.872L29.555 101.502C21.7193 97.9647 16.6984 90.1671 16.6984 81.5706V75.3325H21.1868V82.4835Z" fill="url(#paint43_linear_117_3326)"/>
<path d="M7.45532 68.4478C7.45532 70.5018 10.3462 72.5177 16.1659 74.0773C27.7673 77.1963 46.5957 77.1963 58.1971 74.0773C63.9788 72.5177 66.9076 70.5018 66.9076 68.4478V71.8711C66.9076 73.9251 64.0168 75.9411 58.1971 77.5006C46.5957 80.6197 27.7673 80.6197 16.1659 77.5006C10.3462 75.9411 7.45532 73.9251 7.45532 71.8711V68.4478Z" fill="url(#paint44_linear_117_3326)"/>
<path d="M7.45532 68.4483C7.45532 66.3943 10.3462 64.3783 16.1659 62.8188C27.7673 59.6997 46.5957 59.6997 58.1971 62.8188C64.0168 64.3783 66.9076 66.3943 66.9076 68.4483C66.9076 70.5023 64.0168 72.5183 58.1971 74.0778C46.5957 77.1969 27.7673 77.1969 16.1659 74.0778C10.3462 72.5183 7.45532 70.5023 7.45532 68.4483Z" fill="url(#paint45_linear_117_3326)"/>
<path d="M21.415 146.121C21.415 135.432 26.9685 125.618 35.9072 120.103L32.0655 121.853C22.0997 126.379 15.6714 136.307 15.6714 147.262V157.037H21.377V146.121H21.415Z" fill="url(#paint46_linear_117_3326)"/>
<path d="M194.485 244.333C194.485 244.333 191.86 249.278 189.35 253.69C185.927 259.738 175.466 254.565 179.612 247.3C183.872 239.845 184.443 238.704 184.443 238.704L194.485 244.333Z" fill="url(#paint47_linear_117_3326)"/>
<path d="M182.123 241.556C182.123 241.556 189.35 227.825 192.241 224.706C194.751 222.005 205.516 224.782 200.799 233.987C196.577 242.165 193.192 248.099 193.192 248.099C193.192 248.099 186.725 245.512 182.123 241.556Z" fill="url(#paint48_linear_117_3326)"/>
<path d="M141.157 247.223C142.564 247.528 149.068 248.821 152.378 249.011C154.736 249.125 164.435 252.549 182.161 256.467C190.909 258.406 192.849 246.234 183.34 245.055C170.559 243.458 156.295 242.088 154.85 241.328C153.405 240.605 151.959 238.817 151.084 237.866C150.285 236.991 149.639 236.193 148.954 236.269C148.27 236.345 148.878 237.866 149.373 238.741C149.829 239.578 150.4 240.719 149.487 240.529C149.487 240.529 143.705 239.16 142.146 238.817C140.586 238.475 140.32 240.149 141.765 240.567C143.211 240.985 147.661 242.317 147.661 242.317C147.661 242.317 141.042 240.947 139.597 240.681C138.19 240.415 137.847 242.279 139.483 242.659C141.118 243.039 147.09 244.295 147.09 244.295C147.09 244.295 142.45 243.534 140.32 243.268C138.76 243.039 138.418 244.675 140.206 245.093C142.412 245.588 146.824 246.425 146.824 246.425C146.824 246.425 143.058 245.93 141.347 245.778C140.244 245.626 139.749 246.881 141.157 247.223Z" fill="url(#paint49_linear_117_3326)"/>
<path d="M150.133 241.708C150.133 241.708 149.297 244.941 154.356 247.033" stroke="white" stroke-miterlimit="10" stroke-linecap="round" stroke-linejoin="round"/>
<path d="M259.567 319.38H198.213V329.498H259.567V319.38Z" fill="url(#paint50_linear_117_3326)"/>
<path d="M179.802 310.441C179.802 310.441 182.655 319.418 182.922 322.157C183.112 323.945 182.807 325.923 181.971 326.531C181.134 327.14 171.168 330.069 165.577 330.753C159.985 331.438 157.056 328.737 158.578 326.645C160.099 324.553 172.728 319.342 172.043 316.147C171.358 312.914 170.521 311.43 170.521 311.43L179.802 310.441Z" fill="url(#paint51_linear_117_3326)"/>
<path d="M158.54 326.684C158.578 328.472 161.354 330.183 165.957 329.613C171.548 328.928 181.514 326.037 182.351 325.391C182.579 325.239 182.731 325.01 182.884 324.706C182.655 325.543 182.389 326.228 181.933 326.57C181.096 327.178 171.13 330.107 165.539 330.792C159.985 331.439 157.056 328.776 158.54 326.684Z" fill="url(#paint52_linear_117_3326)"/>
<path d="M233.359 303.1C233.359 303.1 241.309 299.106 243.819 298.422C245.455 298.003 247.357 297.965 248.079 298.65C248.802 299.335 253.024 308.197 254.508 313.332C255.991 318.429 253.899 321.587 251.731 320.483C249.563 319.418 242.754 308.388 239.901 309.491C236.973 310.632 235.717 311.621 235.717 311.621L233.359 303.1Z" fill="url(#paint53_linear_117_3326)"/>
<path d="M251.731 320.484C253.405 320.18 254.584 317.327 253.367 313.143C251.883 308.046 247.661 299.183 246.938 298.46C246.748 298.27 246.52 298.156 246.216 298.08C247.014 298.156 247.699 298.308 248.079 298.689C248.802 299.373 253.024 308.236 254.508 313.371C255.953 318.43 253.899 321.587 251.731 320.484Z" fill="url(#paint54_linear_117_3326)"/>
<path d="M171.853 260.308C159.605 257.379 151.084 265.976 156.448 278.909C161.811 291.841 171.51 314.169 171.51 314.169C171.51 314.169 175.923 315.234 180.221 311.773C180.221 311.773 178.737 300.057 177.672 291.385C176.303 280.658 172.766 275.295 172.766 275.295C172.766 275.295 187.828 287.049 206.999 290.814C224.763 294.314 227.996 278.224 228.528 274.154C228.49 274.154 181.172 262.514 171.853 260.308Z" fill="url(#paint55_linear_117_3326)"/>
<path d="M207.037 272.214C207.037 272.214 191.099 303.48 186.535 313.294C181.971 323.108 190.567 333.568 203.766 327.786C216.965 322.005 238.798 310.099 238.798 310.099C238.798 310.099 238.456 304.774 235.109 302.187C235.109 302.187 227.806 304.507 220.959 306.485C214.112 308.463 207.646 311.658 203.5 314.549C203.5 314.549 220.959 297.927 226.626 289.292C232.332 280.658 229.86 271.719 229.86 271.719L207.037 272.214Z" fill="url(#paint56_linear_117_3326)"/>
<path d="M230.734 276.741C230.734 276.741 229.936 268.639 228.871 261.412C227.577 252.815 227.273 247.528 226.208 234.405C225.447 224.896 198.441 219.228 193.001 223.983C188.133 228.243 197.984 254.032 196.577 267.079C196.158 270.807 203.005 275.942 211.259 277.159C228.947 279.746 230.734 276.741 230.734 276.741Z" fill="url(#paint57_linear_117_3326)"/>
<path d="M201.294 221.016C205.896 221.244 211.526 222.918 216.356 226.037C215.367 227.825 212.248 231.59 206.353 232.694C198.175 234.215 194.143 229.803 201.294 221.016Z" fill="url(#paint58_linear_117_3326)"/>
<path d="M215.367 225.39C215.367 225.39 211.183 222.765 211.488 217.478L204.108 215.576C204.108 215.576 203.538 219.418 202.321 220.863C201.103 222.309 195.93 228.623 200.533 230.563C206.048 232.845 213.351 228.775 215.367 225.39Z" fill="url(#paint59_linear_117_3326)"/>
<path d="M198.707 228.129C198.593 226.303 199.924 224.021 201.065 222.462L210.156 219.19C210.156 219.19 208.445 228.319 202.168 228.966C200.647 229.118 199.506 228.662 198.707 228.129Z" fill="url(#paint60_linear_117_3326)"/>
<path d="M212.172 215.805C214.492 212.609 213.123 210.555 211.335 209.909C210.765 206.98 209.776 205.23 206.543 203.633C201.293 201.046 193.914 204.66 193.001 208.463C192.088 212.267 194.333 215.538 194.409 216.946C194.485 218.353 195.093 220.711 195.892 222.347C197.224 225.124 199.011 227.216 201.141 227.254C203.424 227.254 211.982 221.929 212.172 215.805Z" fill="url(#paint61_linear_117_3326)"/>
<path d="M204.337 208.654C203.766 210.289 204.793 212.914 206.733 213.447C208.673 213.979 208.787 214.321 208.787 214.321C208.787 214.321 208.064 210.556 210.727 210.67C211.906 210.708 213.884 212.572 210.955 215.957C211.069 217.402 211.602 218.429 211.602 218.429C211.602 218.429 215.215 214.055 214.454 209.072C213.694 204.089 210.422 204.051 210.422 204.051C210.422 204.051 209.129 199.106 202.853 199.183C196.615 199.259 191.784 202.492 190.909 205.459C189.654 209.567 193.001 212.534 193.001 212.534C193.001 212.534 192.05 208.426 195.131 209.224C198.251 209.985 201.902 210.632 204.337 208.654Z" fill="url(#paint62_linear_117_3326)"/>
<path d="M197.68 216.946C197.68 216.946 197.642 220.179 197.68 220.788C197.718 221.358 198.517 222.157 199.544 221.396" stroke="#2E405C" stroke-miterlimit="10" stroke-linecap="round"/>
<path d="M201.408 216.984C201.87 216.984 202.244 216.61 202.244 216.147C202.244 215.685 201.87 215.311 201.408 215.311C200.945 215.311 200.571 215.685 200.571 216.147C200.571 216.61 200.945 216.984 201.408 216.984Z" fill="#2E405C"/>
<path d="M195.778 217.744C196.24 217.744 196.615 217.37 196.615 216.908C196.615 216.445 196.24 216.071 195.778 216.071C195.316 216.071 194.941 216.445 194.941 216.908C194.941 217.37 195.316 217.744 195.778 217.744Z" fill="#2E405C"/>
<path d="M199.962 213.599C199.962 213.599 201.027 212.344 202.739 213.294" stroke="#2E405C" stroke-miterlimit="10" stroke-linecap="round"/>
<path d="M193.838 214.474C193.838 214.474 194.903 213.219 196.615 214.169" stroke="#2E405C" stroke-miterlimit="10" stroke-linecap="round"/>
<path d="M201.788 222.917C201.788 222.917 203.804 222.195 203.462 219.798" stroke="#2E405C" stroke-miterlimit="10" stroke-linecap="round"/>
<path d="M197.414 290.51C198.517 289.598 203.538 285.261 205.706 282.789C207.265 281.001 215.9 275.448 229.936 263.922C236.858 258.217 228.49 249.202 221.681 255.973C212.553 265.063 202.663 275.448 201.179 276.132C199.696 276.817 197.414 276.855 196.158 276.969C194.979 277.045 193.952 277.045 193.572 277.654C193.23 278.224 194.827 278.681 195.74 278.833C196.691 278.985 197.946 279.251 197.224 279.822L194.142 282.294C194.142 282.294 192.317 281.952 191.29 281.914C190.453 281.876 189.92 282.865 191.328 283.397C192.05 283.664 194.257 284.653 195.322 283.892C196.501 283.055 197.49 282.332 197.49 282.332L194.104 285.185C194.104 285.185 191.708 285.49 190.947 285.528C189.502 285.642 189.312 286.897 190.985 287.049C191.594 287.125 194.599 287.277 195.169 286.783C195.74 286.288 198.669 283.968 198.669 283.968L195.778 286.897C195.778 286.897 194.028 287.658 192.925 287.886C191.784 288.152 192.317 289.674 193.534 289.445C194.371 289.293 196.311 288.875 197.109 288.19C197.832 287.582 200.228 285.451 200.228 285.451C200.228 285.451 197.49 288.114 196.349 289.369C195.588 290.244 196.273 291.423 197.414 290.51Z" fill="url(#paint63_linear_117_3326)"/>
<path d="M229.707 247.109C229.707 247.109 231.191 252.51 232.408 257.455C234.082 264.226 222.937 267.649 220.959 259.509C218.943 251.179 218.562 249.924 218.562 249.924L229.707 247.109Z" fill="url(#paint64_linear_117_3326)"/>
<path d="M218.372 253.5C218.372 253.5 215.481 240.872 214.531 236.726C213.085 230.221 223.85 225.238 226.702 235.128C229.289 243.953 230.887 250.609 230.887 250.609C230.887 250.609 224.42 253.234 218.372 253.5Z" fill="url(#paint65_linear_117_3326)"/>
<path d="M97.7939 336.345C97.7939 332.845 102.777 329.346 112.743 326.683C132.674 321.358 165.006 321.358 184.937 326.683C194.903 329.346 199.886 332.845 199.886 336.345C199.886 339.844 194.903 343.344 184.937 346.006C165.006 351.332 132.674 351.332 112.743 346.006C102.777 343.344 97.7939 339.844 97.7939 336.345Z" fill="url(#paint66_linear_117_3326)"/>
<path d="M93.5337 330.412C93.5337 333.683 98.2123 336.954 107.531 339.465C126.208 344.447 156.447 344.447 175.086 339.465C184.405 336.954 189.083 333.683 189.083 330.412V335.889C189.083 339.16 184.405 342.431 175.086 344.942C156.409 349.925 126.17 349.925 107.531 344.942C98.2123 342.431 93.5337 339.16 93.5337 335.889V330.412Z" fill="url(#paint67_linear_117_3326)"/>
<path d="M93.5337 330.411C93.5337 327.139 98.2123 323.868 107.531 321.358C126.208 316.375 156.447 316.375 175.086 321.358C184.405 323.868 189.083 327.139 189.083 330.411C189.083 333.682 184.405 336.953 175.086 339.464C156.409 344.446 126.17 344.446 107.531 339.464C98.2123 336.991 93.5337 333.72 93.5337 330.411Z" fill="url(#paint68_linear_117_3326)"/>
<path d="M145.607 336.079H184.253C187.486 334.291 189.122 332.389 189.122 330.449C189.122 328.471 187.41 326.493 183.986 324.667H145.607V336.079Z" fill="url(#paint69_linear_117_3326)"/>
<path d="M165.767 320.255H118.448V300.399C118.448 287.353 129.022 276.74 142.107 276.74C155.154 276.74 165.767 287.315 165.767 300.399V320.255Z" fill="url(#paint70_linear_117_3326)"/>
<path d="M165.767 326.607H118.448V306.752C118.448 293.705 129.022 283.093 142.107 283.093C155.154 283.093 165.767 293.667 165.767 306.752V326.607Z" fill="url(#paint71_linear_117_3326)"/>
<path d="M142.107 314.359V247.908" stroke="url(#paint72_linear_117_3326)" stroke-width="10" stroke-miterlimit="10" stroke-linecap="round" stroke-linejoin="round"/>
<path d="M142.107 255.364C147.569 255.364 151.997 250.936 151.997 245.474C151.997 240.012 147.569 235.584 142.107 235.584C136.645 235.584 132.218 240.012 132.218 245.474C132.218 250.936 136.645 255.364 142.107 255.364Z" fill="url(#paint73_linear_117_3326)"/>
<path d="M142.107 245.816C146.036 245.816 149.22 243.603 149.22 240.872C149.22 238.141 146.036 235.927 142.107 235.927C138.179 235.927 134.994 238.141 134.994 240.872C134.994 243.603 138.179 245.816 142.107 245.816Z" fill="url(#paint74_linear_117_3326)"/>
<path d="M165.767 329.765H118.448V309.909C118.448 296.862 129.022 286.25 142.107 286.25C155.154 286.25 165.767 296.824 165.767 309.909V329.765Z" fill="url(#paint75_linear_117_3326)"/>
<path d="M165.767 336.116H118.448V316.261C118.448 303.214 129.022 292.602 142.107 292.602C155.154 292.602 165.767 303.176 165.767 316.261V336.116Z" fill="url(#paint76_linear_117_3326)"/>
<path d="M142.107 321.966C146.309 321.966 149.715 318.56 149.715 314.359C149.715 310.157 146.309 306.751 142.107 306.751C137.906 306.751 134.5 310.157 134.5 314.359C134.5 318.56 137.906 321.966 142.107 321.966Z" fill="url(#paint77_linear_117_3326)"/>
<path d="M126.854 249.887H65.5002V255.706H126.854V249.887Z" fill="url(#paint78_linear_117_3326)"/>
<path d="M62.3432 146.386C64.3592 137.714 67.8967 124.591 68.3912 119.988C69.1139 113.56 59.3763 110.631 57.3223 119.304C54.3554 131.856 53.1002 138.436 51.883 144.56C50.3615 152.282 60.6315 153.689 62.3432 146.386Z" fill="url(#paint79_linear_117_3326)"/>
<path d="M62.1529 170.882C61.7726 162.552 62.2671 153.195 62.1529 147.413C62.0008 139.692 51.3123 140.224 51.7307 147.071C52.1491 153.918 55.3443 169.703 55.3062 170.654C55.2682 171.605 54.8498 174.077 54.2031 175.941C53.6326 177.577 52.7577 180.886 52.6056 181.571C52.4534 182.294 53.6706 182.978 54.1271 181.875C54.6216 180.658 55.8007 177.463 55.8007 177.463C55.8007 177.463 54.8117 182.446 54.6976 183.929C54.6216 184.804 56.1811 185.146 56.4854 183.739C56.8658 181.875 57.6645 178.186 57.6645 178.186C57.6645 178.186 57.2081 183.815 57.0559 185.032C56.9038 186.325 58.6535 186.592 58.8817 185.298C59.3382 182.788 59.9087 178.49 59.9087 178.49C59.9087 178.49 59.8327 182.94 59.7566 184.5C59.7186 185.717 61.3161 185.793 61.4683 184.614C61.7726 182.446 62.1149 178.528 62.1529 177.691C62.1529 177.159 63.8646 179.669 65.0438 180.278C66.2229 180.886 67.2119 179.745 66.0328 178.186C64.8156 176.664 64.1309 175.941 63.9027 174.154C63.6364 172.48 62.191 171.833 62.1529 170.882Z" fill="url(#paint80_linear_117_3326)"/>
<path d="M61.8488 232.922C61.8488 232.922 62.9899 244.675 62.4573 250.039C62.115 253.462 63.3702 254.071 68.4672 253.995C73.5642 253.956 78.4711 250.647 74.8575 250.153C68.9998 249.316 71.1679 245.246 71.2059 231.362L61.8488 232.922Z" fill="url(#paint81_linear_117_3326)"/>
<path d="M61.9248 236.878C61.9248 236.878 59.3383 224.592 61.05 208.083C61.9248 199.829 60.4414 193.629 58.6916 184.082C56.2573 170.693 56.5996 160.08 62.1911 147.718L77.1397 149.05C77.1397 149.05 75.9606 169.552 75.1618 182.332C74.2869 196.406 71.4341 237.22 71.4341 237.22C71.4341 237.22 67.6304 239.008 61.9248 236.878Z" fill="url(#paint82_linear_117_3326)"/>
<path d="M70.217 246.501C69.152 248.593 65.1961 249.772 62.4574 247.262C59.8709 252.967 60.2512 257.228 67.5924 255.554C72.6134 254.413 74.287 253.538 76.5693 252.397C78.6993 251.37 78.6233 248.783 75.7705 248.745C70.9778 248.669 71.5103 245.664 71.0538 244.029C70.8256 243.268 70.7876 245.398 70.217 246.501Z" fill="url(#paint83_linear_117_3326)"/>
<path d="M67.326 254.565C72.3469 253.424 74.0206 252.549 76.3028 251.408C77.2157 250.951 77.7102 250.229 77.7863 249.544C78.4329 250.419 77.9765 251.75 76.6071 252.397C74.3249 253.5 72.6512 254.413 67.6303 255.554C63.2941 256.543 61.3922 255.44 61.0879 253.234C61.7726 254.755 63.7125 255.402 67.326 254.565Z" fill="url(#paint84_linear_117_3326)"/>
<path d="M80.4109 234.823C80.4109 234.823 81.552 246.577 81.0195 251.94C80.6772 255.363 81.9324 255.972 87.0294 255.896C92.1264 255.858 97.9841 255.934 99.5056 255.059C101.027 254.184 98.1743 252.815 94.5608 252.32C88.703 251.484 89.73 247.185 89.7681 233.264L80.4109 234.823Z" fill="url(#paint85_linear_117_3326)"/>
<path d="M80.487 238.742C80.487 238.742 77.1016 226.57 78.8514 210.1C79.7262 201.845 77.7483 198.308 74.8955 189.369C71.7003 179.403 68.6954 162.172 73.1077 148.897L91.3656 152.663C91.3656 152.663 94.5608 171.416 93.762 184.196C92.8871 198.27 90.0343 239.084 90.0343 239.084C90.0343 239.084 86.1926 240.91 80.487 238.742Z" fill="url(#paint86_linear_117_3326)"/>
<path d="M79.8403 255.858C79.8403 255.858 80.1446 252.663 81.0955 250.267C81.0955 250.267 83.3778 251.674 86.0023 250.838C89.0453 249.887 88.9312 246.577 89.8061 247.186C90.5668 247.718 89.8061 249.925 94.0282 251.294C100.609 253.462 102.168 254.185 101.788 256.011C101.331 258.179 86.8011 258.559 83.3778 258.445C79.9924 258.331 79.8023 256.619 79.8403 255.858Z" fill="url(#paint87_linear_117_3326)"/>
<path d="M101.712 254.907C101.712 254.945 101.712 254.983 101.674 255.021C101.217 257.189 87.4478 257.38 84.0244 257.266C81.7042 257.189 80.1066 256.543 79.8023 255.82C79.8023 255.858 79.8023 255.896 79.8023 255.896C79.7262 256.695 79.9545 258.369 83.3778 258.483C86.8012 258.597 101.293 258.255 101.788 256.048C101.902 255.592 101.864 255.25 101.712 254.907Z" fill="url(#paint88_linear_117_3326)"/>
<path d="M85.8883 113.446C85.8883 113.446 81.9704 111.811 80.9054 110.137C79.3459 107.665 79.3839 104.279 79.3839 104.279L70.331 103.975C70.331 103.975 69.4942 111.811 64.7015 112.876C64.7015 112.876 62.7996 119.342 73.7924 119.152C84.3287 119 85.8883 113.446 85.8883 113.446Z" fill="url(#paint89_linear_117_3326)"/>
<path d="M93.0014 158.939C92.1265 161.145 67.6305 165.405 58.5396 156.656C58.5396 156.656 62.077 147.451 59.7948 135.584C57.0561 121.586 57.5886 115.386 61.4684 113.902C62.6476 113.446 65.3102 112.533 65.3102 112.533C64.131 116.527 77.1398 118.543 84.481 112.419C88.3608 114.093 93.4198 116.565 93.686 121.586C94.1045 128.737 96.2345 130.182 95.4358 133.339C94.3327 137.6 91.4799 137.486 91.0995 146.881C90.8713 152.739 93.0014 158.939 93.0014 158.939Z" fill="url(#paint90_linear_117_3326)"/>
<path d="M67.0978 98.307C67.2119 86.8958 76.3789 85.9069 80.9434 88.2271C85.5078 90.5474 85.1275 97.242 85.4698 98.7254C85.8121 100.247 86.6109 100.437 86.6109 100.894C86.5729 101.654 85.5078 101.73 85.5078 101.73C85.5078 101.73 86.0404 106.523 83.3017 107.512C80.2207 108.653 66.9837 109.756 67.0978 98.307Z" fill="url(#paint91_linear_117_3326)"/>
<path d="M84.5949 93.1727C84.5949 93.1727 85.4698 86.2119 78.1286 84.3861C70.7874 82.5603 62.3051 86.1358 62.267 95.7592C62.191 105.345 61.8867 109.947 59.0719 111.088C59.0719 111.088 63.4462 118.315 73.1077 117.022C82.7691 115.729 83.8342 108.654 82.0084 104.812C80.2206 100.97 78.0145 98.4599 79.3838 96.0255C80.7532 93.5911 84.4048 92.8304 83.4158 90.5862C83.4158 90.5862 84.1385 91.6132 84.5949 93.1727Z" fill="url(#paint92_linear_117_3326)"/>
<path d="M101.217 147.375C99.1633 138.703 95.2454 123.906 93.5337 119.608C91.1754 113.598 81.7422 115.576 83.7201 125.77C86.1545 138.209 88.6269 144.256 90.4147 150.266C92.8491 158.406 103.423 156.733 101.217 147.375Z" fill="url(#paint93_linear_117_3326)"/>
<path d="M123.013 126.342C123.013 126.342 123.431 129.689 123.773 130.45C124.116 131.21 124.724 131.096 124.838 130.868C124.953 130.602 124.838 126.151 124.838 126.151L123.013 126.342Z" fill="url(#paint94_linear_117_3326)"/>
<path d="M118.258 133.53C120.008 131.476 122.746 130.753 123.507 129.726C124.268 128.699 124.991 127.368 124.991 127.368C124.991 127.368 125.219 128.433 125.371 129.46C125.523 130.487 126.17 131.02 126.588 130.715C127.045 130.411 126.854 128.053 126.816 126.607C126.778 125.162 125.637 125.124 125.637 125.124C125.637 123.602 124.002 123.983 124.002 123.983C123.583 122.614 122.214 123.07 122.214 123.07C122.214 123.07 124.42 119.609 125.105 118.429C125.751 117.402 124.458 116.223 123.507 117.555C123.051 118.201 119.894 121.739 117.573 124.782C115.557 127.406 115.291 128.091 114.34 129.004C109.662 133.416 102.549 137.068 93.9141 144.637C86.0404 151.522 94.8651 157.836 99.8099 154.261C104.489 150.799 113.808 138.817 118.258 133.53Z" fill="url(#paint95_linear_117_3326)"/>
</g>
<defs>
<linearGradient id="paint0_linear_117_3326" x1="-44.6304" y1="254.809" x2="351.411" y2="254.809" gradientUnits="userSpaceOnUse">
<stop stop-color="white"/>
<stop offset="1" stop-color="#AEBDDF"/>
</linearGradient>
<linearGradient id="paint1_linear_117_3326" x1="11.681" y1="228.12" x2="678.491" y2="228.12" gradientUnits="userSpaceOnUse">
<stop stop-color="white"/>
<stop offset="1" stop-color="#AEBDDF"/>
</linearGradient>
<linearGradient id="paint2_linear_117_3326" x1="288.841" y1="228.954" x2="210.589" y2="228.954" gradientUnits="userSpaceOnUse">
<stop stop-color="white" stop-opacity="0"/>
<stop offset="1" stop-color="#AEBDDF"/>
</linearGradient>
<linearGradient id="paint3_linear_117_3326" x1="206.074" y1="228.952" x2="-38.3989" y2="228.952" gradientUnits="userSpaceOnUse">
<stop stop-color="white"/>
<stop offset="1" stop-color="#AEBDDF"/>
</linearGradient>
<linearGradient id="paint4_linear_117_3326" x1="94.7308" y1="216.269" x2="331.648" y2="216.269" gradientUnits="userSpaceOnUse">
<stop stop-color="white"/>
<stop offset="1" stop-color="#AEBDDF"/>
</linearGradient>
<linearGradient id="paint5_linear_117_3326" x1="88.7584" y1="118.065" x2="277.44" y2="118.065" gradientUnits="userSpaceOnUse">
<stop stop-color="#79D985" stop-opacity="0.2"/>
<stop offset="1" stop-color="#027A71"/>
</linearGradient>
<linearGradient id="paint6_linear_117_3326" x1="88.7585" y1="28.5362" x2="277.44" y2="28.5362" gradientUnits="userSpaceOnUse">
<stop stop-color="#79D985" stop-opacity="0.2"/>
<stop offset="1" stop-color="#027A71"/>
</linearGradient>
<linearGradient id="paint7_linear_117_3326" x1="60.034" y1="22.053" x2="251.741" y2="22.053" gradientUnits="userSpaceOnUse">
<stop stop-color="#79D985" stop-opacity="0.2"/>
<stop offset="1" stop-color="#027A71"/>
</linearGradient>
<linearGradient id="paint8_linear_117_3326" x1="98.1438" y1="129.591" x2="206.934" y2="129.591" gradientUnits="userSpaceOnUse">
<stop stop-color="#79D985"/>
<stop offset="1" stop-color="#027A71"/>
</linearGradient>
<linearGradient id="paint9_linear_117_3326" x1="95.2997" y1="67.427" x2="310.307" y2="67.427" gradientUnits="userSpaceOnUse">
<stop stop-color="#79D985"/>
<stop offset="1" stop-color="#027A71"/>
</linearGradient>
<linearGradient id="paint10_linear_117_3326" x1="81.0796" y1="208.039" x2="243.877" y2="208.039" gradientUnits="userSpaceOnUse">
<stop stop-color="#79D985"/>
<stop offset="1" stop-color="#027A71"/>
</linearGradient>
<linearGradient id="paint11_linear_117_3326" x1="97.2904" y1="189.376" x2="338.467" y2="189.376" gradientUnits="userSpaceOnUse">
<stop stop-color="#79D985"/>
<stop offset="1" stop-color="#027A71"/>
</linearGradient>
<linearGradient id="paint12_linear_117_3326" x1="98.1437" y1="181.567" x2="206.934" y2="181.567" gradientUnits="userSpaceOnUse">
<stop stop-color="#79D985"/>
<stop offset="1" stop-color="#027A71"/>
</linearGradient>
<linearGradient id="paint13_linear_117_3326" x1="115.773" y1="47.653" x2="115.773" y2="87.0172" gradientUnits="userSpaceOnUse">
<stop stop-color="white" stop-opacity="0.8"/>
<stop offset="1" stop-color="white" stop-opacity="0"/>
</linearGradient>
<linearGradient id="paint14_linear_117_3326" x1="49.2267" y1="30.4248" x2="278.612" y2="30.4248" gradientUnits="userSpaceOnUse">
<stop stop-color="white"/>
<stop offset="1" stop-color="#AEBDDF"/>
</linearGradient>
<linearGradient id="paint15_linear_117_3326" x1="234.087" y1="17.7414" x2="25.3301" y2="17.7414" gradientUnits="userSpaceOnUse">
<stop stop-color="white"/>
<stop offset="1" stop-color="#AEBDDF"/>
</linearGradient>
<linearGradient id="paint16_linear_117_3326" x1="118.364" y1="134.171" x2="118.364" y2="212.5" gradientUnits="userSpaceOnUse">
<stop stop-color="white" stop-opacity="0.8"/>
<stop offset="1" stop-color="white" stop-opacity="0"/>
</linearGradient>
<linearGradient id="paint17_linear_117_3326" x1="247.777" y1="187.168" x2="247.777" y2="159.816" gradientUnits="userSpaceOnUse">
<stop stop-color="white"/>
<stop offset="1" stop-color="#AEBDDF"/>
</linearGradient>
<linearGradient id="paint18_linear_117_3326" x1="271.827" y1="163.127" x2="162.238" y2="163.127" gradientUnits="userSpaceOnUse">
<stop stop-color="white"/>
<stop offset="1" stop-color="#AEBDDF"/>
</linearGradient>
<linearGradient id="paint19_linear_117_3326" x1="221.915" y1="157.441" x2="328.117" y2="157.441" gradientUnits="userSpaceOnUse">
<stop stop-color="white"/>
<stop offset="1" stop-color="#AEBDDF"/>
</linearGradient>
<linearGradient id="paint20_linear_117_3326" x1="213.636" y1="113.42" x2="269.799" y2="113.42" gradientUnits="userSpaceOnUse">
<stop stop-color="white"/>
<stop offset="1" stop-color="#AEBDDF"/>
</linearGradient>
<linearGradient id="paint21_linear_117_3326" x1="205.102" y1="73.2872" x2="258.893" y2="73.2872" gradientUnits="userSpaceOnUse">
<stop stop-color="white"/>
<stop offset="1" stop-color="#AEBDDF"/>
</linearGradient>
<linearGradient id="paint22_linear_117_3326" x1="206.362" y1="70.381" x2="292.298" y2="70.381" gradientUnits="userSpaceOnUse">
<stop stop-color="#79D985" stop-opacity="0.2"/>
<stop offset="1" stop-color="#027A71"/>
</linearGradient>
<linearGradient id="paint23_linear_117_3326" x1="223.445" y1="118.586" x2="272.212" y2="118.586" gradientUnits="userSpaceOnUse">
<stop stop-color="#ACBDDE"/>
<stop offset="1" stop-color="#2E405C"/>
</linearGradient>
<linearGradient id="paint24_linear_117_3326" x1="222.17" y1="90.7198" x2="318.551" y2="90.7198" gradientUnits="userSpaceOnUse">
<stop stop-color="#ACBDDE"/>
<stop offset="1" stop-color="#2E405C"/>
</linearGradient>
<linearGradient id="paint25_linear_117_3326" x1="215.796" y1="153.752" x2="288.773" y2="153.752" gradientUnits="userSpaceOnUse">
<stop stop-color="#ACBDDE"/>
<stop offset="1" stop-color="#2E405C"/>
</linearGradient>
<linearGradient id="paint26_linear_117_3326" x1="223.063" y1="145.386" x2="331.174" y2="145.386" gradientUnits="userSpaceOnUse">
<stop stop-color="#ACBDDE"/>
<stop offset="1" stop-color="#2E405C"/>
</linearGradient>
<linearGradient id="paint27_linear_117_3326" x1="223.445" y1="141.886" x2="272.212" y2="141.886" gradientUnits="userSpaceOnUse">
<stop stop-color="#ACBDDE"/>
<stop offset="1" stop-color="#2E405C"/>
</linearGradient>
<linearGradient id="paint28_linear_117_3326" x1="231.348" y1="81.8559" x2="231.348" y2="99.5015" gradientUnits="userSpaceOnUse">
<stop stop-color="white" stop-opacity="0.8"/>
<stop offset="1" stop-color="white" stop-opacity="0"/>
</linearGradient>
<linearGradient id="paint29_linear_117_3326" x1="201.517" y1="74.1333" x2="304.343" y2="74.1333" gradientUnits="userSpaceOnUse">
<stop stop-color="white"/>
<stop offset="1" stop-color="#AEBDDF"/>
</linearGradient>
<linearGradient id="paint30_linear_117_3326" x1="284.384" y1="68.4482" x2="190.805" y2="68.4482" gradientUnits="userSpaceOnUse">
<stop stop-color="white"/>
<stop offset="1" stop-color="#AEBDDF"/>
</linearGradient>
<linearGradient id="paint31_linear_117_3326" x1="232.509" y1="120.64" x2="232.509" y2="155.752" gradientUnits="userSpaceOnUse">
<stop stop-color="white" stop-opacity="0.8"/>
<stop offset="1" stop-color="white" stop-opacity="0"/>
</linearGradient>
<linearGradient id="paint32_linear_117_3326" x1="41.0642" y1="187.168" x2="41.0642" y2="159.816" gradientUnits="userSpaceOnUse">
<stop stop-color="white"/>
<stop offset="1" stop-color="#AEBDDF"/>
</linearGradient>
<linearGradient id="paint33_linear_117_3326" x1="65.1136" y1="163.127" x2="-44.4753" y2="163.127" gradientUnits="userSpaceOnUse">
<stop stop-color="white"/>
<stop offset="1" stop-color="#AEBDDF"/>
</linearGradient>
<linearGradient id="paint34_linear_117_3326" x1="15.2023" y1="157.441" x2="121.404" y2="157.441" gradientUnits="userSpaceOnUse">
<stop stop-color="white"/>
<stop offset="1" stop-color="#AEBDDF"/>
</linearGradient>
<linearGradient id="paint35_linear_117_3326" x1="6.92296" y1="113.42" x2="63.0862" y2="113.42" gradientUnits="userSpaceOnUse">
<stop stop-color="white"/>
<stop offset="1" stop-color="#AEBDDF"/>
</linearGradient>
<linearGradient id="paint36_linear_117_3326" x1="-1.61064" y1="73.2872" x2="52.18" y2="73.2872" gradientUnits="userSpaceOnUse">
<stop stop-color="white"/>
<stop offset="1" stop-color="#AEBDDF"/>
</linearGradient>
<linearGradient id="paint37_linear_117_3326" x1="-0.351148" y1="70.381" x2="85.5848" y2="70.381" gradientUnits="userSpaceOnUse">
<stop stop-color="#79D985" stop-opacity="0.2"/>
<stop offset="1" stop-color="#027A71"/>
</linearGradient>
<linearGradient id="paint38_linear_117_3326" x1="16.7321" y1="118.586" x2="65.499" y2="118.586" gradientUnits="userSpaceOnUse">
<stop stop-color="#ACBDDE"/>
<stop offset="1" stop-color="#2E405C"/>
</linearGradient>
<linearGradient id="paint39_linear_117_3326" x1="15.4573" y1="90.7198" x2="111.838" y2="90.7198" gradientUnits="userSpaceOnUse">
<stop stop-color="#ACBDDE"/>
<stop offset="1" stop-color="#2E405C"/>
</linearGradient>
<linearGradient id="paint40_linear_117_3326" x1="9.0828" y1="153.752" x2="82.0595" y2="153.752" gradientUnits="userSpaceOnUse">
<stop stop-color="#ACBDDE"/>
<stop offset="1" stop-color="#2E405C"/>
</linearGradient>
<linearGradient id="paint41_linear_117_3326" x1="16.3496" y1="145.386" x2="124.461" y2="145.386" gradientUnits="userSpaceOnUse">
<stop stop-color="#ACBDDE"/>
<stop offset="1" stop-color="#2E405C"/>
</linearGradient>
<linearGradient id="paint42_linear_117_3326" x1="16.732" y1="141.886" x2="65.4989" y2="141.886" gradientUnits="userSpaceOnUse">
<stop stop-color="#ACBDDE"/>
<stop offset="1" stop-color="#2E405C"/>
</linearGradient>
<linearGradient id="paint43_linear_117_3326" x1="24.6348" y1="81.8559" x2="24.6348" y2="99.5015" gradientUnits="userSpaceOnUse">
<stop stop-color="white" stop-opacity="0.8"/>
<stop offset="1" stop-color="white" stop-opacity="0"/>
</linearGradient>
<linearGradient id="paint44_linear_117_3326" x1="-5.1957" y1="74.1333" x2="97.6303" y2="74.1333" gradientUnits="userSpaceOnUse">
<stop stop-color="white"/>
<stop offset="1" stop-color="#AEBDDF"/>
</linearGradient>
<linearGradient id="paint45_linear_117_3326" x1="77.6711" y1="68.4482" x2="-15.9078" y2="68.4482" gradientUnits="userSpaceOnUse">
<stop stop-color="white"/>
<stop offset="1" stop-color="#AEBDDF"/>
</linearGradient>
<linearGradient id="paint46_linear_117_3326" x1="25.7964" y1="120.64" x2="25.7964" y2="155.752" gradientUnits="userSpaceOnUse">
<stop stop-color="white" stop-opacity="0.8"/>
<stop offset="1" stop-color="white" stop-opacity="0"/>
</linearGradient>
<linearGradient id="paint47_linear_117_3326" x1="186.551" y1="306.543" x2="186.551" y2="206.149" gradientUnits="userSpaceOnUse">
<stop stop-color="#FFD2BB"/>
<stop offset="1" stop-color="#FF6B5A"/>
</linearGradient>
<linearGradient id="paint48_linear_117_3326" x1="192.041" y1="205.066" x2="192.041" y2="303.985" gradientUnits="userSpaceOnUse">
<stop stop-color="#FFEFA4"/>
<stop offset="1" stop-color="#FE8F01"/>
</linearGradient>
<linearGradient id="paint49_linear_117_3326" x1="144.135" y1="294.458" x2="182.736" y2="201.784" gradientUnits="userSpaceOnUse">
<stop stop-color="#FFD2BB"/>
<stop offset="1" stop-color="#FF6B5A"/>
</linearGradient>
<linearGradient id="paint50_linear_117_3326" x1="260.202" y1="324.448" x2="198.536" y2="324.448" gradientUnits="userSpaceOnUse">
<stop stop-color="white" stop-opacity="0"/>
<stop offset="1" stop-color="#AEBDDF"/>
</linearGradient>
<linearGradient id="paint51_linear_117_3326" x1="170.181" y1="328.949" x2="173.212" y2="305.18" gradientUnits="userSpaceOnUse">
<stop stop-color="white"/>
<stop offset="1" stop-color="#AEBDDF"/>
</linearGradient>
<linearGradient id="paint52_linear_117_3326" x1="177.168" y1="324.165" x2="140.305" y2="337.386" gradientUnits="userSpaceOnUse">
<stop stop-color="#ACBDDE"/>
<stop offset="1" stop-color="#2E405C"/>
</linearGradient>
<linearGradient id="paint53_linear_117_3326" x1="252.093" y1="309.309" x2="229.451" y2="310.08" gradientUnits="userSpaceOnUse">
<stop stop-color="white"/>
<stop offset="1" stop-color="#AEBDDF"/>
</linearGradient>
<linearGradient id="paint54_linear_117_3326" x1="246.579" y1="303.471" x2="264.503" y2="335.87" gradientUnits="userSpaceOnUse">
<stop stop-color="#ACBDDE"/>
<stop offset="1" stop-color="#2E405C"/>
</linearGradient>
<linearGradient id="paint55_linear_117_3326" x1="171.836" y1="231.677" x2="199.025" y2="292.007" gradientUnits="userSpaceOnUse">
<stop stop-color="#ACBDDE"/>
<stop offset="1" stop-color="#2E405C"/>
</linearGradient>
<linearGradient id="paint56_linear_117_3326" x1="212.059" y1="386.716" x2="212.059" y2="251.941" gradientUnits="userSpaceOnUse">
<stop stop-color="#ACBDDE"/>
<stop offset="1" stop-color="#2E405C"/>
</linearGradient>
<linearGradient id="paint57_linear_117_3326" x1="211.193" y1="205.066" x2="211.193" y2="303.985" gradientUnits="userSpaceOnUse">
<stop stop-color="#FFEFA4"/>
<stop offset="1" stop-color="#FE8F01"/>
</linearGradient>
<linearGradient id="paint58_linear_117_3326" x1="206.62" y1="232.416" x2="207.702" y2="217.051" gradientUnits="userSpaceOnUse">
<stop stop-color="white"/>
<stop offset="1" stop-color="#AEBDDF"/>
</linearGradient>
<linearGradient id="paint59_linear_117_3326" x1="205.658" y1="235.128" x2="211.118" y2="201.397" gradientUnits="userSpaceOnUse">
<stop stop-color="#FFD2BB"/>
<stop offset="1" stop-color="#FF6B5A"/>
</linearGradient>
<linearGradient id="paint60_linear_117_3326" x1="200.838" y1="237.341" x2="205.087" y2="220.877" gradientUnits="userSpaceOnUse">
<stop stop-color="#FFD2BB"/>
<stop offset="1" stop-color="#FF6B5A"/>
</linearGradient>
<linearGradient id="paint61_linear_117_3326" x1="206.266" y1="233.57" x2="201.339" y2="199.758" gradientUnits="userSpaceOnUse">
<stop stop-color="#FFD2BB"/>
<stop offset="1" stop-color="#FF6B5A"/>
</linearGradient>
<linearGradient id="paint62_linear_117_3326" x1="192.925" y1="157.787" x2="203.369" y2="212.65" gradientUnits="userSpaceOnUse">
<stop stop-color="#ACBDDE"/>
<stop offset="1" stop-color="#2E405C"/>
</linearGradient>
<linearGradient id="paint63_linear_117_3326" x1="211.193" y1="318.504" x2="211.193" y2="233.364" gradientUnits="userSpaceOnUse">
<stop stop-color="#FFD2BB"/>
<stop offset="1" stop-color="#FF6B5A"/>
</linearGradient>
<linearGradient id="paint64_linear_117_3326" x1="225.561" y1="318.503" x2="225.561" y2="233.363" gradientUnits="userSpaceOnUse">
<stop stop-color="#FFD2BB"/>
<stop offset="1" stop-color="#FF6B5A"/>
</linearGradient>
<linearGradient id="paint65_linear_117_3326" x1="222.643" y1="205.066" x2="222.643" y2="303.985" gradientUnits="userSpaceOnUse">
<stop stop-color="#FFEFA4"/>
<stop offset="1" stop-color="#FE8F01"/>
</linearGradient>
<linearGradient id="paint66_linear_117_3326" x1="251.187" y1="336.354" x2="124.356" y2="336.354" gradientUnits="userSpaceOnUse">
<stop stop-color="white"/>
<stop offset="1" stop-color="#AEBDDF"/>
</linearGradient>
<linearGradient id="paint67_linear_117_3326" x1="186.273" y1="339.572" x2="10.0417" y2="339.572" gradientUnits="userSpaceOnUse">
<stop stop-color="white"/>
<stop offset="1" stop-color="#AEBDDF"/>
</linearGradient>
<linearGradient id="paint68_linear_117_3326" x1="141.33" y1="355.792" x2="141.33" y2="276.99" gradientUnits="userSpaceOnUse">
<stop stop-color="white"/>
<stop offset="1" stop-color="#AEBDDF"/>
</linearGradient>
<linearGradient id="paint69_linear_117_3326" x1="203.954" y1="330.361" x2="161.257" y2="330.361" gradientUnits="userSpaceOnUse">
<stop stop-color="white" stop-opacity="0"/>
<stop offset="1" stop-color="#AEBDDF"/>
</linearGradient>
<linearGradient id="paint70_linear_117_3326" x1="142.103" y1="275.042" x2="142.103" y2="343.29" gradientUnits="userSpaceOnUse">
<stop stop-color="white"/>
<stop offset="1" stop-color="#AEBDDF"/>
</linearGradient>
<linearGradient id="paint71_linear_117_3326" x1="231.39" y1="304.85" x2="119.162" y2="304.85" gradientUnits="userSpaceOnUse">
<stop stop-color="white"/>
<stop offset="1" stop-color="#AEBDDF"/>
</linearGradient>
<linearGradient id="paint72_linear_117_3326" x1="-nan" y1="-nan" x2="-nan" y2="-nan" gradientUnits="userSpaceOnUse">
<stop stop-color="#5D6E8C"/>
<stop offset="1" stop-color="#2E405C"/>
</linearGradient>
<linearGradient id="paint73_linear_117_3326" x1="142.103" y1="237.292" x2="142.103" y2="255.577" gradientUnits="userSpaceOnUse">
<stop stop-color="#FFEFA4"/>
<stop offset="1" stop-color="#FE8F01"/>
</linearGradient>
<linearGradient id="paint74_linear_117_3326" x1="142.103" y1="236.804" x2="142.103" y2="245.946" gradientUnits="userSpaceOnUse">
<stop stop-color="white" stop-opacity="0.8"/>
<stop offset="1" stop-color="white" stop-opacity="0"/>
</linearGradient>
<linearGradient id="paint75_linear_117_3326" x1="142.103" y1="275.042" x2="142.103" y2="343.29" gradientUnits="userSpaceOnUse">
<stop stop-color="white"/>
<stop offset="1" stop-color="#AEBDDF"/>
</linearGradient>
<linearGradient id="paint76_linear_117_3326" x1="231.39" y1="314.363" x2="119.162" y2="314.363" gradientUnits="userSpaceOnUse">
<stop stop-color="white"/>
<stop offset="1" stop-color="#AEBDDF"/>
</linearGradient>
<linearGradient id="paint77_linear_117_3326" x1="142.103" y1="275.345" x2="142.103" y2="322.556" gradientUnits="userSpaceOnUse">
<stop stop-color="#ACBDDE"/>
<stop offset="1" stop-color="#2E405C"/>
</linearGradient>
<linearGradient id="paint78_linear_117_3326" x1="127.519" y1="252.801" x2="65.8524" y2="252.801" gradientUnits="userSpaceOnUse">
<stop stop-color="white" stop-opacity="0"/>
<stop offset="1" stop-color="#AEBDDF"/>
</linearGradient>
<linearGradient id="paint79_linear_117_3326" x1="50.9032" y1="216.389" x2="63.9099" y2="97.7557" gradientUnits="userSpaceOnUse">
<stop stop-color="#FFD2BB"/>
<stop offset="1" stop-color="#FF6B5A"/>
</linearGradient>
<linearGradient id="paint80_linear_117_3326" x1="53.2718" y1="216.426" x2="66.3228" y2="97.3884" gradientUnits="userSpaceOnUse">
<stop stop-color="#FFD2BB"/>
<stop offset="1" stop-color="#FF6B5A"/>
</linearGradient>
<linearGradient id="paint81_linear_117_3326" x1="83.3419" y1="240.751" x2="49.4386" y2="245.766" gradientUnits="userSpaceOnUse">
<stop stop-color="#FFD2BB"/>
<stop offset="1" stop-color="#FF6B5A"/>
</linearGradient>
<linearGradient id="paint82_linear_117_3326" x1="63.659" y1="263.316" x2="67.3208" y2="156.73" gradientUnits="userSpaceOnUse">
<stop stop-color="#ACBDDE"/>
<stop offset="1" stop-color="#2E405C"/>
</linearGradient>
<linearGradient id="paint83_linear_117_3326" x1="69.5209" y1="254.006" x2="69.5209" y2="241.489" gradientUnits="userSpaceOnUse">
<stop stop-color="white"/>
<stop offset="1" stop-color="#AEBDDF"/>
</linearGradient>
<linearGradient id="paint84_linear_117_3326" x1="82.9929" y1="239.24" x2="63.5579" y2="258.004" gradientUnits="userSpaceOnUse">
<stop stop-color="white"/>
<stop offset="1" stop-color="#AEBDDF"/>
</linearGradient>
<linearGradient id="paint85_linear_117_3326" x1="109.979" y1="241.993" x2="63.7393" y2="248.833" gradientUnits="userSpaceOnUse">
<stop stop-color="#FFD2BB"/>
<stop offset="1" stop-color="#FF6B5A"/>
</linearGradient>
<linearGradient id="paint86_linear_117_3326" x1="79.182" y1="265.227" x2="82.8611" y2="158.136" gradientUnits="userSpaceOnUse">
<stop stop-color="#ACBDDE"/>
<stop offset="1" stop-color="#2E405C"/>
</linearGradient>
<linearGradient id="paint87_linear_117_3326" x1="90.8532" y1="257.579" x2="90.8532" y2="244.759" gradientUnits="userSpaceOnUse">
<stop stop-color="white"/>
<stop offset="1" stop-color="#AEBDDF"/>
</linearGradient>
<linearGradient id="paint88_linear_117_3326" x1="116.065" y1="257.471" x2="81.1953" y2="256.273" gradientUnits="userSpaceOnUse">
<stop stop-color="white"/>
<stop offset="1" stop-color="#AEBDDF"/>
</linearGradient>
<linearGradient id="paint89_linear_117_3326" x1="74.5357" y1="78.8493" x2="75.6143" y2="130.322" gradientUnits="userSpaceOnUse">
<stop stop-color="#FFD2BB"/>
<stop offset="1" stop-color="#FF6B5A"/>
</linearGradient>
<linearGradient id="paint90_linear_117_3326" x1="76.8499" y1="106.255" x2="76.8499" y2="205.683" gradientUnits="userSpaceOnUse">
<stop stop-color="white"/>
<stop offset="1" stop-color="#AEBDDF"/>
</linearGradient>
<linearGradient id="paint91_linear_117_3326" x1="76.8008" y1="80.4563" x2="76.8843" y2="129.257" gradientUnits="userSpaceOnUse">
<stop stop-color="#FFD2BB"/>
<stop offset="1" stop-color="#FF6B5A"/>
</linearGradient>
<linearGradient id="paint92_linear_117_3326" x1="73.6805" y1="48.9223" x2="71.521" y2="111.78" gradientUnits="userSpaceOnUse">
<stop stop-color="#ACBDDE"/>
<stop offset="1" stop-color="#2E405C"/>
</linearGradient>
<linearGradient id="paint93_linear_117_3326" x1="94.2648" y1="84.7898" x2="91.2748" y2="171.823" gradientUnits="userSpaceOnUse">
<stop stop-color="#FFD2BB"/>
<stop offset="1" stop-color="#FF6B5A"/>
</linearGradient>
<linearGradient id="paint94_linear_117_3326" x1="123.211" y1="137.942" x2="124.104" y2="126.443" gradientUnits="userSpaceOnUse">
<stop stop-color="#FFD2BB"/>
<stop offset="1" stop-color="#FF6B5A"/>
</linearGradient>
<linearGradient id="paint95_linear_117_3326" x1="110.682" y1="85.3541" x2="107.692" y2="172.387" gradientUnits="userSpaceOnUse">
<stop stop-color="#FFD2BB"/>
<stop offset="1" stop-color="#FF6B5A"/>
</linearGradient>
<clipPath id="clip0_117_3326">
<rect width="288.855" height="350" fill="white"/>
</clipPath>
</defs>
</svg>
