<svg width="285" height="270" viewBox="0 0 285 270" fill="none" xmlns="http://www.w3.org/2000/svg">
<path d="M198.732 139.708H190.07V212.434H198.732V139.708Z" fill="url(#paint0_linear_117_3522)"/>
<path d="M275.412 118.09H266.75V190.816H275.412V118.09Z" fill="url(#paint1_linear_117_3522)"/>
<path d="M54.2221 99.7856H45.5598V172.511H54.2221V99.7856Z" fill="url(#paint2_linear_117_3522)"/>
<path d="M37.0859 101.104C37.0859 101.782 38.0275 102.46 39.9483 102.949L187.584 142.495C191.425 143.512 197.64 143.512 201.481 142.495L281.551 121.027C283.472 120.5 284.413 119.86 284.413 119.182V122.722C284.413 123.4 283.472 124.078 281.551 124.568L201.481 146.035C197.64 147.052 191.425 147.052 187.584 146.035L39.9483 106.49C38.0275 105.962 37.0859 105.285 37.0859 104.644V101.104Z" fill="url(#paint3_linear_117_3522)"/>
<path d="M37.0859 101.103C37.0859 100.425 38.0275 99.7475 39.9483 99.2579L120.018 77.7905C123.86 76.7736 130.074 76.7736 133.915 77.7905L281.551 117.336C283.472 117.863 284.413 118.541 284.413 119.181C284.413 119.859 283.472 120.537 281.551 121.027L201.481 142.494C197.64 143.511 191.425 143.511 187.584 142.494L39.9483 102.949C38.0652 102.459 37.0859 101.781 37.0859 101.103Z" fill="url(#paint4_linear_117_3522)"/>
<path d="M225.133 108.863L180.014 96.7739L164.384 100.954L209.503 113.044L225.133 108.863Z" fill="url(#paint5_linear_117_3522)"/>
<path d="M195.041 57.4908V98.2036C195.041 101.104 193.346 102.384 192.028 102.723L183.027 105.096C181.972 105.397 180.842 105.397 179.788 105.096L160.467 99.9361C159.752 99.7477 159.752 98.6932 160.467 98.5049L169.016 96.2075C170.335 95.8309 171.427 94.0608 171.427 92.253V51.1636L195.041 57.4908Z" fill="url(#paint6_linear_117_3522)"/>
<path d="M194.25 57.7557V97.9412C194.25 99.7113 193.196 101.444 191.878 101.82L182.537 104.344C181.483 104.607 180.391 104.607 179.374 104.344L160.505 99.2971C159.789 99.1087 159.789 98.0919 160.505 97.9036L168.866 95.6815C170.184 95.3425 171.239 93.6101 171.239 91.8023V51.5791L194.25 57.7557Z" fill="url(#paint7_linear_117_3522)"/>
<path d="M224.154 98.7309C225.698 98.3166 226.79 96.5465 226.79 94.1738V42.9909C226.79 39.865 224.945 36.8143 222.647 36.2117L143.142 14.895C142.615 14.7443 142.088 14.7443 141.636 14.895L143.067 14.5183C143.557 14.4053 144.046 14.4053 144.574 14.5183L224.078 35.8351C226.376 36.4377 228.221 39.4883 228.221 42.6143V93.7595C228.221 96.1699 227.129 97.9024 225.585 98.3166L224.154 98.7309Z" fill="url(#paint8_linear_117_3522)"/>
<path d="M224.154 98.7322C223.664 98.8452 223.175 98.8452 222.647 98.7322L143.143 77.4155C140.845 76.8129 139 73.7622 139 70.6363V19.4534C139 17.043 140.092 15.3105 141.636 14.8963C142.126 14.7833 142.615 14.7833 143.143 14.8963L222.647 36.213C224.945 36.8156 226.79 39.8663 226.79 42.9922V94.1751C226.828 96.5478 225.698 98.318 224.154 98.7322Z" fill="url(#paint9_linear_117_3522)"/>
<path d="M142.54 17.7953C142.804 17.7199 143.067 17.7199 143.331 17.7953L222.045 38.8861C223.25 39.225 224.267 40.8068 224.267 42.5016L224.154 93.4209C224.154 94.7014 223.589 95.6429 222.76 95.8312C222.497 95.9066 222.233 95.9066 221.969 95.8312L143.256 74.7404C142.05 74.4015 141.033 72.8197 141.033 71.1249L141.146 20.168C141.146 18.9628 141.711 18.0212 142.54 17.7953Z" fill="url(#paint10_linear_117_3522)"/>
<path d="M225.547 123.664L171.69 109.239L153.048 114.248L206.867 128.635L225.547 123.664Z" fill="url(#paint11_linear_117_3522)"/>
<path d="M115.084 102.875C115.084 103.026 115.273 103.139 115.687 103.252L175.419 119.258C176.21 119.484 177.49 119.484 178.281 119.258L195.003 114.776C195.38 114.663 195.606 114.55 195.606 114.4V115.416C195.606 115.567 195.418 115.68 195.003 115.793L178.281 120.275C177.49 120.501 176.21 120.501 175.419 120.275L115.687 104.268C115.273 104.156 115.084 104.005 115.084 103.892V102.875Z" fill="url(#paint12_linear_117_3522)"/>
<path d="M115.084 102.874C115.084 102.723 115.273 102.61 115.687 102.497L132.409 98.0157C133.2 97.7897 134.48 97.7897 135.271 98.0157L195.003 114.022C195.418 114.135 195.606 114.286 195.606 114.399C195.606 114.549 195.418 114.662 195.003 114.775L178.281 119.257C177.49 119.483 176.21 119.483 175.419 119.257L115.687 103.251C115.273 103.138 115.084 102.987 115.084 102.874Z" fill="url(#paint13_linear_117_3522)"/>
<path d="M133.576 100.652L132.183 100.276C131.957 100.2 131.957 100.125 132.183 100.05L133.576 99.6732C133.802 99.5979 134.217 99.5979 134.443 99.6732L135.836 100.05C136.062 100.125 136.062 100.2 135.836 100.276L134.443 100.652C134.179 100.69 133.802 100.69 133.576 100.652ZM138.171 101.632L139.565 101.255C139.791 101.18 139.791 101.104 139.565 101.029L138.171 100.652C137.945 100.577 137.531 100.577 137.305 100.652L135.911 101.029C135.685 101.104 135.685 101.18 135.911 101.255L137.305 101.632C137.569 101.707 137.945 101.707 138.171 101.632ZM141.937 102.649L143.331 102.272C143.557 102.197 143.557 102.121 143.331 102.046L141.937 101.669C141.711 101.594 141.297 101.594 141.071 101.669L139.678 102.046C139.452 102.121 139.452 102.197 139.678 102.272L141.071 102.649C141.335 102.724 141.711 102.724 141.937 102.649ZM145.704 103.665L147.097 103.289C147.323 103.213 147.323 103.138 147.097 103.063L145.704 102.686C145.478 102.611 145.063 102.611 144.837 102.686L143.444 103.063C143.218 103.138 143.218 103.213 143.444 103.289L144.837 103.665C145.063 103.741 145.478 103.741 145.704 103.665ZM149.47 104.682L150.863 104.306C151.089 104.23 151.089 104.155 150.863 104.08L149.47 103.703C149.244 103.628 148.83 103.628 148.604 103.703L147.21 104.08C146.984 104.155 146.984 104.23 147.21 104.306L148.604 104.682C148.83 104.72 149.206 104.72 149.47 104.682ZM153.198 105.661L154.592 105.285C154.818 105.21 154.818 105.134 154.592 105.059L153.198 104.682C152.972 104.607 152.558 104.607 152.332 104.682L150.939 105.059C150.713 105.134 150.713 105.21 150.939 105.285L152.332 105.661C152.596 105.737 152.972 105.737 153.198 105.661ZM156.965 106.678L158.358 106.302C158.584 106.226 158.584 106.151 158.358 106.076L156.965 105.699C156.739 105.624 156.324 105.624 156.098 105.699L154.705 106.076C154.479 106.151 154.479 106.226 154.705 106.302L156.098 106.678C156.362 106.754 156.739 106.754 156.965 106.678ZM160.731 107.695L162.124 107.319C162.35 107.243 162.35 107.168 162.124 107.093L160.731 106.716C160.505 106.641 160.091 106.641 159.865 106.716L158.471 107.093C158.245 107.168 158.245 107.243 158.471 107.319L159.865 107.695C160.128 107.771 160.505 107.771 160.731 107.695ZM164.497 108.712L165.891 108.335C166.116 108.26 166.116 108.185 165.891 108.11L164.497 107.733C164.271 107.658 163.857 107.658 163.631 107.733L162.237 108.11C162.011 108.185 162.011 108.26 162.237 108.335L163.631 108.712C163.857 108.75 164.271 108.75 164.497 108.712ZM168.263 109.691L169.657 109.315C169.883 109.239 169.883 109.164 169.657 109.089L168.263 108.712C168.037 108.637 167.623 108.637 167.397 108.712L166.003 109.089C165.778 109.164 165.778 109.239 166.003 109.315L167.397 109.691C167.623 109.767 168 109.767 168.263 109.691ZM172.029 110.708L173.423 110.332C173.649 110.256 173.649 110.181 173.423 110.106L172.029 109.729C171.803 109.654 171.389 109.654 171.163 109.729L169.77 110.106C169.544 110.181 169.544 110.256 169.77 110.332L171.163 110.708C171.389 110.784 171.766 110.784 172.029 110.708ZM175.758 111.725L177.151 111.348C177.377 111.273 177.377 111.198 177.151 111.122L175.758 110.746C175.532 110.671 175.118 110.671 174.892 110.746L173.498 111.122C173.272 111.198 173.272 111.273 173.498 111.348L174.892 111.725C175.155 111.8 175.532 111.8 175.758 111.725ZM179.524 112.742L180.918 112.365C181.144 112.29 181.144 112.215 180.918 112.139L179.524 111.763C179.298 111.687 178.884 111.687 178.658 111.763L177.264 112.139C177.039 112.215 177.039 112.29 177.264 112.365L178.658 112.742C178.922 112.78 179.298 112.78 179.524 112.742ZM183.29 113.721L184.684 113.345C184.91 113.269 184.91 113.194 184.684 113.119L183.29 112.742C183.064 112.667 182.65 112.667 182.424 112.742L181.031 113.119C180.805 113.194 180.805 113.269 181.031 113.345L182.424 113.721C182.688 113.796 183.064 113.796 183.29 113.721ZM187.057 114.738L188.45 114.361C188.676 114.286 188.676 114.211 188.45 114.135L187.057 113.759C186.831 113.684 186.416 113.684 186.19 113.759L184.797 114.135C184.571 114.211 184.571 114.286 184.797 114.361L186.19 114.738C186.416 114.813 186.831 114.813 187.057 114.738ZM131.354 103.703L133.124 103.213C133.275 103.176 133.275 103.1 133.124 103.063L127.211 101.481C127.061 101.443 126.873 101.443 126.722 101.481L124.952 101.971C124.801 102.008 124.801 102.084 124.952 102.121L130.865 103.703C131.015 103.703 131.204 103.703 131.354 103.703ZM134.895 104.532L136.288 104.155C136.514 104.08 136.514 104.004 136.288 103.929L134.895 103.552C134.669 103.477 134.254 103.477 134.028 103.552L132.635 103.929C132.409 104.004 132.409 104.08 132.635 104.155L134.028 104.532C134.292 104.607 134.669 104.607 134.895 104.532ZM138.661 105.548L140.054 105.172C140.28 105.097 140.28 105.021 140.054 104.946L138.661 104.569C138.435 104.494 138.021 104.494 137.795 104.569L136.401 104.946C136.175 105.021 136.175 105.097 136.401 105.172L137.795 105.548C138.058 105.624 138.435 105.624 138.661 105.548ZM142.427 106.565L143.82 106.189C144.046 106.113 144.046 106.038 143.82 105.963L142.427 105.586C142.201 105.511 141.787 105.511 141.561 105.586L140.167 105.963C139.941 106.038 139.941 106.113 140.167 106.189L141.561 106.565C141.824 106.603 142.201 106.603 142.427 106.565ZM146.193 107.545L147.587 107.168C147.813 107.093 147.813 107.017 147.587 106.942L146.193 106.565C145.967 106.49 145.553 106.49 145.327 106.565L143.933 106.942C143.708 107.017 143.708 107.093 143.933 107.168L145.327 107.545C145.553 107.62 145.967 107.62 146.193 107.545ZM149.959 108.561L151.353 108.185C151.579 108.11 151.579 108.034 151.353 107.959L149.959 107.582C149.733 107.507 149.319 107.507 149.093 107.582L147.7 107.959C147.474 108.034 147.474 108.11 147.7 108.185L149.093 108.561C149.319 108.637 149.696 108.637 149.959 108.561ZM153.726 109.578L155.119 109.202C155.345 109.126 155.345 109.051 155.119 108.976L153.726 108.599C153.5 108.524 153.085 108.524 152.859 108.599L151.466 108.976C151.24 109.051 151.24 109.126 151.466 109.202L152.859 109.578C153.085 109.654 153.462 109.654 153.726 109.578ZM157.454 110.595L158.848 110.219C159.074 110.143 159.074 110.068 158.848 109.993L157.454 109.616C157.228 109.541 156.814 109.541 156.588 109.616L155.194 109.993C154.968 110.068 154.968 110.143 155.194 110.219L156.588 110.595C156.852 110.633 157.228 110.633 157.454 110.595ZM161.22 111.574L162.614 111.198C162.84 111.122 162.84 111.047 162.614 110.972L161.22 110.595C160.994 110.52 160.58 110.52 160.354 110.595L158.961 110.972C158.735 111.047 158.735 111.122 158.961 111.198L160.354 111.574C160.618 111.65 160.994 111.65 161.22 111.574ZM164.987 112.591L166.38 112.215C166.606 112.139 166.606 112.064 166.38 111.989L164.987 111.612C164.761 111.537 164.346 111.537 164.12 111.612L162.727 111.989C162.501 112.064 162.501 112.139 162.727 112.215L164.12 112.591C164.384 112.667 164.761 112.667 164.987 112.591ZM168.753 113.608L170.146 113.232C170.372 113.156 170.372 113.081 170.146 113.006L168.753 112.629C168.527 112.554 168.113 112.554 167.887 112.629L166.493 113.006C166.267 113.081 166.267 113.156 166.493 113.232L167.887 113.608C168.113 113.684 168.527 113.684 168.753 113.608ZM172.519 114.625L173.913 114.248C174.139 114.173 174.139 114.098 173.913 114.022L172.519 113.646C172.293 113.571 171.879 113.571 171.653 113.646L170.259 114.022C170.033 114.098 170.033 114.173 170.259 114.248L171.653 114.625C171.879 114.663 172.255 114.663 172.519 114.625ZM179.826 116.696L181.671 116.207C181.784 116.169 181.784 116.132 181.671 116.094L176.059 114.587C175.946 114.55 175.758 114.55 175.645 114.587L173.8 115.077C173.687 115.115 173.687 115.152 173.8 115.19L179.411 116.696C179.487 116.734 179.713 116.734 179.826 116.696ZM132.785 102.121L134.48 101.669C134.631 101.632 134.631 101.556 134.48 101.519L130.789 100.539C130.639 100.502 130.375 100.502 130.224 100.539L128.53 100.991C128.379 101.029 128.379 101.104 128.53 101.142L132.221 102.121C132.409 102.159 132.635 102.159 132.785 102.121ZM136.702 103.1L138.096 102.724C138.322 102.649 138.322 102.573 138.096 102.498L136.702 102.121C136.476 102.046 136.062 102.046 135.836 102.121L134.443 102.498C134.217 102.573 134.217 102.649 134.443 102.724L135.836 103.1C136.1 103.176 136.476 103.176 136.702 103.1ZM140.469 104.117L141.862 103.741C142.088 103.665 142.088 103.59 141.862 103.515L140.469 103.138C140.243 103.063 139.828 103.063 139.602 103.138L138.209 103.515C137.983 103.59 137.983 103.665 138.209 103.741L139.602 104.117C139.866 104.155 140.243 104.155 140.469 104.117ZM144.235 105.097L145.628 104.72C145.854 104.645 145.854 104.569 145.628 104.494L144.235 104.117C144.009 104.042 143.595 104.042 143.369 104.117L141.975 104.494C141.749 104.569 141.749 104.645 141.975 104.72L143.369 105.097C143.595 105.172 144.009 105.172 144.235 105.097ZM148.001 106.113L149.394 105.737C149.62 105.661 149.62 105.586 149.394 105.511L148.001 105.134C147.775 105.059 147.361 105.059 147.135 105.134L145.741 105.511C145.515 105.586 145.515 105.661 145.741 105.737L147.135 106.113C147.361 106.189 147.737 106.189 148.001 106.113ZM151.767 107.13L153.161 106.754C153.387 106.678 153.387 106.603 153.161 106.528L151.767 106.151C151.541 106.076 151.127 106.076 150.901 106.151L149.507 106.528C149.281 106.603 149.281 106.678 149.507 106.754L150.901 107.13C151.127 107.206 151.504 107.206 151.767 107.13ZM155.496 108.147L156.889 107.771C157.115 107.695 157.115 107.62 156.889 107.545L155.496 107.168C155.27 107.093 154.855 107.093 154.63 107.168L153.236 107.545C153.01 107.62 153.01 107.695 153.236 107.771L154.63 108.147C154.893 108.185 155.27 108.185 155.496 108.147ZM159.262 109.126L160.655 108.75C160.881 108.674 160.881 108.599 160.655 108.524L159.262 108.147C159.036 108.072 158.622 108.072 158.396 108.147L157.002 108.524C156.776 108.599 156.776 108.674 157.002 108.75L158.396 109.126C158.659 109.202 159.036 109.202 159.262 109.126ZM163.028 110.143L164.422 109.767C164.648 109.691 164.648 109.616 164.422 109.541L163.028 109.164C162.802 109.089 162.388 109.089 162.162 109.164L160.768 109.541C160.542 109.616 160.542 109.691 160.768 109.767L162.162 110.143C162.426 110.219 162.802 110.219 163.028 110.143ZM166.794 111.16L168.188 110.784C168.414 110.708 168.414 110.633 168.188 110.558L166.794 110.181C166.568 110.106 166.154 110.106 165.928 110.181L164.535 110.558C164.309 110.633 164.309 110.708 164.535 110.784L165.928 111.16C166.154 111.235 166.568 111.235 166.794 111.16ZM170.561 112.177L171.954 111.8C172.18 111.725 172.18 111.65 171.954 111.574L170.561 111.198C170.335 111.122 169.92 111.122 169.694 111.198L168.301 111.574C168.075 111.65 168.075 111.725 168.301 111.8L169.694 112.177C169.92 112.215 170.297 112.215 170.561 112.177ZM174.327 113.156L175.72 112.78C175.946 112.704 175.946 112.629 175.72 112.554L174.327 112.177C174.101 112.102 173.687 112.102 173.461 112.177L172.067 112.554C171.841 112.629 171.841 112.704 172.067 112.78L173.461 113.156C173.687 113.232 174.063 113.232 174.327 113.156ZM178.055 114.173L179.449 113.797C179.675 113.721 179.675 113.646 179.449 113.571L178.055 113.194C177.829 113.119 177.415 113.119 177.189 113.194L175.796 113.571C175.57 113.646 175.57 113.721 175.796 113.797L177.189 114.173C177.453 114.248 177.829 114.248 178.055 114.173ZM183.441 115.717L185.174 115.265C185.324 115.228 185.324 115.152 185.174 115.115L181.633 114.173C181.483 114.135 181.257 114.135 181.106 114.173L179.374 114.625C179.223 114.663 179.223 114.738 179.374 114.776L182.914 115.717C183.064 115.755 183.29 115.755 183.441 115.717ZM125.705 104.042L127.4 103.59C127.55 103.552 127.55 103.477 127.4 103.439L123.709 102.46C123.558 102.423 123.295 102.423 123.144 102.46L121.449 102.912C121.299 102.95 121.299 103.025 121.449 103.063L125.14 104.042C125.291 104.08 125.554 104.08 125.705 104.042ZM129.622 104.984L131.015 104.607C131.241 104.532 131.241 104.456 131.015 104.381L129.622 104.004C129.396 103.929 128.982 103.929 128.756 104.004L127.362 104.381C127.136 104.456 127.136 104.532 127.362 104.607L128.756 104.984C129.019 105.059 129.396 105.059 129.622 104.984ZM133.388 106L134.782 105.624C135.008 105.548 135.008 105.473 134.782 105.398L133.388 105.021C133.162 104.946 132.748 104.946 132.522 105.021L131.128 105.398C130.902 105.473 130.902 105.548 131.128 105.624L132.522 106C132.748 106.076 133.162 106.076 133.388 106ZM152.144 111.047L153.65 110.633C153.876 110.558 153.876 110.482 153.65 110.445L137.117 106C136.891 105.925 136.552 105.925 136.326 106L134.819 106.415C134.593 106.49 134.593 106.565 134.819 106.603L151.353 111.047C151.579 111.122 151.918 111.122 152.144 111.047ZM155.948 112.064L157.341 111.687C157.567 111.612 157.567 111.537 157.341 111.461L155.948 111.085C155.722 111.009 155.307 111.009 155.081 111.085L153.688 111.461C153.462 111.537 153.462 111.612 153.688 111.687L155.081 112.064C155.307 112.102 155.684 112.102 155.948 112.064ZM159.714 113.043L161.107 112.667C161.333 112.591 161.333 112.516 161.107 112.441L159.714 112.064C159.488 111.989 159.074 111.989 158.848 112.064L157.454 112.441C157.228 112.516 157.228 112.591 157.454 112.667L158.848 113.043C159.074 113.119 159.45 113.119 159.714 113.043ZM163.442 114.06L164.836 113.684C165.062 113.608 165.062 113.533 164.836 113.458L163.442 113.081C163.216 113.006 162.802 113.006 162.576 113.081L161.183 113.458C160.957 113.533 160.957 113.608 161.183 113.684L162.576 114.06C162.84 114.135 163.216 114.135 163.442 114.06ZM167.209 115.077L168.602 114.7C168.828 114.625 168.828 114.55 168.602 114.474L167.209 114.098C166.983 114.022 166.568 114.022 166.342 114.098L164.949 114.474C164.723 114.55 164.723 114.625 164.949 114.7L166.342 115.077C166.606 115.152 166.983 115.152 167.209 115.077ZM170.975 116.094L172.368 115.717C172.594 115.642 172.594 115.567 172.368 115.491L170.975 115.115C170.749 115.039 170.335 115.039 170.109 115.115L168.715 115.491C168.489 115.567 168.489 115.642 168.715 115.717L170.109 116.094C170.372 116.132 170.749 116.132 170.975 116.094ZM176.361 117.6L178.055 117.148C178.206 117.111 178.206 117.035 178.055 116.998L174.553 116.056C174.402 116.019 174.139 116.019 173.988 116.056L172.293 116.508C172.142 116.546 172.142 116.621 172.293 116.659L175.796 117.6C175.984 117.638 176.21 117.638 176.361 117.6Z" fill="url(#paint14_linear_117_3522)"/>
<path d="M203.214 0.0564932C203.477 -0.0188311 203.779 -0.0188311 204.08 0.0564932L249.839 12.3344C251.158 12.6733 252.174 14.4058 252.174 16.1759V28.3784C252.174 29.7343 251.572 30.7135 250.668 30.9771C250.404 31.0524 250.103 31.0524 249.802 30.9771L204.08 18.6993C202.762 18.3603 201.745 16.6278 201.745 14.8577V2.65518C201.707 1.29934 202.347 0.320128 203.214 0.0564932Z" fill="url(#paint15_linear_117_3522)"/>
<path d="M207.319 4.95283C207.846 4.80218 208.411 4.80218 208.976 4.95283C211.499 5.63075 213.571 8.98268 213.571 12.4099C213.571 15.0463 212.366 17.0047 210.671 17.4567C210.144 17.6073 209.579 17.6073 209.014 17.4567C206.49 16.7787 204.419 13.4268 204.419 9.99956C204.419 7.36321 205.624 5.40478 207.319 4.95283Z" fill="white"/>
<path d="M206.716 7.92871C206.754 7.92871 206.829 7.92871 206.904 7.92871L211.123 9.05858C211.386 9.1339 211.612 9.47286 211.612 9.84948V13.9547C211.612 14.2183 211.499 14.4443 211.311 14.4819C211.273 14.4819 211.198 14.4819 211.123 14.4819L206.904 13.3521C206.641 13.2767 206.415 12.9378 206.415 12.5612V8.45598C206.415 8.19235 206.565 8.00404 206.716 7.92871Z" fill="url(#paint16_linear_117_3522)"/>
<path d="M206.716 7.92871C206.754 7.92871 206.829 7.92871 206.904 7.92871L211.123 9.05858C211.386 9.1339 211.612 9.47286 211.612 9.84948V10.6027L209.239 11.9586C209.202 11.9586 209.202 11.9962 209.164 11.9962C209.051 12.0339 208.901 11.9586 208.788 11.8456L206.415 9.20922V8.45598C206.415 8.19235 206.565 8.00404 206.716 7.92871Z" fill="url(#paint17_linear_117_3522)"/>
<path d="M219.747 10.7144C219.823 10.7144 219.898 10.7144 219.973 10.7144L241.817 16.552C242.156 16.6273 242.42 17.0793 242.42 17.5312C242.42 17.8702 242.269 18.1338 242.043 18.2091C241.968 18.2091 241.893 18.2091 241.817 18.2091L219.973 12.3715C219.634 12.2962 219.371 11.8442 219.371 11.3923C219.371 11.0157 219.521 10.752 219.747 10.7144Z" fill="url(#paint18_linear_117_3522)"/>
<path d="M219.747 15.2339C219.823 15.2339 219.898 15.2339 219.973 15.2339L229.238 17.7196C229.577 17.7949 229.841 18.2469 229.841 18.6988C229.841 19.0378 229.69 19.3014 229.464 19.3767C229.389 19.3767 229.314 19.3767 229.238 19.3767L219.973 16.891C219.634 16.8157 219.371 16.3638 219.371 15.9118C219.371 15.5728 219.521 15.3092 219.747 15.2339Z" fill="url(#paint19_linear_117_3522)"/>
<path d="M148.415 11.5814C148.754 11.5061 149.093 11.5061 149.432 11.5814L215.83 29.3956C217.412 29.8099 218.655 31.8813 218.655 34.028V86.1148C218.655 87.7343 217.902 88.9395 216.847 89.2408C216.508 89.3161 216.169 89.3161 215.83 89.2408L149.432 71.4642C147.85 71.0499 146.607 68.9785 146.607 66.8318V14.7074C146.607 13.0502 147.361 11.8827 148.415 11.5814Z" fill="url(#paint20_linear_117_3522)"/>
<path d="M169.393 16.9293L149.432 11.5813C149.055 11.4683 148.717 11.4683 148.415 11.5813C147.361 11.8826 146.607 13.0501 146.607 14.7073V66.794C146.607 68.9408 147.888 71.0122 149.432 71.4265L169.393 76.7745V16.9293Z" fill="url(#paint21_linear_117_3522)"/>
<path d="M215.83 29.3955L149.432 11.5813C149.055 11.4683 148.717 11.4683 148.415 11.5813C147.361 11.8826 146.607 13.0501 146.607 14.7073V23.1813L218.693 42.502V34.028C218.655 31.8812 217.412 29.8098 215.83 29.3955Z" fill="url(#paint22_linear_117_3522)"/>
<path d="M174.515 63.8945C174.628 63.8568 174.779 63.8568 174.929 63.8945L210.558 73.423C211.198 73.5736 211.688 74.4399 211.688 75.2684V82.4996C211.688 83.1398 211.386 83.6294 210.972 83.7424C210.859 83.7801 210.708 83.7801 210.558 83.7424L174.929 74.2139C174.289 74.0632 173.8 73.197 173.8 72.3684V65.175C173.8 64.497 174.101 64.0074 174.515 63.8945Z" fill="white"/>
<path d="M177.453 67.1322C177.679 67.0569 177.942 67.0569 178.206 67.1322C179.373 67.4335 180.315 68.9776 180.315 70.5594C180.315 71.7646 179.75 72.6685 178.997 72.8568C178.771 72.9321 178.507 72.9321 178.244 72.8568C177.076 72.5555 176.135 71.0114 176.135 69.4296C176.135 68.2244 176.662 67.3581 177.453 67.1322Z" fill="url(#paint23_linear_117_3522)"/>
<path d="M183.818 69.9956C183.855 69.9956 183.893 69.9956 183.931 69.9956L205.624 75.7956C205.812 75.8332 205.963 76.0969 205.963 76.3228C205.963 76.5112 205.888 76.6618 205.737 76.6995C205.699 76.6995 205.662 76.6995 205.624 76.6995L183.931 70.8995C183.742 70.8618 183.592 70.5982 183.592 70.3722C183.629 70.1839 183.705 70.0333 183.818 69.9956Z" fill="url(#paint24_linear_117_3522)"/>
<path d="M183.818 72.1792C183.855 72.1792 183.893 72.1792 183.931 72.1792L193.422 74.7026C193.61 74.7402 193.761 75.0039 193.761 75.2298C193.761 75.4181 193.685 75.5688 193.535 75.6065C193.497 75.6065 193.459 75.6065 193.422 75.6065L183.931 73.0831C183.742 73.0454 183.592 72.7818 183.592 72.5558C183.629 72.3298 183.705 72.2169 183.818 72.1792Z" fill="url(#paint25_linear_117_3522)"/>
<path d="M174.515 48.9799C174.628 48.9422 174.779 48.9422 174.929 48.9799L210.558 58.5084C211.198 58.6591 211.688 59.5253 211.688 60.3539V67.5473C211.688 68.1876 211.386 68.6772 210.972 68.7902C210.859 68.8279 210.708 68.8279 210.558 68.7902L174.929 59.2617C174.289 59.111 173.8 58.2448 173.8 57.4162V50.2228C173.8 49.5825 174.101 49.0929 174.515 48.9799Z" fill="white"/>
<path d="M177.453 52.2176C177.679 52.1423 177.942 52.1423 178.206 52.2176C179.373 52.5189 180.315 54.0631 180.315 55.6449C180.315 56.8501 179.75 57.754 178.997 57.9423C178.771 58.0176 178.507 58.0176 178.244 57.9423C177.076 57.641 176.135 56.0968 176.135 54.515C176.135 53.3098 176.662 52.4059 177.453 52.2176Z" fill="url(#paint26_linear_117_3522)"/>
<path d="M183.818 55.0811C183.855 55.0811 183.893 55.0811 183.931 55.0811L205.624 60.881C205.812 60.9187 205.963 61.1823 205.963 61.4083C205.963 61.5966 205.888 61.7473 205.737 61.7849C205.699 61.7849 205.662 61.7849 205.624 61.7849L183.931 55.9849C183.742 55.9473 183.592 55.6836 183.592 55.4577C183.629 55.2694 183.705 55.1187 183.818 55.0811Z" fill="url(#paint27_linear_117_3522)"/>
<path d="M183.818 57.2646C183.855 57.2646 183.893 57.2646 183.931 57.2646L193.422 59.788C193.61 59.8257 193.761 60.0893 193.761 60.3153C193.761 60.5036 193.685 60.6542 193.535 60.6919C193.497 60.6919 193.459 60.6919 193.422 60.6919L183.931 58.1685C183.742 58.1309 183.592 57.8672 183.592 57.6413C183.629 57.4153 183.705 57.3023 183.818 57.2646Z" fill="url(#paint28_linear_117_3522)"/>
<path d="M174.515 34.0649C174.628 34.0272 174.779 34.0272 174.929 34.0649L210.558 43.5934C211.198 43.744 211.688 44.6103 211.688 45.4388V52.6323C211.688 53.2726 211.386 53.7622 210.972 53.8752C210.859 53.9128 210.708 53.9128 210.558 53.8752L174.929 44.3466C174.289 44.196 173.8 43.3298 173.8 42.5012V35.3077C173.8 34.6675 174.101 34.1779 174.515 34.0649Z" fill="white"/>
<path d="M177.453 37.305C177.679 37.2297 177.942 37.2297 178.206 37.305C179.373 37.6063 180.315 39.1505 180.315 40.7323C180.315 41.9375 179.75 42.8414 178.997 43.0297C178.771 43.105 178.507 43.105 178.244 43.0297C177.076 42.7284 176.135 41.1842 176.135 39.6024C176.135 38.3972 176.662 37.4933 177.453 37.305Z" fill="url(#paint29_linear_117_3522)"/>
<path d="M183.818 40.166C183.855 40.166 183.893 40.166 183.931 40.166L205.624 45.966C205.812 46.0037 205.963 46.2673 205.963 46.4933C205.963 46.6816 205.888 46.8322 205.737 46.8699C205.699 46.8699 205.662 46.8699 205.624 46.8699L183.931 41.0699C183.742 41.0322 183.592 40.7686 183.592 40.5426C183.629 40.3167 183.705 40.2037 183.818 40.166Z" fill="url(#paint30_linear_117_3522)"/>
<path d="M183.818 42.313C183.855 42.313 183.893 42.313 183.931 42.313L193.422 44.8364C193.61 44.874 193.761 45.1376 193.761 45.3636C193.761 45.5519 193.685 45.7026 193.535 45.7402C193.497 45.7402 193.459 45.7402 193.422 45.7402L183.931 43.2169C183.742 43.1792 183.592 42.9156 183.592 42.6896C183.629 42.5013 183.705 42.3507 183.818 42.313Z" fill="url(#paint31_linear_117_3522)"/>
<path d="M150.562 15.5361C150.713 15.4984 150.826 15.4984 150.976 15.5361L214.211 32.484C214.851 32.6723 215.416 33.5386 215.416 34.4425V37.5308C215.416 38.2087 215.115 38.7359 214.663 38.8489C214.512 38.8866 214.399 38.8866 214.249 38.8489L151.014 21.8633C150.374 21.675 149.809 20.8088 149.809 19.9049V16.8166C149.809 16.1763 150.11 15.649 150.562 15.5361Z" fill="white"/>
<path d="M211.123 33.6143C211.462 33.539 211.876 33.7273 212.14 34.1792C212.516 34.7818 212.516 35.6104 212.14 35.987C212.027 36.1 211.951 36.1753 211.801 36.1753C211.462 36.2506 211.048 36.0623 210.784 35.6104C210.407 35.0078 210.407 34.1792 210.784 33.8026C210.897 33.7273 211.01 33.6519 211.123 33.6143Z" stroke="#2E405C" stroke-miterlimit="10" stroke-linecap="round"/>
<path d="M212.78 37.0776L212.14 35.9854" stroke="#2E405C" stroke-miterlimit="10" stroke-linecap="round"/>
<path d="M150.449 28.5287C150.562 28.4911 150.713 28.4911 150.826 28.5287L164.271 32.1443C164.836 32.295 165.325 33.0482 165.325 33.8391C165.325 34.4417 165.062 34.8936 164.648 35.0066C164.535 35.0443 164.384 35.0443 164.271 35.0066L150.826 31.3911C150.261 31.2404 149.771 30.4872 149.771 29.6963C149.809 29.0937 150.072 28.6417 150.449 28.5287Z" fill="white"/>
<g opacity="0.5">
<path opacity="0.5" d="M150.449 35.684C150.562 35.6463 150.713 35.6463 150.826 35.684L156.249 37.1528C156.814 37.3035 157.303 38.0567 157.303 38.8476C157.303 39.4502 157.04 39.9022 156.626 40.0152C156.513 40.0528 156.362 40.0528 156.249 40.0152L150.826 38.5463C150.261 38.3957 149.771 37.6424 149.771 36.8515C149.809 36.2113 150.072 35.797 150.449 35.684Z" fill="white"/>
</g>
<path d="M103.447 89.2029C103.447 88.525 104.426 87.8094 106.422 87.2821C110.376 86.2276 116.817 86.2276 120.771 87.2821C122.767 87.8094 123.746 88.525 123.746 89.2029C123.746 89.8808 122.767 90.5964 120.771 91.1237C116.817 92.1782 110.376 92.1782 106.422 91.1237C104.426 90.5964 103.447 89.9185 103.447 89.2029Z" fill="url(#paint32_linear_117_3522)"/>
<path d="M103.447 88.0347C103.447 88.6373 104.275 89.2399 106.008 89.6918C109.397 90.5957 114.896 90.5957 118.285 89.6918C119.98 89.2399 120.846 88.6373 120.846 88.0347V89.3905C120.846 89.9931 119.98 90.5957 118.285 91.0476C114.896 91.9515 109.397 91.9515 106.008 91.0476C104.313 90.5957 103.447 89.9931 103.447 89.3905V88.0347Z" fill="url(#paint33_linear_117_3522)"/>
<path d="M103.447 88.0352C103.447 87.4327 104.313 86.8301 106.008 86.3781C109.397 85.4742 114.896 85.4742 118.285 86.3781C119.98 86.8301 120.846 87.4327 120.846 88.0352C120.846 88.6378 119.98 89.2404 118.285 89.6924C114.896 90.5963 109.397 90.5963 106.008 89.6924C104.275 89.2404 103.447 88.6378 103.447 88.0352Z" fill="url(#paint34_linear_117_3522)"/>
<path d="M110.753 87.8107L96.2529 52.6343" stroke="url(#paint35_linear_117_3522)" stroke-width="3" stroke-miterlimit="10" stroke-linecap="round" stroke-linejoin="round"/>
<path d="M113.239 87.131L98.7388 51.9922" stroke="url(#paint36_linear_117_3522)" stroke-width="3" stroke-miterlimit="10" stroke-linecap="round" stroke-linejoin="round"/>
<path d="M112.109 83.6675C110.452 83.6675 109.134 84.9857 109.134 86.6428V87.9233C109.134 88.1116 109.435 88.3376 110 88.4882C111.167 88.7895 113.05 88.7895 114.218 88.4882C114.783 88.3376 115.084 88.1116 115.084 87.9233V86.6428C115.084 84.9857 113.766 83.6675 112.109 83.6675Z" fill="url(#paint37_linear_117_3522)"/>
<path d="M98.0232 55.6074C99.6664 55.6074 100.998 54.2753 100.998 52.632C100.998 50.9888 99.6664 49.6567 98.0232 49.6567C96.3799 49.6567 95.0479 50.9888 95.0479 52.632C95.0479 54.2753 96.3799 55.6074 98.0232 55.6074Z" fill="url(#paint38_linear_117_3522)"/>
<path d="M98.9646 52.5586L119.152 47.1353" stroke="url(#paint39_linear_117_3522)" stroke-width="3" stroke-miterlimit="10" stroke-linecap="round" stroke-linejoin="round"/>
<path d="M117.532 50.3737L108.418 48.114C106.008 47.5114 104.539 45.0634 105.141 42.653C105.744 40.2426 108.192 38.7738 110.602 39.3764L119.717 41.6361C122.127 42.2387 123.596 44.6868 122.993 47.0971C122.428 49.5075 119.98 50.9763 117.532 50.3737Z" fill="url(#paint40_linear_117_3522)"/>
<path d="M121.524 39.8658L126.157 40.845L123.181 54.5541L118.323 53.2359C114.708 52.2567 112.561 48.6034 113.427 44.9879C114.256 41.3723 117.871 39.0749 121.524 39.8658Z" fill="url(#paint41_linear_117_3522)"/>
<path d="M122.88 54.4786C121.035 53.989 119.717 51.8799 119.717 49.0176C119.717 45.2891 121.939 41.6358 124.688 40.9203C125.328 40.7319 125.931 40.7319 126.496 40.8826C128.341 41.3722 129.659 43.4813 129.659 46.3436C129.659 50.0722 127.437 53.7254 124.688 54.441C124.085 54.6293 123.445 54.6293 122.88 54.4786Z" fill="url(#paint42_linear_117_3522)"/>
<path d="M106.61 43.895C106.648 43.895 106.686 43.895 106.723 43.895L110.301 44.8366C110.489 44.8742 110.678 45.1379 110.678 45.4392C110.678 45.6651 110.565 45.8158 110.452 45.8535C110.414 45.8535 110.376 45.8535 110.339 45.8535L106.761 44.9119C106.573 44.8742 106.384 44.6106 106.384 44.3093C106.384 44.0833 106.46 43.9327 106.61 43.895Z" fill="white"/>
<path d="M107.439 41.4849C107.476 41.4849 107.552 41.4849 107.589 41.4849L111.13 42.4641C111.318 42.5017 111.393 42.803 111.318 43.0667C111.243 43.2926 111.092 43.4433 110.904 43.481C110.866 43.481 110.791 43.481 110.753 43.481L107.213 42.5017C107.024 42.4641 106.949 42.1628 107.024 41.8991C107.1 41.6732 107.25 41.5225 107.439 41.4849Z" fill="white"/>
<path d="M124.537 47.0586C124.537 45.3262 123.106 43.895 121.374 43.895C121.298 43.895 121.223 43.895 121.148 43.895C120.281 45.3638 119.717 47.1716 119.717 49.0171C119.717 49.2807 119.717 49.5067 119.754 49.7703C120.206 50.034 120.771 50.2223 121.336 50.2223C123.106 50.2223 124.537 48.7911 124.537 47.0586Z" fill="url(#paint43_linear_117_3522)"/>
<path d="M225.886 123.588C225.886 122.872 226.865 122.194 228.862 121.667C232.854 120.612 239.294 120.612 243.249 121.667C245.245 122.194 246.224 122.91 246.224 123.588C246.224 124.303 245.245 124.981 243.249 125.508C239.256 126.563 232.816 126.563 228.862 125.508C226.865 124.981 225.886 124.266 225.886 123.588Z" fill="url(#paint44_linear_117_3522)"/>
<path d="M225.886 107.694C225.886 108.222 226.639 108.749 228.146 109.163C231.197 109.992 236.093 109.992 239.143 109.163C240.65 108.749 241.403 108.222 241.403 107.694V123.588C241.403 124.115 240.65 124.642 239.143 125.057C236.093 125.885 231.197 125.885 228.146 125.057C226.639 124.642 225.886 124.115 225.886 123.588V107.694Z" fill="url(#paint45_linear_117_3522)"/>
<path d="M229.389 124.567L227.016 122.194C226.715 121.893 226.715 121.403 227.016 121.102C227.317 120.801 227.807 120.801 228.108 121.102L230.481 123.475C230.782 123.776 230.782 124.266 230.481 124.567C230.18 124.868 229.69 124.868 229.389 124.567Z" fill="url(#paint46_linear_117_3522)"/>
<path d="M229.389 114.701L227.016 112.328C226.715 112.027 226.715 111.537 227.016 111.236C227.317 110.934 227.807 110.934 228.108 111.236L230.481 113.608C230.782 113.91 230.782 114.399 230.481 114.701C230.18 115.002 229.69 115.002 229.389 114.701Z" fill="url(#paint47_linear_117_3522)"/>
<path d="M225.886 107.696C225.886 107.168 226.639 106.641 228.146 106.227C231.197 105.398 236.093 105.398 239.143 106.227C240.65 106.641 241.403 107.168 241.403 107.696C241.403 108.223 240.65 108.75 239.143 109.165C236.093 109.993 231.197 109.993 228.146 109.165C226.639 108.788 225.886 108.223 225.886 107.696Z" fill="url(#paint48_linear_117_3522)"/>
<path d="M239.181 108.485C236.13 107.657 231.234 107.657 228.184 108.485C227.769 108.598 227.43 108.711 227.167 108.824C227.468 108.937 227.807 109.05 228.184 109.163C231.234 109.992 236.13 109.992 239.181 109.163C239.595 109.05 239.934 108.937 240.198 108.824C239.897 108.711 239.558 108.598 239.181 108.485Z" fill="url(#paint49_linear_117_3522)"/>
<path d="M227.506 111.801L225.208 112.403C224.681 112.554 224.267 113.232 224.267 113.948V121.254C224.267 121.97 224.681 122.422 225.208 122.271L227.506 121.668" stroke="url(#paint50_linear_117_3522)" stroke-width="5" stroke-miterlimit="10" stroke-linecap="round" stroke-linejoin="round"/>
<path d="M217.713 254.917C217.713 253.109 220.274 251.339 225.396 249.946C235.641 247.196 252.25 247.196 262.494 249.946C267.616 251.302 270.177 253.109 270.177 254.917C270.177 256.725 267.616 258.495 262.494 259.889C252.25 262.638 235.641 262.638 225.396 259.889C220.274 258.495 217.713 256.725 217.713 254.917Z" fill="url(#paint51_linear_117_3522)"/>
<path d="M217.713 214.466C217.713 215.822 219.672 217.216 223.589 218.27C231.422 220.379 244.115 220.379 251.948 218.27C255.865 217.216 257.824 215.86 257.824 214.466V254.953C257.824 256.309 255.865 257.702 251.948 258.757C244.115 260.866 231.422 260.866 223.589 258.757C219.672 257.702 217.713 256.347 217.713 254.953V214.466Z" fill="url(#paint52_linear_117_3522)"/>
<path d="M217.713 214.467C217.713 213.111 219.672 211.718 223.589 210.663C231.422 208.554 244.115 208.554 251.948 210.663C255.865 211.718 257.824 213.074 257.824 214.467C257.824 215.823 255.865 217.217 251.948 218.271C244.115 220.38 231.422 220.38 223.589 218.271C219.672 217.217 217.713 215.823 217.713 214.467Z" fill="url(#paint53_linear_117_3522)"/>
<path d="M251.948 216.501C244.115 214.392 231.423 214.392 223.589 216.501C222.572 216.764 221.706 217.066 220.915 217.405C221.668 217.706 222.534 218.007 223.589 218.271C231.423 220.38 244.115 220.38 251.948 218.271C252.965 218.007 253.869 217.706 254.622 217.405C253.832 217.066 252.965 216.764 251.948 216.501Z" fill="url(#paint54_linear_117_3522)"/>
<path d="M237.712 219.891C237.712 219.891 239.181 189.874 247.504 176.429C257.598 160.159 279.103 169.424 278.35 184.526C277.596 199.629 276.579 209.459 279.856 211.869C279.856 211.869 266.599 202.265 260.799 191.531C254.999 180.798 255.413 169.876 263.963 169.085C263.963 169.085 255.602 165.658 248.559 177.408C241.516 189.159 239.52 219.929 239.52 219.929C239.52 219.929 239.294 219.966 237.712 219.891Z" fill="url(#paint55_linear_117_3522)"/>
<path d="M237.712 219.891C237.712 219.891 237.373 189.309 214.889 187.313C192.405 185.317 187.094 208.78 191.011 225.239C191.011 225.239 191.275 220.418 195.418 217.141C199.56 213.827 197.941 209.307 198.054 205.278C198.167 201.248 222.647 210.814 219.521 189.46C219.521 189.46 236.168 192.585 235.904 219.891H237.712Z" fill="url(#paint56_linear_117_3522)"/>
<path d="M241.026 154.885C241.026 154.885 237.524 145.922 246.224 140.385C254.924 134.849 262.645 138.389 265.469 135.037C268.332 131.685 280.873 136.318 283.886 126.375C283.886 126.375 285.317 141.176 267.804 147.993C250.329 154.885 241.026 154.885 241.026 154.885Z" fill="url(#paint57_linear_117_3522)"/>
<path d="M237.712 219.89C237.712 219.89 231.159 172.172 239.52 154.584C247.881 136.996 281.212 147.654 283.886 126.45C283.886 126.45 285.543 139.029 283.057 144.377C280.534 149.725 276.354 147.541 274.847 152.927C273.341 158.275 250.894 170.666 241.026 154.923C241.026 154.923 237.072 162.267 235.98 178.838C234.888 195.41 238.729 219.89 238.729 219.89H237.712Z" fill="url(#paint58_linear_117_3522)"/>
<path d="M239.52 219.891C239.52 219.891 239.181 199.101 229.314 171.043C229.314 171.043 235.942 157.371 228.259 151.12C220.576 144.868 208.035 143.775 206.114 136.356C204.193 128.937 192.518 125.359 181.822 128.974C181.822 128.974 181.181 136.733 189.806 142.043C196.058 145.884 199.523 149.651 200.54 159.405C201.82 171.834 214.512 183.697 228.259 172.474C228.259 172.474 237.26 193.452 237.712 219.891H239.52Z" fill="url(#paint59_linear_117_3522)"/>
<path d="M181.822 128.974C181.822 128.974 181.181 136.733 189.806 142.043C196.058 145.884 199.523 149.651 200.54 159.405C201.82 171.834 214.512 183.697 228.259 172.474C228.259 172.474 213.609 141.214 181.822 128.974Z" fill="url(#paint60_linear_117_3522)"/>
<path d="M92.939 227.424C92.939 227.424 93.3156 232.395 92.261 237.254C91.1688 242.074 90.7169 244.522 90.7922 247.159C90.8675 249.795 93.3532 253.524 104.991 249.456C112.825 246.707 119.378 243.92 119.641 239.852C119.905 235.785 115.838 236.011 111.318 236.613C107.59 237.103 106.045 227.424 106.045 227.424H92.939Z" fill="url(#paint61_linear_117_3522)"/>
<path d="M88.3442 194.243C90.6793 215.711 92.713 229.495 92.713 229.495C92.713 229.495 99.1532 232.245 106.799 229.269C106.799 229.269 114.143 169.386 115.235 160.95C116.327 152.514 114.595 138.579 102.957 138.277C89.2481 137.976 84.6533 160.197 88.3442 194.243Z" fill="url(#paint62_linear_117_3522)"/>
<path d="M119.642 239.814C119.679 239.438 119.642 239.099 119.604 238.797C119.453 239.325 119.19 239.927 118.7 240.605C117.081 242.827 106.196 247.723 98.9274 249.192C95.1612 249.945 92.6378 249.23 91.0183 248.364C91.8469 250.699 95.1235 252.845 104.991 249.418C112.787 246.669 119.378 243.882 119.642 239.814Z" fill="url(#paint63_linear_117_3522)"/>
<path d="M87.6661 85.3993C81.1505 83.0643 59.4571 74.1007 50.0039 71.6527C37.2741 68.3384 31.1352 86.9435 42.5845 90.8604C60.9636 97.1123 76.3298 101.18 83.1466 102.498C93.2024 104.419 99.1907 89.5045 87.6661 85.3993Z" fill="url(#paint64_linear_117_3522)"/>
<path d="M118.022 83.2524C118.022 83.2524 127.324 80.2018 129.019 79.1096C130.714 78.0174 132.333 77.2265 133.087 78.055C133.087 78.055 137.455 76.7369 138.171 76.8122C138.887 76.8499 139.527 77.9797 139.527 77.9797C139.527 77.9797 142.69 78.0927 143.632 78.168C144.574 78.2434 145.515 78.7706 145.816 79.2979C146.118 79.8252 147.511 82.2732 147.398 82.6498C147.285 82.9888 146.193 83.1771 145.402 82.5368C144.611 81.8966 143.783 80.7667 143.783 80.7667L141.259 80.8044C141.259 80.8044 148.905 84.3823 149.244 84.6836C149.583 84.9849 148.942 86.1524 147.285 85.8888C145.628 85.5875 142.879 84.4576 142.879 84.4576L139.037 84.7589C139.037 84.7589 135.422 86.416 134.442 87.6966C133.463 88.9771 136.062 89.2407 137.455 89.4667C138.849 89.6926 140.242 89.8056 140.092 91.0862C139.903 92.7809 138.171 92.4796 136.1 92.442C133.99 92.4043 131.316 92.2913 128.454 91.1615C125.592 90.0316 121.411 91.1991 121.411 91.1991L118.022 83.2524Z" fill="url(#paint65_linear_117_3522)"/>
<path d="M118.813 81.521C118.813 81.521 92.4869 84.0067 85.9337 84.9106C79.3428 85.7768 75.6519 92.1794 77.2337 97.3014C78.8155 102.423 84.9545 104.307 94.8973 101.407C104.84 98.5066 123.483 91.9158 123.483 91.9158C123.483 91.9158 124.349 83.8937 118.813 81.521Z" fill="url(#paint66_linear_117_3522)"/>
<path d="M52.6782 68.3375C52.6782 68.3375 55.7289 64.0817 55.2393 58.583C54.938 55.1934 51.6613 44.761 56.1055 36.5506C60.5873 28.3403 74.1833 30.6 77.2716 34.5546C80.3223 38.5091 81.2638 42.3506 80.8872 46.5688C80.5106 50.7869 81.8287 50.8999 82.469 51.9545C83.1093 53.009 80.4729 54.2142 80.4729 54.2142C80.4729 54.2142 80.3976 62.5375 76.9327 64.3077C75.2002 65.1739 73.4677 64.6843 73.4677 64.6843L73.2418 71.6518L52.6782 68.3375Z" fill="url(#paint67_linear_117_3522)"/>
<path d="M53.4313 57.8676C49.0625 50.3352 49.6275 42.9911 51.0963 37.9443C52.9794 31.5041 57.3105 31.0898 57.3105 31.0898C57.3105 31.0898 59.3443 26.4197 66.8391 26.0431C73.4676 25.7041 81.1883 27.1353 82.5818 32.408C83.787 36.9275 81.6403 38.6599 79.9455 39.1872C78.3637 39.6768 77.1208 40.3547 78.7403 44.3469C80.3598 48.3391 76.4052 50.6741 76.6312 53.4988C76.8572 56.3235 79.5312 54.252 80.5104 54.252C81.4896 54.252 81.2637 58.5455 80.8494 60.165C80.0585 63.2156 78.1 65.0611 75.4637 64.5715C72.2624 63.9689 74.2585 58.2819 74.6351 53.3482C75.0117 48.3768 74.5221 46.7949 72.1871 46.3807C68.6092 45.7027 65.4832 51.465 70.1533 54.8923C71.0572 55.5326 72.0364 58.0183 68.8728 61.1819C65.8975 64.0442 56.8586 63.7429 53.4313 57.8676Z" fill="url(#paint68_linear_117_3522)"/>
<path d="M36.4832 260.151C36.4832 257.628 40.5507 255.105 48.648 253.184C64.8804 249.342 91.2063 249.342 107.476 253.184C115.611 255.105 119.641 257.628 119.641 260.151C119.641 262.675 115.574 265.198 107.476 267.119C91.2439 270.96 64.9181 270.96 48.648 267.119C40.5507 265.198 36.4832 262.675 36.4832 260.151Z" fill="url(#paint69_linear_117_3522)"/>
<path d="M36.0312 256.234C36.0312 258.569 39.3455 260.904 45.9741 262.675C59.2311 266.215 80.7362 266.215 94.031 262.675C100.66 260.904 103.974 258.569 103.974 256.234V259.963C103.974 262.298 100.66 264.633 94.031 266.403C80.7739 269.943 59.2688 269.943 45.9741 266.403C39.3455 264.633 36.0312 262.298 36.0312 259.963V256.234Z" fill="url(#paint70_linear_117_3522)"/>
<path d="M36.0312 256.235C36.0312 253.9 39.3455 251.564 45.9741 249.794C59.2311 246.254 80.7362 246.254 94.031 249.794C100.66 251.564 103.974 253.9 103.974 256.235C103.974 258.57 100.66 260.905 94.031 262.675C80.7739 266.215 59.2688 266.215 45.9741 262.675C39.3455 260.867 36.0312 258.532 36.0312 256.235Z" fill="url(#paint71_linear_117_3522)"/>
<path d="M66.387 169.197C66.387 169.461 66.7259 169.687 67.4415 169.875C68.8727 170.252 71.1324 170.252 72.5636 169.875C73.2791 169.687 73.6181 169.423 73.6181 169.197V255.745C73.6181 256.009 73.2791 256.235 72.5636 256.423C71.1324 256.799 68.8727 256.799 67.4415 256.423C66.7259 256.235 66.387 255.971 66.387 255.745V169.197Z" fill="url(#paint72_linear_117_3522)"/>
<path d="M116.44 169.686C116.026 169.573 115.611 169.573 115.16 169.686L95.7258 174.883C91.1311 176.126 86.4609 176.051 82.1298 174.883L39.9858 163.585C44.317 164.752 49.0248 164.79 53.5819 163.585L73.0156 158.387C73.4298 158.274 73.8818 158.274 74.2961 158.387L116.44 169.686Z" fill="url(#paint73_linear_117_3522)"/>
<path d="M189.881 248.815H144.084V257.365H189.881V248.815Z" fill="url(#paint74_linear_117_3522)"/>
<path d="M80.1714 169.198C67.4416 173.002 37.9145 174.132 30.6833 149.99C30.6833 149.99 74.7104 140.838 85.5195 137.976C97.5337 134.775 112.109 133.72 114.067 145.584C116.591 160.988 95.0856 164.754 80.1714 169.198Z" fill="url(#paint75_linear_117_3522)"/>
<path d="M132.936 235.86C132.936 235.86 133.313 242.64 131.919 248.251C130.337 254.578 132.785 256.801 135.874 257.026C145.365 257.78 158.283 257.026 165.514 255.671C169.996 254.842 169.318 248.477 162.313 247.423C148.189 245.276 146.306 235.936 146.306 235.936L132.936 235.86Z" fill="url(#paint76_linear_117_3522)"/>
<path d="M131.429 252.242C133.087 256.874 160.166 254.69 163.518 254.087C165.062 253.786 168.451 252.92 168.15 251.526C168.715 253.409 167.773 255.255 165.476 255.669C158.245 256.987 145.327 257.778 135.836 257.025C133.539 256.874 131.58 255.556 131.429 252.242Z" fill="url(#paint77_linear_117_3522)"/>
<path d="M39.9482 149.991C39.9482 149.991 45.4846 174.659 75.426 174.132C95.048 173.793 116.44 165.997 118.21 167.052C119.98 168.144 115.009 182.455 122.315 203.697C129.283 223.997 132.635 238.045 132.635 238.045C132.635 238.045 139.188 240.606 146.72 236.651C146.72 236.651 143.218 174.622 142.766 166.11C142.314 157.598 140.356 141.743 120.545 141.743C109.209 141.78 39.9482 149.991 39.9482 149.991Z" fill="url(#paint78_linear_117_3522)"/>
<path d="M45.5977 72.4803C45.5977 72.4803 47.9327 67.2829 50.0041 66.1907C54.1846 63.9686 68.6846 65.6258 72.8274 68.1491C76.9702 70.6725 78.3261 77.2634 78.3261 77.2634L45.5977 72.4803Z" fill="url(#paint79_linear_117_3522)"/>
<path d="M91.244 144.754C91.244 144.754 79.6817 162.079 49.665 160.158C32.6417 159.066 28.3482 150.592 29.8924 147.428C31.4742 144.302 39.3832 119.445 35.843 96.3581C32.3027 73.2712 41.2663 69.8062 48.9494 68.601C56.6325 67.3959 89.0973 69.3166 87.8921 87.2062C86.6869 105.058 78.2129 124.303 91.244 144.754Z" fill="url(#paint80_linear_117_3522)"/>
<path d="M45.2209 131.686C44.5807 131.498 43.8651 131.611 43.2625 131.988C42.1326 132.741 41.7937 134.247 42.5469 135.377L62.8092 166.524C67.1026 173.152 73.5805 177.709 80.8493 179.63L38.7054 168.332C31.4742 166.373 24.9963 161.854 20.6652 155.225L0.402938 124.116C-0.350305 122.986 -0.0113456 121.442 1.11852 120.727C1.72111 120.312 2.4367 120.237 3.07695 120.425L45.2209 131.686Z" fill="url(#paint81_linear_117_3522)"/>
<path d="M45.221 131.686C45.7859 131.837 46.3132 132.176 46.6522 132.703L66.9144 163.849C70.53 169.423 75.991 173.265 82.0923 174.884C86.4234 176.052 91.1312 176.09 95.6883 174.884L115.122 169.687C115.536 169.574 115.988 169.574 116.402 169.687C117.231 169.913 117.909 170.553 118.135 171.42C118.474 172.738 117.721 174.094 116.402 174.432L96.9688 179.63C94.2571 180.345 91.5455 180.684 88.8714 180.684C86.1221 180.684 83.4481 180.308 80.8494 179.63C73.6183 177.671 67.1404 173.152 62.8092 166.523L42.547 135.414C41.7937 134.285 42.1327 132.74 43.2626 132.025C43.8652 131.611 44.5807 131.498 45.221 131.686Z" fill="url(#paint82_linear_117_3522)"/>
<path d="M160.731 93.0435C160.731 93.0435 159.375 98.1655 159.488 99.5214C159.601 100.877 160.505 101.065 160.844 100.764C161.183 100.463 163.555 93.7967 163.555 93.7967L160.731 93.0435Z" fill="url(#paint83_linear_117_3522)"/>
<path d="M143.293 93.798C143.293 93.798 149.244 90.446 153.65 87.6214C158.057 84.759 159.375 85.324 160.505 85.8889C161.672 86.4538 161.409 87.772 161.409 87.772C161.409 87.772 163.668 87.885 163.518 90.1071C163.518 90.1071 166.154 90.446 165.25 92.7058C165.25 92.7058 166.945 93.3837 166.154 95.5681C165.401 97.7525 164.309 101.293 163.48 101.481C162.652 101.669 162.011 100.464 162.388 98.92C162.765 97.3759 163.028 95.6434 163.028 95.6434C163.028 95.6434 161.183 97.2629 159.488 98.2797C157.793 99.2966 153.387 98.8823 149.583 100.841L143.293 93.798Z" fill="url(#paint84_linear_117_3522)"/>
<path d="M143.896 92.2153C143.896 92.2153 117.344 99.0322 111.017 101.066C104.69 103.1 102.467 110.18 104.915 114.963C107.364 119.746 114.557 120.613 123.822 116.018C133.087 111.423 150.261 101.631 150.261 101.631C150.261 101.631 149.771 93.6088 143.896 92.2153Z" fill="url(#paint85_linear_117_3522)"/>
<path d="M116.93 102.273C111.808 97.6402 90.9428 81.5961 82.9584 76.0221C74.9741 70.4481 60.5871 83.3663 75.0494 96.322C89.5117 109.278 101.451 114.626 107.477 118.015C116.44 123.062 127.965 112.291 116.93 102.273Z" fill="url(#paint86_linear_117_3522)"/>
<defs>
<linearGradient id="paint0_linear_117_3522" x1="194.422" y1="196.617" x2="194.422" y2="76.7216" gradientUnits="userSpaceOnUse">
<stop stop-color="white"/>
<stop offset="1" stop-color="#AEBDDF"/>
</linearGradient>
<linearGradient id="paint1_linear_117_3522" x1="271.089" y1="167.996" x2="271.089" y2="87.0242" gradientUnits="userSpaceOnUse">
<stop stop-color="white"/>
<stop offset="1" stop-color="#AEBDDF"/>
</linearGradient>
<linearGradient id="paint2_linear_117_3522" x1="49.8956" y1="150.738" x2="49.8956" y2="76.1946" gradientUnits="userSpaceOnUse">
<stop stop-color="white"/>
<stop offset="1" stop-color="#AEBDDF"/>
</linearGradient>
<linearGradient id="paint3_linear_117_3522" x1="160.762" y1="170.511" x2="160.762" y2="132.008" gradientUnits="userSpaceOnUse">
<stop stop-color="white"/>
<stop offset="1" stop-color="#AEBDDF"/>
</linearGradient>
<linearGradient id="paint4_linear_117_3522" x1="160.762" y1="138.123" x2="160.762" y2="0.766956" gradientUnits="userSpaceOnUse">
<stop stop-color="white"/>
<stop offset="1" stop-color="#AEBDDF"/>
</linearGradient>
<linearGradient id="paint5_linear_117_3522" x1="198.767" y1="114.989" x2="192.8" y2="99.9945" gradientUnits="userSpaceOnUse">
<stop stop-color="white" stop-opacity="0"/>
<stop offset="1" stop-color="#AEBDDF"/>
</linearGradient>
<linearGradient id="paint6_linear_117_3522" x1="177.479" y1="106.71" x2="177.479" y2="80.5467" gradientUnits="userSpaceOnUse">
<stop stop-color="#ACBDDE"/>
<stop offset="1" stop-color="#2E405C"/>
</linearGradient>
<linearGradient id="paint7_linear_117_3522" x1="177.086" y1="104.978" x2="177.086" y2="88.4531" gradientUnits="userSpaceOnUse">
<stop stop-color="white"/>
<stop offset="1" stop-color="#AEBDDF"/>
</linearGradient>
<linearGradient id="paint8_linear_117_3522" x1="184.933" y1="-20.3917" x2="184.933" y2="88.2163" gradientUnits="userSpaceOnUse">
<stop stop-color="white"/>
<stop offset="1" stop-color="#AEBDDF"/>
</linearGradient>
<linearGradient id="paint9_linear_117_3522" x1="182.891" y1="-32.3276" x2="182.891" y2="91.4947" gradientUnits="userSpaceOnUse">
<stop stop-color="#ACBDDE"/>
<stop offset="1" stop-color="#2E405C"/>
</linearGradient>
<linearGradient id="paint10_linear_117_3522" x1="182.637" y1="28.5367" x2="182.637" y2="119.032" gradientUnits="userSpaceOnUse">
<stop stop-color="white"/>
<stop offset="1" stop-color="#AEBDDF"/>
</linearGradient>
<linearGradient id="paint11_linear_117_3522" x1="194.076" y1="130.978" x2="186.956" y2="113.085" gradientUnits="userSpaceOnUse">
<stop stop-color="white" stop-opacity="0"/>
<stop offset="1" stop-color="#AEBDDF"/>
</linearGradient>
<linearGradient id="paint12_linear_117_3522" x1="155.33" y1="121.808" x2="155.33" y2="99.4099" gradientUnits="userSpaceOnUse">
<stop stop-color="#ACBDDE"/>
<stop offset="1" stop-color="#2E405C"/>
</linearGradient>
<linearGradient id="paint13_linear_117_3522" x1="155.33" y1="120.481" x2="155.33" y2="100.276" gradientUnits="userSpaceOnUse">
<stop stop-color="white"/>
<stop offset="1" stop-color="#AEBDDF"/>
</linearGradient>
<linearGradient id="paint14_linear_117_3522" x1="155.001" y1="90.4214" x2="155.001" y2="139.781" gradientUnits="userSpaceOnUse">
<stop stop-color="#ACBDDE"/>
<stop offset="1" stop-color="#2E405C"/>
</linearGradient>
<linearGradient id="paint15_linear_117_3522" x1="226.941" y1="-36.6023" x2="226.941" y2="44.9404" gradientUnits="userSpaceOnUse">
<stop stop-color="white"/>
<stop offset="1" stop-color="#AEBDDF"/>
</linearGradient>
<linearGradient id="paint16_linear_117_3522" x1="209.013" y1="16.0193" x2="209.013" y2="9.40153" gradientUnits="userSpaceOnUse">
<stop stop-color="#FFEFA4"/>
<stop offset="1" stop-color="#FE8F01"/>
</linearGradient>
<linearGradient id="paint17_linear_117_3522" x1="209.013" y1="12.5242" x2="209.013" y2="5.32983" gradientUnits="userSpaceOnUse">
<stop stop-color="#FFEFA4"/>
<stop offset="1" stop-color="#FE8F01"/>
</linearGradient>
<linearGradient id="paint18_linear_117_3522" x1="241.842" y1="17.6693" x2="174.066" y2="-2.1602" gradientUnits="userSpaceOnUse">
<stop stop-color="white"/>
<stop offset="1" stop-color="#AEBDDF"/>
</linearGradient>
<linearGradient id="paint19_linear_117_3522" x1="240.58" y1="21.9812" x2="172.805" y2="2.15168" gradientUnits="userSpaceOnUse">
<stop stop-color="white"/>
<stop offset="1" stop-color="#AEBDDF"/>
</linearGradient>
<linearGradient id="paint20_linear_117_3522" x1="182.637" y1="83.9585" x2="182.637" y2="-6.38647" gradientUnits="userSpaceOnUse">
<stop stop-color="#79D985"/>
<stop offset="1" stop-color="#027A71"/>
</linearGradient>
<linearGradient id="paint21_linear_117_3522" x1="158.006" y1="101.379" x2="158.006" y2="0.456068" gradientUnits="userSpaceOnUse">
<stop stop-color="#79D985"/>
<stop offset="1" stop-color="#027A71"/>
</linearGradient>
<linearGradient id="paint22_linear_117_3522" x1="182.637" y1="58.0304" x2="182.637" y2="-24.5223" gradientUnits="userSpaceOnUse">
<stop stop-color="#79D985"/>
<stop offset="1" stop-color="#027A71"/>
</linearGradient>
<linearGradient id="paint23_linear_117_3522" x1="178.213" y1="61.1556" x2="178.213" y2="78.0174" gradientUnits="userSpaceOnUse">
<stop stop-color="#FFEFA4"/>
<stop offset="1" stop-color="#FE8F01"/>
</linearGradient>
<linearGradient id="paint24_linear_117_3522" x1="215.216" y1="79.976" x2="181.002" y2="68.9023" gradientUnits="userSpaceOnUse">
<stop stop-color="white"/>
<stop offset="1" stop-color="#AEBDDF"/>
</linearGradient>
<linearGradient id="paint25_linear_117_3522" x1="214.482" y1="82.2457" x2="180.267" y2="71.172" gradientUnits="userSpaceOnUse">
<stop stop-color="white"/>
<stop offset="1" stop-color="#AEBDDF"/>
</linearGradient>
<linearGradient id="paint26_linear_117_3522" x1="178.213" y1="47.0292" x2="178.213" y2="63.2887" gradientUnits="userSpaceOnUse">
<stop stop-color="#FFEFA4"/>
<stop offset="1" stop-color="#FE8F01"/>
</linearGradient>
<linearGradient id="paint27_linear_117_3522" x1="221.16" y1="52.7463" x2="185.668" y2="60.4127" gradientUnits="userSpaceOnUse">
<stop stop-color="white"/>
<stop offset="1" stop-color="#AEBDDF"/>
</linearGradient>
<linearGradient id="paint28_linear_117_3522" x1="220.997" y1="51.9878" x2="185.504" y2="59.6542" gradientUnits="userSpaceOnUse">
<stop stop-color="white"/>
<stop offset="1" stop-color="#AEBDDF"/>
</linearGradient>
<linearGradient id="paint29_linear_117_3522" x1="178.213" y1="35.3182" x2="178.213" y2="49.3672" gradientUnits="userSpaceOnUse">
<stop stop-color="#FFEFA4"/>
<stop offset="1" stop-color="#FE8F01"/>
</linearGradient>
<linearGradient id="paint30_linear_117_3522" x1="212.51" y1="48.002" x2="178.863" y2="39.4838" gradientUnits="userSpaceOnUse">
<stop stop-color="white"/>
<stop offset="1" stop-color="#AEBDDF"/>
</linearGradient>
<linearGradient id="paint31_linear_117_3522" x1="212.016" y1="49.9543" x2="178.369" y2="41.4361" gradientUnits="userSpaceOnUse">
<stop stop-color="white"/>
<stop offset="1" stop-color="#AEBDDF"/>
</linearGradient>
<linearGradient id="paint32_linear_117_3522" x1="138.634" y1="91.1118" x2="113.136" y2="89.1833" gradientUnits="userSpaceOnUse">
<stop stop-color="white"/>
<stop offset="1" stop-color="#AEBDDF"/>
</linearGradient>
<linearGradient id="paint33_linear_117_3522" x1="103.932" y1="79.7686" x2="115.674" y2="92.8043" gradientUnits="userSpaceOnUse">
<stop stop-color="#ACBDDE"/>
<stop offset="1" stop-color="#2E405C"/>
</linearGradient>
<linearGradient id="paint34_linear_117_3522" x1="112.116" y1="84.7468" x2="112.116" y2="105.865" gradientUnits="userSpaceOnUse">
<stop stop-color="#ACBDDE"/>
<stop offset="1" stop-color="#2E405C"/>
</linearGradient>
<linearGradient id="paint35_linear_117_3522" x1="95.7276" y1="52.2604" x2="111.288" y2="88.1897" gradientUnits="userSpaceOnUse">
<stop stop-color="#ACBDDE"/>
<stop offset="1" stop-color="#2E405C"/>
</linearGradient>
<linearGradient id="paint36_linear_117_3522" x1="98.2012" y1="51.5974" x2="113.761" y2="87.5267" gradientUnits="userSpaceOnUse">
<stop stop-color="#ACBDDE"/>
<stop offset="1" stop-color="#2E405C"/>
</linearGradient>
<linearGradient id="paint37_linear_117_3522" x1="109.51" y1="80.9737" x2="113.158" y2="89.3988" gradientUnits="userSpaceOnUse">
<stop stop-color="#ACBDDE"/>
<stop offset="1" stop-color="#2E405C"/>
</linearGradient>
<linearGradient id="paint38_linear_117_3522" x1="96.8516" y1="49.9135" x2="99.2191" y2="55.3804" gradientUnits="userSpaceOnUse">
<stop stop-color="#ACBDDE"/>
<stop offset="1" stop-color="#2E405C"/>
</linearGradient>
<linearGradient id="paint39_linear_117_3522" x1="119.668" y1="46.7667" x2="98.071" y2="50.9857" gradientUnits="userSpaceOnUse">
<stop stop-color="#ACBDDE"/>
<stop offset="1" stop-color="#2E405C"/>
</linearGradient>
<linearGradient id="paint40_linear_117_3522" x1="114.076" y1="30.0112" x2="114.076" y2="53.7509" gradientUnits="userSpaceOnUse">
<stop stop-color="#ACBDDE"/>
<stop offset="1" stop-color="#2E405C"/>
</linearGradient>
<linearGradient id="paint41_linear_117_3522" x1="119.678" y1="35.1199" x2="119.678" y2="61.6828" gradientUnits="userSpaceOnUse">
<stop stop-color="#ACBDDE"/>
<stop offset="1" stop-color="#2E405C"/>
</linearGradient>
<linearGradient id="paint42_linear_117_3522" x1="153.699" y1="47.6987" x2="120.65" y2="47.6987" gradientUnits="userSpaceOnUse">
<stop stop-color="#ACBDDE"/>
<stop offset="1" stop-color="#2E405C"/>
</linearGradient>
<linearGradient id="paint43_linear_117_3522" x1="126.109" y1="47.0578" x2="118.56" y2="47.0578" gradientUnits="userSpaceOnUse">
<stop stop-color="#FFEFA4"/>
<stop offset="1" stop-color="#FE8F01"/>
</linearGradient>
<linearGradient id="paint44_linear_117_3522" x1="242.717" y1="106.004" x2="235.64" y2="124.718" gradientUnits="userSpaceOnUse">
<stop stop-color="white"/>
<stop offset="1" stop-color="#AEBDDF"/>
</linearGradient>
<linearGradient id="paint45_linear_117_3522" x1="224.206" y1="116.875" x2="250.314" y2="116.052" gradientUnits="userSpaceOnUse">
<stop stop-color="#ACBDDE"/>
<stop offset="1" stop-color="#2E405C"/>
</linearGradient>
<linearGradient id="paint46_linear_117_3522" x1="230.231" y1="124.61" x2="227.279" y2="121.054" gradientUnits="userSpaceOnUse">
<stop stop-color="#ACBDDE" stop-opacity="0"/>
<stop offset="1" stop-color="#2E405C"/>
</linearGradient>
<linearGradient id="paint47_linear_117_3522" x1="230.231" y1="114.748" x2="227.279" y2="111.193" gradientUnits="userSpaceOnUse">
<stop stop-color="#ACBDDE" stop-opacity="0"/>
<stop offset="1" stop-color="#2E405C"/>
</linearGradient>
<linearGradient id="paint48_linear_117_3522" x1="239.861" y1="107.704" x2="221.461" y2="107.704" gradientUnits="userSpaceOnUse">
<stop stop-color="#ACBDDE"/>
<stop offset="1" stop-color="#2E405C"/>
</linearGradient>
<linearGradient id="paint49_linear_117_3522" x1="233.668" y1="106.719" x2="233.668" y2="111.927" gradientUnits="userSpaceOnUse">
<stop stop-color="#FFEFA4"/>
<stop offset="1" stop-color="#FE8F01"/>
</linearGradient>
<linearGradient id="paint50_linear_117_3522" x1="225.891" y1="123.263" x2="225.891" y2="110.845" gradientUnits="userSpaceOnUse">
<stop stop-color="#2E405C"/>
<stop offset="1" stop-color="#526381"/>
</linearGradient>
<linearGradient id="paint51_linear_117_3522" x1="266.185" y1="278.187" x2="247.592" y2="258.715" gradientUnits="userSpaceOnUse">
<stop stop-color="white"/>
<stop offset="1" stop-color="#AEBDDF"/>
</linearGradient>
<linearGradient id="paint52_linear_117_3522" x1="213.398" y1="237.864" x2="280.647" y2="235.744" gradientUnits="userSpaceOnUse">
<stop stop-color="white"/>
<stop offset="1" stop-color="#AEBDDF"/>
</linearGradient>
<linearGradient id="paint53_linear_117_3522" x1="253.728" y1="214.463" x2="206.315" y2="214.463" gradientUnits="userSpaceOnUse">
<stop stop-color="#ACBDDE"/>
<stop offset="1" stop-color="#2E405C"/>
</linearGradient>
<linearGradient id="paint54_linear_117_3522" x1="237.77" y1="195.79" x2="237.77" y2="219.297" gradientUnits="userSpaceOnUse">
<stop stop-color="#ACBDDE"/>
<stop offset="1" stop-color="#2E405C"/>
</linearGradient>
<linearGradient id="paint55_linear_117_3522" x1="290.683" y1="230.829" x2="235.689" y2="176.588" gradientUnits="userSpaceOnUse">
<stop stop-color="#79D985"/>
<stop offset="1" stop-color="#027A71"/>
</linearGradient>
<linearGradient id="paint56_linear_117_3522" x1="201.308" y1="179.546" x2="211.478" y2="210.433" gradientUnits="userSpaceOnUse">
<stop stop-color="#79D985"/>
<stop offset="1" stop-color="#027A71"/>
</linearGradient>
<linearGradient id="paint57_linear_117_3522" x1="265.611" y1="104.525" x2="261.091" y2="149.224" gradientUnits="userSpaceOnUse">
<stop stop-color="#79D985"/>
<stop offset="1" stop-color="#027A71"/>
</linearGradient>
<linearGradient id="paint58_linear_117_3522" x1="306.627" y1="66.1518" x2="237.765" y2="192.666" gradientUnits="userSpaceOnUse">
<stop stop-color="#79D985"/>
<stop offset="1" stop-color="#027A71"/>
</linearGradient>
<linearGradient id="paint59_linear_117_3522" x1="260.218" y1="136.461" x2="175.342" y2="201.5" gradientUnits="userSpaceOnUse">
<stop stop-color="#79D985"/>
<stop offset="1" stop-color="#027A71"/>
</linearGradient>
<linearGradient id="paint60_linear_117_3522" x1="189.093" y1="177.555" x2="213.869" y2="135.87" gradientUnits="userSpaceOnUse">
<stop stop-color="#79D985"/>
<stop offset="1" stop-color="#027A71"/>
</linearGradient>
<linearGradient id="paint61_linear_117_3522" x1="106.769" y1="249.822" x2="100.839" y2="224.262" gradientUnits="userSpaceOnUse">
<stop stop-color="white"/>
<stop offset="1" stop-color="#AEBDDF"/>
</linearGradient>
<linearGradient id="paint62_linear_117_3522" x1="242.713" y1="184.476" x2="71.7344" y2="184.476" gradientUnits="userSpaceOnUse">
<stop stop-color="#ACBDDE"/>
<stop offset="1" stop-color="#2E405C"/>
</linearGradient>
<linearGradient id="paint63_linear_117_3522" x1="104.472" y1="235.216" x2="106.108" y2="251.166" gradientUnits="userSpaceOnUse">
<stop stop-color="white"/>
<stop offset="1" stop-color="#AEBDDF"/>
</linearGradient>
<linearGradient id="paint64_linear_117_3522" x1="143.707" y1="43.2518" x2="75.9223" y2="81.2847" gradientUnits="userSpaceOnUse">
<stop stop-color="#FFEFA4"/>
<stop offset="1" stop-color="#FE8F01"/>
</linearGradient>
<linearGradient id="paint65_linear_117_3522" x1="153.171" y1="72.3604" x2="119.841" y2="93.3194" gradientUnits="userSpaceOnUse">
<stop stop-color="#FFD2BB"/>
<stop offset="1" stop-color="#FF6B5A"/>
</linearGradient>
<linearGradient id="paint66_linear_117_3522" x1="153.437" y1="60.5946" x2="85.6526" y2="98.6274" gradientUnits="userSpaceOnUse">
<stop stop-color="#FFEFA4"/>
<stop offset="1" stop-color="#FE8F01"/>
</linearGradient>
<linearGradient id="paint67_linear_117_3522" x1="73.8934" y1="22.0115" x2="59.4653" y2="88.2362" gradientUnits="userSpaceOnUse">
<stop stop-color="#FFD2BB"/>
<stop offset="1" stop-color="#FF6B5A"/>
</linearGradient>
<linearGradient id="paint68_linear_117_3522" x1="66.4504" y1="-3.00143" x2="66.4504" y2="63.6219" gradientUnits="userSpaceOnUse">
<stop stop-color="#ACBDDE"/>
<stop offset="1" stop-color="#2E405C"/>
</linearGradient>
<linearGradient id="paint69_linear_117_3522" x1="161.763" y1="260.171" x2="40.1008" y2="260.171" gradientUnits="userSpaceOnUse">
<stop stop-color="white"/>
<stop offset="1" stop-color="#AEBDDF"/>
</linearGradient>
<linearGradient id="paint70_linear_117_3522" x1="42.1109" y1="262.631" x2="242.946" y2="262.631" gradientUnits="userSpaceOnUse">
<stop stop-color="white"/>
<stop offset="1" stop-color="#AEBDDF"/>
</linearGradient>
<linearGradient id="paint71_linear_117_3522" x1="70.0215" y1="233.776" x2="70.0215" y2="293.905" gradientUnits="userSpaceOnUse">
<stop stop-color="white"/>
<stop offset="1" stop-color="#AEBDDF"/>
</linearGradient>
<linearGradient id="paint72_linear_117_3522" x1="70.0215" y1="174.088" x2="70.0215" y2="274.434" gradientUnits="userSpaceOnUse">
<stop stop-color="white"/>
<stop offset="1" stop-color="#AEBDDF"/>
</linearGradient>
<linearGradient id="paint73_linear_117_3522" x1="73.9626" y1="128.562" x2="79.1508" y2="175.256" gradientUnits="userSpaceOnUse">
<stop stop-color="white"/>
<stop offset="1" stop-color="#AEBDDF"/>
</linearGradient>
<linearGradient id="paint74_linear_117_3522" x1="184.836" y1="253.075" x2="138.623" y2="253.075" gradientUnits="userSpaceOnUse">
<stop stop-color="white"/>
<stop offset="1" stop-color="#AEBDDF"/>
</linearGradient>
<linearGradient id="paint75_linear_117_3522" x1="242.713" y1="153.555" x2="71.7343" y2="153.555" gradientUnits="userSpaceOnUse">
<stop stop-color="#ACBDDE"/>
<stop offset="1" stop-color="#2E405C"/>
</linearGradient>
<linearGradient id="paint76_linear_117_3522" x1="149.514" y1="258.788" x2="150.645" y2="240.147" gradientUnits="userSpaceOnUse">
<stop stop-color="white"/>
<stop offset="1" stop-color="#AEBDDF"/>
</linearGradient>
<linearGradient id="paint77_linear_117_3522" x1="149.341" y1="234.878" x2="149.905" y2="253.622" gradientUnits="userSpaceOnUse">
<stop stop-color="white"/>
<stop offset="1" stop-color="#AEBDDF"/>
</linearGradient>
<linearGradient id="paint78_linear_117_3522" x1="210.291" y1="190.319" x2="54.0037" y2="190.319" gradientUnits="userSpaceOnUse">
<stop stop-color="#ACBDDE"/>
<stop offset="1" stop-color="#2E405C"/>
</linearGradient>
<linearGradient id="paint79_linear_117_3522" x1="61.9455" y1="89.6439" x2="61.9455" y2="47.6212" gradientUnits="userSpaceOnUse">
<stop stop-color="#ACBDDE"/>
<stop offset="1" stop-color="#2E405C"/>
</linearGradient>
<linearGradient id="paint80_linear_117_3522" x1="60.4124" y1="160.47" x2="60.4124" y2="10.0253" gradientUnits="userSpaceOnUse">
<stop stop-color="#FFEFA4"/>
<stop offset="1" stop-color="#FE8F01"/>
</linearGradient>
<linearGradient id="paint81_linear_117_3522" x1="40.4149" y1="102.961" x2="40.4149" y2="175.469" gradientUnits="userSpaceOnUse">
<stop stop-color="white"/>
<stop offset="1" stop-color="#AEBDDF"/>
</linearGradient>
<linearGradient id="paint82_linear_117_3522" x1="80.1895" y1="144.864" x2="80.1895" y2="248.322" gradientUnits="userSpaceOnUse">
<stop stop-color="white"/>
<stop offset="1" stop-color="#AEBDDF"/>
</linearGradient>
<linearGradient id="paint83_linear_117_3522" x1="165.07" y1="94.3404" x2="157.965" y2="98.575" gradientUnits="userSpaceOnUse">
<stop stop-color="#FFD2BB"/>
<stop offset="1" stop-color="#FF6B5A"/>
</linearGradient>
<linearGradient id="paint84_linear_117_3522" x1="167.908" y1="89.4451" x2="145.443" y2="101.615" gradientUnits="userSpaceOnUse">
<stop stop-color="#FFD2BB"/>
<stop offset="1" stop-color="#FF6B5A"/>
</linearGradient>
<linearGradient id="paint85_linear_117_3522" x1="127.13" y1="160.47" x2="127.13" y2="10.0254" gradientUnits="userSpaceOnUse">
<stop stop-color="#FFEFA4"/>
<stop offset="1" stop-color="#FE8F01"/>
</linearGradient>
<linearGradient id="paint86_linear_117_3522" x1="95.1711" y1="160.472" x2="95.1711" y2="10.0269" gradientUnits="userSpaceOnUse">
<stop stop-color="#FFEFA4"/>
<stop offset="1" stop-color="#FE8F01"/>
</linearGradient>
</defs>
</svg>
