<svg width="339" height="360" viewBox="0 0 339 360" fill="none" xmlns="http://www.w3.org/2000/svg">
<g clip-path="url(#clip0_117_3709)">
<path d="M178.43 67.3242L275.022 93.2027V293.926L178.43 268.048V67.3242Z" fill="url(#paint0_linear_117_3709)"/>
<path d="M275.022 93.2027L338.55 76.1855V276.909L275.022 293.926V93.2027Z" fill="url(#paint1_linear_117_3709)"/>
<path d="M178.43 67.3243L241.958 50.3071L338.55 76.1856L275.022 93.2028L178.43 67.3243Z" fill="url(#paint2_linear_117_3709)"/>
<path d="M47.0537 241.199C47.0537 238.863 50.4042 236.482 57.1053 234.675C70.5075 231.06 92.2859 231.06 105.688 234.675C112.389 236.482 115.74 238.819 115.74 241.199C115.74 243.536 112.389 245.917 105.688 247.724C92.2859 251.339 70.5075 251.339 57.1053 247.724C50.4042 245.917 47.0537 243.536 47.0537 241.199Z" fill="url(#paint3_linear_117_3709)"/>
<path d="M47.0537 188.208C47.0537 190.016 49.6107 191.823 54.7247 193.19C64.9967 195.923 81.6171 195.923 91.8451 193.19C96.959 191.823 99.516 190.016 99.516 188.208V241.243C99.516 243.051 96.959 244.859 91.8451 246.225C81.573 248.959 64.9526 248.959 54.7247 246.225C49.6107 244.859 47.0537 243.051 47.0537 241.243V188.208Z" fill="url(#paint4_linear_117_3709)"/>
<path d="M47.0537 188.208C47.0537 186.4 49.6107 184.593 54.7247 183.226C64.9967 180.493 81.6171 180.493 91.8451 183.226C96.959 184.593 99.516 186.4 99.516 188.208C99.516 190.016 96.959 191.823 91.8451 193.19C81.573 195.923 64.9526 195.923 54.7247 193.19C49.6107 191.779 47.0537 190.016 47.0537 188.208Z" fill="url(#paint5_linear_117_3709)"/>
<path d="M91.8892 190.853C81.6172 188.119 64.9967 188.119 54.7688 190.853C53.4462 191.205 52.3 191.602 51.286 191.999C52.2559 192.396 53.4462 192.793 54.7688 193.145C65.0408 195.879 81.6612 195.879 91.8892 193.145C93.2118 192.793 94.4021 192.396 95.372 191.999C94.358 191.602 93.2559 191.205 91.8892 190.853Z" fill="url(#paint6_linear_117_3709)"/>
<path d="M73.2849 195.306C73.2849 195.306 75.2247 155.981 86.1139 138.391C99.2956 117.097 127.511 129.221 126.541 148.972C125.571 168.722 124.248 181.639 128.525 184.769C128.525 184.769 111.111 172.161 103.528 158.141C95.9451 144.122 96.4741 129.794 107.672 128.736C107.672 128.736 96.6946 124.239 87.4806 139.625C78.2666 155.011 75.6215 195.306 75.6215 195.306C75.6215 195.306 75.3129 195.394 73.2849 195.306Z" fill="url(#paint7_linear_117_3709)"/>
<path d="M73.2849 195.306C73.2849 195.306 72.8441 155.232 43.3946 152.63C13.9452 150.029 6.97959 180.757 12.0936 202.315C12.0936 202.315 12.4463 196.011 17.8688 191.691C23.2914 187.37 21.1753 181.419 21.3075 176.172C21.4398 170.926 53.5344 183.402 49.4344 155.452C49.4344 155.452 71.257 159.552 70.8602 195.35H73.2849V195.306Z" fill="url(#paint8_linear_117_3709)"/>
<path d="M75.6214 195.306C75.6214 195.306 75.1806 168.061 62.2634 131.337C62.2634 131.337 70.9483 113.438 60.8967 105.238C50.8451 97.038 34.401 95.6273 31.8881 85.8843C29.3752 76.1854 14.0333 71.4682 0.0580609 76.1854C0.0580609 76.1854 -0.779573 86.3692 10.5064 93.2907C18.6623 98.3165 23.2473 103.254 24.5699 116.039C26.2451 132.307 42.8656 147.825 60.8967 133.144C60.8967 133.144 72.7118 160.61 73.2849 195.262H75.6214V195.306Z" fill="url(#paint9_linear_117_3709)"/>
<path d="M77.6054 110.176C77.6054 110.176 73.0204 98.4488 84.3946 91.2187C95.7688 83.9886 105.909 88.5735 109.612 84.209C113.315 79.8445 129.803 85.8843 133.727 72.8789C133.727 72.8789 135.578 92.2327 112.654 101.226C89.729 110.22 77.6054 110.176 77.6054 110.176Z" fill="url(#paint10_linear_117_3709)"/>
<path d="M73.2849 195.306C73.2849 195.306 64.6881 132.748 75.6214 109.735C86.5547 86.722 130.244 100.653 133.727 72.835C133.727 72.835 135.931 89.3231 132.625 96.3328C129.318 103.342 123.851 100.521 121.868 107.531C119.884 114.54 90.5225 130.764 77.5612 110.176C77.5612 110.176 72.3591 119.787 70.9483 141.521C69.5375 163.211 74.5634 195.306 74.5634 195.306H73.2849Z" fill="url(#paint11_linear_117_3709)"/>
<path d="M0.0139935 76.1855C0.0139935 76.1855 -0.82364 86.3694 10.4624 93.2909C18.6183 98.3167 23.2032 103.254 24.5258 116.039C26.2011 132.307 42.8215 147.825 60.8527 133.145C60.8527 133.189 41.6753 92.2328 0.0139935 76.1855Z" fill="url(#paint12_linear_117_3709)"/>
<path d="M24.3494 301.905C24.3494 300.495 26.3773 299.04 30.4332 297.982L106.702 277.526C114.814 275.366 127.996 275.366 136.151 277.526L332.114 330.032C336.17 331.134 338.198 332.545 338.198 334C338.198 335.411 336.17 336.866 332.114 337.924L255.845 358.38C247.733 360.54 234.551 360.54 226.395 358.38L30.4773 305.873C26.3773 304.771 24.3494 303.36 24.3494 301.905Z" fill="url(#paint13_linear_117_3709)"/>
<path d="M13.3279 290.973C13.3279 292.383 15.3558 293.838 19.4117 294.94L215.374 347.447C223.486 349.607 236.667 349.607 244.823 347.447L321.092 326.991C325.148 325.889 327.176 324.478 327.176 323.067V331.444C327.176 332.854 325.148 334.309 321.092 335.367L244.823 355.823C236.712 357.983 223.53 357.983 215.374 355.823L19.4558 303.317C15.3999 302.215 13.372 300.804 13.372 299.349V290.973H13.3279Z" fill="url(#paint14_linear_117_3709)"/>
<path d="M13.3279 290.972C13.3279 289.562 15.3558 288.107 19.4117 287.049L95.6805 266.593C103.792 264.433 116.974 264.433 125.13 266.593L321.092 319.099C325.148 320.201 327.176 321.612 327.176 323.067C327.176 324.478 325.148 325.933 321.092 326.991L244.823 347.446C236.712 349.607 223.53 349.607 215.374 347.446L19.4558 294.94C15.3558 293.838 13.3279 292.427 13.3279 290.972Z" fill="url(#paint15_linear_117_3709)"/>
<path d="M320.74 323.067C320.74 324.125 319.196 325.227 316.155 326.021L241.164 346.124C235.08 347.755 225.161 347.755 219.077 346.124L24.3935 293.97C21.3516 293.133 19.8086 292.075 19.8086 291.017C19.8086 289.959 21.3516 288.856 24.3935 288.063L99.3838 267.96C105.468 266.329 115.387 266.329 121.471 267.96L316.155 320.113C319.241 320.907 320.74 322.009 320.74 323.067Z" fill="url(#paint16_linear_117_3709)"/>
<path d="M279.034 345.507C278.152 345.286 277.535 344.272 277.535 342.906C277.535 341.142 278.593 339.423 279.916 339.07L289.174 336.601C289.482 336.513 289.791 336.513 290.056 336.601C290.937 336.822 291.554 337.836 291.554 339.202C291.554 340.966 290.496 342.685 289.174 343.038L279.916 345.507C279.607 345.551 279.299 345.551 279.034 345.507Z" fill="url(#paint17_linear_117_3709)"/>
<path d="M257.608 349.077C257.3 348.989 257.079 348.636 257.079 348.195C257.079 347.578 257.432 347.005 257.873 346.873C257.961 346.829 258.093 346.829 258.181 346.873C258.49 346.961 258.711 347.314 258.711 347.755C258.711 348.372 258.358 348.945 257.917 349.077C257.829 349.077 257.697 349.077 257.608 349.077Z" fill="url(#paint18_linear_117_3709)"/>
<path d="M260.783 348.195C260.474 348.107 260.254 347.755 260.254 347.314C260.254 346.696 260.606 346.123 261.047 345.991C261.135 345.947 261.268 345.947 261.356 345.991C261.664 346.079 261.885 346.432 261.885 346.873C261.885 347.49 261.532 348.063 261.091 348.195C261.003 348.239 260.915 348.239 260.783 348.195Z" fill="url(#paint19_linear_117_3709)"/>
<path d="M264.001 347.358C263.692 347.27 263.472 346.917 263.472 346.476C263.472 345.859 263.825 345.286 264.265 345.154C264.354 345.11 264.486 345.11 264.574 345.154C264.883 345.242 265.103 345.595 265.103 346.035C265.103 346.653 264.75 347.226 264.309 347.358C264.177 347.358 264.089 347.358 264.001 347.358Z" fill="url(#paint20_linear_117_3709)"/>
<path d="M267.175 346.521C266.866 346.432 266.646 346.08 266.646 345.639C266.646 345.022 266.999 344.449 267.44 344.316C267.528 344.272 267.66 344.272 267.748 344.316C268.057 344.404 268.277 344.757 268.277 345.198C268.277 345.815 267.925 346.388 267.484 346.521C267.351 346.521 267.263 346.521 267.175 346.521Z" fill="url(#paint21_linear_117_3709)"/>
<path d="M299.931 338.188C299.622 338.1 299.402 337.747 299.402 337.306C299.402 336.689 299.755 336.116 300.195 335.984C300.284 335.94 300.416 335.94 300.504 335.984C300.813 336.072 301.033 336.425 301.033 336.865C301.033 337.483 300.68 338.056 300.239 338.188C300.151 338.232 300.019 338.232 299.931 338.188Z" fill="url(#paint22_linear_117_3709)"/>
<path d="M303.105 337.351C302.796 337.262 302.576 336.91 302.576 336.469C302.576 335.852 302.929 335.279 303.37 335.146C303.458 335.102 303.59 335.102 303.678 335.146C303.987 335.235 304.207 335.587 304.207 336.028C304.207 336.645 303.855 337.218 303.414 337.351C303.326 337.351 303.237 337.351 303.105 337.351Z" fill="url(#paint23_linear_117_3709)"/>
<path d="M306.323 336.469C306.015 336.381 305.794 336.028 305.794 335.587C305.794 334.97 306.147 334.397 306.588 334.265C306.676 334.22 306.808 334.22 306.896 334.265C307.205 334.353 307.425 334.705 307.425 335.146C307.425 335.763 307.073 336.337 306.632 336.469C306.5 336.513 306.412 336.513 306.323 336.469Z" fill="url(#paint24_linear_117_3709)"/>
<path d="M309.498 335.631C309.189 335.543 308.969 335.191 308.969 334.75C308.969 334.132 309.321 333.559 309.762 333.427C309.85 333.383 309.982 333.383 310.071 333.427C310.379 333.515 310.6 333.868 310.6 334.309C310.6 334.926 310.247 335.499 309.806 335.631C309.674 335.675 309.586 335.675 309.498 335.631Z" fill="url(#paint25_linear_117_3709)"/>
<path d="M113.58 273.25C111.948 272.809 110.758 270.913 110.758 268.356V82.9304C110.758 79.5799 112.742 76.3616 115.211 75.7003L191.171 55.3326C191.744 55.1563 192.317 55.2004 192.802 55.3326C194.433 55.7735 195.624 57.6692 195.624 60.2262V245.696C195.624 249.046 193.64 252.265 191.171 252.926L115.211 273.294C114.638 273.426 114.065 273.426 113.58 273.25Z" fill="url(#paint26_linear_117_3709)"/>
<path d="M188.702 292.559C188.702 292.648 188.57 292.736 188.349 292.78L119.752 311.164C119.267 311.296 118.473 311.296 117.988 311.164C117.724 311.12 117.635 311.031 117.635 310.943C117.635 310.855 117.768 310.767 117.988 310.723L186.586 292.339C187.071 292.207 187.864 292.207 188.349 292.339C188.57 292.427 188.702 292.471 188.702 292.559Z" fill="url(#paint27_linear_117_3709)"/>
<path d="M141.618 260.024C141.354 259.936 141.133 259.627 141.133 259.23C141.133 258.657 141.442 258.128 141.883 258.04L171.112 250.193C171.2 250.149 171.288 250.149 171.376 250.193C171.641 250.281 171.861 250.59 171.861 250.986C171.861 251.559 171.553 252.088 171.112 252.177L141.883 260.024C141.795 260.068 141.706 260.068 141.618 260.024Z" fill="url(#paint28_linear_117_3709)"/>
<path d="M119.355 203.726C118.297 203.462 117.547 202.227 117.547 200.596V108.633C117.547 106.473 118.826 104.401 120.413 103.96L185.043 86.634C185.396 86.5458 185.748 86.5458 186.101 86.634C187.159 86.8985 187.908 88.1329 187.908 89.7641V181.727C187.908 183.888 186.63 185.96 185.043 186.401L120.413 203.682C120.06 203.815 119.707 203.815 119.355 203.726Z" fill="url(#paint29_linear_117_3709)"/>
<path d="M122.926 204.652C121.868 204.388 121.118 203.153 121.118 201.522V109.559C121.118 107.398 122.397 105.326 123.984 104.886L188.614 87.5598C188.966 87.4716 189.319 87.4716 189.672 87.5598C190.73 87.8243 191.479 89.0587 191.479 90.6899V182.653C191.479 184.813 190.201 186.885 188.614 187.326L123.984 204.652C123.587 204.74 123.234 204.74 122.926 204.652Z" fill="url(#paint30_linear_117_3709)"/>
<path d="M131.126 232.911C128.921 232.338 127.378 229.825 127.378 226.43C127.378 222.022 130.024 217.701 133.242 216.82C133.991 216.599 134.741 216.599 135.402 216.776C137.606 217.349 139.149 219.862 139.149 223.256C139.149 227.665 136.504 231.985 133.286 232.867C132.492 233.087 131.787 233.087 131.126 232.911Z" fill="url(#paint31_linear_117_3709)"/>
<path d="M130.553 223.609C130.465 223.565 130.376 223.477 130.376 223.3C130.376 223.08 130.509 222.86 130.685 222.816L135.887 221.405C135.931 221.405 135.975 221.405 135.975 221.405C136.063 221.449 136.152 221.537 136.152 221.713C136.152 221.934 136.019 222.154 135.843 222.198L130.641 223.609C130.641 223.609 130.597 223.609 130.553 223.609Z" fill="url(#paint32_linear_117_3709)"/>
<path d="M130.553 225.99C130.465 225.946 130.376 225.858 130.376 225.681C130.376 225.461 130.509 225.24 130.685 225.196L135.887 223.786C135.931 223.786 135.975 223.786 135.975 223.786C136.063 223.83 136.152 223.918 136.152 224.094C136.152 224.315 136.019 224.535 135.843 224.579L130.641 225.99C130.641 225.99 130.597 225.99 130.553 225.99Z" fill="url(#paint33_linear_117_3709)"/>
<path d="M130.553 228.326C130.465 228.282 130.376 228.194 130.376 228.018C130.376 227.797 130.509 227.577 130.685 227.533L135.887 226.122C135.931 226.122 135.975 226.122 135.975 226.122C136.063 226.166 136.152 226.254 136.152 226.431C136.152 226.651 136.019 226.872 135.843 226.916L130.641 228.326C130.641 228.37 130.597 228.326 130.553 228.326Z" fill="url(#paint34_linear_117_3709)"/>
<path d="M153.345 230.486C150.127 229.605 147.878 225.99 147.878 221.008C147.878 214.483 151.758 208.179 156.519 206.9C157.621 206.592 158.724 206.592 159.693 206.856C162.912 207.738 165.16 211.353 165.16 216.335C165.16 222.859 161.281 229.164 156.519 230.442C155.373 230.751 154.315 230.751 153.345 230.486Z" fill="url(#paint35_linear_117_3709)"/>
<path d="M152.904 225.196C152.551 225.108 152.331 224.711 152.331 224.182C152.331 224.138 152.331 224.05 152.331 223.961C152.816 218.671 155.814 213.778 159.605 212.102C159.782 212.014 159.958 212.014 160.09 212.058C160.399 212.146 160.619 212.455 160.663 212.896C160.663 212.94 160.663 213.028 160.663 213.072V215.541C160.663 215.85 160.487 216.202 160.267 216.291C159.649 216.511 159.076 216.908 158.503 217.393C158.371 217.481 158.239 217.525 158.15 217.481C158.062 217.437 157.974 217.393 157.93 217.26L157.71 216.775C157.665 216.643 157.577 216.599 157.489 216.555C157.357 216.511 157.225 216.555 157.092 216.687L157.048 216.731C156.387 217.525 155.77 218.495 155.329 219.553C155.197 219.861 155.241 220.258 155.417 220.391C155.417 220.391 155.461 220.391 155.461 220.435L155.858 220.655C156.078 220.787 156.122 221.096 156.034 221.449C155.77 222.286 155.593 223.124 155.549 223.961C155.505 224.27 155.329 224.579 155.064 224.667L153.213 225.152C153.125 225.24 153.036 225.24 152.904 225.196Z" fill="url(#paint36_linear_117_3709)"/>
<path d="M177.592 220.479C175.388 219.906 173.845 217.393 173.845 213.998C173.845 209.59 176.49 205.269 179.709 204.388C180.458 204.167 181.207 204.167 181.869 204.344C184.073 204.917 185.616 207.43 185.616 210.824C185.616 215.233 182.971 219.553 179.753 220.435C178.959 220.655 178.254 220.655 177.592 220.479Z" fill="url(#paint37_linear_117_3709)"/>
<path d="M181.736 208.884L177.681 209.986C177.416 210.075 177.196 210.427 177.196 210.824V214.968C177.196 215.365 177.416 215.585 177.681 215.541L178.43 215.321V216.335C178.43 216.467 178.474 216.555 178.562 216.599C178.606 216.599 178.65 216.599 178.65 216.599C178.694 216.599 178.783 216.555 178.827 216.467L180.017 214.836L181.692 214.395C181.957 214.307 182.177 213.954 182.177 213.557V209.413C182.265 209.061 182.045 208.796 181.736 208.884ZM178.739 212.808C178.606 212.852 178.474 212.72 178.474 212.543C178.474 212.367 178.606 212.191 178.739 212.147C178.871 212.103 179.003 212.235 179.003 212.411C178.959 212.587 178.871 212.764 178.739 212.808ZM179.753 212.543C179.62 212.588 179.488 212.455 179.488 212.279C179.488 212.103 179.62 211.926 179.753 211.882C179.885 211.838 180.017 211.97 180.017 212.147C180.017 212.323 179.885 212.499 179.753 212.543ZM180.722 212.235C180.59 212.279 180.458 212.147 180.458 211.97C180.458 211.794 180.59 211.618 180.722 211.574C180.855 211.529 180.987 211.662 180.987 211.838C180.987 212.014 180.899 212.235 180.722 212.235Z" fill="url(#paint38_linear_117_3709)"/>
<path d="M161.236 120.359C160.84 120.271 160.575 119.83 160.575 119.213C160.575 118.42 161.06 117.67 161.633 117.538L185.66 111.101C185.792 111.057 185.925 111.057 186.057 111.101C186.454 111.19 186.718 111.63 186.718 112.248C186.718 113.041 186.233 113.791 185.66 113.923L161.633 120.359C161.501 120.404 161.369 120.359 161.236 120.359Z" fill="url(#paint39_linear_117_3709)"/>
<path d="M161.236 128.559C160.84 128.471 160.575 128.03 160.575 127.413C160.575 126.619 161.06 125.87 161.633 125.738L174.286 122.343C174.418 122.299 174.55 122.299 174.683 122.343C175.079 122.431 175.344 122.872 175.344 123.489C175.344 124.283 174.859 125.032 174.286 125.165L161.633 128.559C161.501 128.603 161.369 128.603 161.236 128.559Z" fill="url(#paint40_linear_117_3709)"/>
<path d="M138.047 143.725C133.947 142.623 131.038 137.95 131.038 131.557C131.038 123.225 136.019 115.113 142.103 113.482C143.514 113.085 144.925 113.085 146.159 113.438C150.259 114.54 153.169 119.213 153.169 125.606C153.169 133.938 148.187 142.05 142.103 143.681C140.648 144.078 139.282 144.078 138.047 143.725Z" stroke="url(#paint41_linear_117_3709)" stroke-width="6" stroke-miterlimit="10"/>
<path d="M130.994 131.558C130.994 123.226 135.975 115.114 142.059 113.483C143.47 113.086 144.881 113.086 146.115 113.438" stroke="url(#paint42_linear_117_3709)" stroke-width="6" stroke-miterlimit="10" stroke-linecap="round" stroke-linejoin="round"/>
<path d="M127.819 178.862C127.819 178.862 142.059 177.804 154.403 159.2C163.044 146.106 169.613 148.839 176.138 150.25C182.706 151.617 187.909 148.222 187.909 148.222" stroke="url(#paint43_linear_117_3709)" stroke-width="4" stroke-miterlimit="10" stroke-linecap="round" stroke-linejoin="round"/>
<path d="M127.819 184.725C127.819 184.725 137.827 184.725 145.277 167.929C150.48 156.202 156.475 152.278 167.497 156.334C181.119 161.36 174.947 142.756 187.909 142.535" stroke="url(#paint44_linear_117_3709)" stroke-width="4" stroke-miterlimit="10" stroke-linecap="round" stroke-linejoin="round"/>
<path d="M262.899 61.5489C273.876 58.5951 279.299 43.165 274.978 27.0296C270.658 10.8941 258.226 0.269375 247.248 3.17905L257.344 0.489805C268.321 -2.46396 280.709 8.24894 285.03 24.3403C289.35 40.4317 283.928 55.9059 272.95 58.8596L262.899 61.5489Z" fill="url(#paint45_linear_117_3709)"/>
<path d="M262.899 61.5491C251.921 64.5029 239.533 53.79 235.213 37.6986C230.892 21.6072 236.315 6.13302 247.292 3.17926C258.27 0.225497 270.658 10.9384 274.978 27.0298C279.299 43.1212 273.876 58.6394 262.899 61.5491Z" fill="url(#paint46_linear_117_3709)"/>
<path d="M260.65 75.3037C269.002 75.3037 275.772 73.4878 275.772 71.2478C275.772 69.0078 269.002 67.1919 260.65 67.1919C252.299 67.1919 245.529 69.0078 245.529 71.2478C245.529 73.4878 252.299 75.3037 260.65 75.3037Z" fill="url(#paint47_linear_117_3709)"/>
<path d="M255.007 46.7798C256.374 46.4271 257.035 44.5314 256.506 42.5475C255.977 40.5637 254.434 39.2411 253.112 39.5938L255.14 39.0647C256.506 38.7121 258.005 40.0346 258.534 42.0185C259.063 44.0024 258.402 45.8981 257.035 46.2508L255.007 46.7798Z" fill="url(#paint48_linear_117_3709)"/>
<path d="M254.992 46.7868C256.332 46.4276 256.99 44.535 256.461 42.5595C255.931 40.584 254.415 39.2737 253.075 39.6329C251.734 39.992 251.077 41.8847 251.606 43.8601C252.135 45.8356 253.651 47.1459 254.992 46.7868Z" fill="white"/>
<path d="M248.747 38.0066C248.923 37.9625 249.056 37.8743 249.144 37.742C249.849 36.8603 250.687 36.2872 251.613 36.0227L253.641 35.4937C252.715 35.7582 251.833 36.3313 251.172 37.213C251.04 37.3453 250.907 37.4775 250.775 37.4775L248.747 38.0066Z" fill="url(#paint49_linear_117_3709)"/>
<path d="M260.077 41.0486C260.21 41.0045 260.298 40.9604 260.386 40.8723C260.827 40.4314 260.871 39.5056 260.474 38.8002C258.843 35.8465 256.462 33.7303 253.993 33.069C252.891 32.7604 251.833 32.7604 250.819 33.025L252.847 32.4959C253.861 32.2314 254.919 32.2314 256.021 32.54C258.49 33.2013 260.871 35.2733 262.502 38.2712C262.899 38.9766 262.855 39.9465 262.414 40.3432C262.326 40.4314 262.193 40.5196 262.105 40.5196L260.077 41.0486Z" fill="url(#paint50_linear_117_3709)"/>
<path d="M260.077 41.0482C259.945 41.0923 259.813 41.0923 259.68 41.0482C259.372 40.9601 259.063 40.7396 258.843 40.3429C257.608 38.1386 255.845 36.5515 253.993 36.0665C253.156 35.8461 252.362 35.8461 251.613 36.0665C250.687 36.331 249.805 36.9042 249.144 37.7859C249.012 37.9181 248.879 38.0504 248.747 38.0504C248.394 38.1386 247.954 37.9622 247.601 37.4773C247.16 36.816 247.116 35.8461 247.513 35.3612C248.439 34.2149 249.585 33.4214 250.819 33.0687C251.833 32.8042 252.891 32.8042 253.993 33.1128C256.462 33.7741 258.843 35.8461 260.474 38.8439C260.871 39.5493 260.827 40.5192 260.386 40.916C260.342 40.9601 260.209 41.0042 260.077 41.0482Z" fill="white"/>
<path d="M245.044 31.9227C245.176 31.8786 245.308 31.7904 245.441 31.6582C246.675 30.2033 248.13 29.2334 249.717 28.8367L251.745 28.3076C250.158 28.7485 248.703 29.6743 247.469 31.1291C247.336 31.2614 247.204 31.3496 247.072 31.3936L245.044 31.9227Z" fill="url(#paint51_linear_117_3709)"/>
<path d="M263.824 36.9925C263.957 36.9484 264.089 36.9043 264.177 36.7721C264.618 36.3312 264.662 35.4054 264.221 34.6559C261.576 30.1151 257.873 26.8968 254.037 25.8828C252.274 25.3979 250.555 25.3979 248.967 25.8387L250.995 25.3097C252.582 24.8688 254.346 24.8688 256.065 25.3538C259.901 26.3678 263.604 29.586 266.249 34.1269C266.646 34.8323 266.646 35.7581 266.205 36.243C266.117 36.3312 265.985 36.4194 265.852 36.4635L263.824 36.9925Z" fill="url(#paint52_linear_117_3709)"/>
<path d="M263.824 36.9928C263.428 37.0809 262.943 36.8605 262.634 36.2874C260.386 32.4078 257.344 29.7627 254.037 28.8809C252.538 28.4842 251.084 28.4842 249.717 28.8369C248.13 29.2777 246.675 30.2035 245.441 31.6584C245.308 31.7906 245.176 31.8788 245.044 31.9229C244.912 31.967 244.779 31.967 244.647 31.9229C244.383 31.8347 244.118 31.6584 243.898 31.3057C243.457 30.6444 243.413 29.6745 243.853 29.1895C245.264 27.4702 247.028 26.368 248.967 25.839C250.555 25.3981 252.318 25.3981 254.037 25.8831C257.873 26.8971 261.576 30.1153 264.221 34.6562C264.618 35.3616 264.618 36.2874 264.177 36.7723C264.045 36.8605 263.957 36.9487 263.824 36.9928Z" fill="white"/>
<path d="M241.429 26.0595C241.561 26.0154 241.693 25.9272 241.826 25.795C243.545 23.767 245.617 22.4444 247.865 21.8713L249.893 21.3423C247.645 21.9595 245.617 23.2821 243.854 25.2659C243.721 25.3982 243.589 25.4864 243.457 25.5305L241.429 26.0595Z" fill="url(#paint53_linear_117_3709)"/>
<path d="M267.395 33.025C267.528 32.9809 267.66 32.9368 267.748 32.8046C268.189 32.3637 268.189 31.3938 267.792 30.6884C264.177 24.5164 259.284 20.3282 253.993 18.9175C251.569 18.2562 249.232 18.2562 247.028 18.8293L249.056 18.3003C251.26 17.7271 253.597 17.7271 256.021 18.3884C261.267 19.7992 266.161 23.9874 269.82 30.1594C270.217 30.8648 270.217 31.7906 269.776 32.2755C269.688 32.3637 269.556 32.4519 269.423 32.496L267.395 33.025Z" fill="url(#paint54_linear_117_3709)"/>
<path d="M267.395 33.0251C266.999 33.1133 266.514 32.8929 266.205 32.3638C262.987 26.8972 258.666 23.1939 253.993 21.9595C251.833 21.3864 249.761 21.3864 247.821 21.8714C245.573 22.4886 243.545 23.8111 241.781 25.795C241.649 25.9273 241.517 26.0154 241.385 26.0595C241.252 26.1036 241.12 26.1036 240.988 26.0595C240.723 25.9714 240.459 25.795 240.238 25.4423C239.798 24.7369 239.798 23.8111 240.194 23.3262C242.134 21.0337 244.471 19.5348 247.028 18.8735C249.232 18.3004 251.569 18.3004 253.993 18.9617C259.24 20.3724 264.133 24.5606 267.792 30.7326C268.189 31.438 268.189 32.3638 267.748 32.8488C267.66 32.9369 267.528 32.981 267.395 33.0251Z" fill="white"/>
<path d="M254.566 319.673C254.566 322.45 250.599 325.228 242.663 327.344C226.792 331.576 201.09 331.576 185.263 327.344C177.328 325.228 173.36 322.45 173.36 319.673C173.36 316.895 177.328 314.118 185.263 312.002C201.134 307.77 226.836 307.77 242.663 312.002C250.599 314.118 254.566 316.895 254.566 319.673Z" fill="url(#paint55_linear_117_3709)"/>
<path d="M246.366 298.776C246.366 298.776 245.573 308.431 247.072 312.619C248.791 317.468 244.382 320.863 239.313 319.496C235.169 318.394 231.465 315.837 224.147 312.619C216.873 309.401 216.476 303.978 219.871 302.92C222.824 301.994 237.152 308.166 235.213 298.952L246.366 298.776Z" fill="url(#paint56_linear_117_3709)"/>
<path d="M252.494 200.729C252.494 200.729 254.566 207.209 252.627 220.082C250.599 233.617 246.807 240.45 247.248 243.448C247.689 246.402 250.246 266.813 248.482 282.244C246.719 297.674 246.499 300.936 246.499 300.936C243.148 303.096 238.828 303.008 235.565 300.76L235.345 300.583C235.345 300.583 229.261 253.632 229.085 249.047C228.908 244.418 227.498 200.993 227.498 200.993L252.494 200.729Z" fill="url(#paint57_linear_117_3709)"/>
<path d="M209.819 307.725C209.819 307.725 209.114 313.677 210.039 318.659C211.098 324.302 208.805 326.109 206.116 326.153C197.739 326.33 186.453 324.963 180.149 323.376C176.27 322.406 177.195 316.851 183.412 316.278C195.932 315.176 198.533 307.064 198.533 307.064L209.819 307.725Z" fill="url(#paint58_linear_117_3709)"/>
<path d="M238.563 201.169L214.228 200.729C214.228 200.729 206.821 220.259 203.867 229.252C201.178 237.54 200.517 245.696 200.517 251.031C200.517 256.365 198.533 307.725 198.533 307.725C201.972 309.665 206.16 309.709 209.643 307.813L209.819 307.725C209.819 307.725 219.915 273.955 220.62 262.846C221.326 251.78 221.326 247.989 222.516 245.961C224.588 242.434 242.222 220.699 238.563 201.169Z" fill="url(#paint59_linear_117_3709)"/>
<path d="M246.234 316.631C244.162 318.835 238.475 317.998 234.816 315.397C231.157 312.84 224.676 311.12 220.796 308.034C218.284 306.006 218.46 304.331 218.901 303.449C216.652 305.169 217.666 309.798 224.147 312.619C231.421 315.837 235.168 318.394 239.313 319.497C244.03 320.775 248.174 317.954 247.38 313.633C247.292 314.691 247.028 315.793 246.234 316.631Z" fill="url(#paint60_linear_117_3709)"/>
<path d="M210.26 322.185C208.541 326.153 184.866 322.803 181.957 322.097C180.59 321.745 177.68 320.819 178.033 319.628C177.46 321.26 178.165 322.935 180.149 323.42C186.453 324.963 197.739 326.329 206.116 326.197C208.144 326.109 209.951 325.095 210.26 322.185Z" fill="url(#paint61_linear_117_3709)"/>
<path d="M256.462 173.66C256.462 173.66 258.49 190.765 257.344 198.216C256.153 205.666 247.424 206.812 245.264 200.817C243.104 194.821 241.605 172.866 241.605 172.866L256.462 173.66Z" fill="url(#paint62_linear_117_3709)"/>
<path d="M240.415 178.157C239.753 177.98 239.224 177.407 239.136 176.702C238.607 173.219 237.064 162.286 237.02 155.364C236.976 146.635 250.687 143.549 253.508 155.188C255.36 162.727 256.727 170.794 257.212 173.836C257.344 174.586 256.947 175.335 256.286 175.688C253.641 177.011 246.851 179.92 240.415 178.157Z" fill="url(#paint63_linear_117_3709)"/>
<path d="M237.285 143.813C237.285 143.813 234.507 138.964 234.992 134.952C235.345 131.954 240.503 124.327 234.419 116.524C229.526 110.22 214.316 111.146 213.302 120.756C212.42 129.221 212.376 130.896 211.759 132.924C211.318 134.423 212.552 134.379 213.258 134.379C213.434 135.305 213.875 138.303 215.859 139.978C218.636 142.314 221.899 140.375 221.414 146.723L237.285 143.813Z" fill="url(#paint64_linear_117_3709)"/>
<path d="M215.991 121.462C215.991 121.462 210.48 121.638 210.128 116.921C209.687 111.41 216.079 107.972 226.087 109.779C232.391 110.925 235.345 113.703 235.609 117.891C235.609 117.891 239.224 120.492 238.607 128.383C238.122 134.203 235.124 138.7 227.938 138.655C221.899 138.655 220.885 133.718 220.885 133.718C220.885 133.718 225.117 132.131 224.059 128.428C223.089 125.033 218.945 126.179 219.386 129.75C219.386 129.75 219.342 128.736 216.608 126.752C215.198 125.694 214.801 123.005 215.991 121.462Z" fill="url(#paint65_linear_117_3709)"/>
<path d="M215.771 148.575C215.771 148.575 216.52 147.252 219.121 144.916C222.868 141.565 234.199 140.728 238.563 142.844C241.164 144.078 243.809 147.825 243.809 147.825L215.771 148.575Z" fill="url(#paint66_linear_117_3709)"/>
<path d="M244.03 145.842C233.846 142.976 225.205 144.299 218.592 146.723C215.418 147.914 212.729 149.369 210.569 150.735C207.042 152.984 205.543 157.436 206.998 161.36C208.541 165.592 210.48 171.103 211.318 174.586C212.685 180.273 210.701 203.374 210.26 207.827C210.172 208.091 210.172 208.356 210.172 208.576C210.392 210.119 212.817 211.354 217.358 211.927C226.484 213.029 240.767 211.045 249.232 207.474C253.464 205.666 255.448 203.815 255.228 202.272C255.228 202.14 255.184 202.007 255.139 201.875C254.699 200.332 253.023 194.16 252.318 189.707C249.981 175.556 252.097 171.852 253.332 160.258C254.302 151.397 250.599 147.693 244.03 145.842Z" fill="url(#paint67_linear_117_3709)"/>
<path d="M202.148 194.909C196.241 191.735 173.801 172.117 169.392 170.882C164.94 169.648 163.661 169.119 162.823 168.369C161.986 167.62 162.118 166.518 162.956 166.077C162.956 166.077 162.074 165.063 163.176 164.137C163.176 164.137 162.868 163.167 163.441 162.506C164.014 161.801 164.763 161.889 164.763 161.889C164.763 161.889 160.663 158.803 159.87 158.142C158.371 156.951 159.473 154.791 161.854 156.202C164.234 157.657 172.787 162.33 173.713 163.608C174.639 164.887 176.578 166.606 179.003 167.708C181.604 168.898 202.942 178.906 207.835 181.904C218.019 188.076 209.202 198.701 202.148 194.909Z" fill="url(#paint68_linear_117_3709)"/>
<path d="M201.531 175.247C201.531 175.247 200.473 179.038 198.489 187.062C196.241 196.011 210.436 200.728 213.566 188.516C216.696 176.261 216.344 176.966 216.344 176.966L201.531 175.247Z" fill="url(#paint69_linear_117_3709)"/>
<path d="M199.988 177.539C199.415 177.054 199.238 176.305 199.459 175.643C200.517 172.249 203.911 161.845 206.513 155.408C210.216 146.326 225.205 150.514 222.868 162.241C221.325 170 218.239 178.024 217.137 180.802C216.873 181.463 216.256 181.904 215.55 181.904C212.685 182.036 205.19 181.904 199.988 177.539Z" fill="url(#paint70_linear_117_3709)"/>
<path d="M67.0688 69.9255C65.614 69.5287 64.6 67.8975 64.6 65.605V42.4599C64.6 39.5061 66.3634 36.6405 68.5236 36.0674L143.822 15.876C144.307 15.7438 144.792 15.7438 145.277 15.876C146.732 16.2728 147.746 17.904 147.746 20.1965V43.3416C147.746 46.2954 145.983 49.161 143.822 49.7341L68.4795 69.9255C67.9946 70.0136 67.5097 70.0136 67.0688 69.9255Z" fill="url(#paint71_linear_117_3709)"/>
<path d="M69.3172 66.0458C68.7441 65.9135 68.3473 65.2523 68.3473 64.4146V42.3716C68.3473 41.2254 69.0086 40.1232 69.8462 39.9028L86.0258 35.5824C86.2021 35.5383 86.4225 35.5383 86.5989 35.5824C87.172 35.7146 87.5688 36.3759 87.5688 37.2136V59.2566C87.5688 60.4028 86.9075 61.5049 86.0699 61.7254L69.8903 66.0458C69.6699 66.0899 69.4935 66.0899 69.3172 66.0458Z" fill="url(#paint72_linear_117_3709)"/>
<path d="M80.4268 53.6575C80.2064 53.6135 79.986 53.5694 79.7655 53.5253C80.9559 52.335 81.7494 50.4393 81.7494 48.4995C81.7494 46.3393 80.7795 44.7522 79.3688 44.3995C78.9279 44.2672 78.487 44.2672 78.0021 44.3995C75.9301 44.9726 74.2548 47.7059 74.2548 50.5274C74.2548 52.4672 75.0483 53.9661 76.2387 54.4952C73.4172 56.3027 71.301 60.4027 71.301 64.635C71.301 64.9876 71.301 65.3844 71.3451 65.7371L84.615 62.1661C84.6591 61.8134 84.6591 61.4167 84.6591 61.064C84.6591 57.1403 82.8956 54.3188 80.4268 53.6575Z" fill="white"/>
<path d="M96.915 42.8124C96.6945 42.7684 96.5182 42.5038 96.5182 42.1511C96.5182 41.7103 96.7827 41.2694 97.1354 41.1372L141.001 29.3662C141.089 29.3662 141.177 29.3662 141.221 29.3662C141.442 29.4103 141.618 29.6748 141.618 30.0275C141.618 30.4684 141.354 30.9092 141.001 31.0415L97.1354 42.8124C97.0913 42.8124 97.0031 42.8124 96.915 42.8124Z" fill="url(#paint73_linear_117_3709)"/>
<path d="M96.915 50.7035C96.6945 50.6594 96.5182 50.3949 96.5182 50.0422C96.5182 49.6013 96.7827 49.1605 97.1354 49.0282L120.986 42.6357C121.074 42.6357 121.162 42.6357 121.206 42.6357C121.427 42.6798 121.603 42.9443 121.603 43.297C121.603 43.7379 121.339 44.1788 120.986 44.311L97.1795 50.7035C97.0913 50.7035 97.0031 50.7035 96.915 50.7035Z" fill="url(#paint74_linear_117_3709)"/>
</g>
<defs>
<linearGradient id="paint0_linear_117_3709" x1="226.709" y1="284.038" x2="226.709" y2="-140.369" gradientUnits="userSpaceOnUse">
<stop stop-color="white"/>
<stop offset="1" stop-color="#AEBDDF"/>
</linearGradient>
<linearGradient id="paint1_linear_117_3709" x1="306.767" y1="286.108" x2="306.767" y2="64.4231" gradientUnits="userSpaceOnUse">
<stop stop-color="white"/>
<stop offset="1" stop-color="#AEBDDF"/>
</linearGradient>
<linearGradient id="paint2_linear_117_3709" x1="258.473" y1="102.278" x2="258.473" y2="1.15725" gradientUnits="userSpaceOnUse">
<stop stop-color="white"/>
<stop offset="1" stop-color="#AEBDDF"/>
</linearGradient>
<linearGradient id="paint3_linear_117_3709" x1="110.552" y1="271.685" x2="86.1922" y2="246.174" gradientUnits="userSpaceOnUse">
<stop stop-color="white"/>
<stop offset="1" stop-color="#AEBDDF"/>
</linearGradient>
<linearGradient id="paint4_linear_117_3709" x1="41.3933" y1="218.86" x2="129.499" y2="216.082" gradientUnits="userSpaceOnUse">
<stop stop-color="white"/>
<stop offset="1" stop-color="#AEBDDF"/>
</linearGradient>
<linearGradient id="paint5_linear_117_3709" x1="94.2315" y1="188.199" x2="32.1136" y2="188.199" gradientUnits="userSpaceOnUse">
<stop stop-color="#ACBDDE"/>
<stop offset="1" stop-color="#2E405C"/>
</linearGradient>
<linearGradient id="paint6_linear_117_3709" x1="73.3242" y1="163.735" x2="73.3242" y2="194.533" gradientUnits="userSpaceOnUse">
<stop stop-color="#ACBDDE"/>
<stop offset="1" stop-color="#2E405C"/>
</linearGradient>
<linearGradient id="paint7_linear_117_3709" x1="142.647" y1="209.641" x2="70.5976" y2="138.578" gradientUnits="userSpaceOnUse">
<stop stop-color="white"/>
<stop offset="1" stop-color="#AEBDDF"/>
</linearGradient>
<linearGradient id="paint8_linear_117_3709" x1="25.5529" y1="142.454" x2="38.8771" y2="182.92" gradientUnits="userSpaceOnUse">
<stop stop-color="white"/>
<stop offset="1" stop-color="#AEBDDF"/>
</linearGradient>
<linearGradient id="paint9_linear_117_3709" x1="102.734" y1="86.0063" x2="-8.46604" y2="171.216" gradientUnits="userSpaceOnUse">
<stop stop-color="white"/>
<stop offset="1" stop-color="#AEBDDF"/>
</linearGradient>
<linearGradient id="paint10_linear_117_3709" x1="109.799" y1="44.1667" x2="103.877" y2="102.727" gradientUnits="userSpaceOnUse">
<stop stop-color="white"/>
<stop offset="1" stop-color="#AEBDDF"/>
</linearGradient>
<linearGradient id="paint11_linear_117_3709" x1="163.536" y1="-6.10739" x2="73.3175" y2="159.643" gradientUnits="userSpaceOnUse">
<stop stop-color="white"/>
<stop offset="1" stop-color="#AEBDDF"/>
</linearGradient>
<linearGradient id="paint12_linear_117_3709" x1="9.54988" y1="139.846" x2="42.0106" y2="85.2328" gradientUnits="userSpaceOnUse">
<stop stop-color="white"/>
<stop offset="1" stop-color="#AEBDDF"/>
</linearGradient>
<linearGradient id="paint13_linear_117_3709" x1="181.308" y1="386.566" x2="181.308" y2="267.458" gradientUnits="userSpaceOnUse">
<stop stop-color="white"/>
<stop offset="1" stop-color="#AEBDDF"/>
</linearGradient>
<linearGradient id="paint14_linear_117_3709" x1="170.286" y1="375.634" x2="170.286" y2="337.708" gradientUnits="userSpaceOnUse">
<stop stop-color="white"/>
<stop offset="1" stop-color="#AEBDDF"/>
</linearGradient>
<linearGradient id="paint15_linear_117_3709" x1="168.885" y1="332.053" x2="173.664" y2="246.721" gradientUnits="userSpaceOnUse">
<stop stop-color="white"/>
<stop offset="1" stop-color="#AEBDDF"/>
</linearGradient>
<linearGradient id="paint16_linear_117_3709" x1="-21.1054" y1="307.026" x2="342.657" y2="307.026" gradientUnits="userSpaceOnUse">
<stop stop-color="#ACBDDE"/>
<stop offset="1" stop-color="#2E405C"/>
</linearGradient>
<linearGradient id="paint17_linear_117_3709" x1="292.515" y1="290.544" x2="282.616" y2="353.121" gradientUnits="userSpaceOnUse">
<stop stop-color="#ACBDDE"/>
<stop offset="1" stop-color="#2E405C"/>
</linearGradient>
<linearGradient id="paint18_linear_117_3709" x1="267.512" y1="287.267" x2="257.614" y2="349.844" gradientUnits="userSpaceOnUse">
<stop stop-color="#ACBDDE"/>
<stop offset="1" stop-color="#2E405C"/>
</linearGradient>
<linearGradient id="paint19_linear_117_3709" x1="270.489" y1="287.738" x2="260.59" y2="350.315" gradientUnits="userSpaceOnUse">
<stop stop-color="#ACBDDE"/>
<stop offset="1" stop-color="#2E405C"/>
</linearGradient>
<linearGradient id="paint20_linear_117_3709" x1="273.465" y1="288.209" x2="263.567" y2="350.786" gradientUnits="userSpaceOnUse">
<stop stop-color="#ACBDDE"/>
<stop offset="1" stop-color="#2E405C"/>
</linearGradient>
<linearGradient id="paint21_linear_117_3709" x1="276.442" y1="288.68" x2="266.544" y2="351.257" gradientUnits="userSpaceOnUse">
<stop stop-color="#ACBDDE"/>
<stop offset="1" stop-color="#2E405C"/>
</linearGradient>
<linearGradient id="paint22_linear_117_3709" x1="307.126" y1="293.534" x2="297.228" y2="356.111" gradientUnits="userSpaceOnUse">
<stop stop-color="#ACBDDE"/>
<stop offset="1" stop-color="#2E405C"/>
</linearGradient>
<linearGradient id="paint23_linear_117_3709" x1="310.103" y1="294.005" x2="300.205" y2="356.582" gradientUnits="userSpaceOnUse">
<stop stop-color="#ACBDDE"/>
<stop offset="1" stop-color="#2E405C"/>
</linearGradient>
<linearGradient id="paint24_linear_117_3709" x1="313.08" y1="294.475" x2="303.181" y2="357.053" gradientUnits="userSpaceOnUse">
<stop stop-color="#ACBDDE"/>
<stop offset="1" stop-color="#2E405C"/>
</linearGradient>
<linearGradient id="paint25_linear_117_3709" x1="316.056" y1="294.947" x2="306.158" y2="357.524" gradientUnits="userSpaceOnUse">
<stop stop-color="#ACBDDE"/>
<stop offset="1" stop-color="#2E405C"/>
</linearGradient>
<linearGradient id="paint26_linear_117_3709" x1="153.165" y1="-11.6835" x2="153.165" y2="302.434" gradientUnits="userSpaceOnUse">
<stop stop-color="#79D985" stop-opacity="0.2"/>
<stop offset="1" stop-color="#027A71"/>
</linearGradient>
<linearGradient id="paint27_linear_117_3709" x1="105.861" y1="238.693" x2="153.517" y2="302.234" gradientUnits="userSpaceOnUse">
<stop stop-color="#ACBDDE"/>
<stop offset="1" stop-color="#2E405C"/>
</linearGradient>
<linearGradient id="paint28_linear_117_3709" x1="149.864" y1="239.62" x2="170.431" y2="287.61" gradientUnits="userSpaceOnUse">
<stop stop-color="white"/>
<stop offset="1" stop-color="#AEBDDF"/>
</linearGradient>
<linearGradient id="paint29_linear_117_3709" x1="152.743" y1="-6.50792" x2="152.743" y2="214.995" gradientUnits="userSpaceOnUse">
<stop stop-color="#79D985" stop-opacity="0.2"/>
<stop offset="1" stop-color="#027A71"/>
</linearGradient>
<linearGradient id="paint30_linear_117_3709" x1="156.3" y1="123.027" x2="156.3" y2="305.096" gradientUnits="userSpaceOnUse">
<stop stop-color="white"/>
<stop offset="1" stop-color="#AEBDDF"/>
</linearGradient>
<linearGradient id="paint31_linear_117_3709" x1="133.269" y1="206.902" x2="133.269" y2="253.314" gradientUnits="userSpaceOnUse">
<stop stop-color="white"/>
<stop offset="1" stop-color="#AEBDDF"/>
</linearGradient>
<linearGradient id="paint32_linear_117_3709" x1="133.27" y1="212.35" x2="133.27" y2="234.341" gradientUnits="userSpaceOnUse">
<stop stop-color="#ACBDDE"/>
<stop offset="1" stop-color="#2E405C"/>
</linearGradient>
<linearGradient id="paint33_linear_117_3709" x1="133.27" y1="212.35" x2="133.27" y2="234.341" gradientUnits="userSpaceOnUse">
<stop stop-color="#ACBDDE"/>
<stop offset="1" stop-color="#2E405C"/>
</linearGradient>
<linearGradient id="paint34_linear_117_3709" x1="133.27" y1="212.35" x2="133.27" y2="234.341" gradientUnits="userSpaceOnUse">
<stop stop-color="#ACBDDE"/>
<stop offset="1" stop-color="#2E405C"/>
</linearGradient>
<linearGradient id="paint35_linear_117_3709" x1="156.502" y1="206.902" x2="156.502" y2="253.314" gradientUnits="userSpaceOnUse">
<stop stop-color="white"/>
<stop offset="1" stop-color="#AEBDDF"/>
</linearGradient>
<linearGradient id="paint36_linear_117_3709" x1="156.502" y1="198.952" x2="156.502" y2="225.736" gradientUnits="userSpaceOnUse">
<stop stop-color="#FFEFA4"/>
<stop offset="1" stop-color="#FE8F01"/>
</linearGradient>
<linearGradient id="paint37_linear_117_3709" x1="179.735" y1="206.902" x2="179.735" y2="253.314" gradientUnits="userSpaceOnUse">
<stop stop-color="white"/>
<stop offset="1" stop-color="#AEBDDF"/>
</linearGradient>
<linearGradient id="paint38_linear_117_3709" x1="179.735" y1="195.674" x2="179.735" y2="227.428" gradientUnits="userSpaceOnUse">
<stop stop-color="#ACBDDE"/>
<stop offset="1" stop-color="#2E405C"/>
</linearGradient>
<linearGradient id="paint39_linear_117_3709" x1="208.679" y1="115.713" x2="136.569" y2="115.713" gradientUnits="userSpaceOnUse">
<stop stop-color="white"/>
<stop offset="1" stop-color="#AEBDDF"/>
</linearGradient>
<linearGradient id="paint40_linear_117_3709" x1="208.679" y1="125.448" x2="136.569" y2="125.448" gradientUnits="userSpaceOnUse">
<stop stop-color="white"/>
<stop offset="1" stop-color="#AEBDDF"/>
</linearGradient>
<linearGradient id="paint41_linear_117_3709" x1="129.683" y1="128.582" x2="154.488" y2="128.582" gradientUnits="userSpaceOnUse">
<stop stop-color="#DFE5F2"/>
<stop offset="1" stop-color="#AEBDDF"/>
</linearGradient>
<linearGradient id="paint42_linear_117_3709" x1="129.683" y1="122.373" x2="147.464" y2="122.373" gradientUnits="userSpaceOnUse">
<stop stop-color="#FFCC69"/>
<stop offset="1" stop-color="#FE8F01"/>
</linearGradient>
<linearGradient id="paint43_linear_117_3709" x1="126.947" y1="163.551" x2="188.816" y2="163.551" gradientUnits="userSpaceOnUse">
<stop stop-color="#79D985"/>
<stop offset="1" stop-color="#027A71"/>
</linearGradient>
<linearGradient id="paint44_linear_117_3709" x1="188.816" y1="163.65" x2="126.947" y2="163.65" gradientUnits="userSpaceOnUse">
<stop stop-color="#FFEFA4"/>
<stop offset="1" stop-color="#FE8F01"/>
</linearGradient>
<linearGradient id="paint45_linear_117_3709" x1="266.903" y1="-15.1336" x2="266.903" y2="63.8829" gradientUnits="userSpaceOnUse">
<stop stop-color="#FFEFA4"/>
<stop offset="1" stop-color="#FE8F01"/>
</linearGradient>
<linearGradient id="paint46_linear_117_3709" x1="255.086" y1="3.84275" x2="255.086" y2="112.397" gradientUnits="userSpaceOnUse">
<stop stop-color="#FFEFA4"/>
<stop offset="1" stop-color="#FE8F01"/>
</linearGradient>
<linearGradient id="paint47_linear_117_3709" x1="187.662" y1="71.2311" x2="290.133" y2="71.2311" gradientUnits="userSpaceOnUse">
<stop stop-color="white"/>
<stop offset="1" stop-color="#AEBDDF"/>
</linearGradient>
<linearGradient id="paint48_linear_117_3709" x1="258.005" y1="31.005" x2="254.971" y2="46.292" gradientUnits="userSpaceOnUse">
<stop stop-color="#FFEFA4"/>
<stop offset="1" stop-color="#FE8F01"/>
</linearGradient>
<linearGradient id="paint49_linear_117_3709" x1="260.325" y1="12.4962" x2="249.823" y2="40.5029" gradientUnits="userSpaceOnUse">
<stop stop-color="#FFEFA4"/>
<stop offset="1" stop-color="#FE8F01"/>
</linearGradient>
<linearGradient id="paint50_linear_117_3709" x1="265.113" y1="14.2918" x2="254.611" y2="42.2985" gradientUnits="userSpaceOnUse">
<stop stop-color="#FFEFA4"/>
<stop offset="1" stop-color="#FE8F01"/>
</linearGradient>
<linearGradient id="paint51_linear_117_3709" x1="255.17" y1="1.9687" x2="247.118" y2="35.4601" gradientUnits="userSpaceOnUse">
<stop stop-color="#FFEFA4"/>
<stop offset="1" stop-color="#FE8F01"/>
</linearGradient>
<linearGradient id="paint52_linear_117_3709" x1="264.125" y1="4.12176" x2="256.073" y2="37.6131" gradientUnits="userSpaceOnUse">
<stop stop-color="#FFEFA4"/>
<stop offset="1" stop-color="#FE8F01"/>
</linearGradient>
<linearGradient id="paint53_linear_117_3709" x1="249.755" y1="-4.9669" x2="244.504" y2="31.9086" gradientUnits="userSpaceOnUse">
<stop stop-color="#FFEFA4"/>
<stop offset="1" stop-color="#FE8F01"/>
</linearGradient>
<linearGradient id="paint54_linear_117_3709" x1="262.634" y1="-3.13298" x2="257.383" y2="33.7426" gradientUnits="userSpaceOnUse">
<stop stop-color="#FFEFA4"/>
<stop offset="1" stop-color="#FE8F01"/>
</linearGradient>
<linearGradient id="paint55_linear_117_3709" x1="167.471" y1="219.554" x2="208.767" y2="308.474" gradientUnits="userSpaceOnUse">
<stop stop-color="#ACBDDE"/>
<stop offset="1" stop-color="#2E405C"/>
</linearGradient>
<linearGradient id="paint56_linear_117_3709" x1="233.499" y1="290.503" x2="231.64" y2="332.205" gradientUnits="userSpaceOnUse">
<stop stop-color="white"/>
<stop offset="1" stop-color="#AEBDDF"/>
</linearGradient>
<linearGradient id="paint57_linear_117_3709" x1="240.445" y1="344.756" x2="240.445" y2="223.247" gradientUnits="userSpaceOnUse">
<stop stop-color="#ACBDDE"/>
<stop offset="1" stop-color="#2E405C"/>
</linearGradient>
<linearGradient id="paint58_linear_117_3709" x1="195.621" y1="304.38" x2="192.329" y2="340.339" gradientUnits="userSpaceOnUse">
<stop stop-color="white"/>
<stop offset="1" stop-color="#AEBDDF"/>
</linearGradient>
<linearGradient id="paint59_linear_117_3709" x1="218.804" y1="345.344" x2="218.804" y2="223.339" gradientUnits="userSpaceOnUse">
<stop stop-color="#ACBDDE"/>
<stop offset="1" stop-color="#2E405C"/>
</linearGradient>
<linearGradient id="paint60_linear_117_3709" x1="237.045" y1="261.575" x2="232.672" y2="309.679" gradientUnits="userSpaceOnUse">
<stop stop-color="white"/>
<stop offset="1" stop-color="#AEBDDF"/>
</linearGradient>
<linearGradient id="paint61_linear_117_3709" x1="195.466" y1="305.971" x2="193.972" y2="322.401" gradientUnits="userSpaceOnUse">
<stop stop-color="white"/>
<stop offset="1" stop-color="#AEBDDF"/>
</linearGradient>
<linearGradient id="paint62_linear_117_3709" x1="253.481" y1="221.313" x2="248.501" y2="167.625" gradientUnits="userSpaceOnUse">
<stop stop-color="#FFD2BB"/>
<stop offset="1" stop-color="#FF6B5A"/>
</linearGradient>
<linearGradient id="paint63_linear_117_3709" x1="247.135" y1="154.655" x2="247.135" y2="266.045" gradientUnits="userSpaceOnUse">
<stop stop-color="white"/>
<stop offset="1" stop-color="#AEBDDF"/>
</linearGradient>
<linearGradient id="paint64_linear_117_3709" x1="219.471" y1="104.635" x2="230.406" y2="155.928" gradientUnits="userSpaceOnUse">
<stop stop-color="#FFD2BB"/>
<stop offset="1" stop-color="#FF6B5A"/>
</linearGradient>
<linearGradient id="paint65_linear_117_3709" x1="202.872" y1="79.3883" x2="231.193" y2="132.839" gradientUnits="userSpaceOnUse">
<stop stop-color="#ACBDDE"/>
<stop offset="1" stop-color="#2E405C"/>
</linearGradient>
<linearGradient id="paint66_linear_117_3709" x1="229.316" y1="131.536" x2="230.272" y2="164.727" gradientUnits="userSpaceOnUse">
<stop stop-color="#ACBDDE"/>
<stop offset="1" stop-color="#2E405C"/>
</linearGradient>
<linearGradient id="paint67_linear_117_3709" x1="230.892" y1="154.655" x2="230.892" y2="266.045" gradientUnits="userSpaceOnUse">
<stop stop-color="white"/>
<stop offset="1" stop-color="#AEBDDF"/>
</linearGradient>
<linearGradient id="paint68_linear_117_3709" x1="151.083" y1="149.6" x2="231.591" y2="209.513" gradientUnits="userSpaceOnUse">
<stop stop-color="#FFD2BB"/>
<stop offset="1" stop-color="#FF6B5A"/>
</linearGradient>
<linearGradient id="paint69_linear_117_3709" x1="141.749" y1="167.614" x2="238.543" y2="194.112" gradientUnits="userSpaceOnUse">
<stop stop-color="#FFD2BB"/>
<stop offset="1" stop-color="#FF6B5A"/>
</linearGradient>
<linearGradient id="paint70_linear_117_3709" x1="211.228" y1="154.655" x2="211.228" y2="266.045" gradientUnits="userSpaceOnUse">
<stop stop-color="white"/>
<stop offset="1" stop-color="#AEBDDF"/>
</linearGradient>
<linearGradient id="paint71_linear_117_3709" x1="-48.3011" y1="42.8924" x2="347.004" y2="42.8924" gradientUnits="userSpaceOnUse">
<stop stop-color="#ACBDDE"/>
<stop offset="1" stop-color="#2E405C"/>
</linearGradient>
<linearGradient id="paint72_linear_117_3709" x1="56.3937" y1="24.8413" x2="98.4989" y2="75.5644" gradientUnits="userSpaceOnUse">
<stop stop-color="#FFEFA4"/>
<stop offset="1" stop-color="#FE8F01"/>
</linearGradient>
<linearGradient id="paint73_linear_117_3709" x1="89.8632" y1="43.3403" x2="151.728" y2="28.0126" gradientUnits="userSpaceOnUse">
<stop stop-color="white"/>
<stop offset="1" stop-color="#AEBDDF"/>
</linearGradient>
<linearGradient id="paint74_linear_117_3709" x1="91.7516" y1="50.962" x2="153.617" y2="35.6342" gradientUnits="userSpaceOnUse">
<stop stop-color="white"/>
<stop offset="1" stop-color="#AEBDDF"/>
</linearGradient>
<clipPath id="clip0_117_3709">
<rect width="338.55" height="360" fill="white"/>
</clipPath>
</defs>
</svg>
