<svg width="286" height="354" viewBox="0 0 286 354" fill="none" xmlns="http://www.w3.org/2000/svg">
<g clip-path="url(#clip0_117_3882)">
<path d="M57.4062 174.089L267.266 230.331V276.035L57.4062 219.793V174.089Z" fill="url(#paint0_linear_117_3882)"/>
<path d="M238.144 222.55L228.814 225.043L223.073 223.532L232.44 221.001L238.144 222.55Z" fill="url(#paint1_linear_117_3882)"/>
<path d="M228.814 225.044L261.638 261.002L255.934 259.454L223.073 223.533L228.814 225.044Z" fill="url(#paint2_linear_117_3882)"/>
<path d="M238.144 222.55L261.638 248.273V261.002L228.814 225.043L238.144 222.55Z" fill="url(#paint3_linear_117_3882)"/>
<path d="M79.2385 179.68L69.9088 182.172L64.2053 180.624L73.5349 178.131L79.2385 179.68Z" fill="url(#paint4_linear_117_3882)"/>
<path d="M69.9088 182.173L102.732 218.094L97.0289 216.583L64.2053 180.624L69.9088 182.173Z" fill="url(#paint5_linear_117_3882)"/>
<path d="M79.2385 179.68L102.733 205.364V218.093L69.9089 182.173L79.2385 179.68Z" fill="url(#paint6_linear_117_3882)"/>
<path d="M23.865 182.815L233.724 239.019V243.854L23.865 187.612V182.815Z" fill="url(#paint7_linear_117_3882)"/>
<path d="M233.724 239.019L267.266 230.029V234.864L233.724 243.854V239.019Z" fill="url(#paint8_linear_117_3882)"/>
<path d="M23.865 182.815L57.4062 173.825L267.266 230.029L233.724 239.019L23.865 182.815Z" fill="url(#paint9_linear_117_3882)"/>
<path d="M238.673 331.786C238.673 330.54 240.486 329.256 244.036 328.311C251.213 326.385 262.847 326.385 270.023 328.311C273.612 329.256 275.387 330.54 275.387 331.786C275.387 333.033 273.574 334.317 270.023 335.261C262.847 337.188 251.213 337.188 244.036 335.261C240.448 334.317 238.673 333.033 238.673 331.786Z" fill="url(#paint10_linear_117_3882)"/>
<path d="M238.673 303.458C238.673 304.402 240.033 305.384 242.79 306.102C248.267 307.575 257.143 307.575 262.62 306.102C265.377 305.384 266.737 304.402 266.737 303.458V331.825C266.737 332.769 265.377 333.751 262.62 334.469C257.143 335.942 248.267 335.942 242.79 334.469C240.033 333.751 238.673 332.769 238.673 331.825V303.458Z" fill="url(#paint11_linear_117_3882)"/>
<path d="M238.673 303.458C238.673 302.514 240.033 301.531 242.79 300.814C248.267 299.341 257.143 299.341 262.62 300.814C265.377 301.531 266.737 302.514 266.737 303.458C266.737 304.402 265.377 305.384 262.62 306.102C257.143 307.575 248.267 307.575 242.79 306.102C240.033 305.384 238.673 304.402 238.673 303.458Z" fill="url(#paint12_linear_117_3882)"/>
<path d="M262.62 304.893C257.143 303.42 248.267 303.42 242.79 304.893C242.072 305.082 241.468 305.308 240.939 305.497C241.468 305.724 242.072 305.913 242.79 306.102C248.267 307.575 257.143 307.575 262.62 306.102C263.338 305.913 263.942 305.686 264.471 305.497C263.942 305.271 263.338 305.082 262.62 304.893Z" fill="url(#paint13_linear_117_3882)"/>
<path d="M252.686 307.235C252.686 307.235 253.706 286.234 259.56 276.791C266.624 265.384 281.695 271.881 281.166 282.457C280.637 293.033 279.919 299.907 282.223 301.607C282.223 301.607 272.932 294.884 268.852 287.367C264.811 279.85 265.075 272.221 271.081 271.654C271.081 271.654 265.226 269.274 260.278 277.471C255.368 285.667 253.932 307.235 253.932 307.235C253.932 307.235 253.744 307.31 252.686 307.235Z" fill="url(#paint14_linear_117_3882)"/>
<path d="M252.686 307.235C252.686 307.235 252.459 285.819 236.709 284.421C220.958 283.023 217.256 299.454 219.976 310.974C219.976 310.974 220.164 307.613 223.073 305.309C225.981 303.005 224.848 299.832 224.924 296.999C224.999 294.166 242.148 300.852 239.957 285.932C239.957 285.932 251.628 288.123 251.402 307.273H252.686V307.235Z" fill="url(#paint15_linear_117_3882)"/>
<path d="M253.933 307.235C253.933 307.235 253.706 292.655 246.794 273.052C246.794 273.052 251.44 263.458 246.038 259.114C240.637 254.732 231.874 253.977 230.552 248.764C229.23 243.59 221.033 241.059 213.555 243.59C213.555 243.59 213.101 249.029 219.145 252.73C223.526 255.412 225.944 258.056 226.661 264.893C227.568 273.58 236.444 281.89 246.076 274.034C246.076 274.034 252.384 288.727 252.724 307.235H253.933Z" fill="url(#paint16_linear_117_3882)"/>
<path d="M254.99 261.758C254.99 261.758 252.535 255.488 258.616 251.597C264.698 247.745 270.099 250.2 272.101 247.858C274.103 245.516 282.904 248.764 284.981 241.814C284.981 241.814 285.963 252.164 273.725 256.961C261.487 261.758 254.99 261.758 254.99 261.758Z" fill="url(#paint17_linear_117_3882)"/>
<path d="M252.686 307.235C252.686 307.235 248.078 273.807 253.932 261.494C259.787 249.18 283.13 256.659 284.981 241.777C284.981 241.777 286.152 250.578 284.376 254.355C282.601 258.094 279.693 256.583 278.635 260.323C277.577 264.062 261.864 272.75 254.952 261.72C254.952 261.72 252.157 266.857 251.439 278.453C250.722 290.049 253.366 307.197 253.366 307.197H252.686V307.235Z" fill="url(#paint18_linear_117_3882)"/>
<path d="M213.517 243.59C213.517 243.59 213.063 249.029 219.107 252.731C223.488 255.412 225.906 258.056 226.624 264.893C227.53 273.581 236.406 281.89 246.038 274.034C246.038 274.072 235.764 252.164 213.517 243.59Z" fill="url(#paint19_linear_117_3882)"/>
<path d="M68.5491 31.6905C69.229 31.5016 69.9844 31.5016 70.7398 31.7282L268.55 84.7219C271.874 85.6284 274.556 90.0099 274.556 94.5425V211.219C274.556 214.694 272.969 217.225 270.741 217.829C270.061 218.018 269.306 218.018 268.55 217.792L70.7398 164.798C67.4159 163.891 64.7341 159.51 64.7341 154.977V38.3005C64.7341 34.8255 66.2828 32.2948 68.5491 31.6905Z" fill="url(#paint20_linear_117_3882)"/>
<path d="M141.637 58.3189C141.902 58.2433 142.166 58.2433 142.468 58.3189L215.594 77.9224C216.841 78.2623 217.823 79.8865 217.823 81.5484V196.677C217.823 197.961 217.256 198.905 216.425 199.132C216.161 199.207 215.896 199.207 215.594 199.132L142.468 179.528C141.222 179.188 140.24 177.564 140.24 175.902V60.7363C140.24 59.452 140.806 58.5077 141.637 58.3189Z" fill="url(#paint21_linear_117_3882)"/>
<path d="M151.911 135.298C152.024 135.26 152.138 135.26 152.289 135.298L207.662 150.142C208.229 150.293 208.682 151.049 208.682 151.804C208.682 152.408 208.418 152.824 208.04 152.937C207.927 152.975 207.813 152.975 207.662 152.937L152.289 138.093C151.722 137.942 151.269 137.186 151.269 136.431C151.269 135.827 151.533 135.373 151.911 135.298Z" fill="url(#paint22_linear_117_3882)"/>
<path d="M151.911 143.683C152.024 143.645 152.138 143.645 152.289 143.683L207.662 158.527C208.229 158.678 208.682 159.434 208.682 160.189C208.682 160.794 208.418 161.209 208.04 161.322C207.927 161.36 207.813 161.36 207.662 161.322L152.289 146.478C151.722 146.327 151.269 145.572 151.269 144.816C151.269 144.25 151.533 143.796 151.911 143.683Z" fill="url(#paint23_linear_117_3882)"/>
<path d="M151.911 152.107C152.024 152.069 152.138 152.069 152.289 152.107L184.999 160.87C185.566 161.021 186.019 161.776 186.019 162.532C186.019 163.136 185.755 163.552 185.377 163.665C185.264 163.703 185.15 163.703 184.999 163.665L152.289 154.902C151.722 154.751 151.269 153.996 151.269 153.24C151.269 152.674 151.533 152.22 151.911 152.107Z" fill="url(#paint24_linear_117_3882)"/>
<path d="M224.471 80.1509C224.622 80.1131 224.773 80.1131 224.962 80.1509L267.53 91.5579C268.248 91.7468 268.815 92.6911 268.815 93.6732V127.781C268.815 128.536 268.475 129.065 267.984 129.216C267.833 129.254 267.681 129.254 267.493 129.216L224.924 117.809C224.206 117.62 223.64 116.676 223.64 115.694V81.5862C223.64 80.8308 223.98 80.2642 224.471 80.1509Z" fill="url(#paint25_linear_117_3882)"/>
<path d="M228.777 86.8745C228.89 86.8367 228.965 86.8367 229.079 86.8745L241.015 90.0851C241.506 90.1984 241.883 90.8405 241.883 91.5204C241.883 92.0115 241.657 92.3892 241.317 92.5025C241.203 92.5403 241.128 92.5403 241.015 92.5025L229.079 89.2919C228.588 89.1786 228.21 88.5365 228.21 87.8566C228.21 87.3278 228.437 86.9501 228.777 86.8745Z" fill="url(#paint26_linear_117_3882)"/>
<path d="M228.777 92.54C228.89 92.5023 228.965 92.5023 229.079 92.54L234.896 94.0887C235.387 94.202 235.764 94.8441 235.764 95.524C235.764 96.015 235.538 96.3928 235.198 96.5061C235.084 96.5438 235.009 96.5438 234.896 96.5061L229.079 94.9574C228.588 94.8441 228.21 94.202 228.21 93.5221C228.21 93.0311 228.437 92.6534 228.777 92.54Z" fill="url(#paint27_linear_117_3882)"/>
<path d="M224.471 124.948C224.622 124.91 224.773 124.91 224.962 124.948L267.53 136.355C268.248 136.544 268.815 137.488 268.815 138.471V172.578C268.815 173.334 268.475 173.863 267.984 174.014C267.833 174.051 267.681 174.051 267.493 174.014L224.924 162.607C224.206 162.418 223.64 161.473 223.64 160.491V126.384C223.64 125.628 223.98 125.099 224.471 124.948Z" fill="url(#paint28_linear_117_3882)"/>
<path d="M76.1414 78.7158L96.5381 84.1549V112.748L76.1414 107.309V78.7158Z" fill="url(#paint29_linear_117_3882)"/>
<path d="M75.8391 78.187L96.5002 83.7394C96.5002 83.7394 97.5578 101.039 87.3972 106.705L66.3584 101.379C66.3962 101.379 77.4633 93.9378 75.8391 78.187Z" fill="white"/>
<path d="M79.2007 87.4409L92.0431 90.9915" stroke="url(#paint30_linear_117_3882)" stroke-width="3" stroke-miterlimit="10" stroke-linecap="round" stroke-linejoin="round"/>
<path d="M77.4255 92.1626L90.2679 95.7131" stroke="url(#paint31_linear_117_3882)" stroke-width="3" stroke-miterlimit="10" stroke-linecap="round" stroke-linejoin="round"/>
<path d="M75.4614 96.4688L83.8467 98.8861" stroke="url(#paint32_linear_117_3882)" stroke-width="3" stroke-miterlimit="10" stroke-linecap="round" stroke-linejoin="round"/>
<path d="M203.696 85.2124C203.885 85.1746 204.074 85.1746 204.3 85.2124L207.096 85.9678C207.964 86.1945 208.72 87.3654 208.72 88.5741V136.695C208.72 137.64 208.304 138.282 207.7 138.47C207.511 138.508 207.322 138.508 207.096 138.47L204.3 137.715C203.432 137.488 202.676 136.318 202.676 135.109V86.9877C202.676 86.0434 203.092 85.3635 203.696 85.2124Z" fill="url(#paint33_linear_117_3882)"/>
<path d="M190.854 91.0293C191.005 90.9915 191.194 90.9915 191.383 91.0293L194.48 91.8603C195.273 92.0869 195.953 93.1445 195.953 94.2399V133.485C195.953 134.316 195.575 134.958 195.046 135.071C194.895 135.109 194.706 135.109 194.518 135.071L191.42 134.24C190.627 134.013 189.947 132.956 189.947 131.861V92.6535C189.909 91.7847 190.325 91.1804 190.854 91.0293Z" fill="url(#paint34_linear_117_3882)"/>
<path d="M177.898 104.438C178.011 104.401 178.162 104.401 178.314 104.438L182.053 105.458C182.695 105.609 183.186 106.44 183.186 107.309V130.539C183.186 131.181 182.884 131.672 182.468 131.785C182.355 131.823 182.204 131.823 182.053 131.785L178.314 130.765C177.671 130.614 177.18 129.783 177.18 128.915V105.685C177.18 105.043 177.483 104.552 177.898 104.438Z" fill="url(#paint35_linear_117_3882)"/>
<path d="M165.207 94.7315C165.358 94.6937 165.509 94.6937 165.66 94.7315L169.135 95.6757C169.853 95.8646 170.419 96.7711 170.419 97.7532V126.913C170.419 127.631 170.079 128.197 169.626 128.31C169.475 128.348 169.324 128.348 169.173 128.31L165.698 127.366C164.98 127.177 164.414 126.271 164.414 125.289V96.0912C164.414 95.4113 164.754 94.8448 165.207 94.7315Z" fill="url(#paint36_linear_117_3882)"/>
<path d="M152.289 103.305C152.402 103.267 152.515 103.267 152.667 103.305L156.67 104.363C157.237 104.514 157.69 105.232 157.69 105.987V123.815C157.69 124.382 157.426 124.835 157.048 124.911C156.935 124.948 156.821 124.948 156.67 124.911L152.667 123.853C152.1 123.702 151.647 122.984 151.647 122.229V104.401C151.647 103.834 151.911 103.418 152.289 103.305Z" fill="url(#paint37_linear_117_3882)"/>
<path d="M256.614 119.056C259.9 118.187 262.204 114.448 262.204 109.349C262.204 102.701 258.238 96.2421 253.366 94.9201C252.233 94.6179 251.137 94.6179 250.118 94.8823C246.831 95.751 244.527 99.4904 244.527 104.59C244.527 111.237 248.493 117.696 253.366 119.018C254.499 119.358 255.594 119.321 256.614 119.056Z" stroke="url(#paint38_linear_117_3882)" stroke-width="6" stroke-miterlimit="10"/>
<path d="M262.205 109.349C262.205 102.701 258.239 96.2421 253.366 94.9201C252.233 94.6179 251.138 94.6179 250.118 94.8823" stroke="url(#paint39_linear_117_3882)" stroke-width="6" stroke-miterlimit="10" stroke-linecap="round" stroke-linejoin="round"/>
<path d="M243.243 138.32C247.436 137.186 252.195 141.303 253.857 147.46C255.519 153.617 253.441 159.547 249.249 160.68C245.056 161.813 240.297 157.696 238.635 151.54C236.973 145.383 239.013 139.453 243.243 138.32Z" fill="url(#paint40_linear_117_3882)"/>
<path d="M241.77 149.424L244.792 153.051L249.929 147.271" stroke="white" stroke-width="4" stroke-miterlimit="10" stroke-linecap="round" stroke-linejoin="round"/>
<path d="M95.5179 68.9714C97.2285 68.9714 98.6152 67.5847 98.6152 65.8741C98.6152 64.1636 97.2285 62.7769 95.5179 62.7769C93.8074 62.7769 92.4207 64.1636 92.4207 65.8741C92.4207 67.5847 93.8074 68.9714 95.5179 68.9714Z" fill="url(#paint41_linear_117_3882)"/>
<path d="M110.589 59.9436L98.3509 50.9917H92.6474L80.4471 59.9436C79.6917 60.4346 79.314 60.9634 79.314 61.53C79.314 63.9474 86.5661 65.8737 95.518 65.8737C104.47 65.8737 111.722 63.9096 111.722 61.53C111.722 61.0012 111.307 60.4346 110.589 59.9436Z" fill="url(#paint42_linear_117_3882)"/>
<path d="M95.5181 51.8234C97.1035 51.8234 98.3888 51.4851 98.3888 51.0679C98.3888 50.6507 97.1035 50.3125 95.5181 50.3125C93.9327 50.3125 92.6475 50.6507 92.6475 51.0679C92.6475 51.4851 93.9327 51.8234 95.5181 51.8234Z" fill="url(#paint43_linear_117_3882)"/>
<path d="M95.5178 51.2184C95.0268 51.2184 94.6113 50.8029 94.6113 50.3119V0.90652C94.6113 0.415489 95.0268 0 95.5178 0C96.0089 0 96.4244 0.415489 96.4244 0.90652V50.2741C96.4244 50.8029 96.0089 51.2184 95.5178 51.2184Z" fill="url(#paint44_linear_117_3882)"/>
<path d="M248.796 68.9714C250.506 68.9714 251.893 67.5847 251.893 65.8741C251.893 64.1636 250.506 62.7769 248.796 62.7769C247.085 62.7769 245.698 64.1636 245.698 65.8741C245.698 67.5847 247.085 68.9714 248.796 68.9714Z" fill="url(#paint45_linear_117_3882)"/>
<path d="M263.829 59.9436L251.628 50.9917H245.925L233.687 59.9436C232.931 60.4346 232.554 60.9634 232.554 61.53C232.554 63.9474 239.806 65.8737 248.758 65.8737C257.71 65.8737 264.962 63.9096 264.962 61.53C265 61.0012 264.584 60.4346 263.829 59.9436Z" fill="url(#paint46_linear_117_3882)"/>
<path d="M248.795 51.8234C250.381 51.8234 251.666 51.4851 251.666 51.0679C251.666 50.6507 250.381 50.3125 248.795 50.3125C247.21 50.3125 245.925 50.6507 245.925 51.0679C245.925 51.4851 247.21 51.8234 248.795 51.8234Z" fill="url(#paint47_linear_117_3882)"/>
<path d="M248.795 51.2184C248.304 51.2184 247.889 50.8029 247.889 50.3119V0.90652C247.889 0.415489 248.304 0 248.795 0C249.286 0 249.702 0.415489 249.702 0.90652V50.2741C249.702 50.8029 249.286 51.2184 248.795 51.2184Z" fill="url(#paint48_linear_117_3882)"/>
<path d="M153.157 210.653C154.668 211.106 161.694 213.07 165.32 213.524C167.888 213.864 178.276 218.358 197.426 224.137C206.869 226.97 210.004 213.788 199.654 211.711C185.754 208.915 170.155 206.234 168.644 205.327C167.133 204.421 165.66 202.343 164.791 201.248C163.96 200.228 163.356 199.284 162.6 199.284C161.845 199.321 162.412 201.059 162.865 202.003C163.318 202.948 163.847 204.27 162.865 203.967C162.865 203.967 156.632 202.003 154.933 201.474C153.233 200.946 152.78 202.796 154.366 203.363C155.915 203.93 160.712 205.743 160.712 205.743C160.712 205.743 153.535 203.703 151.987 203.288C150.438 202.872 149.947 204.874 151.684 205.44C153.422 206.007 159.919 207.858 159.919 207.858C159.919 207.858 154.895 206.649 152.591 206.158C150.891 205.78 150.4 207.556 152.326 208.16C154.706 208.878 159.465 210.2 159.465 210.2C159.465 210.2 155.348 209.331 153.497 209.029C152.289 208.84 151.647 210.2 153.157 210.653Z" fill="url(#paint49_linear_117_3882)"/>
<path d="M190.136 207.631C190.136 207.631 190.778 211.258 192.327 218.85C194.064 227.311 208.342 226.442 206.226 215.526C203.96 203.93 203.734 202.948 203.734 202.948L190.136 207.631Z" fill="url(#paint50_linear_117_3882)"/>
<path d="M189.758 210.199C189.116 210.048 188.625 209.482 188.512 208.802C188.058 205.516 186.661 195.355 186.283 188.858C185.717 179.68 200.07 177.149 202.865 188.027C204.716 195.166 205.358 203.211 205.509 206.044C205.547 206.686 205.207 207.329 204.64 207.631C202.298 208.877 195.915 211.786 189.758 210.199Z" fill="url(#paint51_linear_117_3882)"/>
<path d="M140.24 185.799L168.342 193.316L171.477 203.439L143.375 195.922L140.24 185.799Z" fill="url(#paint52_linear_117_3882)"/>
<path d="M112.137 193.316L140.24 185.799L168.342 193.316L140.24 200.87L112.137 193.316Z" fill="url(#paint53_linear_117_3882)"/>
<path d="M168.342 193.316L140.24 185.799V200.87L168.342 193.316Z" fill="url(#paint54_linear_117_3882)"/>
<path d="M127.851 178.811C128.039 178.773 128.228 178.773 128.455 178.811L147.039 183.797C147.945 184.024 148.701 185.232 148.701 186.479V215.147C148.701 216.092 148.247 216.809 147.643 216.96C147.454 216.998 147.265 216.998 147.039 216.96L128.455 211.975C127.548 211.748 126.793 210.539 126.793 209.293V180.624C126.831 179.68 127.246 179 127.851 178.811Z" fill="url(#paint55_linear_117_3882)"/>
<path d="M124.527 179.755C124.715 179.718 124.904 179.718 125.131 179.755L143.715 184.741C144.621 184.968 145.377 186.177 145.377 187.423V216.092C145.377 217.036 144.923 217.754 144.319 217.905C144.13 217.943 143.941 217.943 143.715 217.905L125.131 212.919C124.224 212.692 123.469 211.484 123.469 210.237V181.568C123.469 180.624 123.922 179.944 124.527 179.755Z" fill="url(#paint56_linear_117_3882)"/>
<path d="M121.203 184.477C121.391 184.439 121.58 184.439 121.807 184.477L140.391 189.463C141.297 189.69 142.053 190.898 142.053 192.145V220.813C142.053 221.758 141.599 222.475 140.995 222.626C140.806 222.664 140.617 222.664 140.391 222.626L121.807 217.641C120.9 217.414 120.145 216.205 120.145 214.959V186.29C120.145 185.346 120.561 184.666 121.203 184.477Z" fill="url(#paint57_linear_117_3882)"/>
<path d="M112.137 193.315L140.24 200.87V229.727L112.137 222.173V193.315Z" fill="url(#paint58_linear_117_3882)"/>
<path d="M112.137 193.315L140.24 200.87L137.105 210.993L109.002 203.438L112.137 193.315Z" fill="url(#paint59_linear_117_3882)"/>
<path d="M140.24 200.87L168.342 193.315V222.173L140.24 229.727V200.87Z" fill="url(#paint60_linear_117_3882)"/>
<path d="M187.567 179.944C187.567 179.944 186.132 174.77 187.567 171.143C188.625 168.424 195.235 162.532 191.458 153.844C188.398 146.781 174.045 144.023 170.797 152.749C167.926 160.416 167.511 162.003 166.453 163.74C165.66 165.024 166.869 165.327 167.511 165.478C167.473 166.384 167.133 169.293 168.606 171.295C170.646 174.127 174.121 173.108 172.157 178.924L187.567 179.944Z" fill="url(#paint61_linear_117_3882)"/>
<path d="M173.063 153.996C173.063 153.996 167.888 152.825 168.682 148.33C169.588 143.08 176.349 141.418 185.263 145.497C190.854 148.065 192.931 151.389 192.213 155.318C192.213 155.318 194.971 158.641 192.478 165.78C190.665 171.068 186.774 174.543 180.051 172.806C174.423 171.333 174.687 166.498 174.687 166.498C174.687 166.498 179.031 166.007 178.918 162.343C178.804 158.944 174.687 159.019 174.272 162.456C174.272 162.456 174.498 161.512 172.421 158.981C171.326 157.735 171.552 155.166 173.063 153.996Z" fill="url(#paint62_linear_117_3882)"/>
<path d="M233.725 349.652H191.722L184.508 341.909H233.725V349.652Z" fill="url(#paint63_linear_117_3882)"/>
<path d="M202.412 353.203H160.372L153.195 346.291H202.412V353.203Z" fill="url(#paint64_linear_117_3882)"/>
<path d="M195.5 327.972C195.5 327.972 194.593 338.397 196.67 342.023C199.05 346.215 195.537 350.068 190.627 349.615C186.623 349.237 182.77 347.5 175.518 345.724C168.266 343.949 167.057 339.001 170.004 337.49C172.572 336.168 185.15 339.756 185.641 329.898L195.5 327.972Z" fill="url(#paint65_linear_117_3882)"/>
<path d="M202.336 232.976C202.336 232.976 202.79 237.81 201.128 250.917C199.503 263.608 196.104 271.389 196.52 274.185C196.935 276.98 197.464 294.317 196.822 312.334C196.293 326.876 195.802 331.786 195.802 331.786C192.667 333.788 188.625 333.713 185.566 331.635L185.339 331.484C185.339 331.484 178.993 283.25 178.805 278.906C178.616 274.6 177.974 234.411 177.974 234.411L202.336 232.976Z" fill="url(#paint66_linear_117_3882)"/>
<path d="M196.557 345.837C195.009 348.217 189.607 348.33 185.83 346.555C182.015 344.779 175.783 344.288 171.703 342.022C169.059 340.549 168.946 339 169.173 338.094C167.397 340.058 169.059 344.137 175.518 345.686C182.771 347.461 186.585 349.199 190.627 349.576C195.197 349.992 198.559 346.706 197.086 342.891C197.237 343.835 197.162 344.893 196.557 345.837Z" fill="url(#paint67_linear_117_3882)"/>
<path d="M165.849 336.168C165.849 336.168 165.207 341.721 166.076 346.404C167.058 351.692 164.942 353.392 162.374 353.43C154.517 353.581 143.979 352.297 138.087 350.861C134.461 349.955 135.329 344.742 141.146 344.214C152.855 343.156 155.311 335.602 155.311 335.602L165.849 336.168Z" fill="url(#paint68_linear_117_3882)"/>
<path d="M190.136 230.408L163.356 232.221C163.356 232.221 160.712 248.425 158.861 257.679C157.275 265.686 157.124 274.336 157.124 279.322C157.124 284.308 155.273 336.168 155.273 336.168C162.185 338.812 165.849 336.168 165.849 336.168C165.849 336.168 175.292 300.776 175.972 290.389C176.651 280.002 176.651 276.489 177.747 274.563C179.711 271.277 187.681 246.007 190.136 230.408Z" fill="url(#paint69_linear_117_3882)"/>
<path d="M166.264 349.691C164.64 353.43 142.506 350.295 139.786 349.615C138.54 349.313 135.782 348.407 136.085 347.273C135.518 348.784 136.198 350.371 138.049 350.824C143.941 352.297 154.517 353.544 162.336 353.392C164.3 353.392 165.962 352.41 166.264 349.691Z" fill="url(#paint70_linear_117_3882)"/>
<path d="M167.02 182.136C167.02 182.136 167.699 180.889 170.192 178.698C173.705 175.563 184.319 174.77 188.398 176.772C190.816 177.943 193.309 181.418 193.309 181.418L167.02 182.136Z" fill="url(#paint71_linear_117_3882)"/>
<path d="M193.535 179.567C183.979 176.885 175.896 178.094 169.739 180.398C161.505 183.457 156.746 188.443 156.746 188.443C156.746 188.443 162.827 199.057 164.262 204.987C165.547 210.313 162.336 233.429 161.958 237.622C161.883 237.848 161.845 238.113 161.883 238.34C162.072 239.775 164.338 240.946 168.606 241.475C177.143 242.532 190.514 240.644 198.446 237.282C202.412 235.582 204.263 233.882 204.074 232.409C204.074 232.296 204.036 232.183 203.96 232.069C203.545 230.596 201.996 224.855 201.316 220.7C199.126 207.442 201.09 204.005 202.261 193.127C203.129 184.742 199.654 181.304 193.535 179.567Z" fill="url(#paint72_linear_117_3882)"/>
<path d="M152.289 211.672C152.289 211.672 151.533 215.261 150.211 222.891C148.738 231.389 162.336 235.846 164.338 224.892C166.491 213.259 166.642 212.277 166.642 212.277L152.289 211.672Z" fill="url(#paint73_linear_117_3882)"/>
<path d="M152.365 213.637C151.798 213.259 151.496 212.579 151.647 211.937C152.251 208.651 153.233 198.075 154.857 191.805C157.199 182.928 170.344 183.91 169.626 195.091C169.135 202.456 167.247 211.786 166.529 214.543C166.378 215.185 165.849 215.676 165.207 215.79C162.525 216.167 157.69 217.074 152.365 213.637Z" fill="url(#paint74_linear_117_3882)"/>
<path d="M110.589 219.038C112.1 219.454 119.201 221.191 122.827 221.569C125.395 221.833 135.934 226.026 155.235 231.238C164.753 233.807 167.511 220.511 157.086 218.736C143.11 216.356 127.473 214.128 125.886 213.259C124.338 212.39 122.827 210.351 121.92 209.293C121.089 208.273 120.447 207.367 119.692 207.404C118.936 207.442 119.541 209.18 120.032 210.124C120.485 211.068 121.089 212.353 120.069 212.088C120.069 212.088 113.762 210.313 112.062 209.822C110.362 209.369 109.984 211.219 111.533 211.748C113.119 212.277 117.954 213.939 117.954 213.939C117.954 213.939 110.702 212.088 109.153 211.71C107.605 211.333 107.152 213.372 108.927 213.863C110.702 214.354 117.237 216.016 117.237 216.016C117.237 216.016 112.175 214.959 109.871 214.543C108.134 214.241 107.718 216.016 109.682 216.545C112.1 217.187 116.897 218.358 116.897 218.358C116.897 218.358 112.78 217.603 110.929 217.376C109.644 217.263 109.04 218.623 110.589 219.038Z" fill="url(#paint75_linear_117_3882)"/>
<path d="M49.2854 323.515C49.2854 321.702 51.8539 319.926 56.9908 318.529C67.2647 315.772 83.8843 315.772 94.1204 318.529C99.2573 319.889 101.826 321.702 101.826 323.515C101.826 325.328 99.2573 327.103 94.1204 328.501C83.8465 331.258 67.2269 331.258 56.9908 328.501C51.8539 327.141 49.2854 325.328 49.2854 323.515Z" fill="url(#paint76_linear_117_3882)"/>
<path d="M75.5369 288.349V327.858" stroke="url(#paint77_linear_117_3882)" stroke-width="10" stroke-miterlimit="10" stroke-linecap="round" stroke-linejoin="round"/>
<path d="M58.8416 282.834L52.0427 322.344" stroke="url(#paint78_linear_117_3882)" stroke-width="10" stroke-miterlimit="10" stroke-linecap="round" stroke-linejoin="round"/>
<path d="M92.2695 282.834L99.0684 322.344" stroke="url(#paint79_linear_117_3882)" stroke-width="10" stroke-miterlimit="10" stroke-linecap="round" stroke-linejoin="round"/>
<path d="M48.7566 282.834C48.7566 284.685 51.3628 286.498 56.6131 287.896C67.0759 290.691 84.0353 290.691 94.4981 287.896C99.7484 286.498 102.355 284.648 102.355 282.834V289.067C102.355 290.918 99.7484 292.731 94.4981 294.128C84.0353 296.923 67.0759 296.923 56.6131 294.128C51.3628 292.731 48.7566 290.88 48.7566 289.067V282.834Z" fill="url(#paint80_linear_117_3882)"/>
<path d="M48.7566 282.834C48.7566 280.984 51.3628 279.171 56.6131 277.773C67.0759 274.978 84.0353 274.978 94.4981 277.773C99.7484 279.171 102.355 281.021 102.355 282.834C102.355 284.685 99.7484 286.498 94.4981 287.896C84.0353 290.691 67.0759 290.691 56.6131 287.896C51.3628 286.498 48.7566 284.685 48.7566 282.834Z" fill="url(#paint81_linear_117_3882)"/>
<path d="M16.0842 246.347C16.0842 246.347 9.51189 257.943 4.035 262.249C0.899946 264.741 1.88201 266.555 6.5657 270.256C11.2116 273.996 16.4619 278.339 18.4638 278.641C20.4657 278.944 20.3524 278.075 17.6706 274.789C12.4203 268.254 15.4043 264.326 25.6782 251.824L16.0842 246.347Z" fill="url(#paint82_linear_117_3882)"/>
<path d="M43.053 154.562C43.053 154.562 35.1965 166.007 35.7253 182.475C36.3674 202.494 43.0152 207.933 38.0294 213.561C33.0813 219.189 21.6742 234.487 15.1775 247.405C15.1775 247.405 20.4655 248.236 24.2805 254.128C24.2805 254.128 49.8519 226.706 52.9492 222.136C56.0465 217.565 57.5951 211.748 57.6706 199.888C57.7462 188.028 59.1437 160.001 59.1437 160.001L43.053 154.562Z" fill="url(#paint83_linear_117_3882)"/>
<path d="M0.257812 265.459C0.257812 265.459 2.52411 262.324 5.84802 260.738C5.84802 260.738 7.96324 260.889 10.4939 263.646C13.5534 267.008 15.1021 265.573 16.273 264.704C17.4817 263.797 17.1418 269.274 17.104 270.181C17.0284 271.918 18.0483 273.996 19.8613 276.489C21.6366 279.019 21.9765 280.379 21.07 281.512C20.1635 282.645 16.1219 280.908 13.9689 279.208C11.8159 277.546 0.257812 265.459 0.257812 265.459Z" fill="url(#paint84_linear_117_3882)"/>
<path d="M3.31726 266.139C0.975418 263.911 -1.25311 265.535 0.824331 267.877C2.90177 270.181 11.627 277.319 11.627 277.319C17.4439 282.494 21.07 282.268 19.2191 280.946C14.7621 277.848 3.31726 266.139 3.31726 266.139Z" fill="url(#paint85_linear_117_3882)"/>
<path d="M54.8755 112.106C54.8755 112.106 55.9331 107.272 55.4799 105.61C54.9888 103.948 50.3807 95.6002 53.2136 89.4812C56.0464 83.3622 63.9785 82.7201 68.36 85.9307C72.7415 89.1413 72.8171 95.8268 72.0616 98.0554C71.5328 99.6796 72.4016 101.908 72.9304 103.834C73.2703 105.043 71.835 104.514 71.7217 105.119C71.3817 107.309 70.7774 109.727 69.8331 110.256C68.8888 110.784 67.1513 109.878 67.1513 109.878L66.8491 114.335L54.8755 112.106Z" fill="url(#paint86_linear_117_3882)"/>
<path d="M49.7386 93.5982C51.174 84.9485 56.2731 85.5906 56.2731 85.5906C56.2731 85.5906 60.4658 80.9825 67.9068 83.6643C72.4772 85.3262 74.6302 90.1988 73.497 93.2205C72.3639 96.2422 69.3421 95.9023 68.4356 99.5661C67.5291 103.23 70.7775 103.381 70.3242 106.063C70.3242 106.063 70.5886 104.892 68.9267 104.514C67.2647 104.137 65.8294 102.437 66.0182 99.4906C66.0182 99.4906 62.9587 98.0175 61.9389 100.888C61.1457 103.041 63.1476 104.325 64.3563 105.156C65.4517 105.912 64.8473 109.538 61.7123 110.256C54.4223 111.842 47.8878 104.552 49.7386 93.5982Z" fill="url(#paint87_linear_117_3882)"/>
<path d="M65.2629 258.245C65.2629 258.245 67.076 271.881 66.6227 278.113C66.3583 282.117 67.8314 282.759 73.7993 282.495C79.7673 282.23 86.5662 282.079 88.2659 281.021C90.0034 279.926 86.6417 278.453 82.4113 278C75.5368 277.282 76.5567 272.183 76.0656 256.017L65.2629 258.245Z" fill="url(#paint88_linear_117_3882)"/>
<path d="M65.4896 262.815C65.4896 262.815 61.9768 248.613 63.3366 229.35C64.0165 219.718 61.6746 215.865 56.991 205.554C51.9673 194.449 48.6812 174.128 53.2893 158.528L74.7059 162.192C74.7059 162.192 79.1629 183.873 78.7474 198.83C78.2942 215.261 76.6322 262.853 76.6322 262.853C76.6322 262.853 72.2129 265.082 65.4896 262.815Z" fill="url(#paint89_linear_117_3882)"/>
<path d="M65.4517 282.721C65.4517 282.721 65.6784 278.982 66.6982 276.149C66.6982 276.149 69.4178 277.66 72.4395 276.602C75.9523 275.356 75.6879 271.541 76.7455 272.221C77.652 272.825 76.8588 275.393 81.8069 276.867C89.5501 279.133 91.4009 279.926 91.0232 282.041C90.5699 284.61 73.686 285.592 69.7199 285.592C65.7539 285.592 65.414 283.665 65.4517 282.721Z" fill="url(#paint90_linear_117_3882)"/>
<path d="M90.872 280.757C90.872 280.795 90.872 280.832 90.8343 280.908C90.381 283.476 74.3658 284.194 70.3998 284.194C67.6802 284.194 65.7916 283.514 65.4517 282.645C65.4517 282.683 65.4517 282.721 65.4517 282.721C65.4139 283.627 65.7161 285.592 69.7199 285.592C73.6859 285.592 90.5699 284.61 91.0231 282.041C91.0987 281.55 91.0609 281.135 90.872 280.757Z" fill="url(#paint91_linear_117_3882)"/>
<path d="M76.4433 167.97C75.3101 170.35 47.5479 173.258 37.9917 162.796C37.9917 162.796 43.3175 150.444 41.6178 136.997C39.6159 121.096 41.2401 116.563 45.4327 114.561C49.6254 112.559 53.6669 114.977 54.8379 109.462L67.4158 111.842C67.4158 111.842 66.6604 114.108 70.362 115.241C74.0637 116.374 81.2403 117.658 81.0892 124.004C80.8626 132.049 82.2601 136.015 81.0892 139.528C79.5406 144.212 76.7832 145.496 75.6878 155.997C75.0079 162.493 76.4433 167.97 76.4433 167.97Z" fill="url(#paint92_linear_117_3882)"/>
<path d="M53.0303 102.556C55.0505 101.824 56.0083 99.3539 55.1696 97.0395C54.331 94.7252 52.0134 93.4425 49.9933 94.1745C47.9731 94.9066 47.0153 97.3762 47.854 99.6905C48.6926 102.005 51.0102 103.288 53.0303 102.556Z" fill="white"/>
<path d="M50.7963 95.1091C47.3591 94.8824 39.0493 96.28 40.4847 104.665C41.92 113.051 44.3751 114.448 39.8425 118.074C35.3099 121.7 35.6876 127.857 42.5243 129.292C50.9474 131.03 58.8039 127.895 59.1816 117.357C59.446 109.953 55.1401 106.781 53.4403 104.363C51.7406 101.946 53.4781 101.87 54.0825 99.2262C54.7623 96.28 52.005 95.1846 50.7963 95.1091Z" fill="url(#paint93_linear_117_3882)"/>
<path d="M104.772 110.445L119.843 114.486V135.601L104.772 131.559V110.445Z" fill="url(#paint94_linear_117_3882)"/>
<path d="M98.9174 105.761L114.177 109.84C114.177 109.84 114.97 122.607 107.454 126.8L91.9297 122.871C91.9297 122.871 100.126 117.394 98.9174 105.761Z" fill="white"/>
<path d="M101.41 112.56L110.891 115.204" stroke="url(#paint95_linear_117_3882)" stroke-width="3" stroke-miterlimit="10" stroke-linecap="round" stroke-linejoin="round"/>
<path d="M100.088 116.072L109.569 118.679" stroke="url(#paint96_linear_117_3882)" stroke-width="3" stroke-miterlimit="10" stroke-linecap="round" stroke-linejoin="round"/>
<path d="M98.6531 119.245L104.848 121.02" stroke="url(#paint97_linear_117_3882)" stroke-width="3" stroke-miterlimit="10" stroke-linecap="round" stroke-linejoin="round"/>
<path d="M88.2659 145.648C88.2659 145.648 104.545 129.066 107.076 125.742C109.607 122.418 109.531 121.021 109.531 119.548C109.494 118.037 109.985 116.979 109.871 115.506C109.758 114.033 111.231 114.297 111.571 115.582C111.873 116.866 111.76 118.339 112.138 118.339C112.478 118.339 114.593 116.148 114.593 116.148C114.593 116.148 114.102 113.731 113.913 112.824C113.724 111.918 115.235 111.276 115.801 112.749C116.368 114.222 116.821 115.997 116.783 116.601C116.746 117.206 116.217 117.886 116.217 117.886C116.217 117.886 117.501 118.112 117.199 119.774C117.199 119.774 118.143 120.567 117.463 121.889C117.463 121.889 118.483 122.871 117.501 124.307C116.519 125.742 113.12 127.593 111.609 129.784C110.098 132.012 100.919 147.121 97.671 152.031L88.2659 145.648Z" fill="url(#paint98_linear_117_3882)"/>
<path d="M96.5378 136.28C96.5378 136.28 86.2639 147.347 83.3933 150.973C78.3319 157.395 87.6993 166.498 94.5359 156.526C101.373 146.554 104.772 141.153 104.772 141.153C104.772 141.153 101.75 136.431 96.5378 136.28Z" fill="url(#paint99_linear_117_3882)"/>
<path d="M93.8937 150.369C90.1543 141.115 83.5443 124.42 80.5603 120.152C77.5764 115.884 63.7141 117.621 68.5867 130.992C73.4592 144.364 77.7652 150.105 80.7492 156.45C84.8663 165.1 97.9353 160.379 93.8937 150.369Z" fill="url(#paint100_linear_117_3882)"/>
</g>
<defs>
<linearGradient id="paint0_linear_117_3882" x1="158.078" y1="243.514" x2="171.757" y2="184.372" gradientUnits="userSpaceOnUse">
<stop stop-color="white"/>
<stop offset="1" stop-color="#AEBDDF"/>
</linearGradient>
<linearGradient id="paint1_linear_117_3882" x1="195.593" y1="191.393" x2="247.597" y2="238.386" gradientUnits="userSpaceOnUse">
<stop stop-color="white"/>
<stop offset="1" stop-color="#AEBDDF"/>
</linearGradient>
<linearGradient id="paint2_linear_117_3882" x1="227.569" y1="260.781" x2="244.086" y2="240.092" gradientUnits="userSpaceOnUse">
<stop stop-color="white"/>
<stop offset="1" stop-color="#AEBDDF"/>
</linearGradient>
<linearGradient id="paint3_linear_117_3882" x1="245.213" y1="284.449" x2="245.213" y2="215.665" gradientUnits="userSpaceOnUse">
<stop stop-color="white"/>
<stop offset="1" stop-color="#AEBDDF"/>
</linearGradient>
<linearGradient id="paint4_linear_117_3882" x1="36.7069" y1="148.505" x2="88.7104" y2="195.498" gradientUnits="userSpaceOnUse">
<stop stop-color="white"/>
<stop offset="1" stop-color="#AEBDDF"/>
</linearGradient>
<linearGradient id="paint5_linear_117_3882" x1="68.6822" y1="217.893" x2="85.1999" y2="197.204" gradientUnits="userSpaceOnUse">
<stop stop-color="white"/>
<stop offset="1" stop-color="#AEBDDF"/>
</linearGradient>
<linearGradient id="paint6_linear_117_3882" x1="86.3269" y1="235.18" x2="86.3269" y2="181.924" gradientUnits="userSpaceOnUse">
<stop stop-color="white"/>
<stop offset="1" stop-color="#AEBDDF"/>
</linearGradient>
<linearGradient id="paint7_linear_117_3882" x1="128.787" y1="141.793" x2="128.787" y2="221.013" gradientUnits="userSpaceOnUse">
<stop stop-color="white"/>
<stop offset="1" stop-color="#AEBDDF"/>
</linearGradient>
<linearGradient id="paint8_linear_117_3882" x1="283.788" y1="236.951" x2="199.975" y2="236.951" gradientUnits="userSpaceOnUse">
<stop stop-color="white"/>
<stop offset="1" stop-color="#AEBDDF"/>
</linearGradient>
<linearGradient id="paint9_linear_117_3882" x1="145.561" y1="123.437" x2="145.561" y2="292.97" gradientUnits="userSpaceOnUse">
<stop stop-color="white"/>
<stop offset="1" stop-color="#AEBDDF"/>
</linearGradient>
<linearGradient id="paint10_linear_117_3882" x1="272.601" y1="348.082" x2="259.581" y2="334.447" gradientUnits="userSpaceOnUse">
<stop stop-color="white"/>
<stop offset="1" stop-color="#AEBDDF"/>
</linearGradient>
<linearGradient id="paint11_linear_117_3882" x1="235.636" y1="319.847" x2="282.728" y2="318.362" gradientUnits="userSpaceOnUse">
<stop stop-color="white"/>
<stop offset="1" stop-color="#AEBDDF"/>
</linearGradient>
<linearGradient id="paint12_linear_117_3882" x1="263.878" y1="303.459" x2="230.676" y2="303.459" gradientUnits="userSpaceOnUse">
<stop stop-color="#ACBDDE"/>
<stop offset="1" stop-color="#2E405C"/>
</linearGradient>
<linearGradient id="paint13_linear_117_3882" x1="252.703" y1="290.383" x2="252.703" y2="306.844" gradientUnits="userSpaceOnUse">
<stop stop-color="#ACBDDE"/>
<stop offset="1" stop-color="#2E405C"/>
</linearGradient>
<linearGradient id="paint14_linear_117_3882" x1="289.756" y1="314.919" x2="251.245" y2="276.936" gradientUnits="userSpaceOnUse">
<stop stop-color="white"/>
<stop offset="1" stop-color="#AEBDDF"/>
</linearGradient>
<linearGradient id="paint15_linear_117_3882" x1="227.169" y1="279.008" x2="234.291" y2="300.638" gradientUnits="userSpaceOnUse">
<stop stop-color="white"/>
<stop offset="1" stop-color="#AEBDDF"/>
</linearGradient>
<linearGradient id="paint16_linear_117_3882" x1="268.422" y1="248.837" x2="208.986" y2="294.381" gradientUnits="userSpaceOnUse">
<stop stop-color="white"/>
<stop offset="1" stop-color="#AEBDDF"/>
</linearGradient>
<linearGradient id="paint17_linear_117_3882" x1="272.199" y1="226.474" x2="269.034" y2="257.774" gradientUnits="userSpaceOnUse">
<stop stop-color="white"/>
<stop offset="1" stop-color="#AEBDDF"/>
</linearGradient>
<linearGradient id="paint18_linear_117_3882" x1="300.921" y1="199.602" x2="252.699" y2="288.196" gradientUnits="userSpaceOnUse">
<stop stop-color="white"/>
<stop offset="1" stop-color="#AEBDDF"/>
</linearGradient>
<linearGradient id="paint19_linear_117_3882" x1="218.615" y1="277.614" x2="235.966" y2="248.424" gradientUnits="userSpaceOnUse">
<stop stop-color="white"/>
<stop offset="1" stop-color="#AEBDDF"/>
</linearGradient>
<linearGradient id="paint20_linear_117_3882" x1="169.631" y1="-0.122769" x2="169.631" y2="284.612" gradientUnits="userSpaceOnUse">
<stop stop-color="#79D985"/>
<stop offset="1" stop-color="#027A71"/>
</linearGradient>
<linearGradient id="paint21_linear_117_3882" x1="150.133" y1="80.56" x2="358.805" y2="428.347" gradientUnits="userSpaceOnUse">
<stop stop-color="white"/>
<stop offset="1" stop-color="#AEBDDF"/>
</linearGradient>
<linearGradient id="paint22_linear_117_3882" x1="285.872" y1="144.109" x2="76.1784" y2="144.109" gradientUnits="userSpaceOnUse">
<stop stop-color="white"/>
<stop offset="1" stop-color="#AEBDDF"/>
</linearGradient>
<linearGradient id="paint23_linear_117_3882" x1="285.872" y1="152.528" x2="76.1784" y2="152.528" gradientUnits="userSpaceOnUse">
<stop stop-color="white"/>
<stop offset="1" stop-color="#AEBDDF"/>
</linearGradient>
<linearGradient id="paint24_linear_117_3882" x1="285.872" y1="157.909" x2="76.1784" y2="157.909" gradientUnits="userSpaceOnUse">
<stop stop-color="white"/>
<stop offset="1" stop-color="#AEBDDF"/>
</linearGradient>
<linearGradient id="paint25_linear_117_3882" x1="210.666" y1="45.4073" x2="419.339" y2="393.195" gradientUnits="userSpaceOnUse">
<stop stop-color="white"/>
<stop offset="1" stop-color="#AEBDDF"/>
</linearGradient>
<linearGradient id="paint26_linear_117_3882" x1="271.104" y1="89.6639" x2="214.349" y2="89.6639" gradientUnits="userSpaceOnUse">
<stop stop-color="white"/>
<stop offset="1" stop-color="#AEBDDF"/>
</linearGradient>
<linearGradient id="paint27_linear_117_3882" x1="271.104" y1="94.5382" x2="214.349" y2="94.5382" gradientUnits="userSpaceOnUse">
<stop stop-color="white"/>
<stop offset="1" stop-color="#AEBDDF"/>
</linearGradient>
<linearGradient id="paint28_linear_117_3882" x1="190.891" y1="57.2727" x2="399.563" y2="405.06" gradientUnits="userSpaceOnUse">
<stop stop-color="white"/>
<stop offset="1" stop-color="#AEBDDF"/>
</linearGradient>
<linearGradient id="paint29_linear_117_3882" x1="86.3528" y1="37.6217" x2="86.3528" y2="178.851" gradientUnits="userSpaceOnUse">
<stop stop-color="#79D985"/>
<stop offset="1" stop-color="#027A71"/>
</linearGradient>
<linearGradient id="paint30_linear_117_3882" x1="88.708" y1="93.8779" x2="82.5311" y2="84.5406" gradientUnits="userSpaceOnUse">
<stop stop-color="#E9EDF6"/>
<stop offset="1" stop-color="#AEBDDF"/>
</linearGradient>
<linearGradient id="paint31_linear_117_3882" x1="86.9236" y1="98.604" x2="80.7467" y2="89.2668" gradientUnits="userSpaceOnUse">
<stop stop-color="#E9EDF6"/>
<stop offset="1" stop-color="#AEBDDF"/>
</linearGradient>
<linearGradient id="paint32_linear_117_3882" x1="81.7928" y1="100.924" x2="77.4912" y2="94.4218" gradientUnits="userSpaceOnUse">
<stop stop-color="#E9EDF6"/>
<stop offset="1" stop-color="#AEBDDF"/>
</linearGradient>
<linearGradient id="paint33_linear_117_3882" x1="205.695" y1="23.5115" x2="205.695" y2="137.031" gradientUnits="userSpaceOnUse">
<stop stop-color="white"/>
<stop offset="1" stop-color="#AEBDDF"/>
</linearGradient>
<linearGradient id="paint34_linear_117_3882" x1="192.935" y1="70.9561" x2="192.935" y2="140.27" gradientUnits="userSpaceOnUse">
<stop stop-color="#FFEFA4"/>
<stop offset="1" stop-color="#FE8F01"/>
</linearGradient>
<linearGradient id="paint35_linear_117_3882" x1="180.175" y1="23.5118" x2="180.175" y2="137.032" gradientUnits="userSpaceOnUse">
<stop stop-color="white"/>
<stop offset="1" stop-color="#AEBDDF"/>
</linearGradient>
<linearGradient id="paint36_linear_117_3882" x1="167.415" y1="23.5121" x2="167.415" y2="137.032" gradientUnits="userSpaceOnUse">
<stop stop-color="white"/>
<stop offset="1" stop-color="#AEBDDF"/>
</linearGradient>
<linearGradient id="paint37_linear_117_3882" x1="154.655" y1="23.5117" x2="154.655" y2="137.032" gradientUnits="userSpaceOnUse">
<stop stop-color="white"/>
<stop offset="1" stop-color="#AEBDDF"/>
</linearGradient>
<linearGradient id="paint38_linear_117_3882" x1="263.339" y1="106.986" x2="243.385" y2="106.986" gradientUnits="userSpaceOnUse">
<stop stop-color="#DFE5F2"/>
<stop offset="1" stop-color="#AEBDDF"/>
</linearGradient>
<linearGradient id="paint39_linear_117_3882" x1="263.339" y1="102.03" x2="248.991" y2="102.03" gradientUnits="userSpaceOnUse">
<stop stop-color="#FFCC69"/>
<stop offset="1" stop-color="#FE8F01"/>
</linearGradient>
<linearGradient id="paint40_linear_117_3882" x1="246.221" y1="129.91" x2="246.221" y2="164.164" gradientUnits="userSpaceOnUse">
<stop stop-color="#FFEFA4"/>
<stop offset="1" stop-color="#FE8F01"/>
</linearGradient>
<linearGradient id="paint41_linear_117_3882" x1="95.5146" y1="69.2789" x2="95.5146" y2="64.3077" gradientUnits="userSpaceOnUse">
<stop stop-color="#FFEFA4"/>
<stop offset="1" stop-color="#FE8F01"/>
</linearGradient>
<linearGradient id="paint42_linear_117_3882" x1="67.4205" y1="58.4501" x2="110.239" y2="58.4501" gradientUnits="userSpaceOnUse">
<stop stop-color="#ACBDDE"/>
<stop offset="1" stop-color="#2E405C"/>
</linearGradient>
<linearGradient id="paint43_linear_117_3882" x1="95.1317" y1="44.3258" x2="95.6367" y2="53.2127" gradientUnits="userSpaceOnUse">
<stop stop-color="#ACBDDE"/>
<stop offset="1" stop-color="#2E405C"/>
</linearGradient>
<linearGradient id="paint44_linear_117_3882" x1="94.2935" y1="4.07277" x2="96.8774" y2="49.6447" gradientUnits="userSpaceOnUse">
<stop stop-color="white"/>
<stop offset="1" stop-color="#AEBDDF"/>
</linearGradient>
<linearGradient id="paint45_linear_117_3882" x1="248.777" y1="69.4267" x2="248.777" y2="64.0072" gradientUnits="userSpaceOnUse">
<stop stop-color="#FFEFA4"/>
<stop offset="1" stop-color="#FE8F01"/>
</linearGradient>
<linearGradient id="paint46_linear_117_3882" x1="232.52" y1="58.4501" x2="277.161" y2="58.4501" gradientUnits="userSpaceOnUse">
<stop stop-color="#ACBDDE"/>
<stop offset="1" stop-color="#2E405C"/>
</linearGradient>
<linearGradient id="paint47_linear_117_3882" x1="248.394" y1="44.3258" x2="248.899" y2="53.2127" gradientUnits="userSpaceOnUse">
<stop stop-color="#ACBDDE"/>
<stop offset="1" stop-color="#2E405C"/>
</linearGradient>
<linearGradient id="paint48_linear_117_3882" x1="247.556" y1="4.07277" x2="250.14" y2="49.6447" gradientUnits="userSpaceOnUse">
<stop stop-color="white"/>
<stop offset="1" stop-color="#AEBDDF"/>
</linearGradient>
<linearGradient id="paint49_linear_117_3882" x1="138.787" y1="198.895" x2="233.566" y2="228.916" gradientUnits="userSpaceOnUse">
<stop stop-color="#FFD2BB"/>
<stop offset="1" stop-color="#FF6B5A"/>
</linearGradient>
<linearGradient id="paint50_linear_117_3882" x1="137.008" y1="232.159" x2="232.693" y2="205.179" gradientUnits="userSpaceOnUse">
<stop stop-color="#FFD2BB"/>
<stop offset="1" stop-color="#FF6B5A"/>
</linearGradient>
<linearGradient id="paint51_linear_117_3882" x1="195.913" y1="169.258" x2="195.913" y2="284.378" gradientUnits="userSpaceOnUse">
<stop stop-color="white"/>
<stop offset="1" stop-color="#AEBDDF"/>
</linearGradient>
<linearGradient id="paint52_linear_117_3882" x1="155.761" y1="181.478" x2="156.057" y2="221.68" gradientUnits="userSpaceOnUse">
<stop stop-color="#ACBDDE"/>
<stop offset="1" stop-color="#2E405C"/>
</linearGradient>
<linearGradient id="paint53_linear_117_3882" x1="140.238" y1="171.537" x2="140.238" y2="211.975" gradientUnits="userSpaceOnUse">
<stop stop-color="#ACBDDE"/>
<stop offset="1" stop-color="#2E405C"/>
</linearGradient>
<linearGradient id="paint54_linear_117_3882" x1="154.297" y1="186.317" x2="154.297" y2="210.569" gradientUnits="userSpaceOnUse">
<stop stop-color="#ACBDDE"/>
<stop offset="1" stop-color="#2E405C"/>
</linearGradient>
<linearGradient id="paint55_linear_117_3882" x1="137.764" y1="181.038" x2="137.764" y2="212.462" gradientUnits="userSpaceOnUse">
<stop stop-color="white"/>
<stop offset="1" stop-color="#AEBDDF"/>
</linearGradient>
<linearGradient id="paint56_linear_117_3882" x1="134.427" y1="172.631" x2="134.427" y2="200.895" gradientUnits="userSpaceOnUse">
<stop stop-color="white"/>
<stop offset="1" stop-color="#AEBDDF"/>
</linearGradient>
<linearGradient id="paint57_linear_117_3882" x1="131.09" y1="186.705" x2="131.09" y2="218.129" gradientUnits="userSpaceOnUse">
<stop stop-color="white"/>
<stop offset="1" stop-color="#AEBDDF"/>
</linearGradient>
<linearGradient id="paint58_linear_117_3882" x1="126.178" y1="195.382" x2="126.178" y2="265.145" gradientUnits="userSpaceOnUse">
<stop stop-color="#ACBDDE"/>
<stop offset="1" stop-color="#2E405C"/>
</linearGradient>
<linearGradient id="paint59_linear_117_3882" x1="124.618" y1="192.229" x2="124.618" y2="226.752" gradientUnits="userSpaceOnUse">
<stop stop-color="#ACBDDE"/>
<stop offset="1" stop-color="#2E405C"/>
</linearGradient>
<linearGradient id="paint60_linear_117_3882" x1="164.419" y1="188.114" x2="136.041" y2="253.739" gradientUnits="userSpaceOnUse">
<stop stop-color="#ACBDDE"/>
<stop offset="1" stop-color="#2E405C"/>
</linearGradient>
<linearGradient id="paint61_linear_117_3882" x1="180.335" y1="139.168" x2="178.249" y2="189.575" gradientUnits="userSpaceOnUse">
<stop stop-color="#FFD2BB"/>
<stop offset="1" stop-color="#FF6B5A"/>
</linearGradient>
<linearGradient id="paint62_linear_117_3882" x1="181.028" y1="100.679" x2="181.028" y2="173.457" gradientUnits="userSpaceOnUse">
<stop stop-color="#ACBDDE"/>
<stop offset="1" stop-color="#2E405C"/>
</linearGradient>
<linearGradient id="paint63_linear_117_3882" x1="229.724" y1="345.767" x2="181.093" y2="345.767" gradientUnits="userSpaceOnUse">
<stop stop-color="white" stop-opacity="0"/>
<stop offset="1" stop-color="#AEBDDF"/>
</linearGradient>
<linearGradient id="paint64_linear_117_3882" x1="191.443" y1="349.76" x2="158.471" y2="349.76" gradientUnits="userSpaceOnUse">
<stop stop-color="white" stop-opacity="0"/>
<stop offset="1" stop-color="#AEBDDF"/>
</linearGradient>
<linearGradient id="paint65_linear_117_3882" x1="182.992" y1="347.607" x2="182.992" y2="322.485" gradientUnits="userSpaceOnUse">
<stop stop-color="white"/>
<stop offset="1" stop-color="#AEBDDF"/>
</linearGradient>
<linearGradient id="paint66_linear_117_3882" x1="190.183" y1="374.876" x2="190.183" y2="255.168" gradientUnits="userSpaceOnUse">
<stop stop-color="#ACBDDE"/>
<stop offset="1" stop-color="#2E405C"/>
</linearGradient>
<linearGradient id="paint67_linear_117_3882" x1="179.135" y1="296.533" x2="182.945" y2="341.601" gradientUnits="userSpaceOnUse">
<stop stop-color="white"/>
<stop offset="1" stop-color="#AEBDDF"/>
</linearGradient>
<linearGradient id="paint68_linear_117_3882" x1="151.118" y1="352.534" x2="151.118" y2="326.322" gradientUnits="userSpaceOnUse">
<stop stop-color="white"/>
<stop offset="1" stop-color="#AEBDDF"/>
</linearGradient>
<linearGradient id="paint69_linear_117_3882" x1="172.711" y1="372.944" x2="172.711" y2="252.686" gradientUnits="userSpaceOnUse">
<stop stop-color="#ACBDDE"/>
<stop offset="1" stop-color="#2E405C"/>
</linearGradient>
<linearGradient id="paint70_linear_117_3882" x1="152.407" y1="334.519" x2="151.009" y2="349.904" gradientUnits="userSpaceOnUse">
<stop stop-color="white"/>
<stop offset="1" stop-color="#AEBDDF"/>
</linearGradient>
<linearGradient id="paint71_linear_117_3882" x1="179.729" y1="166.167" x2="180.624" y2="197.246" gradientUnits="userSpaceOnUse">
<stop stop-color="#ACBDDE"/>
<stop offset="1" stop-color="#2E405C"/>
</linearGradient>
<linearGradient id="paint72_linear_117_3882" x1="180.395" y1="169.259" x2="180.395" y2="284.378" gradientUnits="userSpaceOnUse">
<stop stop-color="white"/>
<stop offset="1" stop-color="#AEBDDF"/>
</linearGradient>
<linearGradient id="paint73_linear_117_3882" x1="93.8829" y1="214.999" x2="192.802" y2="224.939" gradientUnits="userSpaceOnUse">
<stop stop-color="#FFD2BB"/>
<stop offset="1" stop-color="#FF6B5A"/>
</linearGradient>
<linearGradient id="paint74_linear_117_3882" x1="160.613" y1="169.259" x2="160.613" y2="284.378" gradientUnits="userSpaceOnUse">
<stop stop-color="white"/>
<stop offset="1" stop-color="#AEBDDF"/>
</linearGradient>
<linearGradient id="paint75_linear_117_3882" x1="95.8661" y1="207.718" x2="191.483" y2="234.959" gradientUnits="userSpaceOnUse">
<stop stop-color="#FFD2BB"/>
<stop offset="1" stop-color="#FF6B5A"/>
</linearGradient>
<linearGradient id="paint76_linear_117_3882" x1="75.5527" y1="333.051" x2="75.5527" y2="304.599" gradientUnits="userSpaceOnUse">
<stop stop-color="white"/>
<stop offset="1" stop-color="#AEBDDF"/>
</linearGradient>
<linearGradient id="paint77_linear_117_3882" x1="-nan" y1="-nan" x2="-nan" y2="-nan" gradientUnits="userSpaceOnUse">
<stop stop-color="#5D6E8C"/>
<stop offset="1" stop-color="#2E405C"/>
</linearGradient>
<linearGradient id="paint78_linear_117_3882" x1="55.4295" y1="324.237" x2="55.4295" y2="280.946" gradientUnits="userSpaceOnUse">
<stop stop-color="#5D6E8C"/>
<stop offset="1" stop-color="#2E405C"/>
</linearGradient>
<linearGradient id="paint79_linear_117_3882" x1="95.6759" y1="324.237" x2="95.6759" y2="280.946" gradientUnits="userSpaceOnUse">
<stop stop-color="#5D6E8C"/>
<stop offset="1" stop-color="#2E405C"/>
</linearGradient>
<linearGradient id="paint80_linear_117_3882" x1="27.2182" y1="289.536" x2="106.172" y2="289.536" gradientUnits="userSpaceOnUse">
<stop stop-color="white"/>
<stop offset="1" stop-color="#AEBDDF"/>
</linearGradient>
<linearGradient id="paint81_linear_117_3882" x1="75.5527" y1="289.964" x2="75.5527" y2="233.749" gradientUnits="userSpaceOnUse">
<stop stop-color="white"/>
<stop offset="1" stop-color="#AEBDDF"/>
</linearGradient>
<linearGradient id="paint82_linear_117_3882" x1="38.3173" y1="275.013" x2="-9.88395" y2="246.394" gradientUnits="userSpaceOnUse">
<stop stop-color="#FFD2BB"/>
<stop offset="1" stop-color="#FF6B5A"/>
</linearGradient>
<linearGradient id="paint83_linear_117_3882" x1="37.1684" y1="353.665" x2="37.1684" y2="166.974" gradientUnits="userSpaceOnUse">
<stop stop-color="#ACBDDE"/>
<stop offset="1" stop-color="#2E405C"/>
</linearGradient>
<linearGradient id="paint84_linear_117_3882" x1="28.4676" y1="245.293" x2="2.00911" y2="287.183" gradientUnits="userSpaceOnUse">
<stop stop-color="white"/>
<stop offset="1" stop-color="#AEBDDF"/>
</linearGradient>
<linearGradient id="paint85_linear_117_3882" x1="16.9961" y1="285.268" x2="-11.4012" y2="241.031" gradientUnits="userSpaceOnUse">
<stop stop-color="#ACBDDE"/>
<stop offset="1" stop-color="#2E405C"/>
</linearGradient>
<linearGradient id="paint86_linear_117_3882" x1="73.9452" y1="92.4567" x2="44.3985" y2="110.701" gradientUnits="userSpaceOnUse">
<stop stop-color="#FFD2BB"/>
<stop offset="1" stop-color="#FF6B5A"/>
</linearGradient>
<linearGradient id="paint87_linear_117_3882" x1="61.6104" y1="38.6014" x2="61.6104" y2="114.888" gradientUnits="userSpaceOnUse">
<stop stop-color="#ACBDDE"/>
<stop offset="1" stop-color="#2E405C"/>
</linearGradient>
<linearGradient id="paint88_linear_117_3882" x1="99.9663" y1="265.406" x2="46.4163" y2="275.216" gradientUnits="userSpaceOnUse">
<stop stop-color="#FFD2BB"/>
<stop offset="1" stop-color="#FF6B5A"/>
</linearGradient>
<linearGradient id="paint89_linear_117_3882" x1="64.9504" y1="293.675" x2="64.9504" y2="168.876" gradientUnits="userSpaceOnUse">
<stop stop-color="#ACBDDE"/>
<stop offset="1" stop-color="#2E405C"/>
</linearGradient>
<linearGradient id="paint90_linear_117_3882" x1="78.2589" y1="286.597" x2="78.2589" y2="273.205" gradientUnits="userSpaceOnUse">
<stop stop-color="white"/>
<stop offset="1" stop-color="#AEBDDF"/>
</linearGradient>
<linearGradient id="paint91_linear_117_3882" x1="91.0747" y1="279.503" x2="35.2397" y2="293.834" gradientUnits="userSpaceOnUse">
<stop stop-color="#ACBDDE"/>
<stop offset="1" stop-color="#2E405C"/>
</linearGradient>
<linearGradient id="paint92_linear_117_3882" x1="118.724" y1="139.854" x2="9.88617" y2="139.854" gradientUnits="userSpaceOnUse">
<stop stop-color="#FFEFA4"/>
<stop offset="1" stop-color="#FE8F01"/>
</linearGradient>
<linearGradient id="paint93_linear_117_3882" x1="47.9928" y1="38.6014" x2="47.9928" y2="114.888" gradientUnits="userSpaceOnUse">
<stop stop-color="#ACBDDE"/>
<stop offset="1" stop-color="#2E405C"/>
</linearGradient>
<linearGradient id="paint94_linear_117_3882" x1="112.313" y1="61.9043" x2="112.313" y2="166.153" gradientUnits="userSpaceOnUse">
<stop stop-color="#79D985"/>
<stop offset="1" stop-color="#027A71"/>
</linearGradient>
<linearGradient id="paint95_linear_117_3882" x1="100.836" y1="113.887" x2="111.458" y2="113.887" gradientUnits="userSpaceOnUse">
<stop stop-color="#AEBDDF"/>
<stop offset="1" stop-color="#E9EDF6"/>
</linearGradient>
<linearGradient id="paint96_linear_117_3882" x1="107.191" y1="120.945" x2="102.468" y2="113.805" gradientUnits="userSpaceOnUse">
<stop stop-color="#E9EDF6"/>
<stop offset="1" stop-color="#AEBDDF"/>
</linearGradient>
<linearGradient id="paint97_linear_117_3882" x1="103.404" y1="122.658" x2="100.065" y2="117.611" gradientUnits="userSpaceOnUse">
<stop stop-color="#E9EDF6"/>
<stop offset="1" stop-color="#AEBDDF"/>
</linearGradient>
<linearGradient id="paint98_linear_117_3882" x1="133.753" y1="92.7445" x2="53.9833" y2="201.013" gradientUnits="userSpaceOnUse">
<stop stop-color="#FFD2BB"/>
<stop offset="1" stop-color="#FF6B5A"/>
</linearGradient>
<linearGradient id="paint99_linear_117_3882" x1="118.724" y1="148.621" x2="9.8862" y2="148.621" gradientUnits="userSpaceOnUse">
<stop stop-color="#FFEFA4"/>
<stop offset="1" stop-color="#FE8F01"/>
</linearGradient>
<linearGradient id="paint100_linear_117_3882" x1="118.724" y1="139.526" x2="9.8861" y2="139.526" gradientUnits="userSpaceOnUse">
<stop stop-color="#FFEFA4"/>
<stop offset="1" stop-color="#FE8F01"/>
</linearGradient>
<clipPath id="clip0_117_3882">
<rect width="285.36" height="353.442" fill="white"/>
</clipPath>
</defs>
</svg>
