<svg width="42" height="30" viewBox="0 0 42 30" fill="none" xmlns="http://www.w3.org/2000/svg">
<path d="M41.9336 27.961C41.9336 28.5018 41.7188 29.0204 41.3364 29.4028C40.954 29.7852 40.4354 30 39.8946 30H2.03899C1.49822 30 0.979591 29.7852 0.597206 29.4028C0.214822 29.0204 0 28.5018 0 27.961V2.03899C0 1.49822 0.214822 0.97959 0.597206 0.597206C0.979591 0.214821 1.49822 0 2.03899 0H39.8946C40.4354 0 40.954 0.214821 41.3364 0.597206C41.7188 0.97959 41.9336 1.49822 41.9336 2.03899V27.961ZM4.60748 2.47366L20.9589 15.1818C21.2065 15.3767 21.4542 15.3741 21.7018 15.1739L37.4684 2.41834C37.492 2.39767 37.5088 2.37046 37.5169 2.34018C37.525 2.30989 37.5238 2.27789 37.5137 2.24825C37.5035 2.2186 37.4848 2.19264 37.4598 2.17368C37.4349 2.15471 37.4048 2.14359 37.3736 2.14173L4.73393 2.11012C4.33878 2.11012 4.29663 2.2313 4.60748 2.47366ZM2.41043 3.42993C2.37323 3.40014 2.32836 3.38147 2.28101 3.37607C2.23366 3.37068 2.18574 3.37877 2.14279 3.39942C2.09984 3.42007 2.0636 3.45244 2.03824 3.49279C2.01288 3.53315 1.99944 3.57984 1.99947 3.6275L2.11802 26.2302C2.11799 26.2779 2.13143 26.3246 2.15678 26.365C2.18214 26.4053 2.21838 26.4377 2.26134 26.4583C2.30429 26.479 2.3522 26.4871 2.39956 26.4817C2.44691 26.4763 2.49177 26.4576 2.52898 26.4278L16.6596 15.0553C16.6893 15.0316 16.7132 15.0016 16.7297 14.9674C16.7461 14.9332 16.7547 14.8957 16.7547 14.8577C16.7547 14.8198 16.7461 14.7823 16.7297 14.7481C16.7132 14.7139 16.6893 14.6839 16.6596 14.6602L2.41043 3.42993ZM39.294 26.2777C39.3317 26.3114 39.3785 26.3335 39.4285 26.3411C39.4785 26.3487 39.5297 26.3417 39.5758 26.3207C39.6219 26.2998 39.6609 26.2659 39.688 26.2231C39.7152 26.1804 39.7293 26.1307 39.7287 26.0801L39.7603 3.85669C39.7596 3.80754 39.745 3.75958 39.7183 3.71834C39.6915 3.6771 39.6537 3.64426 39.6091 3.62361C39.5645 3.60295 39.5149 3.59533 39.4662 3.60161C39.4174 3.60789 39.3714 3.62783 39.3335 3.65912L25.8588 14.7471C25.8304 14.7716 25.8076 14.8019 25.792 14.836C25.7763 14.8701 25.7682 14.9072 25.7682 14.9447C25.7682 14.9822 25.7763 15.0193 25.792 15.0534C25.8076 15.0874 25.8304 15.1178 25.8588 15.1423L39.294 26.2777ZM21.5042 18.0585C21.4603 18.0894 21.4078 18.106 21.3541 18.106C21.3003 18.106 21.2479 18.0894 21.2039 18.0585L18.754 16.3356C18.7076 16.3051 18.6527 16.2902 18.5973 16.293C18.5418 16.2959 18.4887 16.3163 18.4457 16.3514L4.74183 27.3604C4.69867 27.3941 4.66722 27.4405 4.65193 27.4931C4.63665 27.5457 4.63831 27.6018 4.65667 27.6534C4.67503 27.705 4.70917 27.7495 4.75425 27.7806C4.79932 27.8117 4.85304 27.8278 4.9078 27.8267L37.176 27.8504C37.2295 27.8511 37.282 27.8354 37.3263 27.8053C37.3706 27.7752 37.4045 27.7322 37.4235 27.6821C37.4425 27.632 37.4456 27.5773 37.4324 27.5254C37.4192 27.4735 37.3904 27.4269 37.3498 27.392L24.1438 16.4384C24.1002 16.4014 24.0456 16.3799 23.9884 16.377C23.9313 16.3742 23.8749 16.3902 23.8277 16.4226L21.5042 18.0585Z" fill="#302F4D"/>
</svg>
