<svg width="50" height="50" viewBox="0 0 50 50" fill="none" xmlns="http://www.w3.org/2000/svg">
<g clip-path="url(#clip0_117_3262)">
<path d="M22.2405 0.0705354L21.8702 0.36063C21.8121 0.406227 21.7861 0.466762 21.7924 0.542233C21.816 0.814246 21.7578 1.14443 21.6179 1.5328C21.4481 2.00921 21.2594 2.47541 21.0518 2.93138C21.044 2.94868 20.9717 3.1633 20.8349 3.57525C20.7421 3.84884 20.5809 4.06975 20.3514 4.23799C20.0149 4.4817 19.8396 4.60984 19.8254 4.62242C19.3286 5.06896 18.8026 5.4872 18.2476 5.87714C18.2124 5.90165 18.1866 5.93742 18.1745 5.97855C18.0802 6.28044 17.8789 6.44632 17.5707 6.47619C17.5644 6.47777 17.5055 6.52022 17.3938 6.60355C17.3294 6.65229 17.2893 6.71597 17.2735 6.79459C17.2704 6.80717 17.2743 6.81346 17.2853 6.81346L19 6.95261C17.3286 6.94318 16.2625 6.96597 15.8019 7.02101C12.2971 7.44239 9.69493 9.2089 7.99525 12.3205C7.49997 12.4196 7.05893 12.3528 6.67214 12.1201C6.61239 12.0839 6.54792 12.0666 6.47874 12.0682L5.53299 12.0894C5.5245 12.0893 5.51627 12.0918 5.50934 12.0965C5.50241 12.1013 5.4971 12.1082 5.49406 12.1163C5.49103 12.1244 5.49042 12.1333 5.49231 12.142C5.4942 12.1506 5.49851 12.1586 5.50468 12.1649C5.53141 12.1885 5.56129 12.1947 5.59431 12.1837C5.60846 12.179 5.60846 12.1759 5.59431 12.1743C4.56286 12.0517 3.53456 11.8701 2.5094 11.6295C2.49839 11.6263 2.26726 11.5548 1.81601 11.4149C1.30185 11.2545 0.719307 11.2922 0.226383 11.0069C0.180785 10.9801 0.156414 10.9935 0.15327 11.0469C0.145408 11.19 0.144622 11.33 0.150911 11.4668C0.150911 11.4683 0.150125 11.4691 0.148553 11.4691C0.148553 11.4691 0.147767 11.4691 0.146194 11.4691C0.144622 11.4691 0.143836 11.4675 0.143836 11.4644L0.0754395 10.2356C0.582515 5.39836 3.941 1.30403 8.79242 0.289875C9.51412 0.138931 10.7327 0.06346 12.4481 0.06346C15.7107 0.0618877 18.9748 0.0642461 22.2405 0.0705354Z" fill="#7839BF"/>
<path d="M22.2405 0.0708008L28.3985 0.0873101L28.2995 3.21231C28.2963 3.28621 28.2727 3.35303 28.2287 3.41278C28.0746 3.62504 28.0306 3.85539 28.0966 4.10382C28.1186 4.18715 28.1666 4.20759 28.2405 4.16514L28.4174 4.06136C28.5715 3.97331 28.6092 4.00869 28.5306 4.1675C28.463 4.30114 28.4488 4.42457 28.4881 4.53778C28.5101 4.60539 28.5149 4.67457 28.5023 4.74533L28.2971 5.93165C28.2922 5.9619 28.2962 5.99307 28.3088 6.02149C28.3213 6.04991 28.3418 6.07438 28.3679 6.09202L28.4811 6.16514C28.5314 6.19658 28.5479 6.24061 28.5306 6.29721C28.4818 6.46545 28.518 6.62032 28.6391 6.76183C28.6815 6.81058 28.735 6.83809 28.7995 6.84438L30.0613 6.95051L18.9999 6.95287L17.2853 6.81372C17.2743 6.81372 17.2704 6.80743 17.2735 6.79485C17.2892 6.71624 17.3293 6.65256 17.3938 6.60382C17.5054 6.52048 17.5644 6.47803 17.5707 6.47646C17.8789 6.44658 18.0801 6.2807 18.1745 5.97882C18.1866 5.93768 18.2124 5.90191 18.2476 5.8774C18.8026 5.48746 19.3285 5.06922 19.8254 4.62268C19.8395 4.61011 20.0149 4.48196 20.3513 4.23825C20.5809 4.07001 20.7421 3.8491 20.8348 3.57552C20.9716 3.16357 21.044 2.94894 21.0518 2.93165C21.2594 2.47567 21.448 2.00948 21.6179 1.53306C21.7578 1.1447 21.816 0.814511 21.7924 0.542499C21.7861 0.467027 21.812 0.406492 21.8702 0.360895L22.2405 0.0708008Z" fill="#9121B9"/>
<path d="M34.5614 0.0634766L36.7948 0.325269C36.837 0.329767 36.877 0.345988 36.9103 0.372089C36.9437 0.39819 36.969 0.433125 36.9835 0.472922C36.998 0.51272 37.0011 0.555785 36.9923 0.597224C36.9836 0.638664 36.9634 0.676816 36.934 0.707344C36.6463 1.01238 36.4191 1.38738 36.2524 1.83234C35.7524 3.17039 35.0936 4.42511 34.276 5.5965C34.0527 5.91411 34.0409 6.25216 34.2406 6.61065C34.2956 6.71285 34.2658 6.76709 34.151 6.77338L31.4953 6.93376L30.0614 6.95027L28.7996 6.84414C28.7351 6.83785 28.6816 6.81033 28.6392 6.76159C28.5181 6.62008 28.482 6.46521 28.5307 6.29697C28.548 6.24036 28.5315 6.19634 28.4812 6.16489L28.368 6.09178C28.3419 6.07414 28.3214 6.04966 28.3089 6.02125C28.2963 5.99283 28.2923 5.96165 28.2972 5.9314L28.5024 4.74508C28.515 4.67433 28.5103 4.60514 28.4882 4.53753C28.4489 4.42433 28.4631 4.3009 28.5307 4.16725C28.6093 4.00845 28.5716 3.97307 28.4175 4.06112L28.2406 4.16489C28.1667 4.20734 28.1187 4.1869 28.0967 4.10357C28.0307 3.85514 28.0747 3.6248 28.2288 3.41253C28.2728 3.35278 28.2964 3.28596 28.2996 3.21206L28.3986 0.0870613L34.5614 0.0634766Z" fill="#AB00B5"/>
<path d="M34.5613 0.0638415C37.8207 0.0544075 40.882 -0.249837 43.8985 1.26195C43.8113 1.9695 43.4504 2.40818 43.2335 2.93648C43.1375 3.17547 43.0385 3.41368 42.9363 3.6511C42.8985 3.73915 42.9088 3.81227 42.9669 3.87044C43.0235 3.92705 43.0393 3.99308 43.0141 4.06856C42.8616 4.52139 42.6344 4.93333 42.3325 5.3044C42.246 5.40818 42.1446 5.46006 42.0283 5.46006C41.9512 5.46164 41.8899 5.49308 41.8443 5.5544L41.1674 6.4695C41.1108 6.54811 41.0416 6.61415 40.9599 6.66761C40.518 6.95692 40.1879 7.34214 39.9693 7.82327C39.9363 7.89874 39.8883 7.96321 39.8254 8.01667C39.6289 8.18648 39.4717 8.3838 39.3537 8.60865C39.3239 8.66368 39.2956 8.66289 39.2688 8.60629C39.2594 8.58742 39.2515 8.56619 39.2452 8.54261C39.2432 8.5385 39.241 8.53708 39.239 8.53855C39.2371 8.54002 39.2354 8.54431 39.2343 8.55076C39.2333 8.5572 39.2328 8.56544 39.2331 8.5742C39.2334 8.58296 39.2343 8.59175 39.2358 8.59921C39.2437 8.62751 39.2413 8.6566 39.2287 8.68648C39.2193 8.71006 39.2012 8.72972 39.1745 8.74544C39.1037 8.78789 39.0314 8.80361 38.9575 8.79261C36.5518 7.0945 34.3797 6.97893 31.4952 6.93412L34.1509 6.77374C34.2657 6.76745 34.2956 6.71321 34.2405 6.61101C34.0408 6.25252 34.0526 5.91447 34.2759 5.59686C35.0935 4.42547 35.7523 3.17076 36.2523 1.83271C36.419 1.38774 36.6462 1.01274 36.9339 0.707709C36.9633 0.67718 36.9835 0.639028 36.9922 0.597589C37.001 0.55615 36.998 0.513084 36.9835 0.473287C36.969 0.433489 36.9436 0.398555 36.9103 0.372454C36.8769 0.346353 36.8369 0.330132 36.7948 0.325634L34.5613 0.0638415Z" fill="#C5019F"/>
<path d="M43.8986 1.26172C47.0998 3.05417 49.0291 5.6265 49.6863 8.9787C49.853 9.82618 49.9371 11.3922 49.9387 13.6768C49.9402 17.724 49.9379 21.7696 49.9316 25.8136C49.7508 25.2255 49.5802 24.8702 49.4198 24.7476C47.2531 23.0715 45.1218 21.3592 43.0259 19.6108C43.1745 15.1603 42.7335 11.6037 38.9575 8.79238C39.0314 8.80338 39.1037 8.78766 39.1745 8.74521C39.2012 8.72948 39.2193 8.70983 39.2287 8.68624C39.2413 8.65637 39.2437 8.62728 39.2358 8.59898C39.2343 8.59151 39.2334 8.58272 39.2331 8.57396C39.2328 8.56521 39.2333 8.55697 39.2344 8.55053C39.2354 8.54408 39.2371 8.53979 39.2391 8.53832C39.241 8.53685 39.2432 8.53827 39.2453 8.54238C39.2515 8.56596 39.2594 8.58719 39.2688 8.60606C39.2956 8.66266 39.3239 8.66345 39.3537 8.60841C39.4717 8.38357 39.6289 8.18624 39.8254 8.01643C39.8883 7.96297 39.9363 7.89851 39.9693 7.82304C40.1879 7.3419 40.5181 6.95669 40.9599 6.66738C41.0416 6.61392 41.1108 6.54788 41.1674 6.46926L41.8443 5.55417C41.8899 5.49285 41.9512 5.4614 42.0283 5.45983C42.1446 5.45983 42.246 5.40794 42.3325 5.30417C42.6344 4.9331 42.8616 4.52115 43.0141 4.06832C43.0393 3.99285 43.0236 3.92681 42.967 3.87021C42.9088 3.81203 42.8986 3.73892 42.9363 3.65087C43.0385 3.41345 43.1376 3.17524 43.2335 2.93625C43.4504 2.40794 43.8113 1.96927 43.8986 1.26172Z" fill="#E800A3"/>
<path d="M19.0001 6.95295L30.0614 6.95059L31.4954 6.93408C34.3798 6.97889 36.552 7.09446 38.9576 8.79257C42.7336 11.6039 43.1746 15.1605 43.026 19.611C43.037 24.122 43.0402 28.6699 43.0355 33.2548C43.0339 34.1731 42.8806 35.1872 42.5756 36.2973C41.5315 39.2533 39.563 41.3044 36.6699 42.4506L34.0921 42.993L28.9529 43.0284C24.9718 43.0316 21.0009 43.0284 17.0402 43.019C15.7288 43.0159 14.5111 42.828 13.3869 42.4553C11.3334 41.6456 9.72648 40.3688 8.5661 38.6251C7.62428 37.1346 7.09362 35.5394 6.97412 33.8397L6.96233 24.0025L6.9812 18.5072C6.78465 16.2902 7.12271 14.2281 7.99535 12.3209C9.69503 9.20924 12.2972 7.44273 15.802 7.02135C16.2626 6.96631 17.3287 6.94352 19.0001 6.95295ZM9.79724 18.894L9.79959 22.2336L9.80431 31.4364C9.61091 33.5945 9.78308 35.5544 11.059 37.3091C12.4097 39.199 14.2068 40.1676 16.4505 40.2147C18.5417 40.2588 23.629 40.269 31.7123 40.2454C33.21 40.3232 35.1109 40.3091 36.3279 39.5072C39.4789 37.9294 40.4553 34.9883 40.1982 31.6534C40.2296 26.7037 40.2367 21.7541 40.2194 16.8044C40.2116 14.4585 39.2918 12.5756 37.46 11.1558C36.2131 10.2423 34.7524 9.7855 33.0779 9.7855C30.7776 9.78393 28.4836 9.78707 26.1958 9.79493C23.2917 9.77606 20.3884 9.77213 17.4859 9.78314C16.2579 9.78786 15.3012 9.89792 14.6156 10.1133C11.717 11.0284 9.99063 13.427 9.81139 16.453C9.7595 17.3177 9.75478 18.1314 9.79724 18.894Z" fill="white"/>
<path d="M26.1958 9.79473C25.8923 9.85291 25.5889 9.90165 25.2854 9.94096C24.9222 9.98655 24.6502 10.1037 24.4694 10.2924C24.1974 10.5754 24.0134 10.9197 23.9175 11.3254C23.9168 11.3286 23.9167 11.3319 23.9173 11.3351C23.918 11.3383 23.9192 11.3413 23.9211 11.3438C23.9229 11.3463 23.9252 11.3483 23.9279 11.3496C23.9305 11.3509 23.9334 11.3515 23.9364 11.3513C23.9631 11.3513 23.989 11.3513 24.0142 11.3513C24.1022 11.3513 24.1164 11.3844 24.0567 11.4504L23.9222 11.599C23.9065 11.6163 23.9041 11.6233 23.9151 11.6202C23.934 11.6139 23.9544 11.61 23.9765 11.6084C24.0724 11.6037 24.103 11.6469 24.0684 11.7381C23.9537 12.0337 23.9647 12.3222 24.1015 12.6037C24.1502 12.7059 24.1227 12.7782 24.0189 12.8207C23.868 12.882 23.7611 12.9866 23.6982 13.1344C23.6636 13.2114 23.6062 13.2617 23.526 13.2853C23.3688 13.3309 23.2618 13.4323 23.2052 13.5895C23.1977 13.6048 23.1963 13.6224 23.2014 13.6386C23.2065 13.6548 23.2176 13.6685 23.2325 13.6767C23.2474 13.6849 23.2649 13.687 23.2814 13.6827C23.2978 13.6783 23.3119 13.6677 23.3208 13.6532C23.3554 13.6061 23.3971 13.5848 23.4458 13.5895C23.537 13.5958 23.5567 13.6367 23.5048 13.7122C23.1722 14.2051 22.6486 14.5589 22.3727 15.04C22.2453 15.2649 22.1329 15.4928 22.0354 15.724C20.853 16.1249 19.7422 16.7468 18.7029 17.5895C18.4985 17.4936 18.3444 17.5274 18.2406 17.691C18.1966 17.7586 18.1361 17.8065 18.059 17.8348C17.9898 17.8584 17.9379 17.8521 17.9033 17.816C17.842 17.7546 17.7689 17.7303 17.684 17.7428L9.79721 18.8938C9.75476 18.1312 9.75947 17.3175 9.81136 16.4527C9.99061 13.4268 11.717 11.0282 14.6156 10.1131C15.3011 9.89772 16.2579 9.78765 17.4859 9.78294C20.3884 9.77193 23.2917 9.77586 26.1958 9.79473Z" fill="#B020A1"/>
<path d="M26.1958 9.79498C28.4835 9.78712 30.7775 9.78398 33.0779 9.78555C34.7524 9.78555 36.2131 10.2423 37.4599 11.1558C37.4646 11.2533 37.3829 11.2753 37.2146 11.2219C37.1596 11.2046 37.1187 11.2211 37.092 11.2714C36.9867 11.4632 36.8286 11.5937 36.6179 11.6629C36.5769 11.6761 36.5394 11.6987 36.5083 11.729C36.4773 11.7592 36.4534 11.7963 36.4387 11.8374C36.3538 12.0717 36.1958 12.2415 35.9646 12.3469C35.9568 12.35 35.9568 12.3524 35.9646 12.3539C35.9851 12.3539 36.0063 12.3532 36.0283 12.3516C36.0532 12.3491 36.0763 12.356 36.094 12.3711C36.1116 12.3862 36.1228 12.4087 36.1258 12.4349C36.1288 12.4612 36.1234 12.4898 36.1104 12.5162C36.0974 12.5425 36.0777 12.5651 36.0543 12.5804C36.0244 12.5992 35.9756 12.6 35.908 12.5827C33.6038 12.1511 32.4033 14.7266 34.1014 16.2761C32.9269 16.7179 31.7705 16.9837 30.6321 17.0733C28.0268 15.2793 25.1612 14.8296 22.0354 15.7242C22.1329 15.4931 22.2453 15.2651 22.3727 15.0403C22.6486 14.5591 23.1722 14.2054 23.5047 13.7124C23.5566 13.637 23.537 13.5961 23.4458 13.5898C23.397 13.5851 23.3554 13.6063 23.3208 13.6535C23.3119 13.668 23.2978 13.6786 23.2814 13.6829C23.2649 13.6873 23.2474 13.6852 23.2325 13.6769C23.2176 13.6687 23.2065 13.6551 23.2014 13.6389C23.1963 13.6226 23.1977 13.605 23.2052 13.5898C23.2618 13.4326 23.3687 13.3311 23.526 13.2856C23.6062 13.262 23.6635 13.2117 23.6981 13.1346C23.761 12.9868 23.8679 12.8822 24.0189 12.8209C24.1227 12.7785 24.1502 12.7061 24.1014 12.6039C23.9646 12.3225 23.9536 12.034 24.0684 11.7384C24.103 11.6472 24.0724 11.6039 23.9764 11.6087C23.9544 11.6102 23.934 11.6142 23.9151 11.6205C23.9041 11.6236 23.9065 11.6165 23.9222 11.5992L24.0566 11.4506C24.1164 11.3846 24.1022 11.3516 24.0142 11.3516C23.989 11.3516 23.9631 11.3516 23.9363 11.3516C23.9334 11.3518 23.9305 11.3512 23.9279 11.3499C23.9252 11.3486 23.9229 11.3466 23.921 11.3441C23.9192 11.3415 23.9179 11.3386 23.9173 11.3354C23.9167 11.3322 23.9168 11.3288 23.9175 11.3256C24.0134 10.92 24.1973 10.5756 24.4694 10.2926C24.6502 10.1039 24.9222 9.98681 25.2854 9.94121C25.5889 9.9019 25.8923 9.85316 26.1958 9.79498Z" fill="#C5019F"/>
<path d="M0.0754395 10.2358L0.143836 11.4646C0.143836 11.4678 0.144622 11.4693 0.146194 11.4693C0.147767 11.4693 0.148553 11.4693 0.148553 11.4693C0.150125 11.4693 0.150911 11.4685 0.150911 11.467C0.144622 11.3302 0.145408 11.1902 0.15327 11.0472C0.156414 10.9937 0.180785 10.9803 0.226383 11.0071C0.719307 11.2924 1.30185 11.2547 1.81601 11.4151C2.26726 11.555 2.4984 11.6266 2.5094 11.6297C3.53456 11.8703 4.56286 12.0519 5.59431 12.1745C5.60846 12.1761 5.60846 12.1792 5.59431 12.184C5.56129 12.195 5.53141 12.1887 5.50469 12.1651C5.49851 12.1588 5.49421 12.1508 5.49232 12.1422C5.49043 12.1335 5.49103 12.1246 5.49407 12.1165C5.4971 12.1084 5.50242 12.1015 5.50934 12.0968C5.51627 12.092 5.5245 12.0895 5.53299 12.0896L6.47874 12.0684C6.54792 12.0668 6.61239 12.0841 6.67214 12.1203C7.05893 12.353 7.49997 12.4198 7.99525 12.3207C7.12261 14.228 6.78456 16.2901 6.9811 18.5071C6.46852 18.3231 5.95358 18.2178 5.43629 18.191C4.94258 18.1643 4.61632 18.1313 4.45752 18.092C4.07544 17.9976 3.77119 17.8703 3.54478 17.7099C3.08409 17.3844 2.66349 17.1352 2.28299 16.9623C2.19179 16.9214 1.83802 16.8396 1.22167 16.717C0.828584 16.6384 0.448081 16.4725 0.0801565 16.2193L0.0754395 10.2358Z" fill="#B020A1"/>
<path d="M37.4599 11.1558C39.2917 12.5756 40.2115 14.4584 40.2193 16.8044C40.2366 21.754 40.2296 26.7037 40.1981 31.6534C40.0896 30.0937 39.9827 29.074 39.8774 28.5945C39.7233 27.8822 39.2398 27.4097 38.4269 27.177C38.3546 27.1566 38.2932 27.1173 38.2429 27.0591C37.2618 25.927 36.0857 25.0803 34.7146 24.519C34.4882 21.4514 33.1274 18.9694 30.6321 17.0732C31.7704 16.9836 32.9269 16.7179 34.1014 16.276C36.8962 18.1982 39.0731 13.5048 35.908 12.5826C35.9756 12.5999 36.0244 12.5992 36.0542 12.5803C36.0777 12.5651 36.0974 12.5425 36.1104 12.5161C36.1234 12.4898 36.1288 12.4612 36.1258 12.4349C36.1228 12.4086 36.1116 12.3861 36.0939 12.371C36.0763 12.3559 36.0532 12.349 36.0283 12.3515C36.0063 12.3531 35.9851 12.3539 35.9646 12.3539C35.9568 12.3523 35.9568 12.3499 35.9646 12.3468C36.1958 12.2415 36.3538 12.0716 36.4387 11.8374C36.4534 11.7963 36.4772 11.7591 36.5083 11.7289C36.5394 11.6986 36.5769 11.676 36.6179 11.6628C36.8286 11.5937 36.9866 11.4632 37.092 11.2713C37.1187 11.221 37.1596 11.2045 37.2146 11.2218C37.3829 11.2753 37.4646 11.2532 37.4599 11.1558Z" fill="#FE0079"/>
<path d="M35.908 12.5827C39.0731 13.5049 36.8962 18.1983 34.1014 16.2761C32.4033 14.7266 33.6038 12.1511 35.908 12.5827Z" fill="white"/>
<path d="M30.6321 17.0729C33.1274 18.9692 34.4882 21.4511 34.7146 24.5187C34.8255 29.7475 31.4151 33.7828 26.283 34.6555C22.3507 34.9731 19.2225 33.5509 16.8986 30.389C15.2115 27.7286 14.842 24.8709 15.7901 21.8159C16.3766 20.1901 17.3475 18.7813 18.7029 17.5895C19.7422 16.7467 20.853 16.1248 22.0354 15.7239C25.1612 14.8292 28.0268 15.2789 30.6321 17.0729ZM18.6698 22.2828C17.3349 25.5564 18.5779 29.422 21.6533 31.0163C27.7123 34.1602 34.0661 28.0682 31.1887 21.9338C28.3467 16.705 21.1934 16.863 18.6698 22.2828Z" fill="white"/>
<path d="M6.98114 18.507L6.96228 24.0023C5.43555 24.0306 3.94813 24.2169 2.50001 24.5612C1.77517 24.7326 1.03539 24.8324 0.280672 24.8607C0.2052 24.8639 0.15803 24.8285 0.139162 24.7546L0.0825587 24.5353L0.0802002 16.2192C0.448125 16.4724 0.828628 16.6383 1.22171 16.7169C1.83806 16.8395 2.19184 16.9213 2.28303 16.9622C2.66353 17.1351 3.08413 17.3843 3.54482 17.7098C3.77124 17.8702 4.07548 17.9975 4.45756 18.0919C4.61636 18.1312 4.94262 18.1642 5.43633 18.1909C5.95363 18.2177 6.46857 18.323 6.98114 18.507Z" fill="#DA0088"/>
<path d="M18.7028 17.5898C17.3474 18.7816 16.3765 20.1904 15.79 21.8162C13.7806 22.0788 11.7838 22.2179 9.79948 22.2337L9.79712 18.8941L17.6839 17.7431C17.7688 17.7305 17.8419 17.7549 17.9033 17.8162C17.9378 17.8524 17.9897 17.8587 18.0589 17.8351C18.136 17.8068 18.1965 17.7588 18.2405 17.6912C18.3443 17.5277 18.4984 17.4939 18.7028 17.5898Z" fill="#DA0088"/>
<path d="M31.1887 21.9337C30.5519 21.5517 29.8593 21.4778 29.1108 21.712C28.6643 21.852 28.3089 21.929 28.0448 21.9432C26.7979 22.0092 25.5558 22.1256 24.3184 22.2922C24.2036 22.308 24.0527 22.297 23.8656 22.2592C23.7083 22.2293 23.5527 22.2286 23.3986 22.2569C22.9835 22.3339 22.7641 22.3724 22.7406 22.3724C21.5566 22.4212 20.3718 22.5108 19.1863 22.6413C19.1045 22.6492 19.0338 22.6248 18.974 22.5682L18.6698 22.2828C21.1934 16.863 28.3467 16.705 31.1887 21.9337Z" fill="#FE0079"/>
<path d="M43.0259 19.6108C45.1218 21.3593 47.2531 23.0715 49.4198 24.7476C49.5802 24.8703 49.7508 25.2256 49.9316 25.8137C49.9379 30.202 49.9379 34.5888 49.9316 38.9741C49.9269 41.647 48.9984 44.0393 47.1462 46.1509C47.0456 46.0377 46.8498 46.1439 46.5589 46.4693C46.5481 46.4809 46.5342 46.4892 46.5188 46.4933C46.5034 46.4974 46.4873 46.497 46.4724 46.4923C46.4574 46.4875 46.4443 46.4786 46.4345 46.4666C46.4248 46.4546 46.4188 46.44 46.4174 46.4245C46.375 45.945 46.2492 45.5008 46.0401 45.092C46.0008 45.0165 45.989 44.9363 46.0047 44.8514C46.0456 44.6439 46.0377 44.4457 45.9811 44.2571C45.8569 43.842 45.7916 43.614 45.7853 43.5731C45.7193 43.1706 45.6281 42.7728 45.5118 42.3797C45.507 42.364 45.4709 42.2846 45.4033 42.1415C45.3419 42.0094 45.3585 41.8797 45.4528 41.7524C45.4984 41.6879 45.5133 41.6171 45.4976 41.5401C45.463 41.3829 45.3695 41.261 45.2169 41.1745C45.1509 41.1368 45.1077 41.081 45.0872 41.0071C44.8105 40.0039 44.5031 39.2083 44.1651 38.6203C43.8412 38.0574 43.6037 37.5605 43.4528 37.1297C43.3506 36.8357 43.2712 36.6407 43.2146 36.5448C42.9913 36.1674 42.7783 36.0849 42.5754 36.2972C42.8805 35.1871 43.0338 34.1729 43.0353 33.2547C43.0401 28.6698 43.0369 24.1218 43.0259 19.6108Z" fill="#FE0079"/>
<path d="M31.1887 21.9339C34.0661 28.0683 27.7123 34.1603 21.6534 31.0164C18.5779 29.4221 17.335 25.5565 18.6699 22.2829L18.9741 22.5683C19.0339 22.6249 19.1046 22.6493 19.1864 22.6414C20.3719 22.5109 21.5567 22.4213 22.7406 22.3726C22.7642 22.3726 22.9835 22.334 23.3986 22.257C23.5527 22.2287 23.7084 22.2295 23.8656 22.2594C24.0527 22.2971 24.2037 22.3081 24.3185 22.2924C25.5559 22.1257 26.798 22.0094 28.0449 21.9433C28.309 21.9292 28.6644 21.8521 29.1109 21.7122C29.8593 21.4779 30.5519 21.5518 31.1887 21.9339Z" fill="#FF0151"/>
<path d="M15.7901 21.8159C14.842 24.8709 15.2115 27.7287 16.8986 30.389C16.853 30.6548 16.6824 30.8057 16.3868 30.8419C14.5378 31.0761 12.8845 31.4582 11.4269 31.9881C11.0826 32.1131 10.651 32.4409 10.1463 32.4739C10.1085 32.4766 10.071 32.4673 10.0392 32.4474C10.0073 32.4274 9.98288 32.3979 9.96937 32.3631C9.8483 32.0581 9.79327 31.7491 9.80428 31.4362L9.79956 22.2334C11.7838 22.2176 13.7807 22.0785 15.7901 21.8159Z" fill="#FF0151"/>
<path d="M6.96227 24.0024L6.97406 33.8397L6.9151 34.7029C6.91318 34.7381 6.9004 34.7718 6.87848 34.7997C6.85655 34.8275 6.82653 34.8481 6.79246 34.8586C6.17925 35.0331 6.07312 35.5284 5.73113 35.8491C5.19497 36.357 4.66745 36.8712 4.14859 37.3916C3.84827 37.6951 3.54403 38.0748 3.23585 38.5308C2.95912 38.9364 2.66824 39.3311 2.36321 39.7147C1.92689 40.2642 1.65566 40.776 1.41745 41.3845C1.31682 41.6361 1.17217 41.8696 0.983489 42.085C0.923741 42.1526 0.855344 42.1636 0.7783 42.118L0.566036 41.9883C0.283017 41.0276 0.136004 40.2784 0.124998 39.7407C0.0762558 37.4246 0.0621048 32.3562 0.0825451 24.5355L0.139149 24.7548C0.158017 24.8287 0.205187 24.8641 0.280658 24.8609C1.03538 24.8326 1.77516 24.7328 2.5 24.5614C3.94811 24.2171 5.43554 24.0307 6.96227 24.0024Z" fill="#FF0151"/>
<path d="M40.1981 31.6535C40.4551 34.9884 39.4787 37.9294 36.3278 39.5072C35.8781 39.523 35.4606 39.6094 35.0754 39.7667C34.6619 39.9349 34.3325 40.0293 34.0872 40.0497C33.3859 40.1094 32.9119 40.1134 32.665 40.0615C32.4779 40.0222 32.3734 39.898 32.3514 39.6888C32.3451 39.6322 32.3215 39.5843 32.2806 39.545L30.8773 38.1794C30.8207 38.126 30.7853 38.0607 30.7712 37.9837C30.7036 37.6488 30.4992 37.4404 30.158 37.3587C30.1295 37.3511 30.103 37.3381 30.0799 37.3202C30.0568 37.3024 30.0376 37.2802 30.0235 37.2549C29.6179 36.5167 28.9339 36.328 28.4551 35.9837C27.7995 35.5135 27.0754 35.0709 26.283 34.6558C31.415 33.7832 34.8254 29.7478 34.7146 24.519C36.0856 25.0804 37.2617 25.9271 38.2429 27.0591C38.2932 27.1173 38.3545 27.1566 38.4268 27.1771C39.2397 27.4098 39.7232 27.8822 39.8773 28.5945C39.9827 29.0741 40.0896 30.0937 40.1981 31.6535Z" fill="#FF0151"/>
<path d="M16.8986 30.3892C19.2225 33.5511 22.3506 34.9733 26.283 34.6557C27.0755 35.0708 27.7995 35.5134 28.4552 35.9835C28.934 36.3278 29.6179 36.5165 30.0236 37.2547C30.0377 37.28 30.0568 37.3022 30.0799 37.3201C30.103 37.3379 30.1296 37.351 30.158 37.3585C30.4992 37.4403 30.7036 37.6486 30.7712 37.9835C30.7854 38.0605 30.8208 38.1258 30.8774 38.1792L32.2807 39.5448C32.3216 39.5841 32.3451 39.6321 32.3514 39.6887C32.3734 39.8978 32.478 40.022 32.6651 40.0613C32.912 40.1132 33.386 40.1093 34.0873 40.0495C34.3326 40.0291 34.662 39.9348 35.0755 39.7665C35.4607 39.6093 35.8782 39.5228 36.3278 39.5071C35.1109 40.309 33.2099 40.3231 31.7123 40.2453L28.783 40.1038C28.7044 40.0991 28.6392 40.0676 28.5873 40.0094C28.5322 39.9465 28.4733 39.8899 28.4104 39.8396C27.5047 39.1211 26.5653 38.4552 25.592 37.842C24.5181 37.1627 23.4804 36.6792 22.4788 36.3915C19.4694 35.5252 16.4646 35.6698 13.4646 36.8255C13.4521 36.8302 13.1565 36.9741 12.5778 37.2571C11.9867 37.5464 11.4804 37.5637 11.059 37.309C9.78304 35.5543 9.61087 33.5943 9.80426 31.4363C9.79326 31.7492 9.84829 32.0582 9.96936 32.3632C9.98286 32.398 10.0073 32.4276 10.0392 32.4475C10.071 32.4675 10.1085 32.4768 10.1462 32.4741C10.651 32.441 11.0826 32.1132 11.4269 31.9882C12.8845 31.4583 14.5378 31.0763 16.3868 30.842C16.6824 30.8058 16.853 30.6549 16.8986 30.3892Z" fill="#FF4F44"/>
<path d="M6.97406 33.8398C7.09356 35.5395 7.62422 37.1347 8.56604 38.6252C8.16667 39.2369 7.69183 39.8194 7.14151 40.3729C6.70284 40.8163 6.55897 41.3163 6.17453 41.8115C5.79717 42.2974 5.55111 42.6504 5.43633 42.8705C5.17375 43.3768 4.92532 43.8902 4.69104 44.4106C4.68004 44.4342 4.67689 44.4507 4.68161 44.4601L4.71463 44.5214C4.72878 44.5482 4.72956 44.5757 4.71699 44.604C4.42139 45.2974 4.19812 46.0144 4.04717 46.7549C4.02516 46.8603 3.90645 46.9444 3.69104 47.0073C2.18475 45.6394 1.14308 43.9664 0.56604 41.9884L0.778304 42.1181C0.855348 42.1637 0.923745 42.1527 0.983493 42.0851C1.17217 41.8697 1.31683 41.6362 1.41746 41.3847C1.65566 40.7762 1.92689 40.2644 2.36321 39.7148C2.66824 39.3312 2.95912 38.9365 3.23585 38.5309C3.54403 38.0749 3.84827 37.6952 4.14859 37.3917C4.66746 36.8713 5.19497 36.3571 5.73114 35.8493C6.07312 35.5285 6.17925 35.0332 6.79246 34.8587C6.82653 34.8482 6.85655 34.8276 6.87848 34.7998C6.90041 34.772 6.91319 34.7382 6.9151 34.7031L6.97406 33.8398Z" fill="#FF4F44"/>
<path d="M31.7123 40.2455C23.6289 40.2691 18.5417 40.2589 16.4505 40.2149C14.2068 40.1677 12.4096 39.1991 11.059 37.3092C11.4803 37.5639 11.9866 37.5466 12.5778 37.2573C13.1564 36.9743 13.452 36.8304 13.4646 36.8257C16.4646 35.6701 19.4693 35.5254 22.4788 36.3918C23.4803 36.6795 24.5181 37.163 25.592 37.8422C26.5652 38.4554 27.5047 39.1213 28.4104 39.8399C28.4733 39.8902 28.5322 39.9468 28.5873 40.0097C28.6391 40.0679 28.7044 40.0993 28.783 40.104L31.7123 40.2455Z" fill="#FF7D47"/>
<path d="M47.1463 46.151C44.8287 48.695 41.9238 49.9388 38.4317 49.8822C37.651 49.6557 38.085 48.8043 37.9906 48.2501C37.912 47.791 37.8515 47.3287 37.809 46.8633C37.7807 46.5441 37.71 46.1652 37.5968 45.7265C37.504 45.3664 37.4403 45.0001 37.4057 44.6274C37.3994 44.5551 37.3774 44.4875 37.3397 44.4246C37.1636 44.1384 36.8955 43.6652 36.5355 43.0048C36.4238 42.7972 36.4686 42.6125 36.6699 42.4505C39.563 41.3043 41.5315 39.2532 42.5755 36.2972C42.7784 36.085 42.9914 36.1675 43.2147 36.5449C43.2713 36.6408 43.3507 36.8358 43.4529 37.1298C43.6038 37.5606 43.8413 38.0575 44.1652 38.6204C44.5032 39.2084 44.8106 40.004 45.0873 41.0071C45.1078 41.081 45.151 41.1369 45.2171 41.1746C45.3696 41.2611 45.4631 41.3829 45.4977 41.5402C45.5134 41.6172 45.4985 41.688 45.4529 41.7524C45.3586 41.8798 45.3421 42.0095 45.4034 42.1416C45.471 42.2847 45.5071 42.3641 45.5119 42.3798C45.6282 42.7729 45.7194 43.1707 45.7855 43.5732C45.7917 43.6141 45.857 43.8421 45.9812 44.2572C46.0378 44.4458 46.0457 44.6439 46.0048 44.8515C45.9891 44.9364 46.0009 45.0166 46.0402 45.0921C46.2493 45.5009 46.3751 45.945 46.4175 46.4246C46.4189 46.4401 46.4249 46.4547 46.4346 46.4667C46.4444 46.4787 46.4575 46.4876 46.4725 46.4924C46.4874 46.4971 46.5035 46.4975 46.5189 46.4934C46.5343 46.4893 46.5482 46.481 46.559 46.4694C46.8499 46.1439 47.0457 46.0378 47.1463 46.151Z" fill="#FF0151"/>
<path d="M8.56604 38.625C9.72642 40.3687 11.3333 41.6454 13.3868 42.4552C13.4104 42.9906 12.9481 43.1486 12.6675 43.4222C11.07 44.9788 10.077 46.8608 9.68868 49.0684C9.63994 49.3436 9.53774 49.5134 9.38208 49.5778C9.21541 49.647 8.99135 49.6753 8.70991 49.6627C6.80425 49.2209 5.13129 48.3357 3.69104 47.0071C3.90645 46.9442 4.02516 46.8601 4.04717 46.7547C4.19812 46.0142 4.42139 45.2972 4.71698 44.6038C4.72956 44.5755 4.72878 44.548 4.71463 44.5212L4.68161 44.4599C4.67689 44.4505 4.68003 44.434 4.69104 44.4104C4.92532 43.8899 5.17374 43.3766 5.43632 42.8703C5.5511 42.6502 5.79717 42.2972 6.17453 41.8113C6.55896 41.316 6.70283 40.816 7.14151 40.3726C7.69183 39.8192 8.16667 39.2366 8.56604 38.625Z" fill="#FF7D47"/>
<path d="M13.3868 42.4551C14.5111 42.8277 15.7288 43.0156 17.0401 43.0188C21.0008 43.0282 24.9717 43.0313 28.9529 43.0282L28.3774 43.2098C28.3564 43.2162 28.3371 43.2273 28.3209 43.242C28.3047 43.2568 28.292 43.275 28.2836 43.2953C28.2753 43.3156 28.2716 43.3375 28.2727 43.3594C28.2738 43.3813 28.2798 43.4027 28.2901 43.4221C28.8373 44.4535 29.3239 45.5133 29.75 46.6013C29.8727 46.9126 29.8326 47.1956 29.9411 47.5046C30.048 47.8128 30.1062 48.0313 30.1156 48.1603C30.1549 48.6634 30.1565 49.1681 30.1203 49.6744C30.114 49.7546 30.1494 49.8057 30.2265 49.8277L30.5967 49.9339L24.5401 49.9362C24.4993 49.8607 24.4112 49.8309 24.276 49.8466C24.221 49.8529 24.1942 49.8277 24.1958 49.7711C24.1958 49.7255 24.2068 49.6823 24.2288 49.6414C24.2488 49.6014 24.2562 49.5554 24.25 49.5093C23.9513 47.2971 22.8688 45.7483 21.0024 44.8631C20.4112 44.5832 19.7556 44.4221 19.0354 44.3796C18.2618 44.3356 17.5771 44.3938 16.9812 44.5541C15.7752 44.8812 14.754 45.6359 13.9175 46.8183C13.4411 47.4912 13.0386 48.5321 12.71 49.9409C11.2587 50.0133 9.92537 49.9205 8.70996 49.6626C8.99141 49.6752 9.21546 49.6469 9.38213 49.5777C9.53779 49.5133 9.63999 49.3434 9.68873 49.0683C10.0771 46.8607 11.07 44.9787 12.6675 43.4221C12.9482 43.1485 13.4104 42.9905 13.3868 42.4551Z" fill="#FFA34B"/>
<path d="M36.6698 42.4507C36.4686 42.6126 36.4238 42.7974 36.5354 43.0049C36.8955 43.6653 37.1635 44.1386 37.3396 44.4247C37.3774 44.4876 37.3994 44.5552 37.4057 44.6276C37.4403 45.0002 37.5039 45.3666 37.5967 45.7266C37.7099 46.1653 37.7807 46.5442 37.809 46.8634C37.8514 47.3288 37.912 47.7911 37.9906 48.2502C38.0849 48.8045 37.651 49.6559 38.4316 49.8823L36.9033 49.9129L34.6415 49.8988C34.5236 49.8976 34.4108 49.851 34.3268 49.7687C34.2428 49.6865 34.1941 49.575 34.1911 49.4578C34.136 47.3729 33.728 45.3611 32.967 43.4224C32.9371 43.3453 32.9623 43.2958 33.0425 43.2738L34.092 42.9931L36.6698 42.4507Z" fill="#FF4F44"/>
<path d="M34.092 42.9927L33.0425 43.2733C32.9623 43.2953 32.9371 43.3449 32.967 43.4219C33.728 45.3606 34.136 47.3724 34.1911 49.4573C34.1941 49.5745 34.2428 49.686 34.3268 49.7683C34.4108 49.8506 34.5236 49.8972 34.6415 49.8983L36.9033 49.9125L30.5967 49.9337L30.2264 49.8276C30.1494 49.8056 30.114 49.7545 30.1203 49.6743C30.1565 49.168 30.1549 48.6633 30.1156 48.1601C30.1062 48.0312 30.048 47.8126 29.9411 47.5045C29.8326 47.1955 29.8727 46.9125 29.75 46.6012C29.3239 45.5131 28.8373 44.4534 28.2901 43.4219C28.2797 43.4026 28.2738 43.3812 28.2727 43.3593C28.2715 43.3374 28.2753 43.3155 28.2836 43.2952C28.292 43.2749 28.3047 43.2567 28.3209 43.2419C28.3371 43.2271 28.3564 43.2161 28.3774 43.2097L28.9528 43.0281L34.092 42.9927Z" fill="#FF6C46"/>
<path d="M24.5401 49.9366L12.71 49.9413C13.0386 48.5325 13.4411 47.4916 13.9175 46.8186C14.754 45.6362 15.7752 44.8815 16.9812 44.5545C17.5771 44.3941 18.2618 44.3359 19.0354 44.3799C19.7556 44.4224 20.4112 44.5836 21.0024 44.8634C22.8688 45.7487 23.9513 47.2974 24.2501 49.5097C24.2562 49.5558 24.2488 49.6018 24.2288 49.6417C24.2068 49.6826 24.1958 49.7259 24.1958 49.7715C24.1942 49.8281 24.221 49.8532 24.276 49.8469C24.4112 49.8312 24.4993 49.8611 24.5401 49.9366Z" fill="#FFC54F"/>
</g>
<defs>
<clipPath id="clip0_117_3262">
<rect width="50" height="50" fill="white"/>
</clipPath>
</defs>
</svg>
