<svg width="371" height="371" viewBox="0 0 371 371" fill="none" xmlns="http://www.w3.org/2000/svg">
<circle cx="185.5" cy="185.5" r="185.5" fill="black"/>
<path d="M156 185L156 285L116 285L116 185L156 185Z" fill="white"/>
<path d="M156 125L156 165L116 165L116 125L156 125Z" fill="white"/>
<path d="M121 95L131 95C142.046 95 151 103.954 151 115V115L141 115C129.954 115 121 106.046 121 95V95Z" fill="white"/>
<path d="M156 105L186 105C213.614 105 236 127.386 236 155V155C236 182.614 213.614 205 186 205L156 205" stroke="white" stroke-width="40"/>
<path d="M241.505 87.47V89.525H238.715V98H236.15V89.525H233.36V87.47H241.505ZM254.717 87.47V98H252.152V91.685L249.797 98H247.727L245.357 91.67V98H242.792V87.47H245.822L248.777 94.76L251.702 87.47H254.717Z" fill="white"/>
</svg>
