<svg width="34" height="28" viewBox="0 0 34 28" fill="none" xmlns="http://www.w3.org/2000/svg">
<path fill-rule="evenodd" clip-rule="evenodd" d="M27.8536 8.37341C27.8536 8.30807 27.8251 8.2911 27.768 8.3225C24.12 10.2901 20.4988 12.2408 16.9044 14.1745C15.5444 14.9063 14.7941 15.0412 13.4699 14.3196C10.8461 12.8924 8.2232 11.4653 5.60115 10.0381C5.24751 9.84553 5.01103 9.65929 4.89173 9.47941C4.51338 8.91177 4.7882 8.14559 5.38896 7.87577C5.82228 7.68104 6.17251 7.80195 6.60582 8.03613C9.36081 9.53201 12.1141 11.03 14.8657 12.5301C15.0498 12.6298 15.2912 12.4999 15.4849 12.3957L15.5048 12.385C19.5789 10.1892 23.667 7.9865 27.7693 5.77704C27.801 5.76016 27.8271 5.73425 27.8441 5.70255C27.8612 5.67085 27.8685 5.63478 27.8651 5.59886C27.8523 5.45586 27.8525 5.30323 27.8526 5.15051C27.8528 4.92263 27.853 4.69455 27.8102 4.49795C27.5937 3.50183 27.062 2.84807 26.215 2.53668C25.8468 2.40177 25.1506 2.33474 24.1263 2.33559C17.8793 2.34238 11.6318 2.3428 5.38385 2.33686C4.80013 2.33686 4.34892 2.39371 4.03022 2.50741C3.25136 2.78571 2.73581 3.2965 2.48357 4.03977C2.36598 4.38765 2.30803 5.06177 2.30974 6.06213C2.31314 8.1791 2.31314 10.2961 2.30974 12.413C2.30888 12.7949 2.25605 13.0791 2.15124 13.2658C1.58243 14.284 0.0715775 13.813 0.0690211 12.632C0.0639082 9.99147 0.0639082 7.35098 0.0690211 4.7105C0.0728557 2.63468 1.69747 0.817226 3.63908 0.28268C4.05493 0.168983 4.63822 0.111287 5.38896 0.10959C16.0084 0.09262 22.6803 0.0917714 25.4046 0.107044C27.552 0.119771 29.3952 1.69032 29.9371 3.71395C30.1173 4.38539 30.1116 5.17489 30.1062 5.921V5.92102L30.1062 5.92198C30.1055 6.01703 30.1049 6.11137 30.1046 6.20468C30.0943 9.30165 30.0939 12.3986 30.1033 15.4956C30.1071 17.1374 27.8498 17.0458 27.8524 15.6241C27.8549 13.1873 27.8553 10.7704 27.8536 8.37341ZM4.03279 21.5627C4.20663 21.634 4.55814 21.7015 4.79589 21.7027C8.08857 21.7138 11.3813 21.7142 14.674 21.704C15.1051 21.7031 15.4221 21.7553 15.6249 21.8605C16.6539 22.3938 16.2334 23.9478 15.051 23.9478C11.6629 23.9487 8.27477 23.9487 4.88664 23.9478C2.46825 23.9465 0.494687 22.1851 0.124004 19.8216C0.0473934 19.3382 0.053432 18.7506 0.0593348 18.1762C0.0616063 17.9552 0.0638577 17.7361 0.0613713 17.5256C0.0554063 17.0157 0.0873617 16.6636 0.157238 16.4693C0.587997 15.2665 2.34043 15.6624 2.32382 16.9885C2.3212 17.2063 2.31377 17.4255 2.30635 17.6441C2.25218 19.2418 2.19899 20.8104 4.03279 21.5627ZM27.7437 20.0747C28.255 20.5914 28.7612 21.1124 29.2622 21.6376C29.3023 21.6792 29.2933 21.7004 29.2354 21.7013C26.2222 21.7148 23.209 21.7161 20.1958 21.7051C19.6973 21.7025 19.3228 21.8018 19.0454 22.1874C18.6377 22.7525 18.8435 23.5633 19.4979 23.8356C19.6845 23.9137 19.996 23.9523 20.4323 23.9514C23.3892 23.9472 26.3453 23.9455 29.3006 23.9464C29.3073 23.9466 29.3139 23.9487 29.3195 23.9525C29.3252 23.9563 29.3295 23.9615 29.3321 23.9677C29.3347 23.9738 29.3354 23.9805 29.3341 23.9869C29.3328 23.9933 29.3296 23.9991 29.3249 24.0036C28.7573 24.5874 28.1932 25.1792 27.6325 25.7791C27.3453 26.0854 27.1728 26.3387 27.1148 26.5389C26.895 27.3076 27.7501 28.0916 28.4915 27.8689C28.7224 27.8002 28.9917 27.6037 29.2993 27.2796C30.4292 26.0909 31.5609 24.9039 32.6942 23.7185C33.3525 23.03 33.2234 22.4802 32.5766 21.8196C31.4441 20.6648 30.3163 19.5054 29.1932 18.3413C28.8481 17.9836 28.5387 17.7787 28.0594 17.8538C27.3781 17.9582 26.9065 18.6544 27.1698 19.3213C27.2448 19.513 27.4361 19.7642 27.7437 20.0747Z" fill="#7CFFC4"/>
</svg>
