<svg width="35" height="35" viewBox="0 0 35 35" fill="none" xmlns="http://www.w3.org/2000/svg">
<path d="M20.58 22.3709C22.3517 21.3038 24.1939 18.8375 26.5294 20.1764C30.0997 22.2367 32.6197 24.0017 34.0894 25.4714C37.1698 28.5719 31.613 33.9978 28.734 34.7528C26.8414 35.2427 24.4422 35.0045 21.5363 34.0381C11.3557 30.6423 4.53053 23.8876 1.06091 13.774C-1.0128 7.73407 -0.388675 2.57998 6.02374 0.164003C9.38598 -1.10439 12.9093 5.32816 14.3991 7.64348C16.2011 10.442 15.1441 11.6097 13.2113 13.6834C12.7281 14.2002 12.7247 14.7169 13.2012 15.2337L19.6539 22.24C19.9223 22.5353 20.231 22.5789 20.58 22.3709ZM24.7778 23.4581C22.9255 24.8573 20.6203 27.6156 18.0936 25.3506C16.6775 24.0755 13.973 21.1595 9.97991 16.6027C7.74513 14.0559 9.87924 12.1734 11.5604 10.3917C11.8624 10.0762 11.8825 9.74404 11.6208 9.39506L7.55386 3.85844C7.31897 3.53631 7.02369 3.46584 6.668 3.64704C3.70842 5.12347 2.66821 7.48241 3.54736 10.7239C5.88281 19.3341 10.9295 25.562 18.6875 29.4074C23.1168 31.5919 27.6065 33.3334 31.0191 29.0551C31.14 28.9009 31.2283 28.7238 31.2787 28.5346C31.3292 28.3455 31.3406 28.1483 31.3123 27.9551C31.284 27.7619 31.2167 27.5768 31.1143 27.4111C31.012 27.2454 30.8768 27.1026 30.7171 26.9915L25.6033 23.438C25.4826 23.3533 25.3376 23.3096 25.1892 23.3133C25.0408 23.3169 24.8967 23.3676 24.7778 23.4581Z" fill="#302F4D"/>
</svg>
