<svg width="50" height="50" viewBox="0 0 50 50" fill="none" xmlns="http://www.w3.org/2000/svg">
<g clip-path="url(#clip0_117_3292)">
<path d="M49.8038 25.0001C49.8038 31.5785 47.1905 37.8874 42.5389 42.539C37.8873 47.1906 31.5783 49.8039 25 49.8039C18.4216 49.8039 12.1126 47.1906 7.46103 42.539C2.80942 37.8874 0.196167 31.5785 0.196167 25.0001C0.196167 18.4217 2.80942 12.1128 7.46103 7.46115C12.1126 2.80954 18.4216 0.196289 25 0.196289C31.5783 0.196289 37.8873 2.80954 42.5389 7.46115C47.1905 12.1128 49.8038 18.4217 49.8038 25.0001ZM15.0865 27.46L18.4198 36.9326C18.8333 37.4516 19.232 37.517 19.616 37.1288C20.9986 35.7307 22.3966 34.3679 23.8101 33.0402C25.8059 34.7448 27.7637 36.3826 29.6835 37.9537C30.9367 38.979 32.4008 38.9452 32.7637 37.0992C34.2967 29.2877 35.8242 21.4755 37.346 13.6625C37.3811 13.4797 37.3713 13.2525 37.3164 12.9811C37.3024 12.9094 37.2651 12.8545 37.2046 12.8165C36.654 12.4769 35.7637 12.7047 35.2299 12.9157C26.4395 16.4108 17.6491 19.9052 8.85861 23.3988C7.00418 24.1372 7.49153 25.4262 9.14132 25.8672C11.0415 26.3763 13.0232 26.9073 15.0865 27.46Z" fill="#00B2F5"/>
<path d="M23.8102 33.0403L20.1266 29.9749C20.1407 29.9467 20.1505 29.9172 20.1562 29.8862C20.166 29.8314 20.1913 29.7857 20.2321 29.7491C24.1913 26.0881 28.152 22.4298 32.114 18.7744C32.3946 18.5149 32.5254 18.2955 32.3988 17.9263C32.1815 17.2997 31.5887 17.5951 31.1773 17.8398C25.8158 21.0452 20.4522 24.2519 15.0865 27.4601C13.0233 26.9073 11.0415 26.3764 9.1414 25.8673C7.49161 25.4263 7.00426 24.1373 8.85869 23.3989C17.6491 19.9052 26.4396 16.4109 35.23 12.9158C35.7638 12.7048 36.6541 12.477 37.2047 12.8166C37.2652 12.8546 37.3025 12.9094 37.3165 12.9812C37.3714 13.2526 37.3812 13.4798 37.3461 13.6626C35.8243 21.4756 34.2968 29.2878 32.7638 37.0993C32.4009 38.9453 30.9368 38.9791 29.6836 37.9538C27.7638 36.3827 25.806 34.7449 23.8102 33.0403Z" fill="white"/>
<path d="M20.1266 29.9748C20.0043 29.9368 19.9325 29.9832 19.9114 30.114C19.5669 32.2884 19.2117 34.46 18.846 36.6288C18.7982 36.9101 18.6562 37.0113 18.4199 36.9326L15.0865 27.46C20.4522 24.2518 25.8158 21.0451 31.1773 17.8398C31.5886 17.595 32.1815 17.2997 32.3988 17.9263C32.5254 18.2954 32.3946 18.5149 32.114 18.7744C28.1519 22.4298 24.1913 26.088 20.2321 29.749C20.1913 29.7856 20.166 29.8313 20.1562 29.8862C20.1505 29.9171 20.1407 29.9466 20.1266 29.9748Z" fill="#CBD7DB"/>
<path d="M20.1266 29.9747L23.8101 33.0401C22.3966 34.3678 20.9986 35.7307 19.616 37.1287C19.232 37.5169 18.8333 37.4515 18.4198 36.9325C18.6561 37.0113 18.7981 36.91 18.846 36.6287C19.2116 34.46 19.5668 32.2884 19.9114 30.114C19.9325 29.9832 20.0042 29.9368 20.1266 29.9747Z" fill="#ABBEC4"/>
</g>
<defs>
<clipPath id="clip0_117_3292">
<rect width="50" height="50" fill="white"/>
</clipPath>
</defs>
</svg>
