<svg width="50" height="50" viewBox="0 0 50 50" fill="none" xmlns="http://www.w3.org/2000/svg">
<g clip-path="url(#clip0_117_3257)">
<path d="M49.7785 23.5761C50.4409 35.3883 42.2532 46.2702 30.6645 48.9242C24.943 50.235 19.3783 49.5944 13.9705 47.0022C13.6983 46.8714 13.4472 46.8609 13.135 46.9411C7.59633 48.3728 4.07101 49.2948 2.55906 49.7069C1.87973 49.8904 1.19197 50.1098 0.571716 49.7681C0.0569476 49.4854 -0.10339 48.9952 0.0907031 48.2976C1.1329 44.555 2.16947 40.811 3.20041 37.0655C3.24963 36.8883 3.23205 36.7195 3.14767 36.5592C1.09 32.6225 0.118129 28.4692 0.232053 24.0993C0.417707 17.1014 3.73205 10.5001 9.0253 6.01068C16.9135 -0.683408 28.3122 -1.66442 37.3017 3.41364C44.5991 7.536 49.3101 15.2406 49.7785 23.5761ZM19.9156 1.99803C4.63712 5.41153 -3.09706 22.3989 4.38184 36.2132C4.53937 36.5044 4.58086 36.7871 4.50632 37.0613C3.45709 40.8616 2.40505 44.6823 1.3502 48.5233C1.34474 48.5433 1.34462 48.5644 1.34985 48.5844C1.35508 48.6044 1.36548 48.6227 1.38001 48.6374C1.39453 48.6522 1.41268 48.6628 1.43262 48.6684C1.45257 48.6739 1.47362 48.6741 1.49366 48.6689C5.47256 47.6253 9.47889 46.5866 13.5126 45.5529C13.6941 45.5065 13.8495 45.5163 13.9789 45.5824C19.2721 48.2955 25.3186 49.0444 31.0654 47.5212C40.0991 45.1267 47.1034 37.3925 48.2869 28.0339C49.2532 20.4052 46.7384 12.9727 41.0591 7.75541C35.3945 2.55288 27.6308 0.274398 19.9156 1.99803Z" fill="#CBD7DB"/>
<path d="M4.3819 36.2129C-3.097 22.3985 4.63718 5.4112 19.9157 1.9977C27.6308 0.274071 35.3945 2.55255 41.0591 7.75508C46.7384 12.9724 49.2532 20.4049 48.287 28.0336C47.1034 37.3922 40.0992 45.1264 31.0654 47.5209C25.3186 49.0441 19.2722 48.2952 13.9789 45.5821C13.8495 45.516 13.6941 45.5061 13.5127 45.5526C9.47894 46.5863 5.47262 47.625 1.49371 48.6686C1.47367 48.6738 1.45263 48.6736 1.43268 48.668C1.41274 48.6625 1.39459 48.6519 1.38007 48.6371C1.36554 48.6224 1.35514 48.6041 1.34991 48.5841C1.34467 48.564 1.34479 48.543 1.35025 48.523C2.40511 44.6819 3.45715 40.8613 4.50637 37.061C4.58092 36.7867 4.53942 36.504 4.3819 36.2129ZM26.2384 5.40698C9.99582 4.48504 -0.244682 22.3374 8.85869 35.9091C8.87196 35.9291 8.88088 35.9516 8.88488 35.9752C8.88888 35.9988 8.88786 36.023 8.8819 36.0462L6.95152 43.0315C6.94786 43.0441 6.94808 43.0573 6.95215 43.0698C6.95623 43.0824 6.96402 43.0937 6.97473 43.1027C6.98544 43.1117 6.99869 43.118 7.01314 43.1211C7.02759 43.1241 7.04272 43.1238 7.057 43.1201C9.39737 42.5687 11.7265 41.9759 14.0443 41.3416C14.2539 41.2839 14.4058 41.2839 14.5 41.3416C19.2342 44.2572 24.23 45.1053 29.4874 43.8859C39.1519 41.6433 45.6941 32.2846 44.4431 22.4133C43.2743 13.1918 35.5697 5.93441 26.2384 5.40698Z" fill="white"/>
<path d="M26.2384 5.40735C35.5696 5.93478 43.2742 13.1922 44.443 22.4137C45.6941 32.285 39.1519 41.6437 29.4873 43.8863C24.2299 45.1057 19.2341 44.2576 14.5 41.342C14.4057 41.2843 14.2538 41.2843 14.0443 41.342C11.7264 41.9763 9.39729 42.5691 7.05693 43.1204C7.04264 43.1242 7.02751 43.1245 7.01306 43.1215C6.99861 43.1184 6.98536 43.1121 6.97465 43.1031C6.96394 43.0941 6.95615 43.0827 6.95207 43.0702C6.948 43.0577 6.94778 43.0445 6.95144 43.0318L8.88182 36.0466C8.88778 36.0234 8.8888 35.9992 8.8848 35.9756C8.8808 35.9519 8.87188 35.9294 8.85861 35.9095C-0.244762 22.3377 9.99574 4.48541 26.2384 5.40735ZM19.2489 23.5466C19.0647 23.2175 19.0513 22.9678 19.2088 22.7977C19.6012 22.3687 20.0647 21.8117 20.5991 21.1268C21.346 20.1711 20.9979 19.6036 20.5358 18.4643C20.0604 17.2927 19.5717 16.1275 19.0696 14.9685C18.6223 13.9369 17.7742 14.0065 16.7173 14.0614C14.8249 14.1584 13.4979 16.7533 13.1835 18.3525C12.8727 19.9446 13.1547 21.5733 14.0295 23.2386C15.7524 26.5143 18.0091 29.3265 20.7995 31.6753C23.3565 33.8293 26.3059 35.0719 29.54 35.8546C31.6976 36.3778 33.5696 36.0347 35.1561 34.8251C36.5337 33.7745 37.0886 32.2576 36.8797 30.5719C36.8719 30.5095 36.849 30.4498 36.813 30.398C36.777 30.3462 36.7289 30.3038 36.673 30.2745C35.0246 29.4123 33.327 28.6155 31.5801 27.8842C31.1019 27.6844 30.7201 27.7773 30.4346 28.1626C29.8649 28.9292 29.2616 29.6676 28.6244 30.3778C28.2616 30.785 27.9219 30.8842 27.424 30.688C23.8403 29.2618 21.1153 26.8813 19.2489 23.5466Z" fill="#00D54E"/>
<path d="M19.2489 23.5465C21.1153 26.8813 23.8403 29.2617 27.424 30.6879C27.9219 30.8841 28.2616 30.7849 28.6244 30.3778C29.2616 29.6675 29.8649 28.9291 30.4346 28.1626C30.7201 27.7772 31.1019 27.6844 31.5801 27.8841C33.327 28.6154 35.0246 29.4122 36.673 30.2744C36.7289 30.3038 36.777 30.3462 36.813 30.3979C36.849 30.4497 36.8719 30.5094 36.8797 30.5718C37.0886 32.2575 36.5337 33.7744 35.1561 34.825C33.5696 36.0346 31.6976 36.3778 29.5401 35.8545C26.3059 35.0718 23.3565 33.8292 20.7995 31.6752C18.0091 29.3264 15.7524 26.5142 14.0295 23.2385C13.1547 21.5733 12.8727 19.9446 13.1835 18.3524C13.4979 16.7533 14.8249 14.1583 16.7173 14.0613C17.7742 14.0064 18.6223 13.9368 19.0696 14.9685C19.5717 16.1274 20.0604 17.2927 20.5358 18.4643C20.9979 19.6035 21.346 20.171 20.5991 21.1267C20.0647 21.8117 19.6012 22.3686 19.2088 22.7976C19.0513 22.9678 19.0647 23.2174 19.2489 23.5465Z" fill="white"/>
</g>
<defs>
<clipPath id="clip0_117_3257">
<rect width="50" height="50" fill="white"/>
</clipPath>
</defs>
</svg>
