<svg width="90" height="91" viewBox="0 0 90 91" fill="none" xmlns="http://www.w3.org/2000/svg">
<circle cx="45" cy="45.5" r="45" fill="#F896D8"/>
<path d="M29.5 70V59.25C27.125 57.0833 25.2812 54.5521 23.9688 51.6562C22.6562 48.7604 22 45.7083 22 42.5C22 36.25 24.1875 30.9375 28.5625 26.5625C32.9375 22.1875 38.25 20 44.5 20C49.7083 20 54.3229 21.5312 58.3438 24.5938C62.3646 27.6562 64.9792 31.6458 66.1875 36.5625L69.4375 49.375C69.6458 50.1667 69.5 50.8854 69 51.5312C68.5 52.1771 67.8333 52.5 67 52.5H62V60C62 61.375 61.5104 62.5521 60.5312 63.5312C59.5521 64.5104 58.375 65 57 65H52V70H47V60H57V47.5H63.75L61.375 37.8125C60.4167 34.0208 58.375 30.9375 55.25 28.5625C52.125 26.1875 48.5417 25 44.5 25C39.6667 25 35.5417 26.6875 32.125 30.0625C28.7083 33.4375 27 37.5417 27 42.375C27 44.875 27.5104 47.25 28.5312 49.5C29.5521 51.75 31 53.75 32.875 55.5L34.5 57V70H29.5ZM42 52.5H47L47.375 49.375C47.7083 49.25 48.0104 49.1042 48.2812 48.9375C48.5521 48.7708 48.7917 48.5833 49 48.375L51.875 49.625L54.375 45.375L51.875 43.5C51.9583 43.1667 52 42.8333 52 42.5C52 42.1667 51.9583 41.8333 51.875 41.5L54.375 39.625L51.875 35.375L49 36.625C48.7917 36.4167 48.5521 36.2292 48.2812 36.0625C48.0104 35.8958 47.7083 35.75 47.375 35.625L47 32.5H42L41.625 35.625C41.2917 35.75 40.9896 35.8958 40.7188 36.0625C40.4479 36.2292 40.2083 36.4167 40 36.625L37.125 35.375L34.625 39.625L37.125 41.5C37.0417 41.8333 37 42.1667 37 42.5C37 42.8333 37.0417 43.1667 37.125 43.5L34.625 45.375L37.125 49.625L40 48.375C40.2083 48.5833 40.4479 48.7708 40.7188 48.9375C40.9896 49.1042 41.2917 49.25 41.625 49.375L42 52.5ZM44.5 46.25C43.4583 46.25 42.5729 45.8854 41.8438 45.1562C41.1146 44.4271 40.75 43.5417 40.75 42.5C40.75 41.4583 41.1146 40.5729 41.8438 39.8438C42.5729 39.1146 43.4583 38.75 44.5 38.75C45.5417 38.75 46.4271 39.1146 47.1562 39.8438C47.8854 40.5729 48.25 41.4583 48.25 42.5C48.25 43.5417 47.8854 44.4271 47.1562 45.1562C46.4271 45.8854 45.5417 46.25 44.5 46.25Z" fill="#302F4D"/>
</svg>
