<svg width="90" height="91" viewBox="0 0 90 91" fill="none" xmlns="http://www.w3.org/2000/svg">
<circle cx="45" cy="45.5" r="45" fill="#FEDA39"/>
<path d="M36 68V65.8125L41.25 60.5H23.75C22.75 60.5 21.875 60.125 21.125 59.375C20.375 58.625 20 57.75 20 56.75V26.75C20 25.75 20.375 24.875 21.125 24.125C21.875 23.375 22.75 23 23.75 23H66.25C67.25 23 68.125 23.375 68.875 24.125C69.625 24.875 70 25.75 70 26.75V56.75C70 57.75 69.625 58.625 68.875 59.375C68.125 60.125 67.25 60.5 66.25 60.5H48.75L54 65.8125V68H36ZM23.75 50.75H66.25V26.75H23.75V50.75Z" fill="#302F4D"/>
</svg>
