<svg width="90" height="91" viewBox="0 0 90 91" fill="none" xmlns="http://www.w3.org/2000/svg">
<circle cx="45" cy="45.5" r="45" fill="#7CFFC4"/>
<path d="M21.1364 60.5929L17 57.5714L29.7273 37L37.3636 46L47.5455 29.2857L54.4818 39.7643C53.5061 39.8071 52.5833 39.925 51.7136 40.1179C50.8439 40.3107 49.9848 40.5786 49.1364 40.9214L47.7364 38.8L38.0636 54.6786L30.3636 45.6143L21.1364 60.5929ZM69.3727 73L61.4182 64.9643C60.5697 65.5643 59.6258 66.0143 58.5864 66.3143C57.547 66.6143 56.4758 66.7643 55.3727 66.7643C52.1909 66.7643 49.4864 65.6393 47.2591 63.3893C45.0318 61.1393 43.9182 58.4071 43.9182 55.1929C43.9182 51.9786 45.0318 49.2464 47.2591 46.9964C49.4864 44.7464 52.1909 43.6214 55.3727 43.6214C58.5545 43.6214 61.2591 44.7464 63.4864 46.9964C65.7136 49.2464 66.8273 51.9786 66.8273 55.1929C66.8273 56.3071 66.6788 57.3893 66.3818 58.4393C66.0848 59.4893 65.6394 60.4643 65.0455 61.3643L73 69.3357L69.3727 73ZM55.3727 61.6214C57.1545 61.6214 58.6606 61 59.8909 59.7571C61.1212 58.5143 61.7364 56.9929 61.7364 55.1929C61.7364 53.3929 61.1212 51.8714 59.8909 50.6286C58.6606 49.3857 57.1545 48.7643 55.3727 48.7643C53.5909 48.7643 52.0848 49.3857 50.8545 50.6286C49.6242 51.8714 49.0091 53.3929 49.0091 55.1929C49.0091 56.9929 49.6242 58.5143 50.8545 59.7571C52.0848 61 53.5909 61.6214 55.3727 61.6214ZM61.0364 41.05C60.2303 40.7071 59.3924 40.4286 58.5227 40.2143C57.653 40 56.7515 39.8714 55.8182 39.8286L68.8636 19L73 22.0214L61.0364 41.05Z" fill="#302F4D"/>
</svg>
