<svg width="90" height="91" viewBox="0 0 90 91" fill="none" xmlns="http://www.w3.org/2000/svg">
<circle cx="45" cy="45.5" r="45" fill="#B5CCE1"/>
<path d="M13 62V57.8C13 55.8889 13.9778 54.3333 15.9333 53.1333C17.8889 51.9333 20.4667 51.3333 23.6667 51.3333C24.2444 51.3333 24.8 51.3444 25.3333 51.3667C25.8667 51.3889 26.3778 51.4444 26.8667 51.5333C26.2444 52.4667 25.7778 53.4444 25.4667 54.4667C25.1556 55.4889 25 56.5556 25 57.6667V62H13ZM29 62V57.6667C29 56.2444 29.3889 54.9444 30.1667 53.7667C30.9444 52.5889 32.0444 51.5556 33.4667 50.6667C34.8889 49.7778 36.5889 49.1111 38.5667 48.6667C40.5444 48.2222 42.6889 48 45 48C47.3556 48 49.5222 48.2222 51.5 48.6667C53.4778 49.1111 55.1778 49.7778 56.6 50.6667C58.0222 51.5556 59.1111 52.5889 59.8667 53.7667C60.6222 54.9444 61 56.2444 61 57.6667V62H29ZM65 62V57.6667C65 56.5111 64.8556 55.4222 64.5667 54.4C64.2778 53.3778 63.8444 52.4222 63.2667 51.5333C63.7556 51.4444 64.2556 51.3889 64.7667 51.3667C65.2778 51.3444 65.8 51.3333 66.3333 51.3333C69.5333 51.3333 72.1111 51.9222 74.0667 53.1C76.0222 54.2778 77 55.8444 77 57.8V62H65ZM34.6667 56.6667H55.4C54.9556 55.7778 53.7222 55 51.7 54.3333C49.6778 53.6667 47.4444 53.3333 45 53.3333C42.5556 53.3333 40.3222 53.6667 38.3 54.3333C36.2778 55 35.0667 55.7778 34.6667 56.6667ZM23.6667 48.6667C22.2 48.6667 20.9444 48.1444 19.9 47.1C18.8556 46.0556 18.3333 44.8 18.3333 43.3333C18.3333 41.8222 18.8556 40.5556 19.9 39.5333C20.9444 38.5111 22.2 38 23.6667 38C25.1778 38 26.4444 38.5111 27.4667 39.5333C28.4889 40.5556 29 41.8222 29 43.3333C29 44.8 28.4889 46.0556 27.4667 47.1C26.4444 48.1444 25.1778 48.6667 23.6667 48.6667ZM66.3333 48.6667C64.8667 48.6667 63.6111 48.1444 62.5667 47.1C61.5222 46.0556 61 44.8 61 43.3333C61 41.8222 61.5222 40.5556 62.5667 39.5333C63.6111 38.5111 64.8667 38 66.3333 38C67.8444 38 69.1111 38.5111 70.1333 39.5333C71.1556 40.5556 71.6667 41.8222 71.6667 43.3333C71.6667 44.8 71.1556 46.0556 70.1333 47.1C69.1111 48.1444 67.8444 48.6667 66.3333 48.6667ZM45 46C42.7778 46 40.8889 45.2222 39.3333 43.6667C37.7778 42.1111 37 40.2222 37 38C37 35.7333 37.7778 33.8333 39.3333 32.3C40.8889 30.7667 42.7778 30 45 30C47.2667 30 49.1667 30.7667 50.7 32.3C52.2333 33.8333 53 35.7333 53 38C53 40.2222 52.2333 42.1111 50.7 43.6667C49.1667 45.2222 47.2667 46 45 46ZM45 40.6667C45.7556 40.6667 46.3889 40.4111 46.9 39.9C47.4111 39.3889 47.6667 38.7556 47.6667 38C47.6667 37.2444 47.4111 36.6111 46.9 36.1C46.3889 35.5889 45.7556 35.3333 45 35.3333C44.2444 35.3333 43.6111 35.5889 43.1 36.1C42.5889 36.6111 42.3333 37.2444 42.3333 38C42.3333 38.7556 42.5889 39.3889 43.1 39.9C43.6111 40.4111 44.2444 40.6667 45 40.6667Z" fill="#302F4D"/>
</svg>
